<svg width="450" height="341" viewBox="0 0 450 316" fill="none" xmlns="http://www.w3.org/2000/svg">
<g style="mix-blend-mode:multiply" opacity="0.28">
<g opacity="0.3">
<path opacity="0.3" d="M157.186 189.862C156.99 189.862 156.842 189.861 156.695 189.816L144.792 208.91C145.186 209.32 145.432 209.821 145.432 210.414C145.432 211.644 144.35 212.647 143.022 212.647C141.94 212.647 141.055 212.009 140.759 211.097H116.857C116.562 212.009 115.627 212.647 114.595 212.647C113.267 212.647 112.185 211.644 112.185 210.414C112.185 209.821 112.431 209.32 112.824 208.91L100.873 189.77C100.725 189.816 100.528 189.816 100.381 189.816C99.053 189.816 97.9709 188.813 97.9709 187.583C97.9709 186.353 99.053 185.35 100.381 185.35C100.578 185.35 100.725 185.35 100.873 185.396L112.775 166.302C112.381 165.892 112.135 165.39 112.135 164.798C112.135 163.567 113.217 162.565 114.545 162.565C115.627 162.565 116.513 163.203 116.808 164.114H140.71C141.005 163.203 141.94 162.565 142.973 162.565C144.301 162.565 145.383 163.567 145.383 164.798C145.383 165.39 145.137 165.892 144.743 166.302L156.645 185.396C156.793 185.35 156.99 185.35 157.137 185.35C158.465 185.35 159.547 186.353 159.547 187.583C159.596 188.859 158.514 189.862 157.186 189.862ZM143.022 167.076C141.94 167.076 141.055 166.438 140.759 165.527H116.857C116.562 166.438 115.627 167.076 114.595 167.076C114.398 167.076 114.25 167.076 114.103 167.031L102.151 186.125C102.545 186.535 102.791 187.036 102.791 187.629C102.791 188.221 102.545 188.722 102.151 189.132L114.054 208.226C114.201 208.181 114.398 208.181 114.545 208.181C115.627 208.181 116.513 208.819 116.808 209.73H140.71C141.005 208.819 141.94 208.181 142.973 208.181C143.12 208.181 143.317 208.181 143.465 208.226L155.367 189.132C154.973 188.722 154.727 188.221 154.727 187.629C154.727 187.036 154.973 186.535 155.367 186.125L143.465 167.031C143.366 167.031 143.169 167.076 143.022 167.076Z" fill="#929496"/>
<path opacity="0.3" d="M204.991 164.844C204.795 164.844 204.647 164.844 204.5 164.798L192.597 183.892C192.991 184.302 193.237 184.803 193.237 185.396C193.237 186.626 192.155 187.629 190.827 187.629C189.745 187.629 188.86 186.991 188.565 186.079H164.662C164.367 186.991 163.432 187.629 162.4 187.629C161.072 187.629 159.99 186.626 159.99 185.396C159.99 184.803 160.236 184.302 160.629 183.892L148.727 164.798C148.579 164.844 148.383 164.844 148.235 164.844C146.907 164.844 145.825 163.841 145.825 162.611C145.825 161.38 146.907 160.378 148.235 160.378C148.432 160.378 148.579 160.378 148.727 160.423L160.629 141.329C160.236 140.919 159.99 140.418 159.99 139.825C159.99 138.595 161.072 137.593 162.4 137.593C163.482 137.593 164.367 138.231 164.662 139.142H188.565C188.86 138.231 189.794 137.593 190.827 137.593C192.155 137.593 193.237 138.595 193.237 139.825C193.237 140.418 192.991 140.919 192.597 141.329L204.5 160.423C204.647 160.378 204.844 160.378 204.991 160.378C206.319 160.378 207.401 161.38 207.401 162.611C207.401 163.841 206.319 164.844 204.991 164.844ZM190.827 142.058C189.745 142.058 188.86 141.42 188.565 140.509H164.662C164.367 141.42 163.432 142.058 162.4 142.058C162.203 142.058 162.055 142.058 161.908 142.013L150.006 161.107C150.399 161.517 150.645 162.018 150.645 162.611C150.645 163.203 150.399 163.704 150.006 164.114L161.908 183.208C162.055 183.163 162.252 183.163 162.4 183.163C163.482 183.163 164.367 183.801 164.662 184.712H188.565C188.86 183.801 189.794 183.163 190.827 183.163C190.974 183.163 191.171 183.163 191.319 183.208L203.221 164.114C202.827 163.704 202.581 163.203 202.581 162.611C202.581 162.018 202.827 161.517 203.221 161.107L191.319 142.013C191.171 142.058 190.974 142.058 190.827 142.058Z" fill="#929496"/>
<path opacity="0.3" d="M157.186 241.219C156.99 241.219 156.842 241.219 156.695 241.174L144.793 260.268C145.186 260.678 145.432 261.179 145.432 261.771C145.432 263.002 144.35 264.004 143.022 264.004C141.94 264.004 141.055 263.366 140.76 262.455H116.857C116.562 263.366 115.627 264.004 114.595 264.004C113.267 264.004 112.185 263.002 112.185 261.771C112.185 261.179 112.431 260.678 112.824 260.268L100.922 241.174C100.774 241.219 100.578 241.219 100.43 241.219C99.1023 241.219 98.0203 240.217 98.0203 238.986C98.0203 237.756 99.1023 236.753 100.43 236.753C100.627 236.753 100.774 236.753 100.922 236.799L112.824 217.705C112.431 217.295 112.185 216.794 112.185 216.201C112.185 214.971 113.267 213.968 114.595 213.968C115.677 213.968 116.562 214.606 116.857 215.518H140.76C141.055 214.606 141.989 213.968 143.022 213.968C144.35 213.968 145.432 214.971 145.432 216.201C145.432 216.794 145.186 217.295 144.793 217.705L156.695 236.799C156.842 236.753 157.039 236.753 157.186 236.753C158.514 236.753 159.596 237.756 159.596 238.986C159.596 240.217 158.514 241.219 157.186 241.219ZM143.022 218.434C141.94 218.434 141.055 217.796 140.76 216.885H116.857C116.562 217.796 115.627 218.434 114.595 218.434C114.398 218.434 114.25 218.434 114.103 218.388L102.201 237.482C102.594 237.893 102.84 238.394 102.84 238.986C102.84 239.579 102.594 240.08 102.201 240.49L114.103 259.584C114.25 259.538 114.447 259.538 114.595 259.538C115.677 259.538 116.562 260.176 116.857 261.088H140.76C141.055 260.176 141.989 259.538 143.022 259.538C143.17 259.538 143.366 259.538 143.514 259.584L155.416 240.49C155.022 240.08 154.777 239.579 154.777 238.986C154.777 238.394 155.022 237.893 155.416 237.482L143.514 218.388C143.366 218.434 143.17 218.434 143.022 218.434Z" fill="#929496"/>
<path opacity="0.3" d="M204.991 266.237C204.795 266.237 204.647 266.237 204.5 266.192L192.597 285.286C192.991 285.696 193.237 286.197 193.237 286.789C193.237 288.02 192.155 289.022 190.827 289.022C189.745 289.022 188.86 288.384 188.565 287.473H164.662C164.367 288.384 163.432 289.022 162.4 289.022C161.072 289.022 159.99 288.02 159.99 286.789C159.99 286.197 160.236 285.696 160.629 285.286L148.727 266.192C148.579 266.237 148.383 266.237 148.235 266.237C146.907 266.237 145.825 265.235 145.825 264.004C145.825 262.774 146.907 261.771 148.235 261.771C148.432 261.771 148.579 261.771 148.727 261.817L160.629 242.723C160.236 242.313 159.99 241.812 159.99 241.219C159.99 239.989 161.072 238.986 162.4 238.986C163.482 238.986 164.367 239.624 164.662 240.536H188.565C188.86 239.624 189.794 238.986 190.827 238.986C192.155 238.986 193.237 239.989 193.237 241.219C193.237 241.812 192.991 242.313 192.597 242.723L204.5 261.817C204.647 261.771 204.844 261.771 204.991 261.771C206.319 261.771 207.401 262.774 207.401 264.004C207.401 265.235 206.319 266.237 204.991 266.237ZM190.827 243.452C189.745 243.452 188.86 242.814 188.565 241.903H164.662C164.367 242.814 163.432 243.452 162.4 243.452C162.203 243.452 162.055 243.452 161.908 243.407L150.006 262.5C150.399 262.911 150.645 263.412 150.645 264.004C150.645 264.597 150.399 265.098 150.006 265.508L161.908 284.602C162.055 284.556 162.252 284.556 162.4 284.556C163.482 284.556 164.367 285.194 164.662 286.106H188.565C188.86 285.194 189.794 284.556 190.827 284.556C190.974 284.556 191.171 284.556 191.319 284.602L203.221 265.508C202.827 265.098 202.581 264.597 202.581 264.004C202.581 263.412 202.827 262.911 203.221 262.5L191.319 243.407C191.171 243.407 190.974 243.452 190.827 243.452Z" fill="#929496"/>
<path opacity="0.3" d="M253.141 189.862C252.944 189.862 252.797 189.861 252.649 189.816L240.747 208.91C241.14 209.32 241.386 209.821 241.386 210.414C241.386 211.644 240.304 212.647 238.976 212.647C237.894 212.647 237.009 212.009 236.714 211.097H212.812C212.516 212.009 211.582 212.647 210.549 212.647C209.221 212.647 208.139 211.644 208.139 210.414C208.139 209.821 208.385 209.32 208.779 208.91L196.827 189.77C196.68 189.816 196.483 189.816 196.335 189.816C195.008 189.816 193.926 188.813 193.926 187.583C193.926 186.353 195.008 185.35 196.335 185.35C196.532 185.35 196.68 185.35 196.827 185.396L208.729 166.302C208.336 165.892 208.09 165.39 208.09 164.798C208.09 163.567 209.172 162.565 210.5 162.565C211.582 162.565 212.467 163.203 212.762 164.114H236.665C236.96 163.203 237.894 162.565 238.927 162.565C240.255 162.565 241.337 163.567 241.337 164.798C241.337 165.39 241.091 165.892 240.698 166.302L252.6 185.396C252.747 185.35 252.944 185.35 253.092 185.35C254.42 185.35 255.502 186.353 255.502 187.583C255.551 188.859 254.469 189.862 253.141 189.862ZM238.976 167.076C237.894 167.076 237.009 166.438 236.714 165.527H212.812C212.516 166.438 211.582 167.076 210.549 167.076C210.352 167.076 210.205 167.076 210.057 167.031L198.106 186.125C198.499 186.535 198.745 187.036 198.745 187.629C198.745 188.221 198.499 188.722 198.106 189.132L210.008 208.226C210.156 208.181 210.352 208.181 210.5 208.181C211.582 208.181 212.467 208.819 212.762 209.73H236.665C236.96 208.819 237.894 208.181 238.927 208.181C239.075 208.181 239.272 208.181 239.419 208.226L251.321 189.132C250.928 188.722 250.682 188.221 250.682 187.629C250.682 187.036 250.928 186.535 251.321 186.125L239.419 167.031C239.321 167.031 239.124 167.076 238.976 167.076Z" fill="#929496"/>
<path opacity="0.3" d="M301.782 164.844C301.585 164.844 301.438 164.844 301.29 164.798L289.388 183.892C289.782 184.302 290.028 184.803 290.028 185.396C290.028 186.626 288.946 187.629 287.618 187.629C286.536 187.629 285.65 186.991 285.355 186.079H261.453C261.158 186.991 260.223 187.629 259.19 187.629C257.862 187.629 256.78 186.626 256.78 185.396C256.78 184.803 257.026 184.302 257.42 183.892L245.419 164.798C245.272 164.844 245.075 164.844 244.928 164.844C243.6 164.844 242.518 163.841 242.518 162.611C242.518 161.38 243.6 160.378 244.928 160.378C245.124 160.378 245.272 160.378 245.419 160.423L257.321 141.329C256.928 140.919 256.682 140.418 256.682 139.825C256.682 138.595 257.764 137.593 259.092 137.593C260.174 137.593 261.059 138.231 261.354 139.142H285.257C285.552 138.231 286.486 137.593 287.519 137.593C288.847 137.593 289.929 138.595 289.929 139.825C289.929 140.418 289.683 140.919 289.29 141.329L301.192 160.423C301.34 160.378 301.536 160.378 301.684 160.378C303.012 160.378 304.094 161.38 304.094 162.611C304.192 163.841 303.11 164.844 301.782 164.844ZM287.618 142.058C286.536 142.058 285.65 141.42 285.355 140.509H261.453C261.158 141.42 260.223 142.058 259.19 142.058C258.994 142.058 258.846 142.058 258.699 142.013L246.796 161.107C247.19 161.517 247.436 162.018 247.436 162.611C247.436 163.203 247.19 163.704 246.796 164.114L258.699 183.208C258.846 183.163 259.043 183.163 259.19 183.163C260.272 183.163 261.158 183.801 261.453 184.712H285.355C285.65 183.801 286.585 183.163 287.618 183.163C287.765 183.163 287.962 183.163 288.109 183.208L300.012 164.114C299.618 163.704 299.372 163.203 299.372 162.611C299.372 162.018 299.618 161.517 300.012 161.107L288.109 142.013C287.913 142.058 287.765 142.058 287.618 142.058Z" fill="#929496"/>
<path opacity="0.3" d="M350.62 88.3766C350.423 88.3766 350.276 88.3766 350.128 88.3311L338.226 107.425C338.62 107.835 338.866 108.336 338.866 108.929C338.866 110.159 337.784 111.162 336.456 111.162C335.374 111.162 334.488 110.524 334.193 109.612H310.291C309.996 110.524 309.061 111.162 308.028 111.162C306.7 111.162 305.618 110.159 305.618 108.929C305.618 108.336 305.864 107.835 306.258 107.425L294.356 88.3311C294.208 88.3766 294.011 88.3766 293.864 88.3766C292.536 88.3766 291.454 87.3741 291.454 86.1437C291.454 84.9133 292.536 83.9108 293.864 83.9108C294.061 83.9108 294.208 83.9108 294.356 83.9563L306.258 64.8624C305.864 64.4523 305.618 63.951 305.618 63.3586C305.618 62.1282 306.7 61.1257 308.028 61.1257C309.11 61.1257 309.996 61.7636 310.291 62.675H334.193C334.488 61.7636 335.423 61.1257 336.456 61.1257C337.784 61.1257 338.866 62.1282 338.866 63.3586C338.866 63.951 338.62 64.4523 338.226 64.8624L350.128 83.9563C350.276 83.9108 350.473 83.9108 350.62 83.9108C351.948 83.9108 353.03 84.9133 353.03 86.1437C353.03 87.3741 351.948 88.3766 350.62 88.3766ZM336.456 65.5915C335.374 65.5915 334.488 64.9535 334.193 64.0421H310.291C309.996 64.9535 309.061 65.5915 308.028 65.5915C307.832 65.5915 307.684 65.5916 307.536 65.546L295.585 84.6855C295.979 85.0956 296.225 85.5969 296.225 86.1893C296.225 86.7817 295.979 87.283 295.585 87.6931L307.487 106.787C307.635 106.741 307.832 106.741 307.979 106.741C309.061 106.741 309.946 107.379 310.241 108.291H334.144C334.439 107.379 335.374 106.741 336.406 106.741C336.554 106.741 336.751 106.741 336.898 106.787L348.8 87.6931C348.407 87.283 348.161 86.7817 348.161 86.1893C348.161 85.5969 348.407 85.0956 348.8 84.6855L336.898 65.5915C336.8 65.5915 336.603 65.5915 336.456 65.5915Z" fill="#929496"/>
<path opacity="0.3" d="M399.163 62.0827C398.966 62.0827 398.819 62.0827 398.671 62.0371L386.769 81.131C387.162 81.5412 387.408 82.0425 387.408 82.6349C387.408 83.8653 386.326 84.8678 384.998 84.8678C383.916 84.8678 383.031 84.2298 382.736 83.3184H358.833C358.538 84.2298 357.604 84.8678 356.571 84.8678C355.243 84.8678 354.161 83.8653 354.161 82.6349C354.161 82.0425 354.407 81.5412 354.8 81.131L342.8 62.0371C342.652 62.0827 342.456 62.0827 342.308 62.0827C340.98 62.0827 339.898 61.0801 339.898 59.8497C339.898 58.6193 340.98 57.6168 342.308 57.6168C342.505 57.6168 342.652 57.6168 342.8 57.6624L354.702 38.5684C354.309 38.1583 354.063 37.657 354.063 37.0646C354.063 35.8342 355.145 34.8317 356.473 34.8317C357.555 34.8317 358.44 35.4697 358.735 36.3811H382.638C382.933 35.4697 383.867 34.8317 384.9 34.8317C386.228 34.8317 387.31 35.8342 387.31 37.0646C387.31 37.657 387.064 38.1583 386.671 38.5684L398.573 57.6624C398.72 57.6168 398.917 57.6168 399.064 57.6168C400.392 57.6168 401.474 58.6193 401.474 59.8497C401.573 61.0801 400.491 62.0827 399.163 62.0827ZM384.998 39.2975C383.916 39.2975 383.031 38.6596 382.736 37.7482H358.833C358.538 38.6596 357.604 39.2975 356.571 39.2975C356.374 39.2975 356.227 39.2976 356.079 39.252L344.177 58.3459C344.571 58.756 344.816 59.2573 344.816 59.8497C344.816 60.4422 344.571 60.9434 344.177 61.3536L356.079 80.4475C356.227 80.4019 356.423 80.4019 356.571 80.4019C357.653 80.4019 358.538 81.0399 358.833 81.9513H382.736C383.031 81.0399 383.965 80.4019 384.998 80.4019C385.146 80.4019 385.343 80.4019 385.49 80.4475L397.392 61.3536C396.999 60.9434 396.753 60.4422 396.753 59.8497C396.753 59.2573 396.999 58.756 397.392 58.3459L385.49 39.252C385.293 39.2976 385.146 39.2975 384.998 39.2975Z" fill="#929496"/>
<path opacity="0.3" d="M301.782 113.486C301.585 113.486 301.438 113.486 301.29 113.44L289.388 132.534C289.782 132.944 290.028 133.446 290.028 134.038C290.028 135.268 288.946 136.271 287.618 136.271C286.536 136.271 285.65 135.633 285.355 134.722H261.453C261.158 135.633 260.223 136.271 259.19 136.271C257.862 136.271 256.78 135.268 256.78 134.038C256.78 133.446 257.026 132.944 257.42 132.534L245.419 113.395C245.272 113.44 245.075 113.44 244.928 113.44C243.6 113.44 242.518 112.438 242.518 111.207C242.518 109.977 243.6 108.974 244.928 108.974C245.124 108.974 245.272 108.974 245.419 109.02L257.321 89.9261C256.928 89.5159 256.682 89.0147 256.682 88.4223C256.682 87.1919 257.764 86.1893 259.092 86.1893C260.174 86.1893 261.059 86.8273 261.354 87.7387H285.257C285.552 86.8273 286.486 86.1893 287.519 86.1893C288.847 86.1893 289.929 87.1919 289.929 88.4223C289.929 89.0147 289.683 89.5159 289.29 89.9261L301.192 109.02C301.34 108.974 301.536 108.974 301.684 108.974C303.012 108.974 304.094 109.977 304.094 111.207C304.192 112.483 303.11 113.486 301.782 113.486ZM287.618 90.7008C286.536 90.7008 285.65 90.0628 285.355 89.1514H261.453C261.158 90.0628 260.223 90.7008 259.19 90.7008C258.994 90.7008 258.846 90.7008 258.699 90.6552L246.796 109.749C247.19 110.159 247.436 110.661 247.436 111.253C247.436 111.845 247.19 112.347 246.796 112.757L258.699 131.851C258.846 131.805 259.043 131.805 259.19 131.805C260.272 131.805 261.158 132.443 261.453 133.355H285.355C285.65 132.443 286.585 131.805 287.618 131.805C287.765 131.805 287.962 131.805 288.109 131.851L300.012 112.757C299.618 112.347 299.372 111.845 299.372 111.253C299.372 110.661 299.618 110.159 300.012 109.749L288.109 90.6552C287.913 90.6552 287.765 90.7008 287.618 90.7008Z" fill="#929496"/>
<path opacity="0.3" d="M301.782 62.0827C301.585 62.0827 301.438 62.0827 301.29 62.0371L289.388 81.131C289.782 81.5412 290.028 82.0425 290.028 82.6349C290.028 83.8653 288.946 84.8678 287.618 84.8678C286.536 84.8678 285.65 84.2298 285.355 83.3184H261.453C261.158 84.2298 260.223 84.8678 259.19 84.8678C257.862 84.8678 256.78 83.8653 256.78 82.6349C256.78 82.0425 257.026 81.5412 257.42 81.131L245.419 62.0371C245.272 62.0827 245.075 62.0827 244.928 62.0827C243.6 62.0827 242.518 61.0801 242.518 59.8497C242.518 58.6193 243.6 57.6168 244.928 57.6168C245.124 57.6168 245.272 57.6168 245.419 57.6624L257.321 38.5684C256.928 38.1583 256.682 37.657 256.682 37.0646C256.682 35.8342 257.764 34.8317 259.092 34.8317C260.174 34.8317 261.059 35.4697 261.354 36.3811H285.257C285.552 35.4697 286.486 34.8317 287.519 34.8317C288.847 34.8317 289.929 35.8342 289.929 37.0646C289.929 37.657 289.683 38.1583 289.29 38.5684L301.192 57.6624C301.34 57.6168 301.536 57.6168 301.684 57.6168C303.012 57.6168 304.094 58.6193 304.094 59.8497C304.094 61.0801 303.11 62.0827 301.782 62.0827ZM287.618 39.2975C286.536 39.2975 285.65 38.6596 285.355 37.7482H261.453C261.158 38.6596 260.223 39.2975 259.19 39.2975C258.994 39.2975 258.846 39.2976 258.699 39.252L246.796 58.3459C247.19 58.756 247.436 59.2573 247.436 59.8497C247.436 60.4422 247.19 60.9434 246.796 61.3536L258.699 80.4475C258.846 80.4019 259.043 80.4019 259.19 80.4019C260.272 80.4019 261.158 81.0399 261.453 81.9513H285.355C285.65 81.0399 286.585 80.4019 287.618 80.4019C287.765 80.4019 287.962 80.4019 288.109 80.4475L300.012 61.3536C299.618 60.9434 299.372 60.4422 299.372 59.8497C299.372 59.2573 299.618 58.756 300.012 58.3459L288.109 39.252C287.913 39.2976 287.765 39.2975 287.618 39.2975Z" fill="#929496"/>
<path opacity="0.3" d="M60.2974 138.413C60.1007 138.413 59.9531 138.413 59.8056 138.367L47.9035 157.461C48.297 157.871 48.5429 158.373 48.5429 158.965C48.5429 160.195 47.4609 161.198 46.1329 161.198C45.0509 161.198 44.1656 160.56 43.8706 159.648H19.968C19.6729 160.56 18.7384 161.198 17.7056 161.198C16.3777 161.198 15.2957 160.195 15.2957 158.965C15.2957 158.373 15.5416 157.871 15.9351 157.461L3.98378 138.367C3.83624 138.413 3.63951 138.413 3.49196 138.413C2.16404 138.413 1.08203 137.41 1.08203 136.18C1.08203 134.949 2.16404 133.947 3.49196 133.947C3.68869 133.947 3.83624 133.947 3.98378 133.992L15.8859 114.899C15.4924 114.488 15.2465 113.987 15.2465 113.395C15.2465 112.164 16.3285 111.162 17.6564 111.162C18.7384 111.162 19.6237 111.8 19.9188 112.711H43.8214C44.1165 111.8 45.0509 111.162 46.0838 111.162C47.4117 111.162 48.4937 112.164 48.4937 113.395C48.4937 113.987 48.2478 114.488 47.8543 114.899L59.7564 133.992C59.904 133.947 60.1007 133.947 60.2482 133.947C61.5762 133.947 62.6582 134.949 62.6582 136.18C62.7073 137.41 61.6253 138.413 60.2974 138.413ZM46.1329 115.628C45.0509 115.628 44.1656 114.99 43.8706 114.078H19.968C19.6729 114.99 18.7384 115.628 17.7056 115.628C17.5089 115.628 17.3613 115.628 17.2138 115.582L5.3117 134.676C5.70516 135.086 5.95107 135.587 5.95107 136.18C5.95107 136.772 5.70516 137.274 5.3117 137.684L17.2138 156.778C17.3613 156.732 17.5581 156.732 17.7056 156.732C18.7876 156.732 19.6729 157.37 19.968 158.281H43.8706C44.1656 157.37 45.1001 156.732 46.1329 156.732C46.2805 156.732 46.4772 156.732 46.6248 156.778L58.5269 137.684C58.1334 137.274 57.8875 136.772 57.8875 136.18C57.8875 135.587 58.1334 135.086 58.5269 134.676L46.6248 115.582C46.4772 115.582 46.2805 115.628 46.1329 115.628Z" fill="#929496"/>
<path opacity="0.3" d="M253.141 138.413C252.944 138.413 252.797 138.413 252.649 138.367L240.747 157.461C241.14 157.871 241.386 158.373 241.386 158.965C241.386 160.195 240.304 161.198 238.976 161.198C237.894 161.198 237.009 160.56 236.714 159.648H212.811C212.516 160.56 211.582 161.198 210.549 161.198C209.221 161.198 208.139 160.195 208.139 158.965C208.139 158.373 208.385 157.871 208.778 157.461L196.876 138.367C196.729 138.413 196.532 138.413 196.385 138.413C195.057 138.413 193.975 137.41 193.975 136.18C193.975 134.949 195.057 133.947 196.385 133.947C196.581 133.947 196.729 133.947 196.876 133.992L208.778 114.899C208.385 114.488 208.139 113.987 208.139 113.395C208.139 112.164 209.221 111.162 210.549 111.162C211.631 111.162 212.516 111.8 212.811 112.711H236.714C237.009 111.8 237.944 111.162 238.976 111.162C240.304 111.162 241.386 112.164 241.386 113.395C241.386 113.987 241.14 114.488 240.747 114.899L252.649 133.992C252.797 133.947 252.993 133.947 253.141 133.947C254.469 133.947 255.551 134.949 255.551 136.18C255.551 137.41 254.469 138.413 253.141 138.413ZM238.976 115.628C237.894 115.628 237.009 114.99 236.714 114.078H212.811C212.516 114.99 211.582 115.628 210.549 115.628C210.352 115.628 210.205 115.628 210.057 115.582L198.155 134.676C198.549 135.086 198.794 135.587 198.794 136.18C198.794 136.772 198.549 137.274 198.155 137.684L210.057 156.778C210.205 156.732 210.401 156.732 210.549 156.732C211.631 156.732 212.516 157.37 212.811 158.281H236.714C237.009 157.37 237.944 156.732 238.976 156.732C239.124 156.732 239.321 156.732 239.468 156.778L251.37 137.684C250.977 137.274 250.731 136.772 250.731 136.18C250.731 135.587 250.977 135.086 251.37 134.676L239.468 115.582C239.321 115.582 239.124 115.628 238.976 115.628Z" fill="#929496"/>
<path opacity="0.3" d="M204.991 113.395C204.795 113.395 204.647 113.395 204.5 113.349L192.597 132.443C192.991 132.853 193.237 133.355 193.237 133.947C193.237 135.177 192.155 136.18 190.827 136.18C189.745 136.18 188.86 135.542 188.565 134.631H164.662C164.367 135.542 163.432 136.18 162.4 136.18C161.072 136.18 159.99 135.177 159.99 133.947C159.99 133.355 160.236 132.853 160.629 132.443L148.727 113.349C148.579 113.395 148.383 113.395 148.235 113.395C146.907 113.395 145.825 112.392 145.825 111.162C145.825 109.931 146.907 108.929 148.235 108.929C148.432 108.929 148.579 108.929 148.727 108.975L160.629 89.8806C160.236 89.4704 159.99 88.9692 159.99 88.3768C159.99 87.1464 161.072 86.1438 162.4 86.1438C163.482 86.1438 164.367 86.7818 164.662 87.6932H188.565C188.86 86.7818 189.794 86.1438 190.827 86.1438C192.155 86.1438 193.237 87.1464 193.237 88.3768C193.237 88.9692 192.991 89.4704 192.597 89.8806L204.5 108.975C204.647 108.929 204.844 108.929 204.991 108.929C206.319 108.929 207.401 109.931 207.401 111.162C207.401 112.392 206.319 113.395 204.991 113.395ZM190.827 90.6097C189.745 90.6097 188.86 89.9717 188.565 89.0603H164.662C164.367 89.9717 163.432 90.6097 162.4 90.6097C162.203 90.6097 162.055 90.6097 161.908 90.5641L150.006 109.658C150.399 110.068 150.645 110.569 150.645 111.162C150.645 111.754 150.399 112.256 150.006 112.666L161.908 131.76C162.055 131.714 162.252 131.714 162.4 131.714C163.482 131.714 164.367 132.352 164.662 133.263H188.565C188.86 132.352 189.794 131.714 190.827 131.714C190.974 131.714 191.171 131.714 191.319 131.76L203.221 112.666C202.827 112.256 202.581 111.754 202.581 111.162C202.581 110.569 202.827 110.068 203.221 109.658L191.319 90.5641C191.171 90.6097 190.974 90.6097 190.827 90.6097Z" fill="#929496"/>
<path opacity="0.3" d="M157.186 138.413C156.99 138.413 156.842 138.413 156.695 138.367L144.793 157.461C145.186 157.871 145.432 158.373 145.432 158.965C145.432 160.195 144.35 161.198 143.022 161.198C141.94 161.198 141.055 160.56 140.76 159.648H116.857C116.562 160.56 115.627 161.198 114.595 161.198C113.267 161.198 112.185 160.195 112.185 158.965C112.185 158.373 112.431 157.871 112.824 157.461L100.922 138.367C100.774 138.413 100.578 138.413 100.43 138.413C99.1023 138.413 98.0203 137.41 98.0203 136.18C98.0203 134.949 99.1023 133.947 100.43 133.947C100.627 133.947 100.774 133.947 100.922 133.992L112.824 114.899C112.431 114.488 112.185 113.987 112.185 113.395C112.185 112.164 113.267 111.162 114.595 111.162C115.677 111.162 116.562 111.8 116.857 112.711H140.76C141.055 111.8 141.989 111.162 143.022 111.162C144.35 111.162 145.432 112.164 145.432 113.395C145.432 113.987 145.186 114.488 144.793 114.899L156.695 133.992C156.842 133.947 157.039 133.947 157.186 133.947C158.514 133.947 159.596 134.949 159.596 136.18C159.596 137.41 158.514 138.413 157.186 138.413ZM143.022 115.628C141.94 115.628 141.055 114.99 140.76 114.078H116.857C116.562 114.99 115.627 115.628 114.595 115.628C114.398 115.628 114.25 115.628 114.103 115.582L102.201 134.676C102.594 135.086 102.84 135.587 102.84 136.18C102.84 136.772 102.594 137.274 102.201 137.684L114.103 156.778C114.25 156.732 114.447 156.732 114.595 156.732C115.677 156.732 116.562 157.37 116.857 158.281H140.76C141.055 157.37 141.989 156.732 143.022 156.732C143.17 156.732 143.366 156.732 143.514 156.778L155.416 137.684C155.022 137.274 154.777 136.772 154.777 136.18C154.777 135.587 155.022 135.086 155.416 134.676L143.514 115.582C143.366 115.582 143.17 115.628 143.022 115.628Z" fill="#929496"/>
<path opacity="0.3" d="M108.152 164.844C107.955 164.844 107.807 164.844 107.66 164.798L95.7576 183.892C96.1511 184.302 96.397 184.803 96.397 185.396C96.397 186.626 95.315 187.629 93.9871 187.629C92.9051 187.629 92.0198 186.991 91.7247 186.079H67.8221C67.527 186.991 66.5926 187.629 65.5598 187.629C64.2318 187.629 63.1498 186.626 63.1498 185.396C63.1498 184.803 63.3957 184.302 63.7892 183.892L51.8871 164.798C51.7396 164.844 51.5428 164.844 51.3953 164.844C50.0674 164.844 48.9854 163.841 48.9854 162.611C48.9854 161.38 50.0674 160.378 51.3953 160.378C51.592 160.378 51.7396 160.378 51.8871 160.423L63.7892 141.329C63.3957 140.919 63.1498 140.418 63.1498 139.825C63.1498 138.595 64.2318 137.593 65.5598 137.593C66.6418 137.593 67.527 138.231 67.8221 139.142H91.7247C92.0198 138.231 92.9543 137.593 93.9871 137.593C95.315 137.593 96.397 138.595 96.397 139.825C96.397 140.418 96.1511 140.919 95.7576 141.329L107.66 160.423C107.807 160.378 108.004 160.378 108.152 160.378C109.479 160.378 110.561 161.38 110.561 162.611C110.561 163.841 109.479 164.844 108.152 164.844ZM93.9379 142.058C92.8559 142.058 91.9706 141.42 91.6755 140.509H67.773C67.4779 141.42 66.5434 142.058 65.5106 142.058C65.3138 142.058 65.1663 142.058 65.0188 142.013L53.1167 161.107C53.5101 161.517 53.756 162.018 53.756 162.611C53.756 163.203 53.5101 163.704 53.1167 164.114L65.0188 183.208C65.1663 183.163 65.363 183.163 65.5106 183.163C66.5926 183.163 67.4779 183.801 67.773 184.712H91.6755C91.9706 183.801 92.9051 183.163 93.9379 183.163C94.0854 183.163 94.2822 183.163 94.4297 183.208L106.332 164.114C105.938 163.704 105.692 163.203 105.692 162.611C105.692 162.018 105.938 161.517 106.332 161.107L94.4297 142.013C94.2822 142.058 94.1346 142.058 93.9379 142.058Z" fill="#929496"/>
<path opacity="0.3" d="M447.411 88.3766C447.214 88.3766 447.066 88.3766 446.919 88.3311L435.017 107.425C435.41 107.835 435.656 108.336 435.656 108.929C435.656 110.159 434.574 111.162 433.246 111.162C432.164 111.162 431.279 110.524 430.984 109.612H407.081C406.786 110.524 405.852 111.162 404.819 111.162C403.491 111.162 402.409 110.159 402.409 108.929C402.409 108.336 402.655 107.835 403.048 107.425L391.146 88.3311C390.999 88.3766 390.802 88.3766 390.654 88.3766C389.326 88.3766 388.244 87.3741 388.244 86.1437C388.244 84.9133 389.326 83.9108 390.654 83.9108C390.851 83.9108 390.999 83.9108 391.146 83.9563L403.048 64.8624C402.655 64.4523 402.409 63.951 402.409 63.3586C402.409 62.1282 403.491 61.1257 404.819 61.1257C405.901 61.1257 406.786 61.7636 407.081 62.675H430.984C431.279 61.7636 432.213 61.1257 433.246 61.1257C434.574 61.1257 435.656 62.1282 435.656 63.3586C435.656 63.951 435.41 64.4523 435.017 64.8624L446.919 83.9563C447.066 83.9108 447.263 83.9108 447.411 83.9108C448.739 83.9108 449.82 84.9133 449.82 86.1437C449.82 87.3741 448.739 88.3766 447.411 88.3766ZM433.246 65.5915C432.164 65.5915 431.279 64.9535 430.984 64.0421H407.081C406.786 64.9535 405.852 65.5915 404.819 65.5915C404.622 65.5915 404.474 65.5916 404.327 65.546L392.425 84.6399C392.818 85.05 393.064 85.5513 393.064 86.1437C393.064 86.7361 392.818 87.2374 392.425 87.6475L404.327 106.741C404.474 106.696 404.671 106.696 404.819 106.696C405.901 106.696 406.786 107.334 407.081 108.245H430.984C431.279 107.334 432.213 106.696 433.246 106.696C433.394 106.696 433.59 106.696 433.738 106.741L445.64 87.6475C445.247 87.2374 445.001 86.7361 445.001 86.1437C445.001 85.5513 445.247 85.05 445.64 84.6399L433.738 65.546C433.59 65.5916 433.394 65.5915 433.246 65.5915Z" fill="#929496"/>
</g>
<g opacity="0.45">
<path opacity="0.75" d="M345.751 186.945H317.078L302.717 163.978L317.078 140.965H345.751L360.112 163.978L345.751 186.945Z" fill="#929496"/>
<path opacity="0.75" d="M65.5598 88.1033H36.8866L22.5254 65.0903L36.8866 42.1229H65.5598L79.921 65.0903L65.5598 88.1033Z" fill="#929496"/>
<path opacity="0.45" d="M298.733 211.507H270.059L255.698 188.494L270.059 165.527H298.733L313.094 188.494L298.733 211.507Z" fill="#929496"/>
<path opacity="0.45" d="M345.751 136.636H317.078L302.717 113.623L317.078 90.6553H345.751L360.112 113.623L345.751 136.636Z" fill="#929496"/>
<path opacity="0.45" d="M251.96 137.684H223.287L208.926 114.671L223.287 91.7034H251.96L266.322 114.671L251.96 137.684Z" fill="#929496"/>
<path opacity="0.25" d="M251.223 286.47H222.549L208.188 263.458L222.549 240.49H251.223L265.584 263.458L251.223 286.47Z" fill="#929496"/>
<path opacity="0.25" d="M111.889 261.042H83.167L68.855 238.029L83.167 215.062H111.889L126.201 238.029L111.889 261.042Z" fill="#929496"/>
<path opacity="0.25" d="M393.261 161.973H364.588L350.227 138.96L364.588 115.947H393.261L407.622 138.96L393.261 161.973Z" fill="#929496"/>
<path opacity="0.25" d="M206.368 65.0903H177.646L163.334 42.1229L177.646 19.11H206.368L220.68 42.1229L206.368 65.0903Z" fill="#929496"/>
<path opacity="0.25" d="M112.136 112.392H83.4131L69.1011 89.4249L83.4131 66.412H112.136L126.448 89.4249L112.136 112.392Z" fill="#929496"/>
<path opacity="0.25" d="M204.45 211.507H175.777L161.416 188.494L175.777 165.527H204.45L218.812 188.494L204.45 211.507Z" fill="#929496"/>
<path opacity="0.25" d="M251.469 236.936H222.795L208.434 213.923L222.795 190.955H251.469L265.83 213.923L251.469 236.936Z" fill="#929496"/>
<path opacity="0.25" d="M298.733 161.973H270.059L255.698 138.96L270.059 115.947H298.733L313.094 138.96L298.733 161.973Z" fill="#929496"/>
<path opacity="0.25" d="M65.8057 187.401H37.1324L22.7712 164.433L37.1324 141.42H65.8057L80.1669 164.433L65.8057 187.401Z" fill="#929496"/>
<path opacity="0.75" d="M204.45 261.042H175.777L161.416 238.029L175.777 215.062H204.45L218.812 238.029L204.45 261.042Z" fill="#929496"/>
<path opacity="0.75" d="M251.223 187.401H222.549L208.188 164.433L222.549 141.42H251.223L265.584 164.433L251.223 187.401Z" fill="#929496"/>
<path opacity="0.75" d="M65.5598 236.48H36.8866L22.5254 213.467L36.8866 190.5H65.5598L79.921 213.467L65.5598 236.48Z" fill="#929496"/>
<path opacity="0.75" d="M158.416 87.4198H129.693L115.381 64.4524L129.693 41.4394H158.416L172.728 64.4524L158.416 87.4198Z" fill="#929496"/>
<path opacity="0.75" d="M112.136 161.973H83.4131L69.1011 138.96L83.4131 115.947H112.136L126.448 138.96L112.136 161.973Z" fill="#929496"/>
<path opacity="0.45" d="M158.17 236.48H129.448L115.135 213.467L129.448 190.5H158.17L172.482 213.467L158.17 236.48Z" fill="#929496"/>
<path opacity="0.45" d="M112.136 211.507H83.4131L69.1011 188.494L83.4131 165.527H112.136L126.448 188.494L112.136 211.507Z" fill="#929496"/>
<path opacity="0.45" d="M65.5598 138.367H36.8866L22.5254 115.354L36.8866 92.3869H65.5598L79.921 115.354L65.5598 138.367Z" fill="#929496"/>
<path opacity="0.45" d="M111.889 62.8574H83.167L68.855 39.89L83.167 16.8771H111.889L126.201 39.89L111.889 62.8574Z" fill="#929496"/>
<path opacity="0.45" d="M204.45 161.973H175.777L161.416 138.96L175.777 115.947H204.45L218.812 138.96L204.45 161.973Z" fill="#929496"/>
</g>
<path d="M108.742 61.5358C108.545 61.5358 108.397 61.5358 108.25 61.4902L96.3478 80.5842C96.7413 80.9943 96.9872 81.4956 96.9872 82.088C96.9872 83.3184 95.9052 84.3209 94.5773 84.3209C93.4953 84.3209 92.61 83.6829 92.3149 82.7715H68.3632C68.0681 83.6829 67.1336 84.3209 66.1008 84.3209C64.7728 84.3209 63.6908 83.3184 63.6908 82.088C63.6908 81.4956 63.9368 80.9943 64.3302 80.5842L52.4281 61.4902C52.2806 61.5358 52.0838 61.5358 51.9363 61.5358C50.6084 61.5358 49.5264 60.5333 49.5264 59.3029C49.5264 58.0725 50.6084 57.0699 51.9363 57.0699C52.133 57.0699 52.2806 57.0699 52.4281 57.1155L64.3302 38.0216C63.9368 37.6115 63.6908 37.1102 63.6908 36.5178C63.6908 35.2874 64.7728 34.2848 66.1008 34.2848C67.1828 34.2848 68.0681 34.9228 68.3632 35.8342H92.2657C92.5608 34.9228 93.4953 34.2848 94.5281 34.2848C95.856 34.2848 96.938 35.2874 96.938 36.5178C96.938 37.1102 96.6921 37.6115 96.2986 38.0216L108.201 57.1155C108.348 57.0699 108.545 57.0699 108.693 57.0699C110.02 57.0699 111.102 58.0725 111.102 59.3029C111.152 60.5333 110.07 61.5358 108.742 61.5358ZM94.5281 38.7507C93.4461 38.7507 92.5608 38.1127 92.2657 37.2013H68.3632C68.0681 38.1127 67.1336 38.7507 66.1008 38.7507C65.904 38.7507 65.7565 38.7507 65.6089 38.7051L53.7069 57.7991C54.1003 58.2092 54.3462 58.7105 54.3462 59.3029C54.3462 59.8953 54.1003 60.3966 53.7069 60.8067L65.6089 79.9006C65.7565 79.8551 65.9532 79.855 66.1008 79.855C67.1828 79.855 68.0681 80.493 68.3632 81.4044H92.2657C92.5608 80.493 93.4953 79.855 94.5281 79.855C94.6756 79.855 94.8724 79.8551 95.0199 79.9006L106.922 60.8067C106.529 60.3966 106.283 59.8953 106.283 59.3029C106.283 58.7105 106.529 58.2092 106.922 57.7991L95.0199 38.7051C94.8724 38.7507 94.7248 38.7507 94.5281 38.7507Z" fill="#59595B"/>
<path d="M156.547 36.5179C156.35 36.5179 156.203 36.5178 156.055 36.4723L144.104 55.5662C144.497 55.9763 144.743 56.4776 144.743 57.07C144.743 58.3004 143.661 59.303 142.333 59.303C141.251 59.303 140.366 58.665 140.071 57.7536H116.168C115.873 58.665 114.939 59.303 113.906 59.303C112.578 59.303 111.496 58.3004 111.496 57.07C111.496 56.4776 111.742 55.9763 112.135 55.5662L100.233 36.4723C100.086 36.5178 99.889 36.5179 99.7415 36.5179C98.4136 36.5179 97.3315 35.5153 97.3315 34.2849C97.3315 33.0545 98.4136 32.052 99.7415 32.052C99.9382 32.052 100.086 32.052 100.233 32.0975L112.135 13.0036C111.742 12.5935 111.496 12.0922 111.496 11.4998C111.496 10.2694 112.578 9.26685 113.906 9.26685C114.988 9.26685 115.873 9.90481 116.168 10.8162H140.071C140.366 9.90481 141.3 9.26685 142.333 9.26685C143.661 9.26685 144.743 10.2694 144.743 11.4998C144.743 12.0922 144.497 12.5935 144.104 13.0036L156.006 32.0975C156.153 32.052 156.35 32.052 156.498 32.052C157.826 32.052 158.908 33.0545 158.908 34.2849C158.957 35.5153 157.875 36.5179 156.547 36.5179ZM142.333 13.7327C141.251 13.7327 140.366 13.0947 140.071 12.1833H116.168C115.873 13.0947 114.939 13.7327 113.906 13.7327C113.709 13.7327 113.562 13.7327 113.414 13.6871L101.512 32.7811C101.905 33.1912 102.151 33.6925 102.151 34.2849C102.151 34.8773 101.905 35.3786 101.512 35.7887L113.414 54.8827C113.562 54.8371 113.758 54.8371 113.906 54.8371C114.988 54.8371 115.873 55.4751 116.168 56.3865H140.071C140.366 55.4751 141.3 54.8371 142.333 54.8371C142.481 54.8371 142.678 54.8371 142.825 54.8827L154.727 35.7887C154.334 35.3786 154.088 34.8773 154.088 34.2849C154.088 33.6925 154.334 33.1912 154.727 32.7811L142.825 13.6871C142.678 13.7327 142.53 13.7327 142.333 13.7327Z" fill="#59595B"/>
<path d="M108.742 112.894C108.545 112.894 108.397 112.894 108.25 112.848L96.3478 131.942C96.7413 132.352 96.9872 132.853 96.9872 133.446C96.9872 134.676 95.9052 135.679 94.5773 135.679C93.4953 135.679 92.61 135.041 92.3149 134.129H68.3632C68.0681 135.041 67.1336 135.679 66.1008 135.679C64.7728 135.679 63.6908 134.676 63.6908 133.446C63.6908 132.853 63.9368 132.352 64.3302 131.942L52.4281 112.848C52.2806 112.894 52.0838 112.894 51.9363 112.894C50.6084 112.894 49.5264 111.891 49.5264 110.661C49.5264 109.43 50.6084 108.428 51.9363 108.428C52.133 108.428 52.2806 108.428 52.4281 108.473L64.3302 89.3794C63.9368 88.9692 63.6908 88.468 63.6908 87.8755C63.6908 86.6452 64.7728 85.6426 66.1008 85.6426C67.1828 85.6426 68.0681 86.2806 68.3632 87.192H92.2657C92.5608 86.2806 93.4953 85.6426 94.5281 85.6426C95.856 85.6426 96.938 86.6452 96.938 87.8755C96.938 88.468 96.6921 88.9692 96.2986 89.3794L108.201 108.473C108.348 108.428 108.545 108.428 108.693 108.428C110.02 108.428 111.102 109.43 111.102 110.661C111.152 111.891 110.07 112.894 108.742 112.894ZM94.5281 90.1085C93.4461 90.1085 92.5608 89.4705 92.2657 88.5591H68.3632C68.0681 89.4705 67.1336 90.1085 66.1008 90.1085C65.904 90.1085 65.7565 90.1085 65.6089 90.0629L53.7069 109.157C54.1003 109.567 54.3462 110.068 54.3462 110.661C54.3462 111.253 54.1003 111.754 53.7069 112.164L65.6089 131.258C65.7565 131.213 65.9532 131.213 66.1008 131.213C67.1828 131.213 68.0681 131.851 68.3632 132.762H92.2657C92.5608 131.851 93.4953 131.213 94.5281 131.213C94.6756 131.213 94.8724 131.213 95.0199 131.258L106.922 112.164C106.529 111.754 106.283 111.253 106.283 110.661C106.283 110.068 106.529 109.567 106.922 109.157L95.0199 90.0629C94.8724 90.1085 94.7248 90.1085 94.5281 90.1085Z" fill="#59595B"/>
<path d="M204.696 61.5358C204.499 61.5358 204.352 61.5358 204.204 61.4902L192.302 80.5842C192.696 80.9943 192.942 81.4956 192.942 82.088C192.942 83.3184 191.86 84.3209 190.532 84.3209C189.45 84.3209 188.564 83.6829 188.269 82.7715H164.367C164.072 83.6829 163.137 84.3209 162.104 84.3209C160.777 84.3209 159.695 83.3184 159.695 82.088C159.695 81.4956 159.94 80.9943 160.334 80.5842L148.432 61.4902C148.284 61.5358 148.088 61.5358 147.94 61.5358C146.612 61.5358 145.53 60.5333 145.53 59.3029C145.53 58.0725 146.612 57.0699 147.94 57.0699C148.137 57.0699 148.284 57.0699 148.432 57.1155L160.334 38.0216C159.94 37.6115 159.695 37.1102 159.695 36.5178C159.695 35.2874 160.777 34.2848 162.104 34.2848C163.186 34.2848 164.072 34.9228 164.367 35.8342H188.269C188.564 34.9228 189.499 34.2848 190.532 34.2848C191.86 34.2848 192.942 35.2874 192.942 36.5178C192.942 37.1102 192.696 37.6115 192.302 38.0216L204.204 57.1155C204.352 57.0699 204.549 57.0699 204.696 57.0699C206.024 57.0699 207.106 58.0725 207.106 59.3029C207.106 60.5333 206.024 61.5358 204.696 61.5358ZM190.483 38.7507C189.401 38.7507 188.515 38.1127 188.22 37.2013H164.318C164.023 38.1127 163.088 38.7507 162.055 38.7507C161.859 38.7507 161.711 38.7507 161.563 38.7051L149.661 57.7991C150.055 58.2092 150.301 58.7105 150.301 59.3029C150.301 59.8953 150.055 60.3966 149.661 60.8067L161.563 79.9006C161.711 79.8551 161.908 79.855 162.055 79.855C163.137 79.855 164.023 80.493 164.318 81.4044H188.22C188.515 80.493 189.45 79.855 190.483 79.855C190.63 79.855 190.827 79.8551 190.974 79.9006L202.876 60.8067C202.483 60.3966 202.237 59.8953 202.237 59.3029C202.237 58.7105 202.483 58.2092 202.876 57.7991L190.974 38.7051C190.827 38.7507 190.679 38.7507 190.483 38.7507Z" fill="#59595B"/>
<path d="M350.128 27.251C349.931 27.251 349.784 27.251 349.636 27.2054L337.734 46.2994C338.128 46.7095 338.374 47.2108 338.374 47.8032C338.374 49.0336 337.292 50.0361 335.964 50.0361C334.882 50.0361 333.996 49.3981 333.701 48.4867H309.799C309.504 49.3981 308.569 50.0361 307.536 50.0361C306.208 50.0361 305.126 49.0336 305.126 47.8032C305.126 47.2108 305.372 46.7095 305.766 46.2994L293.864 27.2054C293.716 27.251 293.519 27.251 293.372 27.251C292.044 27.251 290.962 26.2485 290.962 25.0181C290.962 23.7877 292.044 22.7851 293.372 22.7851C293.569 22.7851 293.716 22.7851 293.864 22.8307L305.766 3.73677C305.372 3.32664 305.126 2.82537 305.126 2.23296C305.126 1.00256 306.208 3.18484e-05 307.536 3.18484e-05C308.618 3.18484e-05 309.504 0.637998 309.799 1.5494H333.701C333.996 0.637998 334.931 3.18484e-05 335.964 3.18484e-05C337.292 3.18484e-05 338.374 1.00256 338.374 2.23296C338.374 2.82537 338.128 3.32664 337.734 3.73677L349.636 22.8307C349.784 22.7851 349.981 22.7851 350.128 22.7851C351.456 22.7851 352.538 23.7877 352.538 25.0181C352.538 26.2485 351.456 27.251 350.128 27.251ZM335.964 4.46591C334.882 4.46591 333.996 3.82791 333.701 2.91651H309.799C309.504 3.82791 308.569 4.46591 307.536 4.46591C307.34 4.46591 307.192 4.46589 307.045 4.42032L295.093 23.5598C295.487 23.9699 295.733 24.4712 295.733 25.0637C295.733 25.6561 295.487 26.1573 295.093 26.5675L306.995 45.6614C307.143 45.6158 307.34 45.6158 307.487 45.6158C308.569 45.6158 309.454 46.2538 309.75 47.1652H333.652C333.947 46.2538 334.882 45.6158 335.914 45.6158C336.062 45.6158 336.259 45.6158 336.406 45.6614L348.308 26.5675C347.915 26.1573 347.669 25.6561 347.669 25.0637C347.669 24.4712 347.915 23.9699 348.308 23.5598L336.406 4.46591C336.308 4.46591 336.111 4.46591 335.964 4.46591Z" fill="#59595B"/>
<path d="M59.2646 293.215C59.0678 293.215 58.9203 293.215 58.7727 293.169L46.8215 312.263C47.2149 312.673 47.4608 313.175 47.4608 313.767C47.4608 314.997 46.3788 316 45.0509 316C43.9689 316 43.0836 315.362 42.7885 314.451H18.886C18.5909 315.362 17.7056 316 16.6236 316C15.2957 316 14.2137 314.997 14.2137 313.767C14.2137 313.175 14.4596 312.673 14.853 312.263L2.90175 293.169C2.7542 293.215 2.55748 293.215 2.40993 293.215C1.08201 293.215 0 292.212 0 290.982C0 289.752 1.08201 288.749 2.40993 288.749C2.60666 288.749 2.7542 288.749 2.90175 288.795L14.8038 269.701C14.4104 269.291 14.1645 268.789 14.1645 268.197C14.1645 266.966 15.2465 265.964 16.5744 265.964C17.6564 265.964 18.5417 266.602 18.8368 267.513H42.7885C43.0836 266.602 44.0181 265.964 45.0509 265.964C46.3788 265.964 47.4608 266.966 47.4608 268.197C47.4608 268.789 47.2149 269.291 46.8215 269.701L58.7236 288.795C58.8711 288.749 59.0678 288.749 59.2154 288.749C60.5433 288.749 61.6253 289.752 61.6253 290.982C61.6745 292.212 60.5925 293.215 59.2646 293.215ZM45.0509 270.43C43.9689 270.43 43.0836 269.792 42.7885 268.88H18.886C18.5909 269.792 17.6564 270.43 16.6236 270.43C16.4269 270.43 16.2793 270.43 16.1318 270.384L4.18049 289.524C4.57395 289.934 4.81986 290.435 4.81986 291.028C4.81986 291.62 4.57395 292.121 4.18049 292.531L16.1318 311.58C16.2793 311.534 16.476 311.534 16.6236 311.534C17.7056 311.534 18.5909 312.172 18.886 313.084H42.7885C43.0836 312.172 44.0181 311.534 45.0509 311.534C45.1985 311.534 45.3952 311.534 45.5427 311.58L57.4448 292.486C57.0514 292.076 56.8055 291.574 56.8055 290.982C56.8055 290.39 57.0514 289.888 57.4448 289.478L45.5427 270.384C45.3952 270.43 45.2476 270.43 45.0509 270.43Z" fill="#59595B"/>
<path d="M107.758 266.921C107.562 266.921 107.414 266.921 107.266 266.875L95.3643 285.969C95.7578 286.379 96.0037 286.881 96.0037 287.473C96.0037 288.703 94.9217 289.706 93.5938 289.706C92.5118 289.706 91.6265 289.068 91.3314 288.157H67.4288C67.1337 289.068 66.1993 289.706 65.1664 289.706C63.8385 289.706 62.7565 288.703 62.7565 287.473C62.7565 286.881 63.0024 286.379 63.3959 285.969L51.4938 266.875C51.3462 266.921 51.1495 266.921 51.002 266.921C49.674 266.921 48.592 265.918 48.592 264.688C48.592 263.457 49.674 262.455 51.002 262.455C51.1987 262.455 51.3462 262.455 51.4938 262.501L63.3959 243.407C63.0024 242.996 62.7565 242.495 62.7565 241.903C62.7565 240.672 63.8385 239.67 65.1664 239.67C66.2485 239.67 67.1337 240.308 67.4288 241.219H91.3314C91.6265 240.308 92.5609 239.67 93.5938 239.67C94.9217 239.67 96.0037 240.672 96.0037 241.903C96.0037 242.495 95.7578 242.996 95.3643 243.407L107.266 262.501C107.414 262.455 107.611 262.455 107.758 262.455C109.086 262.455 110.168 263.457 110.168 264.688C110.168 265.918 109.086 266.921 107.758 266.921ZM93.5938 244.136C92.5118 244.136 91.6265 243.498 91.3314 242.586H67.4288C67.1337 243.498 66.1993 244.136 65.1664 244.136C64.9697 244.136 64.8222 244.136 64.6746 244.09L52.7725 263.184C53.166 263.594 53.4119 264.095 53.4119 264.688C53.4119 265.28 53.166 265.782 52.7725 266.192L64.6746 285.286C64.8222 285.24 65.0189 285.24 65.1664 285.24C66.2485 285.24 67.1337 285.878 67.4288 286.789H91.3314C91.6265 285.878 92.5609 285.24 93.5938 285.24C93.7413 285.24 93.938 285.24 94.0856 285.286L105.988 266.192C105.594 265.782 105.348 265.28 105.348 264.688C105.348 264.095 105.594 263.594 105.988 263.184L94.0856 244.09C93.938 244.136 93.7413 244.136 93.5938 244.136Z" fill="#59595B"/>
<path d="M156.055 293.215C155.858 293.215 155.711 293.215 155.563 293.169L143.612 312.263C144.006 312.673 144.251 313.175 144.251 313.767C144.251 314.997 143.169 316 141.842 316C140.76 316 139.874 315.362 139.579 314.451H115.677C115.382 315.362 114.447 316 113.414 316C112.086 316 111.004 314.997 111.004 313.767C111.004 313.175 111.25 312.673 111.644 312.263L99.7416 293.169C99.5941 293.215 99.3973 293.215 99.2498 293.215C97.9219 293.215 96.8398 292.212 96.8398 290.982C96.8398 289.752 97.9219 288.749 99.2498 288.749C99.4465 288.749 99.5941 288.749 99.7416 288.795L111.644 269.701C111.25 269.291 111.004 268.789 111.004 268.197C111.004 266.966 112.086 265.964 113.414 265.964C114.496 265.964 115.382 266.602 115.677 267.513H139.579C139.874 266.602 140.809 265.964 141.842 265.964C143.169 265.964 144.251 266.966 144.251 268.197C144.251 268.789 144.006 269.291 143.612 269.701L155.514 288.795C155.662 288.749 155.859 288.749 156.006 288.749C157.334 288.749 158.416 289.752 158.416 290.982C158.465 292.212 157.383 293.215 156.055 293.215ZM141.842 270.43C140.76 270.43 139.874 269.792 139.579 268.88H115.677C115.382 269.792 114.447 270.43 113.414 270.43C113.218 270.43 113.07 270.43 112.922 270.384L101.02 289.478C101.414 289.888 101.66 290.39 101.66 290.982C101.66 291.574 101.414 292.076 101.02 292.486L112.922 311.58C113.07 311.534 113.267 311.534 113.414 311.534C114.496 311.534 115.382 312.172 115.677 313.084H139.579C139.874 312.172 140.809 311.534 141.842 311.534C141.989 311.534 142.186 311.534 142.333 311.58L154.235 292.486C153.842 292.076 153.596 291.574 153.596 290.982C153.596 290.39 153.842 289.888 154.235 289.478L142.333 270.384C142.186 270.43 142.038 270.43 141.842 270.43Z" fill="#59595B"/>
<path opacity="0.3" d="M144.35 295.904H133.431V297.271V306.02H122.808V295.904H111.89V286.106H122.808V275.944H133.431V286.106H144.35V295.904Z" fill="#929496"/>
<path opacity="0.45" d="M96.5447 167.487H85.6263L85.5771 168.854V177.649H75.0029V167.487H64.0845V157.689H75.0029V147.573H85.5771V157.689H96.5447V167.487Z" fill="#929496"/>
<path opacity="0.45" d="M206.319 242.951H195.401V244.318V253.068H184.827V242.951H173.859V233.153H184.827V223.037H195.401V233.153H206.319V242.951Z" fill="#929496"/>
<path opacity="0.45" d="M395.179 143.836H384.261L384.212 145.203V153.998H373.637V143.836H362.719V134.084H373.637V123.922H384.212V134.084H395.179V143.836Z" fill="#929496"/>
<path opacity="0.3" d="M339.013 91.1109H328.095L328.045 92.478V101.273H317.471V91.1109H306.553V81.3133H317.471V71.1967H328.045V81.3133H339.013V91.1109Z" fill="#929496"/>
</g>
</svg>