<svg width="360" height="268" viewBox="0 0 360 268" fill="none" xmlns="http://www.w3.org/2000/svg">
<path d="M359.674 235.514H0V235.694H359.674V235.514Z" fill="#EBEBEB"/>
<path d="M323.632 247.088H299.808V247.268H323.632V247.088Z" fill="#EBEBEB"/>
<path d="M238.264 249.046H232.013V249.225H238.264V249.046Z" fill="#EBEBEB"/>
<path d="M299.091 240.413H285.287V240.593H299.091V240.413Z" fill="#EBEBEB"/>
<path d="M68.8049 241.621H37.7363V241.801H68.8049V241.621Z" fill="#EBEBEB"/>
<path d="M79.7683 241.621H75.2148V241.801H79.7683V241.621Z" fill="#EBEBEB"/>
<path d="M161.961 244.657H94.5723V244.837H161.961V244.657Z" fill="#EBEBEB"/>
<path d="M170.485 203.431H31.5866C30.4985 203.429 29.4556 202.996 28.6868 202.226C27.9181 201.456 27.4863 200.412 27.4863 199.324V4.07151C27.4958 2.98962 27.9317 1.95517 28.6995 1.19283C29.4672 0.430499 30.5047 0.00185332 31.5866 0H170.485C171.575 0 172.619 0.43275 173.39 1.20305C174.16 1.97335 174.593 3.0181 174.593 4.10747V199.324C174.593 200.413 174.16 201.458 173.39 202.228C172.619 202.999 171.575 203.431 170.485 203.431ZM31.5866 0.14387C30.5462 0.145776 29.549 0.560418 28.814 1.29679C28.079 2.03315 27.6662 3.03108 27.6662 4.07151V199.324C27.6662 200.364 28.079 201.362 28.814 202.099C29.549 202.835 30.5462 203.25 31.5866 203.252H170.485C171.526 203.25 172.524 202.835 173.26 202.099C173.997 201.363 174.411 200.365 174.413 199.324V4.07151C174.411 3.03042 173.997 2.03251 173.26 1.29635C172.524 0.560185 171.526 0.145772 170.485 0.14387H31.5866Z" fill="#EBEBEB"/>
<path d="M326.089 203.431H187.183C186.094 203.429 185.05 202.996 184.28 202.226C183.51 201.456 183.077 200.413 183.075 199.324V4.07151C183.087 2.98897 183.524 1.95452 184.293 1.19238C185.062 0.430248 186.1 0.00183311 187.183 0H326.089C327.169 0.00374384 328.205 0.433226 328.971 1.19536C329.737 1.95749 330.172 2.99087 330.182 4.07151V199.324C330.182 200.411 329.751 201.453 328.984 202.223C328.217 202.993 327.175 203.428 326.089 203.431ZM187.183 0.14387C186.142 0.145772 185.144 0.560185 184.408 1.29635C183.671 2.03251 183.257 3.03042 183.255 4.07151V199.324C183.257 200.365 183.671 201.363 184.408 202.099C185.144 202.835 186.142 203.25 187.183 203.252H326.089C327.13 203.25 328.128 202.835 328.864 202.099C329.6 201.363 330.014 200.365 330.016 199.324V4.07151C330.014 3.03042 329.6 2.03251 328.864 1.29635C328.128 0.560185 327.13 0.145772 326.089 0.14387H187.183Z" fill="#EBEBEB"/>
<path d="M320.411 44.7219H146.128V212.718H320.411V44.7219Z" fill="#E0E0E0"/>
<path d="M320.411 47.7717H148.926V209.783H320.411V47.7717Z" fill="#F5F5F5"/>
<path d="M150.192 170.55V121.821H155.249V115.383L166.643 110.053V103.463H168.542V121.821H170.441V170.55H172.974V145.236H178.671V131.949H180.57V170.55H184.994V155.997H188.159V152.199H195.122V138.906H198.92V130.05H203.352V116.757H205.251V130.05H209.682V138.906H213.473V152.199H220.436V155.997H223.601V170.55H227.399V152.199H234.363V111.693H236.262V107.261H251.447V111.693H254.612V140.805H267.273V143.97H271.697V145.869H267.273V157.263H280.559V119.289H283.091V111.693H289.421V82.5807H291.321V111.693H295.752V119.289H320.411V209.79H148.926V170.55H150.192Z" fill="#E6E6E6"/>
<path d="M307.234 121.275H305.442V123.066H307.234V121.275Z" fill="#F0F0F0"/>
<path d="M307.234 124.282H305.442V126.073H307.234V124.282Z" fill="#F0F0F0"/>
<path d="M307.234 136.301H305.442V138.092H307.234V136.301Z" fill="#F0F0F0"/>
<path d="M307.234 139.309H305.442V141.1H307.234V139.309Z" fill="#F0F0F0"/>
<path d="M307.234 142.316H305.442V144.107H307.234V142.316Z" fill="#F0F0F0"/>
<path d="M307.234 151.336H305.442V153.127H307.234V151.336Z" fill="#F0F0F0"/>
<path d="M307.234 154.344H305.442V156.135H307.234V154.344Z" fill="#F0F0F0"/>
<path d="M304.383 133.295H302.592V135.086H304.383V133.295Z" fill="#F0F0F0"/>
<path d="M304.383 136.301H302.592V138.092H304.383V136.301Z" fill="#F0F0F0"/>
<path d="M304.383 139.309H302.592V141.1H304.383V139.309Z" fill="#F0F0F0"/>
<path d="M304.383 142.316H302.592V144.107H304.383V142.316Z" fill="#F0F0F0"/>
<path d="M304.383 145.323H302.592V147.114H304.383V145.323Z" fill="#F0F0F0"/>
<path d="M304.383 151.336H302.592V153.127H304.383V151.336Z" fill="#F0F0F0"/>
<path d="M304.383 154.344H302.592V156.135H304.383V154.344Z" fill="#F0F0F0"/>
<path d="M301.536 121.275H299.745V123.066H301.536V121.275Z" fill="#F0F0F0"/>
<path d="M301.536 124.282H299.745V126.073H301.536V124.282Z" fill="#F0F0F0"/>
<path d="M301.536 127.289H299.745V129.08H301.536V127.289Z" fill="#F0F0F0"/>
<path d="M301.536 130.295H299.745V132.086H301.536V130.295Z" fill="#F0F0F0"/>
<path d="M301.536 133.295H299.745V135.086H301.536V133.295Z" fill="#F0F0F0"/>
<path d="M301.536 136.301H299.745V138.092H301.536V136.301Z" fill="#F0F0F0"/>
<path d="M301.536 139.309H299.745V141.1H301.536V139.309Z" fill="#F0F0F0"/>
<path d="M301.536 142.316H299.745V144.107H301.536V142.316Z" fill="#F0F0F0"/>
<path d="M301.536 145.323H299.745V147.114H301.536V145.323Z" fill="#F0F0F0"/>
<path d="M301.536 148.33H299.745V150.121H301.536V148.33Z" fill="#F0F0F0"/>
<path d="M301.536 154.344H299.745V156.135H301.536V154.344Z" fill="#F0F0F0"/>
<path d="M298.688 121.275H296.896V123.066H298.688V121.275Z" fill="#F0F0F0"/>
<path d="M298.688 124.282H296.896V126.073H298.688V124.282Z" fill="#F0F0F0"/>
<path d="M298.688 127.289H296.896V129.08H298.688V127.289Z" fill="#F0F0F0"/>
<path d="M298.688 130.295H296.896V132.086H298.688V130.295Z" fill="#F0F0F0"/>
<path d="M298.688 133.295H296.896V135.086H298.688V133.295Z" fill="#F0F0F0"/>
<path d="M298.688 136.301H296.896V138.092H298.688V136.301Z" fill="#F0F0F0"/>
<path d="M298.688 139.309H296.896V141.1H298.688V139.309Z" fill="#F0F0F0"/>
<path d="M298.688 166.364H296.896V168.155H298.688V166.364Z" fill="#F0F0F0"/>
<path d="M295.837 121.275H294.046V123.066H295.837V121.275Z" fill="#F0F0F0"/>
<path d="M295.837 124.282H294.046V126.073H295.837V124.282Z" fill="#F0F0F0"/>
<path d="M295.837 127.289H294.046V129.08H295.837V127.289Z" fill="#F0F0F0"/>
<path d="M295.837 130.295H294.046V132.086H295.837V130.295Z" fill="#F0F0F0"/>
<path d="M295.837 133.295H294.046V135.086H295.837V133.295Z" fill="#F0F0F0"/>
<path d="M295.837 136.301H294.046V138.092H295.837V136.301Z" fill="#F0F0F0"/>
<path d="M295.837 139.309H294.046V141.1H295.837V139.309Z" fill="#F0F0F0"/>
<path d="M295.837 142.316H294.046V144.107H295.837V142.316Z" fill="#F0F0F0"/>
<path d="M295.837 160.356H294.046V162.148H295.837V160.356Z" fill="#F0F0F0"/>
<path d="M295.837 163.356H294.046V165.148H295.837V163.356Z" fill="#F0F0F0"/>
<path d="M295.837 166.364H294.046V168.155H295.837V166.364Z" fill="#F0F0F0"/>
<path d="M295.837 169.37H294.046V171.161H295.837V169.37Z" fill="#F0F0F0"/>
<path d="M295.837 181.397H294.046V183.189H295.837V181.397Z" fill="#F0F0F0"/>
<path d="M292.99 121.275H291.199V123.066H292.99V121.275Z" fill="#F0F0F0"/>
<path d="M292.99 124.282H291.199V126.073H292.99V124.282Z" fill="#F0F0F0"/>
<path d="M292.99 127.289H291.199V129.08H292.99V127.289Z" fill="#F0F0F0"/>
<path d="M292.99 130.295H291.199V132.086H292.99V130.295Z" fill="#F0F0F0"/>
<path d="M292.99 133.295H291.199V135.086H292.99V133.295Z" fill="#F0F0F0"/>
<path d="M292.99 136.301H291.199V138.092H292.99V136.301Z" fill="#F0F0F0"/>
<path d="M292.99 139.309H291.199V141.1H292.99V139.309Z" fill="#F0F0F0"/>
<path d="M292.99 142.316H291.199V144.107H292.99V142.316Z" fill="#F0F0F0"/>
<path d="M292.99 145.323H291.199V147.114H292.99V145.323Z" fill="#F0F0F0"/>
<path d="M292.99 148.33H291.199V150.121H292.99V148.33Z" fill="#F0F0F0"/>
<path d="M292.99 157.35H291.199V159.142H292.99V157.35Z" fill="#F0F0F0"/>
<path d="M292.99 160.356H291.199V162.148H292.99V160.356Z" fill="#F0F0F0"/>
<path d="M292.99 163.356H291.199V165.148H292.99V163.356Z" fill="#F0F0F0"/>
<path d="M292.99 166.364H291.199V168.155H292.99V166.364Z" fill="#F0F0F0"/>
<path d="M292.99 169.37H291.199V171.161H292.99V169.37Z" fill="#F0F0F0"/>
<path d="M292.99 181.397H291.199V183.189H292.99V181.397Z" fill="#F0F0F0"/>
<path d="M290.141 121.275H288.35V123.066H290.141V121.275Z" fill="#F0F0F0"/>
<path d="M290.141 124.282H288.35V126.073H290.141V124.282Z" fill="#F0F0F0"/>
<path d="M290.141 127.289H288.35V129.08H290.141V127.289Z" fill="#F0F0F0"/>
<path d="M290.141 130.295H288.35V132.086H290.141V130.295Z" fill="#F0F0F0"/>
<path d="M290.141 133.295H288.35V135.086H290.141V133.295Z" fill="#F0F0F0"/>
<path d="M290.141 136.301H288.35V138.092H290.141V136.301Z" fill="#F0F0F0"/>
<path d="M290.141 139.309H288.35V141.1H290.141V139.309Z" fill="#F0F0F0"/>
<path d="M290.141 142.316H288.35V144.107H290.141V142.316Z" fill="#F0F0F0"/>
<path d="M290.141 145.323H288.35V147.114H290.141V145.323Z" fill="#F0F0F0"/>
<path d="M290.141 148.33H288.35V150.121H290.141V148.33Z" fill="#F0F0F0"/>
<path d="M290.141 151.336H288.35V153.127H290.141V151.336Z" fill="#F0F0F0"/>
<path d="M290.141 154.344H288.35V156.135H290.141V154.344Z" fill="#F0F0F0"/>
<path d="M290.141 157.35H288.35V159.142H290.141V157.35Z" fill="#F0F0F0"/>
<path d="M290.141 160.356H288.35V162.148H290.141V160.356Z" fill="#F0F0F0"/>
<path d="M290.141 163.356H288.35V165.148H290.141V163.356Z" fill="#F0F0F0"/>
<path d="M290.141 166.364H288.35V168.155H290.141V166.364Z" fill="#F0F0F0"/>
<path d="M290.141 169.37H288.35V171.161H290.141V169.37Z" fill="#F0F0F0"/>
<path d="M290.141 172.377H288.35V174.168H290.141V172.377Z" fill="#F0F0F0"/>
<path d="M287.294 121.275H285.503V123.066H287.294V121.275Z" fill="#F0F0F0"/>
<path d="M287.294 124.282H285.503V126.073H287.294V124.282Z" fill="#F0F0F0"/>
<path d="M287.294 127.289H285.503V129.08H287.294V127.289Z" fill="#F0F0F0"/>
<path d="M287.294 130.295H285.503V132.086H287.294V130.295Z" fill="#F0F0F0"/>
<path d="M287.294 133.295H285.503V135.086H287.294V133.295Z" fill="#F0F0F0"/>
<path d="M287.294 136.301H285.503V138.092H287.294V136.301Z" fill="#F0F0F0"/>
<path d="M287.294 139.309H285.503V141.1H287.294V139.309Z" fill="#F0F0F0"/>
<path d="M287.294 142.316H285.503V144.107H287.294V142.316Z" fill="#F0F0F0"/>
<path d="M287.294 145.323H285.503V147.114H287.294V145.323Z" fill="#F0F0F0"/>
<path d="M287.294 148.33H285.503V150.121H287.294V148.33Z" fill="#F0F0F0"/>
<path d="M287.294 157.35H285.503V159.142H287.294V157.35Z" fill="#F0F0F0"/>
<path d="M287.294 160.356H285.503V162.148H287.294V160.356Z" fill="#F0F0F0"/>
<path d="M287.294 163.356H285.503V165.148H287.294V163.356Z" fill="#F0F0F0"/>
<path d="M287.294 166.364H285.503V168.155H287.294V166.364Z" fill="#F0F0F0"/>
<path d="M284.451 121.275H282.66V123.066H284.451V121.275Z" fill="#F0F0F0"/>
<path d="M284.451 124.282H282.66V126.073H284.451V124.282Z" fill="#F0F0F0"/>
<path d="M284.451 127.289H282.66V129.08H284.451V127.289Z" fill="#F0F0F0"/>
<path d="M284.451 130.295H282.66V132.086H284.451V130.295Z" fill="#F0F0F0"/>
<path d="M284.451 133.295H282.66V135.086H284.451V133.295Z" fill="#F0F0F0"/>
<path d="M284.451 136.301H282.66V138.092H284.451V136.301Z" fill="#F0F0F0"/>
<path d="M284.451 139.309H282.66V141.1H284.451V139.309Z" fill="#F0F0F0"/>
<path d="M284.451 142.316H282.66V144.107H284.451V142.316Z" fill="#F0F0F0"/>
<path d="M284.451 145.323H282.66V147.114H284.451V145.323Z" fill="#F0F0F0"/>
<path d="M284.451 148.33H282.66V150.121H284.451V148.33Z" fill="#F0F0F0"/>
<path d="M284.451 157.35H282.66V159.142H284.451V157.35Z" fill="#F0F0F0"/>
<path d="M284.451 160.356H282.66V162.148H284.451V160.356Z" fill="#F0F0F0"/>
<path d="M284.451 163.356H282.66V165.148H284.451V163.356Z" fill="#F0F0F0"/>
<path d="M252.384 113.47H250.593V115.261H252.384V113.47Z" fill="#F0F0F0"/>
<path d="M252.384 116.476H250.593V118.267H252.384V116.476Z" fill="#F0F0F0"/>
<path d="M252.384 119.483H250.593V121.274H252.384V119.483Z" fill="#F0F0F0"/>
<path d="M252.384 122.483H250.593V124.275H252.384V122.483Z" fill="#F0F0F0"/>
<path d="M252.384 125.49H250.593V127.281H252.384V125.49Z" fill="#F0F0F0"/>
<path d="M252.384 128.497H250.593V130.288H252.384V128.497Z" fill="#F0F0F0"/>
<path d="M252.384 131.504H250.593V133.295H252.384V131.504Z" fill="#F0F0F0"/>
<path d="M252.384 134.511H250.593V136.302H252.384V134.511Z" fill="#F0F0F0"/>
<path d="M252.384 143.531H250.593V145.322H252.384V143.531Z" fill="#F0F0F0"/>
<path d="M252.384 146.538H250.593V148.33H252.384V146.538Z" fill="#F0F0F0"/>
<path d="M249.533 113.47H247.742V115.261H249.533V113.47Z" fill="#F0F0F0"/>
<path d="M249.533 116.476H247.742V118.267H249.533V116.476Z" fill="#F0F0F0"/>
<path d="M249.533 119.483H247.742V121.274H249.533V119.483Z" fill="#F0F0F0"/>
<path d="M249.533 122.483H247.742V124.275H249.533V122.483Z" fill="#F0F0F0"/>
<path d="M249.533 125.49H247.742V127.281H249.533V125.49Z" fill="#F0F0F0"/>
<path d="M249.533 128.497H247.742V130.288H249.533V128.497Z" fill="#F0F0F0"/>
<path d="M249.533 131.504H247.742V133.295H249.533V131.504Z" fill="#F0F0F0"/>
<path d="M249.533 134.511H247.742V136.302H249.533V134.511Z" fill="#F0F0F0"/>
<path d="M249.533 146.538H247.742V148.33H249.533V146.538Z" fill="#F0F0F0"/>
<path d="M246.687 113.47H244.896V115.261H246.687V113.47Z" fill="#F0F0F0"/>
<path d="M246.687 116.476H244.896V118.267H246.687V116.476Z" fill="#F0F0F0"/>
<path d="M246.687 119.483H244.896V121.274H246.687V119.483Z" fill="#F0F0F0"/>
<path d="M246.687 122.483H244.896V124.275H246.687V122.483Z" fill="#F0F0F0"/>
<path d="M246.687 125.49H244.896V127.281H246.687V125.49Z" fill="#F0F0F0"/>
<path d="M246.687 128.497H244.896V130.288H246.687V128.497Z" fill="#F0F0F0"/>
<path d="M246.687 131.504H244.896V133.295H246.687V131.504Z" fill="#F0F0F0"/>
<path d="M246.687 134.511H244.896V136.302H246.687V134.511Z" fill="#F0F0F0"/>
<path d="M243.838 113.47H242.047V115.261H243.838V113.47Z" fill="#F0F0F0"/>
<path d="M243.838 116.476H242.047V118.267H243.838V116.476Z" fill="#F0F0F0"/>
<path d="M243.838 119.483H242.047V121.274H243.838V119.483Z" fill="#F0F0F0"/>
<path d="M243.838 122.483H242.047V124.275H243.838V122.483Z" fill="#F0F0F0"/>
<path d="M243.838 125.49H242.047V127.281H243.838V125.49Z" fill="#F0F0F0"/>
<path d="M243.838 128.497H242.047V130.288H243.838V128.497Z" fill="#F0F0F0"/>
<path d="M243.838 134.511H242.047V136.302H243.838V134.511Z" fill="#F0F0F0"/>
<path d="M243.838 137.517H242.047V139.308H243.838V137.517Z" fill="#F0F0F0"/>
<path d="M243.838 146.538H242.047V148.33H243.838V146.538Z" fill="#F0F0F0"/>
<path d="M243.838 149.545H242.047V151.336H243.838V149.545Z" fill="#F0F0F0"/>
<path d="M243.838 152.545H242.047V154.336H243.838V152.545Z" fill="#F0F0F0"/>
<path d="M243.838 155.551H242.047V157.342H243.838V155.551Z" fill="#F0F0F0"/>
<path d="M243.838 158.558H242.047V160.349H243.838V158.558Z" fill="#F0F0F0"/>
<path d="M243.838 161.566H242.047V163.357H243.838V161.566Z" fill="#F0F0F0"/>
<path d="M243.838 164.572H242.047V166.363H243.838V164.572Z" fill="#F0F0F0"/>
<path d="M240.987 113.47H239.196V115.261H240.987V113.47Z" fill="#F0F0F0"/>
<path d="M240.987 116.476H239.196V118.267H240.987V116.476Z" fill="#F0F0F0"/>
<path d="M240.987 119.483H239.196V121.274H240.987V119.483Z" fill="#F0F0F0"/>
<path d="M240.987 122.483H239.196V124.275H240.987V122.483Z" fill="#F0F0F0"/>
<path d="M240.987 125.49H239.196V127.281H240.987V125.49Z" fill="#F0F0F0"/>
<path d="M240.987 128.497H239.196V130.288H240.987V128.497Z" fill="#F0F0F0"/>
<path d="M240.987 137.517H239.196V139.308H240.987V137.517Z" fill="#F0F0F0"/>
<path d="M240.987 140.525H239.196V142.316H240.987V140.525Z" fill="#F0F0F0"/>
<path d="M240.987 143.531H239.196V145.322H240.987V143.531Z" fill="#F0F0F0"/>
<path d="M240.987 146.538H239.196V148.33H240.987V146.538Z" fill="#F0F0F0"/>
<path d="M240.987 149.545H239.196V151.336H240.987V149.545Z" fill="#F0F0F0"/>
<path d="M240.987 152.545H239.196V154.336H240.987V152.545Z" fill="#F0F0F0"/>
<path d="M240.987 155.551H239.196V157.342H240.987V155.551Z" fill="#F0F0F0"/>
<path d="M240.987 158.558H239.196V160.349H240.987V158.558Z" fill="#F0F0F0"/>
<path d="M240.987 161.566H239.196V163.357H240.987V161.566Z" fill="#F0F0F0"/>
<path d="M240.987 164.572H239.196V166.363H240.987V164.572Z" fill="#F0F0F0"/>
<path d="M240.987 167.579H239.196V169.37H240.987V167.579Z" fill="#F0F0F0"/>
<path d="M240.987 173.593H239.196V175.384H240.987V173.593Z" fill="#F0F0F0"/>
<path d="M238.142 113.47H236.351V115.261H238.142V113.47Z" fill="#F0F0F0"/>
<path d="M238.142 116.476H236.351V118.267H238.142V116.476Z" fill="#F0F0F0"/>
<path d="M238.142 119.483H236.351V121.274H238.142V119.483Z" fill="#F0F0F0"/>
<path d="M238.142 122.483H236.351V124.275H238.142V122.483Z" fill="#F0F0F0"/>
<path d="M238.142 125.49H236.351V127.281H238.142V125.49Z" fill="#F0F0F0"/>
<path d="M238.142 128.497H236.351V130.288H238.142V128.497Z" fill="#F0F0F0"/>
<path d="M238.142 137.517H236.351V139.308H238.142V137.517Z" fill="#F0F0F0"/>
<path d="M238.142 140.525H236.351V142.316H238.142V140.525Z" fill="#F0F0F0"/>
<path d="M238.142 143.531H236.351V145.322H238.142V143.531Z" fill="#F0F0F0"/>
<path d="M238.142 146.538H236.351V148.33H238.142V146.538Z" fill="#F0F0F0"/>
<path d="M238.142 155.551H236.351V157.342H238.142V155.551Z" fill="#F0F0F0"/>
<path d="M238.142 158.558H236.351V160.349H238.142V158.558Z" fill="#F0F0F0"/>
<path d="M238.142 161.566H236.351V163.357H238.142V161.566Z" fill="#F0F0F0"/>
<path d="M238.142 164.572H236.351V166.363H238.142V164.572Z" fill="#F0F0F0"/>
<path d="M238.142 167.579H236.351V169.37H238.142V167.579Z" fill="#F0F0F0"/>
<path d="M238.142 173.593H236.351V175.384H238.142V173.593Z" fill="#F0F0F0"/>
<path d="M238.142 176.6H236.351V178.391H238.142V176.6Z" fill="#F0F0F0"/>
<path d="M212.302 141.416H210.511V143.207H212.302V141.416Z" fill="#F0F0F0"/>
<path d="M212.302 144.424H210.511V146.215H212.302V144.424Z" fill="#F0F0F0"/>
<path d="M212.302 147.431H210.511V149.222H212.302V147.431Z" fill="#F0F0F0"/>
<path d="M212.302 150.437H210.511V152.228H212.302V150.437Z" fill="#F0F0F0"/>
<path d="M212.302 153.444H210.511V155.235H212.302V153.444Z" fill="#F0F0F0"/>
<path d="M212.302 156.451H210.511V158.242H212.302V156.451Z" fill="#F0F0F0"/>
<path d="M212.302 159.458H210.511V161.249H212.302V159.458Z" fill="#F0F0F0"/>
<path d="M212.302 168.478H210.511V170.269H212.302V168.478Z" fill="#F0F0F0"/>
<path d="M212.302 171.478H210.511V173.269H212.302V171.478Z" fill="#F0F0F0"/>
<path d="M212.302 174.484H210.511V176.276H212.302V174.484Z" fill="#F0F0F0"/>
<path d="M209.452 141.416H207.661V143.207H209.452V141.416Z" fill="#F0F0F0"/>
<path d="M209.452 144.424H207.661V146.215H209.452V144.424Z" fill="#F0F0F0"/>
<path d="M209.452 147.431H207.661V149.222H209.452V147.431Z" fill="#F0F0F0"/>
<path d="M209.452 150.437H207.661V152.228H209.452V150.437Z" fill="#F0F0F0"/>
<path d="M209.452 153.444H207.661V155.235H209.452V153.444Z" fill="#F0F0F0"/>
<path d="M209.452 156.451H207.661V158.242H209.452V156.451Z" fill="#F0F0F0"/>
<path d="M209.452 159.458H207.661V161.249H209.452V159.458Z" fill="#F0F0F0"/>
<path d="M206.602 141.416H204.811V143.207H206.602V141.416Z" fill="#F0F0F0"/>
<path d="M206.602 144.424H204.811V146.215H206.602V144.424Z" fill="#F0F0F0"/>
<path d="M206.602 147.431H204.811V149.222H206.602V147.431Z" fill="#F0F0F0"/>
<path d="M206.602 150.437H204.811V152.228H206.602V150.437Z" fill="#F0F0F0"/>
<path d="M206.602 153.444H204.811V155.235H206.602V153.444Z" fill="#F0F0F0"/>
<path d="M206.602 156.451H204.811V158.242H206.602V156.451Z" fill="#F0F0F0"/>
<path d="M206.602 159.458H204.811V161.249H206.602V159.458Z" fill="#F0F0F0"/>
<path d="M203.757 141.416H201.966V143.207H203.757V141.416Z" fill="#F0F0F0"/>
<path d="M203.757 144.424H201.966V146.215H203.757V144.424Z" fill="#F0F0F0"/>
<path d="M203.757 147.431H201.966V149.222H203.757V147.431Z" fill="#F0F0F0"/>
<path d="M203.757 150.437H201.966V152.228H203.757V150.437Z" fill="#F0F0F0"/>
<path d="M203.757 153.444H201.966V155.235H203.757V153.444Z" fill="#F0F0F0"/>
<path d="M203.757 156.451H201.966V158.242H203.757V156.451Z" fill="#F0F0F0"/>
<path d="M203.757 159.458H201.966V161.249H203.757V159.458Z" fill="#F0F0F0"/>
<path d="M203.757 162.465H201.966V164.256H203.757V162.465Z" fill="#F0F0F0"/>
<path d="M203.757 165.471H201.966V167.262H203.757V165.471Z" fill="#F0F0F0"/>
<path d="M203.757 168.478H201.966V170.269H203.757V168.478Z" fill="#F0F0F0"/>
<path d="M203.757 171.478H201.966V173.269H203.757V171.478Z" fill="#F0F0F0"/>
<path d="M200.906 141.416H199.115V143.207H200.906V141.416Z" fill="#F0F0F0"/>
<path d="M200.906 144.424H199.115V146.215H200.906V144.424Z" fill="#F0F0F0"/>
<path d="M200.906 147.431H199.115V149.222H200.906V147.431Z" fill="#F0F0F0"/>
<path d="M200.906 150.437H199.115V152.228H200.906V150.437Z" fill="#F0F0F0"/>
<path d="M200.906 153.444H199.115V155.235H200.906V153.444Z" fill="#F0F0F0"/>
<path d="M200.906 156.451H199.115V158.242H200.906V156.451Z" fill="#F0F0F0"/>
<path d="M200.906 159.458H199.115V161.249H200.906V159.458Z" fill="#F0F0F0"/>
<path d="M200.906 162.465H199.115V164.256H200.906V162.465Z" fill="#F0F0F0"/>
<path d="M200.906 165.471H199.115V167.262H200.906V165.471Z" fill="#F0F0F0"/>
<path d="M200.906 168.478H199.115V170.269H200.906V168.478Z" fill="#F0F0F0"/>
<path d="M200.906 171.478H199.115V173.269H200.906V171.478Z" fill="#F0F0F0"/>
<path d="M200.906 174.484H199.115V176.276H200.906V174.484Z" fill="#F0F0F0"/>
<path d="M200.906 183.505H199.115V185.297H200.906V183.505Z" fill="#F0F0F0"/>
<path d="M200.906 186.512H199.115V188.303H200.906V186.512Z" fill="#F0F0F0"/>
<path d="M198.058 141.416H196.267V143.207H198.058V141.416Z" fill="#F0F0F0"/>
<path d="M198.058 144.424H196.267V146.215H198.058V144.424Z" fill="#F0F0F0"/>
<path d="M198.058 147.431H196.267V149.222H198.058V147.431Z" fill="#F0F0F0"/>
<path d="M198.058 156.451H196.267V158.242H198.058V156.451Z" fill="#F0F0F0"/>
<path d="M198.058 159.458H196.267V161.249H198.058V159.458Z" fill="#F0F0F0"/>
<path d="M198.058 162.465H196.267V164.256H198.058V162.465Z" fill="#F0F0F0"/>
<path d="M198.058 165.471H196.267V167.262H198.058V165.471Z" fill="#F0F0F0"/>
<path d="M198.058 168.478H196.267V170.269H198.058V168.478Z" fill="#F0F0F0"/>
<path d="M198.058 171.478H196.267V173.269H198.058V171.478Z" fill="#F0F0F0"/>
<path d="M198.058 174.484H196.267V176.276H198.058V174.484Z" fill="#F0F0F0"/>
<path d="M198.058 183.505H196.267V185.297H198.058V183.505Z" fill="#F0F0F0"/>
<path d="M198.058 186.512H196.267V188.303H198.058V186.512Z" fill="#F0F0F0"/>
<path d="M198.058 189.52H196.267V191.311H198.058V189.52Z" fill="#F0F0F0"/>
<path d="M168.214 123.382H166.423V125.174H168.214V123.382Z" fill="#F0F0F0"/>
<path d="M168.214 126.39H166.423V128.181H168.214V126.39Z" fill="#F0F0F0"/>
<path d="M168.214 129.396H166.423V131.187H168.214V129.396Z" fill="#F0F0F0"/>
<path d="M168.214 132.403H166.423V134.194H168.214V132.403Z" fill="#F0F0F0"/>
<path d="M168.214 135.41H166.423V137.201H168.214V135.41Z" fill="#F0F0F0"/>
<path d="M168.214 138.417H166.423V140.208H168.214V138.417Z" fill="#F0F0F0"/>
<path d="M168.214 141.416H166.423V143.207H168.214V141.416Z" fill="#F0F0F0"/>
<path d="M168.214 144.424H166.423V146.215H168.214V144.424Z" fill="#F0F0F0"/>
<path d="M168.214 147.431H166.423V149.222H168.214V147.431Z" fill="#F0F0F0"/>
<path d="M168.214 150.437H166.423V152.228H168.214V150.437Z" fill="#F0F0F0"/>
<path d="M168.214 153.444H166.423V155.235H168.214V153.444Z" fill="#F0F0F0"/>
<path d="M168.214 156.451H166.423V158.242H168.214V156.451Z" fill="#F0F0F0"/>
<path d="M168.214 159.458H166.423V161.249H168.214V159.458Z" fill="#F0F0F0"/>
<path d="M168.214 162.465H166.423V164.256H168.214V162.465Z" fill="#F0F0F0"/>
<path d="M168.214 165.471H166.423V167.262H168.214V165.471Z" fill="#F0F0F0"/>
<path d="M168.214 168.478H166.423V170.269H168.214V168.478Z" fill="#F0F0F0"/>
<path d="M168.214 171.478H166.423V173.269H168.214V171.478Z" fill="#F0F0F0"/>
<path d="M168.214 174.484H166.423V176.276H168.214V174.484Z" fill="#F0F0F0"/>
<path d="M168.214 177.492H166.423V179.284H168.214V177.492Z" fill="#F0F0F0"/>
<path d="M168.214 180.499H166.423V182.29H168.214V180.499Z" fill="#F0F0F0"/>
<path d="M168.214 183.505H166.423V185.297H168.214V183.505Z" fill="#F0F0F0"/>
<path d="M168.214 186.512H166.423V188.303H168.214V186.512Z" fill="#F0F0F0"/>
<path d="M168.214 189.52H166.423V191.311H168.214V189.52Z" fill="#F0F0F0"/>
<path d="M165.363 123.382H163.572V125.174H165.363V123.382Z" fill="#F0F0F0"/>
<path d="M165.363 126.39H163.572V128.181H165.363V126.39Z" fill="#F0F0F0"/>
<path d="M165.363 129.396H163.572V131.187H165.363V129.396Z" fill="#F0F0F0"/>
<path d="M165.363 132.403H163.572V134.194H165.363V132.403Z" fill="#F0F0F0"/>
<path d="M165.363 135.41H163.572V137.201H165.363V135.41Z" fill="#F0F0F0"/>
<path d="M165.363 138.417H163.572V140.208H165.363V138.417Z" fill="#F0F0F0"/>
<path d="M165.363 141.416H163.572V143.207H165.363V141.416Z" fill="#F0F0F0"/>
<path d="M165.363 144.424H163.572V146.215H165.363V144.424Z" fill="#F0F0F0"/>
<path d="M165.363 147.431H163.572V149.222H165.363V147.431Z" fill="#F0F0F0"/>
<path d="M165.363 150.437H163.572V152.228H165.363V150.437Z" fill="#F0F0F0"/>
<path d="M165.363 153.444H163.572V155.235H165.363V153.444Z" fill="#F0F0F0"/>
<path d="M165.363 156.451H163.572V158.242H165.363V156.451Z" fill="#F0F0F0"/>
<path d="M165.363 159.458H163.572V161.249H165.363V159.458Z" fill="#F0F0F0"/>
<path d="M165.363 162.465H163.572V164.256H165.363V162.465Z" fill="#F0F0F0"/>
<path d="M165.363 165.471H163.572V167.262H165.363V165.471Z" fill="#F0F0F0"/>
<path d="M165.363 168.478H163.572V170.269H165.363V168.478Z" fill="#F0F0F0"/>
<path d="M165.363 171.478H163.572V173.269H165.363V171.478Z" fill="#F0F0F0"/>
<path d="M165.363 174.484H163.572V176.276H165.363V174.484Z" fill="#F0F0F0"/>
<path d="M165.363 177.492H163.572V179.284H165.363V177.492Z" fill="#F0F0F0"/>
<path d="M162.515 123.382H160.724V125.174H162.515V123.382Z" fill="#F0F0F0"/>
<path d="M162.515 126.39H160.724V128.181H162.515V126.39Z" fill="#F0F0F0"/>
<path d="M162.515 129.396H160.724V131.187H162.515V129.396Z" fill="#F0F0F0"/>
<path d="M162.515 132.403H160.724V134.194H162.515V132.403Z" fill="#F0F0F0"/>
<path d="M162.515 135.41H160.724V137.201H162.515V135.41Z" fill="#F0F0F0"/>
<path d="M162.515 138.417H160.724V140.208H162.515V138.417Z" fill="#F0F0F0"/>
<path d="M162.515 141.416H160.724V143.207H162.515V141.416Z" fill="#F0F0F0"/>
<path d="M162.515 144.424H160.724V146.215H162.515V144.424Z" fill="#F0F0F0"/>
<path d="M162.515 147.431H160.724V149.222H162.515V147.431Z" fill="#F0F0F0"/>
<path d="M162.515 150.437H160.724V152.228H162.515V150.437Z" fill="#F0F0F0"/>
<path d="M162.515 153.444H160.724V155.235H162.515V153.444Z" fill="#F0F0F0"/>
<path d="M162.515 156.451H160.724V158.242H162.515V156.451Z" fill="#F0F0F0"/>
<path d="M162.515 159.458H160.724V161.249H162.515V159.458Z" fill="#F0F0F0"/>
<path d="M162.515 162.465H160.724V164.256H162.515V162.465Z" fill="#F0F0F0"/>
<path d="M162.515 165.471H160.724V167.262H162.515V165.471Z" fill="#F0F0F0"/>
<path d="M162.515 168.478H160.724V170.269H162.515V168.478Z" fill="#F0F0F0"/>
<path d="M162.515 171.478H160.724V173.269H162.515V171.478Z" fill="#F0F0F0"/>
<path d="M162.515 174.484H160.724V176.276H162.515V174.484Z" fill="#F0F0F0"/>
<path d="M162.515 177.492H160.724V179.284H162.515V177.492Z" fill="#F0F0F0"/>
<path d="M159.668 123.382H157.877V125.174H159.668V123.382Z" fill="#F0F0F0"/>
<path d="M159.668 126.39H157.877V128.181H159.668V126.39Z" fill="#F0F0F0"/>
<path d="M159.668 129.396H157.877V131.187H159.668V129.396Z" fill="#F0F0F0"/>
<path d="M159.668 132.403H157.877V134.194H159.668V132.403Z" fill="#F0F0F0"/>
<path d="M159.668 135.41H157.877V137.201H159.668V135.41Z" fill="#F0F0F0"/>
<path d="M159.668 138.417H157.877V140.208H159.668V138.417Z" fill="#F0F0F0"/>
<path d="M159.668 141.416H157.877V143.207H159.668V141.416Z" fill="#F0F0F0"/>
<path d="M159.668 144.424H157.877V146.215H159.668V144.424Z" fill="#F0F0F0"/>
<path d="M159.668 147.431H157.877V149.222H159.668V147.431Z" fill="#F0F0F0"/>
<path d="M159.668 150.437H157.877V152.228H159.668V150.437Z" fill="#F0F0F0"/>
<path d="M159.668 153.444H157.877V155.235H159.668V153.444Z" fill="#F0F0F0"/>
<path d="M159.668 156.451H157.877V158.242H159.668V156.451Z" fill="#F0F0F0"/>
<path d="M159.668 159.458H157.877V161.249H159.668V159.458Z" fill="#F0F0F0"/>
<path d="M159.668 162.465H157.877V164.256H159.668V162.465Z" fill="#F0F0F0"/>
<path d="M159.668 165.471H157.877V167.262H159.668V165.471Z" fill="#F0F0F0"/>
<path d="M156.816 123.382H155.024V125.174H156.816V123.382Z" fill="#F0F0F0"/>
<path d="M156.816 126.39H155.024V128.181H156.816V126.39Z" fill="#F0F0F0"/>
<path d="M156.816 129.396H155.024V131.187H156.816V129.396Z" fill="#F0F0F0"/>
<path d="M156.816 132.403H155.024V134.194H156.816V132.403Z" fill="#F0F0F0"/>
<path d="M156.816 135.41H155.024V137.201H156.816V135.41Z" fill="#F0F0F0"/>
<path d="M156.816 138.417H155.024V140.208H156.816V138.417Z" fill="#F0F0F0"/>
<path d="M156.816 141.416H155.024V143.207H156.816V141.416Z" fill="#F0F0F0"/>
<path d="M156.816 144.424H155.024V146.215H156.816V144.424Z" fill="#F0F0F0"/>
<path d="M156.816 147.431H155.024V149.222H156.816V147.431Z" fill="#F0F0F0"/>
<path d="M156.816 150.437H155.024V152.228H156.816V150.437Z" fill="#F0F0F0"/>
<path d="M156.816 153.444H155.024V155.235H156.816V153.444Z" fill="#F0F0F0"/>
<path d="M156.816 156.451H155.024V158.242H156.816V156.451Z" fill="#F0F0F0"/>
<path d="M156.816 159.458H155.024V161.249H156.816V159.458Z" fill="#F0F0F0"/>
<path d="M153.97 123.382H152.179V125.174H153.97V123.382Z" fill="#F0F0F0"/>
<path d="M153.97 126.39H152.179V128.181H153.97V126.39Z" fill="#F0F0F0"/>
<path d="M153.97 129.396H152.179V131.187H153.97V129.396Z" fill="#F0F0F0"/>
<path d="M153.97 132.403H152.179V134.194H153.97V132.403Z" fill="#F0F0F0"/>
<path d="M153.97 135.41H152.179V137.201H153.97V135.41Z" fill="#F0F0F0"/>
<path d="M153.97 138.417H152.179V140.208H153.97V138.417Z" fill="#F0F0F0"/>
<path d="M153.97 141.416H152.179V143.207H153.97V141.416Z" fill="#F0F0F0"/>
<path d="M153.97 144.424H152.179V146.215H153.97V144.424Z" fill="#F0F0F0"/>
<path d="M153.97 147.431H152.179V149.222H153.97V147.431Z" fill="#F0F0F0"/>
<path d="M153.97 150.437H152.179V152.228H153.97V150.437Z" fill="#F0F0F0"/>
<path d="M153.97 153.444H152.179V155.235H153.97V153.444Z" fill="#F0F0F0"/>
<path d="M153.97 156.451H152.179V158.242H153.97V156.451Z" fill="#F0F0F0"/>
<path d="M320.203 122.483H318.412V124.275H320.203V122.483Z" fill="#F0F0F0"/>
<path d="M320.203 125.49H318.412V127.281H320.203V125.49Z" fill="#F0F0F0"/>
<path d="M320.203 128.497H318.412V130.288H320.203V128.497Z" fill="#F0F0F0"/>
<path d="M320.203 131.504H318.412V133.295H320.203V131.504Z" fill="#F0F0F0"/>
<path d="M320.203 134.511H318.412V136.302H320.203V134.511Z" fill="#F0F0F0"/>
<path d="M320.203 137.517H318.412V139.308H320.203V137.517Z" fill="#F0F0F0"/>
<path d="M320.203 140.525H318.412V142.316H320.203V140.525Z" fill="#F0F0F0"/>
<path d="M320.203 143.531H318.412V145.322H320.203V143.531Z" fill="#F0F0F0"/>
<path d="M320.203 146.538H318.412V148.33H320.203V146.538Z" fill="#F0F0F0"/>
<path d="M320.203 149.545H318.412V151.336H320.203V149.545Z" fill="#F0F0F0"/>
<path d="M320.203 152.545H318.412V154.336H320.203V152.545Z" fill="#F0F0F0"/>
<path d="M320.203 155.551H318.412V157.342H320.203V155.551Z" fill="#F0F0F0"/>
<path d="M320.203 158.558H318.412V160.349H320.203V158.558Z" fill="#F0F0F0"/>
<path d="M320.203 161.566H318.412V163.357H320.203V161.566Z" fill="#F0F0F0"/>
<path d="M320.203 164.572H318.412V166.363H320.203V164.572Z" fill="#F0F0F0"/>
<path d="M320.203 167.579H318.412V169.37H320.203V167.579Z" fill="#F0F0F0"/>
<path d="M320.203 170.586H318.412V172.377H320.203V170.586Z" fill="#F0F0F0"/>
<path d="M320.203 176.6H318.412V178.391H320.203V176.6Z" fill="#F0F0F0"/>
<path d="M320.203 179.607H318.412V181.398H320.203V179.607Z" fill="#F0F0F0"/>
<path d="M320.203 182.607H318.412V184.398H320.203V182.607Z" fill="#F0F0F0"/>
<path d="M320.203 185.613H318.412V187.404H320.203V185.613Z" fill="#F0F0F0"/>
<path d="M320.203 188.62H318.412V190.411H320.203V188.62Z" fill="#F0F0F0"/>
<path d="M317.353 122.483H315.562V124.275H317.353V122.483Z" fill="#F0F0F0"/>
<path d="M317.353 125.49H315.562V127.281H317.353V125.49Z" fill="#F0F0F0"/>
<path d="M317.353 128.497H315.562V130.288H317.353V128.497Z" fill="#F0F0F0"/>
<path d="M317.353 131.504H315.562V133.295H317.353V131.504Z" fill="#F0F0F0"/>
<path d="M317.353 134.511H315.562V136.302H317.353V134.511Z" fill="#F0F0F0"/>
<path d="M317.353 137.517H315.562V139.308H317.353V137.517Z" fill="#F0F0F0"/>
<path d="M317.353 140.525H315.562V142.316H317.353V140.525Z" fill="#F0F0F0"/>
<path d="M317.353 143.531H315.562V145.322H317.353V143.531Z" fill="#F0F0F0"/>
<path d="M317.353 146.538H315.562V148.33H317.353V146.538Z" fill="#F0F0F0"/>
<path d="M317.353 149.545H315.562V151.336H317.353V149.545Z" fill="#F0F0F0"/>
<path d="M317.353 152.545H315.562V154.336H317.353V152.545Z" fill="#F0F0F0"/>
<path d="M317.353 155.551H315.562V157.342H317.353V155.551Z" fill="#F0F0F0"/>
<path d="M317.353 158.558H315.562V160.349H317.353V158.558Z" fill="#F0F0F0"/>
<path d="M317.353 161.566H315.562V163.357H317.353V161.566Z" fill="#F0F0F0"/>
<path d="M317.353 164.572H315.562V166.363H317.353V164.572Z" fill="#F0F0F0"/>
<path d="M317.353 167.579H315.562V169.37H317.353V167.579Z" fill="#F0F0F0"/>
<path d="M317.353 185.613H315.562V187.404H317.353V185.613Z" fill="#F0F0F0"/>
<path d="M317.353 188.62H315.562V190.411H317.353V188.62Z" fill="#F0F0F0"/>
<path d="M314.515 122.483H312.724V124.275H314.515V122.483Z" fill="#F0F0F0"/>
<path d="M314.515 125.49H312.724V127.281H314.515V125.49Z" fill="#F0F0F0"/>
<path d="M314.515 128.497H312.724V130.288H314.515V128.497Z" fill="#F0F0F0"/>
<path d="M314.515 131.504H312.724V133.295H314.515V131.504Z" fill="#F0F0F0"/>
<path d="M314.515 134.511H312.724V136.302H314.515V134.511Z" fill="#F0F0F0"/>
<path d="M314.515 137.517H312.724V139.308H314.515V137.517Z" fill="#F0F0F0"/>
<path d="M314.515 140.525H312.724V142.316H314.515V140.525Z" fill="#F0F0F0"/>
<path d="M314.515 143.531H312.724V145.322H314.515V143.531Z" fill="#F0F0F0"/>
<path d="M314.515 146.538H312.724V148.33H314.515V146.538Z" fill="#F0F0F0"/>
<path d="M314.515 149.545H312.724V151.336H314.515V149.545Z" fill="#F0F0F0"/>
<path d="M314.515 152.545H312.724V154.336H314.515V152.545Z" fill="#F0F0F0"/>
<path d="M314.515 155.551H312.724V157.342H314.515V155.551Z" fill="#F0F0F0"/>
<path d="M314.515 158.558H312.724V160.349H314.515V158.558Z" fill="#F0F0F0"/>
<path d="M314.515 161.566H312.724V163.357H314.515V161.566Z" fill="#F0F0F0"/>
<path d="M314.515 164.572H312.724V166.363H314.515V164.572Z" fill="#F0F0F0"/>
<path d="M314.515 167.579H312.724V169.37H314.515V167.579Z" fill="#F0F0F0"/>
<path d="M314.515 173.593H312.724V175.384H314.515V173.593Z" fill="#F0F0F0"/>
<path d="M314.515 176.6H312.724V178.391H314.515V176.6Z" fill="#F0F0F0"/>
<path d="M314.515 179.607H312.724V181.398H314.515V179.607Z" fill="#F0F0F0"/>
<path d="M314.515 182.607H312.724V184.398H314.515V182.607Z" fill="#F0F0F0"/>
<path d="M314.515 188.62H312.724V190.411H314.515V188.62Z" fill="#F0F0F0"/>
<path d="M264.828 143.531H263.037V145.322H264.828V143.531Z" fill="#F0F0F0"/>
<path d="M264.828 146.538H263.037V148.33H264.828V146.538Z" fill="#F0F0F0"/>
<path d="M264.828 149.545H263.037V151.336H264.828V149.545Z" fill="#F0F0F0"/>
<path d="M264.828 152.545H263.037V154.336H264.828V152.545Z" fill="#F0F0F0"/>
<path d="M264.828 155.551H263.037V157.342H264.828V155.551Z" fill="#F0F0F0"/>
<path d="M264.828 158.558H263.037V160.349H264.828V158.558Z" fill="#F0F0F0"/>
<path d="M264.828 161.566H263.037V163.357H264.828V161.566Z" fill="#F0F0F0"/>
<path d="M264.828 164.572H263.037V166.363H264.828V164.572Z" fill="#F0F0F0"/>
<path d="M264.828 167.579H263.037V169.37H264.828V167.579Z" fill="#F0F0F0"/>
<path d="M264.828 170.586H263.037V172.377H264.828V170.586Z" fill="#F0F0F0"/>
<path d="M264.828 173.593H263.037V175.384H264.828V173.593Z" fill="#F0F0F0"/>
<path d="M264.828 176.6H263.037V178.391H264.828V176.6Z" fill="#F0F0F0"/>
<path d="M264.828 179.607H263.037V181.398H264.828V179.607Z" fill="#F0F0F0"/>
<path d="M264.828 185.613H263.037V187.404H264.828V185.613Z" fill="#F0F0F0"/>
<path d="M264.828 188.62H263.037V190.411H264.828V188.62Z" fill="#F0F0F0"/>
<path d="M264.828 191.627H263.037V193.418H264.828V191.627Z" fill="#F0F0F0"/>
<path d="M264.828 194.634H263.037V196.425H264.828V194.634Z" fill="#F0F0F0"/>
<path d="M264.828 200.647H263.037V202.439H264.828V200.647Z" fill="#F0F0F0"/>
<path d="M264.828 203.654H263.037V205.445H264.828V203.654Z" fill="#F0F0F0"/>
<path d="M264.828 206.662H263.037V208.453H264.828V206.662Z" fill="#F0F0F0"/>
<path d="M261.978 143.531H260.187V145.322H261.978V143.531Z" fill="#F0F0F0"/>
<path d="M261.978 146.538H260.187V148.33H261.978V146.538Z" fill="#F0F0F0"/>
<path d="M261.978 149.545H260.187V151.336H261.978V149.545Z" fill="#F0F0F0"/>
<path d="M261.978 152.545H260.187V154.336H261.978V152.545Z" fill="#F0F0F0"/>
<path d="M261.978 155.551H260.187V157.342H261.978V155.551Z" fill="#F0F0F0"/>
<path d="M261.978 158.558H260.187V160.349H261.978V158.558Z" fill="#F0F0F0"/>
<path d="M261.978 161.566H260.187V163.357H261.978V161.566Z" fill="#F0F0F0"/>
<path d="M261.978 164.572H260.187V166.363H261.978V164.572Z" fill="#F0F0F0"/>
<path d="M261.978 167.579H260.187V169.37H261.978V167.579Z" fill="#F0F0F0"/>
<path d="M261.978 170.586H260.187V172.377H261.978V170.586Z" fill="#F0F0F0"/>
<path d="M261.978 173.593H260.187V175.384H261.978V173.593Z" fill="#F0F0F0"/>
<path d="M261.978 176.6H260.187V178.391H261.978V176.6Z" fill="#F0F0F0"/>
<path d="M261.978 179.607H260.187V181.398H261.978V179.607Z" fill="#F0F0F0"/>
<path d="M261.978 188.62H260.187V190.411H261.978V188.62Z" fill="#F0F0F0"/>
<path d="M261.978 191.627H260.187V193.418H261.978V191.627Z" fill="#F0F0F0"/>
<path d="M261.978 197.641H260.187V199.432H261.978V197.641Z" fill="#F0F0F0"/>
<path d="M261.978 200.647H260.187V202.439H261.978V200.647Z" fill="#F0F0F0"/>
<path d="M261.978 203.654H260.187V205.445H261.978V203.654Z" fill="#F0F0F0"/>
<path d="M261.978 206.662H260.187V208.453H261.978V206.662Z" fill="#F0F0F0"/>
<path d="M259.132 143.531H257.341V145.322H259.132V143.531Z" fill="#F0F0F0"/>
<path d="M259.132 146.538H257.341V148.33H259.132V146.538Z" fill="#F0F0F0"/>
<path d="M259.132 149.545H257.341V151.336H259.132V149.545Z" fill="#F0F0F0"/>
<path d="M259.132 152.545H257.341V154.336H259.132V152.545Z" fill="#F0F0F0"/>
<path d="M259.132 155.551H257.341V157.342H259.132V155.551Z" fill="#F0F0F0"/>
<path d="M259.132 158.558H257.341V160.349H259.132V158.558Z" fill="#F0F0F0"/>
<path d="M259.132 161.566H257.341V163.357H259.132V161.566Z" fill="#F0F0F0"/>
<path d="M259.132 164.572H257.341V166.363H259.132V164.572Z" fill="#F0F0F0"/>
<path d="M259.132 167.579H257.341V169.37H259.132V167.579Z" fill="#F0F0F0"/>
<path d="M259.132 170.586H257.341V172.377H259.132V170.586Z" fill="#F0F0F0"/>
<path d="M259.132 173.593H257.341V175.384H259.132V173.593Z" fill="#F0F0F0"/>
<path d="M259.132 176.6H257.341V178.391H259.132V176.6Z" fill="#F0F0F0"/>
<path d="M259.132 179.607H257.341V181.398H259.132V179.607Z" fill="#F0F0F0"/>
<path d="M259.132 182.607H257.341V184.398H259.132V182.607Z" fill="#F0F0F0"/>
<path d="M259.132 188.62H257.341V190.411H259.132V188.62Z" fill="#F0F0F0"/>
<path d="M259.132 194.634H257.341V196.425H259.132V194.634Z" fill="#F0F0F0"/>
<path d="M259.132 197.641H257.341V199.432H259.132V197.641Z" fill="#F0F0F0"/>
<path d="M259.132 200.647H257.341V202.439H259.132V200.647Z" fill="#F0F0F0"/>
<path d="M259.132 203.654H257.341V205.445H259.132V203.654Z" fill="#F0F0F0"/>
<path d="M259.132 206.662H257.341V208.453H259.132V206.662Z" fill="#F0F0F0"/>
<path d="M276.43 160.674H274.639V162.465H276.43V160.674Z" fill="#F0F0F0"/>
<path d="M276.43 163.673H274.639V165.464H276.43V163.673Z" fill="#F0F0F0"/>
<path d="M276.43 166.68H274.639V168.471H276.43V166.68Z" fill="#F0F0F0"/>
<path d="M276.43 169.687H274.639V171.478H276.43V169.687Z" fill="#F0F0F0"/>
<path d="M276.43 172.693H274.639V174.484H276.43V172.693Z" fill="#F0F0F0"/>
<path d="M276.43 175.701H274.639V177.492H276.43V175.701Z" fill="#F0F0F0"/>
<path d="M276.43 184.721H274.639V186.512H276.43V184.721Z" fill="#F0F0F0"/>
<path d="M276.43 187.728H274.639V189.519H276.43V187.728Z" fill="#F0F0F0"/>
<path d="M276.43 190.728H274.639V192.519H276.43V190.728Z" fill="#F0F0F0"/>
<path d="M276.43 193.734H274.639V195.525H276.43V193.734Z" fill="#F0F0F0"/>
<path d="M276.43 196.742H274.639V198.533H276.43V196.742Z" fill="#F0F0F0"/>
<path d="M276.43 199.748H274.639V201.54H276.43V199.748Z" fill="#F0F0F0"/>
<path d="M276.43 202.755H274.639V204.547H276.43V202.755Z" fill="#F0F0F0"/>
<path d="M273.583 160.674H271.792V162.465H273.583V160.674Z" fill="#F0F0F0"/>
<path d="M273.583 163.673H271.792V165.464H273.583V163.673Z" fill="#F0F0F0"/>
<path d="M273.583 166.68H271.792V168.471H273.583V166.68Z" fill="#F0F0F0"/>
<path d="M273.583 169.687H271.792V171.478H273.583V169.687Z" fill="#F0F0F0"/>
<path d="M273.583 172.693H271.792V174.484H273.583V172.693Z" fill="#F0F0F0"/>
<path d="M273.583 175.701H271.792V177.492H273.583V175.701Z" fill="#F0F0F0"/>
<path d="M273.583 184.721H271.792V186.512H273.583V184.721Z" fill="#F0F0F0"/>
<path d="M273.583 187.728H271.792V189.519H273.583V187.728Z" fill="#F0F0F0"/>
<path d="M273.583 190.728H271.792V192.519H273.583V190.728Z" fill="#F0F0F0"/>
<path d="M273.583 193.734H271.792V195.525H273.583V193.734Z" fill="#F0F0F0"/>
<path d="M273.583 196.742H271.792V198.533H273.583V196.742Z" fill="#F0F0F0"/>
<path d="M273.583 199.748H271.792V201.54H273.583V199.748Z" fill="#F0F0F0"/>
<path d="M273.583 205.762H271.792V207.553H273.583V205.762Z" fill="#F0F0F0"/>
<path d="M178.965 147.431H177.174V149.222H178.965V147.431Z" fill="#F0F0F0"/>
<path d="M178.965 150.437H177.174V152.228H178.965V150.437Z" fill="#F0F0F0"/>
<path d="M178.965 153.444H177.174V155.235H178.965V153.444Z" fill="#F0F0F0"/>
<path d="M178.965 156.451H177.174V158.242H178.965V156.451Z" fill="#F0F0F0"/>
<path d="M178.965 159.458H177.174V161.249H178.965V159.458Z" fill="#F0F0F0"/>
<path d="M178.965 162.465H177.174V164.256H178.965V162.465Z" fill="#F0F0F0"/>
<path d="M178.965 165.471H177.174V167.262H178.965V165.471Z" fill="#F0F0F0"/>
<path d="M178.965 168.478H177.174V170.269H178.965V168.478Z" fill="#F0F0F0"/>
<path d="M178.965 171.478H177.174V173.269H178.965V171.478Z" fill="#F0F0F0"/>
<path d="M178.965 174.484H177.174V176.276H178.965V174.484Z" fill="#F0F0F0"/>
<path d="M178.965 177.492H177.174V179.284H178.965V177.492Z" fill="#F0F0F0"/>
<path d="M178.965 183.505H177.174V185.297H178.965V183.505Z" fill="#F0F0F0"/>
<path d="M178.965 186.512H177.174V188.303H178.965V186.512Z" fill="#F0F0F0"/>
<path d="M178.965 189.52H177.174V191.311H178.965V189.52Z" fill="#F0F0F0"/>
<path d="M178.965 192.527H177.174V194.318H178.965V192.527Z" fill="#F0F0F0"/>
<path d="M178.965 195.533H177.174V197.324H178.965V195.533Z" fill="#F0F0F0"/>
<path d="M178.965 198.54H177.174V200.331H178.965V198.54Z" fill="#F0F0F0"/>
<path d="M178.965 201.539H177.174V203.33H178.965V201.539Z" fill="#F0F0F0"/>
<path d="M178.965 204.546H177.174V206.338H178.965V204.546Z" fill="#F0F0F0"/>
<path d="M176.124 147.431H174.333V149.222H176.124V147.431Z" fill="#F0F0F0"/>
<path d="M176.124 150.437H174.333V152.228H176.124V150.437Z" fill="#F0F0F0"/>
<path d="M176.124 153.444H174.333V155.235H176.124V153.444Z" fill="#F0F0F0"/>
<path d="M176.124 156.451H174.333V158.242H176.124V156.451Z" fill="#F0F0F0"/>
<path d="M176.124 159.458H174.333V161.249H176.124V159.458Z" fill="#F0F0F0"/>
<path d="M176.124 162.465H174.333V164.256H176.124V162.465Z" fill="#F0F0F0"/>
<path d="M176.124 165.471H174.333V167.262H176.124V165.471Z" fill="#F0F0F0"/>
<path d="M176.124 168.478H174.333V170.269H176.124V168.478Z" fill="#F0F0F0"/>
<path d="M176.124 171.478H174.333V173.269H176.124V171.478Z" fill="#F0F0F0"/>
<path d="M176.124 174.484H174.333V176.276H176.124V174.484Z" fill="#F0F0F0"/>
<path d="M176.124 177.492H174.333V179.284H176.124V177.492Z" fill="#F0F0F0"/>
<path d="M176.124 180.499H174.333V182.29H176.124V180.499Z" fill="#F0F0F0"/>
<path d="M176.124 183.505H174.333V185.297H176.124V183.505Z" fill="#F0F0F0"/>
<path d="M176.124 186.512H174.333V188.303H176.124V186.512Z" fill="#F0F0F0"/>
<path d="M176.124 189.52H174.333V191.311H176.124V189.52Z" fill="#F0F0F0"/>
<path d="M176.124 192.527H174.333V194.318H176.124V192.527Z" fill="#F0F0F0"/>
<path d="M176.124 195.533H174.333V197.324H176.124V195.533Z" fill="#F0F0F0"/>
<path d="M176.124 198.54H174.333V200.331H176.124V198.54Z" fill="#F0F0F0"/>
<path d="M176.124 201.539H174.333V203.33H176.124V201.539Z" fill="#F0F0F0"/>
<path d="M176.124 204.546H174.333V206.338H176.124V204.546Z" fill="#F0F0F0"/>
<path d="M193.002 159.141H191.211V160.932H193.002V159.141Z" fill="#F0F0F0"/>
<path d="M193.002 162.148H191.211V163.939H193.002V162.148Z" fill="#F0F0F0"/>
<path d="M193.002 165.154H191.211V166.946H193.002V165.154Z" fill="#F0F0F0"/>
<path d="M193.002 168.162H191.211V169.954H193.002V168.162Z" fill="#F0F0F0"/>
<path d="M193.002 171.161H191.211V172.952H193.002V171.161Z" fill="#F0F0F0"/>
<path d="M193.002 174.169H191.211V175.96H193.002V174.169Z" fill="#F0F0F0"/>
<path d="M193.002 177.175H191.211V178.966H193.002V177.175Z" fill="#F0F0F0"/>
<path d="M193.002 180.182H191.211V181.973H193.002V180.182Z" fill="#F0F0F0"/>
<path d="M193.002 183.189H191.211V184.98H193.002V183.189Z" fill="#F0F0F0"/>
<path d="M193.002 186.196H191.211V187.987H193.002V186.196Z" fill="#F0F0F0"/>
<path d="M190.153 159.141H188.362V160.932H190.153V159.141Z" fill="#F0F0F0"/>
<path d="M190.153 162.148H188.362V163.939H190.153V162.148Z" fill="#F0F0F0"/>
<path d="M190.153 165.154H188.362V166.946H190.153V165.154Z" fill="#F0F0F0"/>
<path d="M190.153 168.162H188.362V169.954H190.153V168.162Z" fill="#F0F0F0"/>
<path d="M190.153 171.161H188.362V172.952H190.153V171.161Z" fill="#F0F0F0"/>
<path d="M190.153 174.169H188.362V175.96H190.153V174.169Z" fill="#F0F0F0"/>
<path d="M190.153 177.175H188.362V178.966H190.153V177.175Z" fill="#F0F0F0"/>
<path d="M190.153 180.182H188.362V181.973H190.153V180.182Z" fill="#F0F0F0"/>
<path d="M190.153 183.189H188.362V184.98H190.153V183.189Z" fill="#F0F0F0"/>
<path d="M207.093 45.0603H204.086V212.726H207.093V45.0603Z" fill="#E0E0E0"/>
<path d="M263.711 45.0603H260.704V212.726H263.711V45.0603Z" fill="#E0E0E0"/>
<path d="M320.325 45.0603H317.318V212.726H320.325V45.0603Z" fill="#E0E0E0"/>
<path d="M106.333 196.411H124.878C125.718 196.413 126.523 196.748 127.116 197.343C127.71 197.937 128.043 198.743 128.043 199.583V235.428H103.168V199.583C103.168 198.743 103.501 197.937 104.095 197.343C104.688 196.748 105.493 196.413 106.333 196.411Z" fill="#F0F0F0"/>
<path d="M128.05 201.683H103.168V204.482H128.05V201.683Z" fill="#E6E6E6"/>
<path d="M117.318 230.702H123.519C123.971 230.702 124.405 230.881 124.725 231.201C125.044 231.521 125.224 231.954 125.224 232.407V235.428H115.606V232.407C115.606 232.182 115.651 231.96 115.737 231.753C115.823 231.545 115.949 231.357 116.108 231.199C116.267 231.04 116.456 230.915 116.664 230.829C116.872 230.744 117.094 230.701 117.318 230.702Z" fill="#E0E0E0"/>
<path d="M125.253 235.428H118.362C118.068 235.428 117.786 235.311 117.578 235.104C117.371 234.896 117.254 234.614 117.254 234.32C117.256 234.028 117.373 233.748 117.581 233.542C117.788 233.335 118.069 233.22 118.362 233.22H125.253C125.546 233.22 125.826 233.335 126.034 233.542C126.241 233.748 126.359 234.028 126.361 234.32C126.361 234.614 126.244 234.896 126.036 235.104C125.829 235.311 125.547 235.428 125.253 235.428Z" fill="#E6E6E6"/>
<path d="M235.741 37.1938C244.847 35.0446 250.487 25.9206 248.337 16.8147C246.188 7.70888 237.064 2.06938 227.958 4.21856C218.852 6.36773 213.213 15.4917 215.362 24.5976C217.511 33.7035 226.635 39.343 235.741 37.1938Z" fill="#0B4423"/>
<path d="M234.155 34.9093C242.01 33.6343 247.344 26.2331 246.069 18.3783C244.794 10.5235 237.393 5.18956 229.538 6.46458C221.683 7.73959 216.349 15.1408 217.624 22.9956C218.899 30.8504 226.3 36.1843 234.155 34.9093Z" fill="#F0F0F0"/>
<path d="M232.528 10.8043V20.8752L239.197 17.0986" fill="#F0F0F0"/>
<path d="M232.528 10.8043V20.8752L239.197 17.0986" stroke="#0B4423" stroke-width="2" stroke-linecap="round" stroke-linejoin="round"/>
<path d="M69.7262 186.052C68.4314 183.894 66.3021 185.771 66.3021 185.771C66.6042 181.685 62.8493 178.894 62.8493 178.894C62.8493 178.894 67.2157 178.894 67.8199 174.729C68.4242 170.564 66.3021 172.499 64.3023 172.471C62.3025 172.442 60.2092 178.283 62.8636 181.57C65.518 184.858 64.7915 190.469 58.6986 195.864C57.2416 197.227 56.1486 198.933 55.5191 200.827C55.9795 195.871 56.2384 188.886 54.7998 184.225C52.3252 176.312 57.0441 174.154 58.3965 170.212C59.7489 166.27 54.7998 162.903 54.7998 162.903C54.7998 162.903 59.4827 160.745 57.1952 158.335C54.9077 155.926 50.1887 156.228 50.1887 159.414C50.1887 162.601 53.3898 163.817 53.3898 163.817C53.3898 163.817 57.0441 167.622 57.0441 169.572C57.0441 171.521 53.3898 175.815 53.3898 175.815C53.3898 175.815 55.0659 172.168 51.7138 172.017C48.3616 171.866 47.297 176.276 48.6709 178.254C50.0449 180.232 52.3252 178.563 52.3252 178.563C52.4682 180.873 52.8173 183.164 53.3683 185.412C53.7135 186.555 53.5553 191.022 53.2675 195.669C52.6314 193.992 51.6144 192.485 50.2966 191.267C44.2038 185.872 43.4988 180.261 46.1388 176.974C48.7788 173.686 46.6855 167.845 44.7001 167.874C42.7147 167.903 40.5639 165.96 41.1753 170.125C41.7868 174.29 46.1532 174.298 46.1532 174.298C46.1532 174.298 42.391 177.089 42.6931 181.175C42.6931 181.175 40.5351 179.319 39.2691 181.455C36.9599 185.26 42.3191 187.62 43.2183 185.771C43.2183 185.771 54.5768 193.814 51.8504 205.388L52.4835 206.33C52.4043 207.265 52.354 207.826 52.354 207.826L53.2388 207.445L54.253 208.934C54.2176 210.617 54.3041 212.3 54.512 213.97L57.224 209.956C54.4832 198.381 65.8561 190.339 65.8561 190.339C66.6834 192.224 72.0353 189.857 69.7262 186.052Z" fill="#E0E0E0"/>
<path opacity="0.2" d="M69.7262 186.052C68.4314 183.894 66.3021 185.771 66.3021 185.771C66.6042 181.685 62.8493 178.894 62.8493 178.894C62.8493 178.894 67.2157 178.894 67.8199 174.729C68.4242 170.564 66.3021 172.499 64.3023 172.471C62.3025 172.442 60.2092 178.283 62.8636 181.57C65.518 184.858 64.7915 190.469 58.6986 195.864C57.2416 197.227 56.1486 198.933 55.5191 200.827C55.9795 195.871 56.2384 188.886 54.7998 184.225C52.3252 176.312 57.0441 174.154 58.3965 170.212C59.7489 166.27 54.7998 162.903 54.7998 162.903C54.7998 162.903 59.4827 160.745 57.1952 158.335C54.9077 155.926 50.1887 156.228 50.1887 159.414C50.1887 162.601 53.3898 163.817 53.3898 163.817C53.3898 163.817 57.0441 167.622 57.0441 169.572C57.0441 171.521 53.3898 175.815 53.3898 175.815C53.3898 175.815 55.0659 172.168 51.7138 172.017C48.3616 171.866 47.297 176.276 48.6709 178.254C50.0449 180.232 52.3252 178.563 52.3252 178.563C52.4682 180.873 52.8173 183.164 53.3683 185.412C53.7135 186.555 53.5553 191.022 53.2675 195.669C52.6314 193.992 51.6144 192.485 50.2966 191.267C44.2038 185.872 43.4988 180.261 46.1388 176.974C48.7788 173.686 46.6855 167.845 44.7001 167.874C42.7147 167.903 40.5639 165.96 41.1753 170.125C41.7868 174.29 46.1532 174.298 46.1532 174.298C46.1532 174.298 42.391 177.089 42.6931 181.175C42.6931 181.175 40.5351 179.319 39.2691 181.455C36.9599 185.26 42.3191 187.62 43.2183 185.771C43.2183 185.771 54.5768 193.814 51.8504 205.388L52.4835 206.33C52.4043 207.265 52.354 207.826 52.354 207.826L53.2388 207.445L54.253 208.934C54.2176 210.617 54.3041 212.3 54.512 213.97L57.224 209.956C54.4832 198.381 65.8561 190.339 65.8561 190.339C66.6834 192.224 72.0353 189.857 69.7262 186.052Z" fill="#E0E0E0"/>
<path d="M67.5039 235.428H41.4851L38.6797 206.935H70.3166L67.5039 235.428Z" fill="#E6E6E6"/>
<path d="M71.6977 203.791H37.2842V210.078H71.6977V203.791Z" fill="#F0F0F0"/>
<path d="M179.836 268C256.865 268 319.31 264.354 319.31 259.857C319.31 255.36 256.865 251.714 179.836 251.714C102.806 251.714 40.3613 255.36 40.3613 259.857C40.3613 264.354 102.806 268 179.836 268Z" fill="#F5F5F5"/>
<path d="M295.261 237.184C295.369 236.465 297.886 219.078 292.844 213.079C292.342 212.447 291.706 211.934 290.982 211.577C290.258 211.22 289.464 211.028 288.657 211.014C278.471 210.777 277.083 218.927 277.068 219.035L278.27 219.222C278.313 218.927 279.521 212.029 288.628 212.23C289.263 212.239 289.887 212.39 290.456 212.671C291.025 212.952 291.523 213.357 291.916 213.856C296.606 219.445 294.074 236.824 294.074 237.004L295.261 237.184Z" fill="#056B66"/>
<path d="M295.872 236.393L297.088 236.349C297.088 236.191 296.685 220.344 304.49 217.071C312.143 213.87 315.589 220.459 315.726 220.74L316.812 220.193C316.776 220.114 312.733 212.28 304.022 215.956C295.447 219.545 295.85 235.702 295.872 236.393Z" fill="#056B66"/>
<path d="M295.833 237.636C295.833 237.385 295.912 212.323 300.796 204.992C305.486 197.95 313.025 201.266 313.377 201.396L313.874 200.288C313.787 200.252 305.055 196.396 299.782 204.302C294.696 211.934 294.624 236.572 294.624 237.622L295.833 237.636Z" fill="#056B66"/>
<path d="M287.195 211.618C287.195 211.618 291.64 213.258 290.316 217.121C288.993 220.984 274.944 227.357 274.944 227.357C274.944 227.357 269.053 221.962 274.462 213.186C279.872 204.41 287.072 208.848 287.195 211.618Z" fill="#056B66"/>
<path d="M301.011 203.669C301.011 203.669 297.861 203.331 298.134 201.41C298.407 199.49 310.406 194.541 317.492 202.54C317.492 202.54 312.953 210.337 306.392 210.453C299.832 210.568 301.011 203.669 301.011 203.669Z" fill="#056B66"/>
<path d="M304.285 216.524C304.285 216.524 302.127 214.769 304.457 213.913C306.788 213.057 318.341 213.294 318.456 224.703C318.456 224.703 305.026 226.94 303.349 222.588C301.673 218.236 304.285 216.524 304.285 216.524Z" fill="#056B66"/>
<path opacity="0.2" d="M287.195 211.618C287.195 211.618 291.64 213.258 290.316 217.121C288.993 220.984 274.944 227.357 274.944 227.357C274.944 227.357 269.053 221.962 274.462 213.186C279.872 204.41 287.072 208.848 287.195 211.618Z" fill="black"/>
<path opacity="0.2" d="M301.011 203.669C301.011 203.669 297.861 203.331 298.134 201.41C298.407 199.49 310.406 194.541 317.492 202.54C317.492 202.54 312.953 210.337 306.392 210.453C299.832 210.568 301.011 203.669 301.011 203.669Z" fill="black"/>
<path opacity="0.2" d="M304.285 216.524C304.285 216.524 302.127 214.769 304.457 213.913C306.788 213.057 318.341 213.294 318.456 224.703C318.456 224.703 305.026 226.94 303.349 222.588C301.673 218.236 304.285 216.524 304.285 216.524Z" fill="black"/>
<path d="M284.809 260.455H305.656L307.9 237.63H282.564L284.809 260.455Z" fill="#056B66"/>
<path opacity="0.5" d="M284.809 260.455H305.656L307.9 237.63H282.564L284.809 260.455Z" fill="white"/>
<path d="M281.446 240.147H309.012V235.112H281.446V240.147Z" fill="#056B66"/>
<path opacity="0.2" d="M281.446 240.147H309.012V235.112H281.446V240.147Z" fill="white"/>
<path d="M261.216 244.097L240.491 242.061V212.928H232.276V242.047L211.494 244.097C210.498 244.195 209.573 244.66 208.901 245.402C208.228 246.144 207.855 247.109 207.854 248.111V251.226H264.884V248.111C264.885 247.104 264.508 246.134 263.829 245.391C263.151 244.649 262.218 244.187 261.216 244.097Z" fill="#263238"/>
<path opacity="0.2" d="M261.216 244.097L240.491 242.061V212.928H232.276V242.047L211.494 244.097C210.498 244.195 209.573 244.66 208.901 245.402C208.228 246.144 207.855 247.109 207.854 248.111V251.226H264.884V248.111C264.885 247.104 264.508 246.134 263.829 245.391C263.151 244.649 262.218 244.187 261.216 244.097Z" fill="white"/>
<path d="M210.018 260.455C212.986 260.455 215.392 258.049 215.392 255.081C215.392 252.113 212.986 249.708 210.018 249.708C207.05 249.708 204.645 252.113 204.645 255.081C204.645 258.049 207.05 260.455 210.018 260.455Z" fill="#263238"/>
<path d="M262.666 260.455C265.634 260.455 268.04 258.049 268.04 255.081C268.04 252.113 265.634 249.708 262.666 249.708C259.699 249.708 257.293 252.113 257.293 255.081C257.293 258.049 259.699 260.455 262.666 260.455Z" fill="#263238"/>
<path d="M230.863 193.246H241.905V216.215C241.905 217.003 241.592 217.759 241.035 218.316C240.478 218.873 239.722 219.186 238.934 219.186H233.834C233.046 219.186 232.291 218.873 231.733 218.316C231.176 217.759 230.863 217.003 230.863 216.215V193.246Z" fill="#263238"/>
<path opacity="0.3" d="M230.863 193.246H241.905V216.215C241.905 217.003 241.592 217.759 241.035 218.316C240.478 218.873 239.722 219.186 238.934 219.186H233.834C233.046 219.186 232.291 218.873 231.733 218.316C231.176 217.759 230.863 217.003 230.863 216.215V193.246Z" fill="white"/>
<path d="M256.019 147.719C256.019 147.719 257.588 186.563 246.769 193.246H259.12C259.12 193.246 268.687 180.017 265.982 147.719H256.019Z" fill="#263238"/>
<path opacity="0.3" d="M256.019 147.719C256.019 147.719 257.588 186.563 246.769 193.246H259.12C259.12 193.246 268.687 180.017 265.982 147.719H256.019Z" fill="white"/>
<path d="M263.322 196.224H207.99V191.411C207.99 190.457 208.369 189.543 209.044 188.868C209.718 188.194 210.633 187.815 211.587 187.815H259.726C260.679 187.815 261.594 188.194 262.269 188.868C262.943 189.543 263.322 190.457 263.322 191.411V196.224Z" fill="#263238"/>
<path d="M207.126 196.224H264.177C264.976 196.224 265.623 195.576 265.623 194.778V193.469C265.623 192.67 264.976 192.023 264.177 192.023H207.126C206.327 192.023 205.68 192.67 205.68 193.469V194.778C205.68 195.576 206.327 196.224 207.126 196.224Z" fill="#263238"/>
<path opacity="0.6" d="M207.126 196.224H264.177C264.976 196.224 265.623 195.576 265.623 194.778V193.469C265.623 192.67 264.976 192.023 264.177 192.023H207.126C206.327 192.023 205.68 192.67 205.68 193.469V194.778C205.68 195.576 206.327 196.224 207.126 196.224Z" fill="white"/>
<path d="M269.013 126.893H249.231C243.439 126.893 238.743 131.589 238.743 137.381V145.121C238.743 150.914 243.439 155.61 249.231 155.61H269.013C274.806 155.61 279.501 150.914 279.501 145.121V137.381C279.501 131.589 274.806 126.893 269.013 126.893Z" fill="#263238"/>
<path d="M189.23 95.155L185.28 84.746C185.28 84.746 186.978 83.1778 185.813 81.5881C184.647 79.9983 177.368 75.5312 176.044 76.3153C174.72 77.0994 171.764 80.0631 173.361 81.7104C174.958 83.3577 181.993 86.0984 181.993 86.0984L185.489 99.766L189.23 95.155Z" fill="#E4897B"/>
<path d="M216.801 114.944C216.801 114.944 198.818 111.254 196.897 110.369C194.976 109.484 187.754 88.3141 187.754 88.3141L182.208 90.9037C182.208 90.9037 186.668 112.153 191.229 117.203C195.789 122.253 215.255 126.555 215.255 126.555L216.801 114.944Z" fill="#056B66"/>
<path opacity="0.2" d="M215.209 126.533L214.878 126.454C213.899 126.231 210.828 125.512 207.181 124.44C201.26 122.72 193.794 120.124 191.19 117.21C186.636 112.175 182.169 90.9037 182.169 90.9037L187.708 88.3141C187.708 88.3141 194.937 109.492 196.894 110.369C198.851 111.247 216.798 114.944 216.798 114.944L215.209 126.533Z" fill="black"/>
<path d="M187.804 87.8966L188.948 90.105L181.826 92.558L182.1 89.8604L187.804 87.8966Z" fill="#056B66"/>
<path opacity="0.2" d="M215.347 126.238C214.355 126.094 211.24 125.612 207.514 124.799C209.636 121.131 215.851 119.246 215.851 119.246L215.347 126.238Z" fill="black"/>
<path d="M242.122 100.285C242.122 100.285 243.179 110.233 239.496 112.679C235.813 115.125 217.679 112.262 215.621 108.255C213.564 104.248 221.304 93.3861 221.304 93.3861L242.122 100.285Z" fill="#263238"/>
<path d="M168.755 231.19L173.488 232.334L175.884 225.803L178.056 219.861L172.668 217.566L170.596 224.774L168.755 231.19Z" fill="#E4897B"/>
<path opacity="0.2" d="M170.597 224.774L175.884 225.803L178.056 219.861L172.668 217.566L170.597 224.774Z" fill="black"/>
<path d="M171.071 221.328L177.632 223.767C177.632 223.767 195.133 180.009 198.73 179.887C202.327 179.764 238.949 196.568 248.128 187.231C257.307 177.894 244.035 155.378 244.035 155.378C244.035 155.378 221.958 152.228 220.296 157.213C219.887 158.682 219.575 160.177 219.361 161.687C219.109 163.212 218.937 164.493 218.937 164.493C218.253 164.32 196.09 158.601 187.357 164.493C178.473 170.485 171.071 221.328 171.071 221.328Z" fill="#056B66"/>
<path opacity="0.6" d="M171.071 221.328L177.632 223.767C177.632 223.767 195.133 180.009 198.73 179.887C202.327 179.764 238.949 196.568 248.128 187.231C257.307 177.894 244.035 155.378 244.035 155.378C244.035 155.378 221.958 152.228 220.296 157.213C219.887 158.682 219.575 160.177 219.361 161.687C219.109 163.212 218.937 164.493 218.937 164.493C218.253 164.32 196.09 158.601 187.357 164.493C178.473 170.485 171.071 221.328 171.071 221.328Z" fill="white"/>
<path d="M208.806 249.857L213.518 248.649L212.612 241.887L211.77 235.686L205.943 236.211L207.454 243.434L208.806 249.857Z" fill="#E4897B"/>
<path opacity="0.2" d="M207.493 243.584L212.643 242.016L211.787 235.751L205.953 236.24L207.493 243.584Z" fill="black"/>
<path d="M180.346 221.336L170.786 218.091L170.376 222.005L177.627 224.565L180.346 221.336Z" fill="#056B66"/>
<path d="M232.274 189.447C232.274 189.447 230.777 189.483 207.622 188.404C207.622 188.404 211.082 217.35 212.974 239.024L206.046 240.204C206.046 240.204 189.501 193.799 189.681 186.426C189.861 179.052 198.313 176.894 198.313 176.894C198.313 176.894 214.808 186.426 232.274 189.447Z" fill="#056B66"/>
<path opacity="0.6" d="M232.274 189.447C232.274 189.447 230.777 189.483 207.622 188.404C207.622 188.404 211.082 217.35 212.974 239.024L206.046 240.204C206.046 240.204 189.501 193.799 189.681 186.426C189.861 179.052 198.313 176.894 198.313 176.894C198.313 176.894 214.808 186.426 232.274 189.447Z" fill="white"/>
<path opacity="0.1" d="M232.274 189.447C232.274 189.447 230.777 189.483 207.622 188.404C207.622 188.404 211.082 217.35 212.974 239.024L206.046 240.204C206.046 240.204 189.501 193.799 189.681 186.426C189.861 179.052 198.313 176.894 198.313 176.894C198.313 176.894 214.808 186.426 232.274 189.447Z" fill="black"/>
<path d="M213.981 236.924L204.464 238.003L206.305 241.737L214.01 240.751L213.981 236.924Z" fill="#056B66"/>
<path opacity="0.1" d="M218.938 164.493L231.85 167.183C231.85 167.183 224.714 163.241 219.362 161.687C219.11 163.212 218.938 164.493 218.938 164.493Z" fill="black"/>
<path d="M243.504 151.94L244.036 155.379L220.298 157.206L219.672 153.149L243.504 151.94Z" fill="#263238"/>
<path opacity="0.2" d="M243.504 151.94L244.036 155.379L220.298 157.206L219.672 153.149L243.504 151.94Z" fill="black"/>
<path d="M236.015 157.689L237.188 157.569L236.574 151.594L235.401 151.714L236.015 157.689Z" fill="#056B66"/>
<path d="M225.471 157.099L230.668 156.765L230.414 152.824L225.217 153.158L225.471 157.099Z" fill="white"/>
<path d="M221.452 158.317L222.626 158.196L222.012 152.221L220.838 152.342L221.452 158.317Z" fill="#056B66"/>
<path opacity="0.6" d="M236.015 157.689L237.188 157.569L236.574 151.594L235.401 151.714L236.015 157.689Z" fill="white"/>
<path opacity="0.6" d="M221.452 158.317L222.626 158.196L222.012 152.221L220.838 152.342L221.452 158.317Z" fill="white"/>
<path d="M216.369 114.621C220.815 115.849 225.429 116.357 230.036 116.125C237.661 115.736 246.74 119.412 246.74 119.412L243.474 151.926L219.635 153.128C219.635 153.128 211.657 126.001 216.369 114.621Z" fill="#056B66"/>
<path d="M220.204 96.2556C220.204 96.2556 221.542 80.4731 234.735 86.1848C251.28 93.3782 238.13 112.614 230.038 108.672C221.945 104.73 220.204 96.2556 220.204 96.2556Z" fill="#263238"/>
<path opacity="0.2" d="M223.9 117.008L224.282 125.928L227.238 121.734C227.238 121.734 226.181 131.596 226.799 136.97C226.799 136.97 227.368 127.338 228.706 121.734L231.849 125.928L236.359 117.065C236.359 117.065 229.058 114.44 223.9 117.008Z" fill="black"/>
<path d="M227.986 118.692L234.813 116.764C230.605 113.887 232.727 107.413 232.727 107.413L225.965 109.787C226.276 110.727 226.516 111.689 226.684 112.664C227.404 116.88 225.49 117.218 225.49 117.218L227.986 118.692Z" fill="#E4897B"/>
<path opacity="0.2" d="M225.966 109.75C226.277 110.69 226.517 111.652 226.685 112.628C229.922 111.326 232.721 107.362 232.721 107.362L225.966 109.75Z" fill="black"/>
<path d="M230.384 89.523C224.392 88.1994 221.752 90.9617 219.954 97.0474C217.702 104.637 218.198 110.492 226.047 110.506C236.707 110.521 240.326 91.7242 230.384 89.523Z" fill="#E4897B"/>
<path d="M223.893 97.5721C223.219 98.3604 222.45 99.0634 221.605 99.6654C221.726 99.9535 221.925 100.202 222.179 100.384C222.433 100.566 222.733 100.673 223.044 100.694L223.893 97.5721Z" fill="#DE5753"/>
<path d="M227.671 97.8887C227.549 98.3778 227.714 98.8454 228.045 98.9245C228.376 99.0037 228.729 98.6728 228.851 98.2052C228.973 97.7376 228.808 97.2556 228.477 97.1693C228.146 97.083 227.793 97.3995 227.671 97.8887Z" fill="#263238"/>
<path d="M228.606 97.2048L227.649 96.5286C227.649 96.5286 227.959 97.5572 228.606 97.2048Z" fill="#263238"/>
<path d="M221.613 96.292C221.491 96.7811 221.657 97.2487 221.988 97.3279C222.318 97.407 222.707 97.0761 222.793 96.6085C222.88 96.1409 222.75 95.659 222.419 95.5726C222.088 95.4863 221.736 95.8028 221.613 96.292Z" fill="#263238"/>
<path d="M222.55 95.6082L221.564 94.9536C221.564 94.9536 221.903 95.9535 222.55 95.6082Z" fill="#263238"/>
<path d="M228.642 93.7739C229.125 93.816 229.592 93.9674 230.009 94.2166C230.425 94.4658 230.779 94.8064 231.044 95.2126" stroke="#263238" stroke-width="0.72" stroke-linecap="round" stroke-linejoin="round"/>
<path d="M224.345 92.5586C223.955 92.3711 223.529 92.2738 223.097 92.2738C222.665 92.2738 222.238 92.3711 221.849 92.5586" stroke="#263238" stroke-width="0.72" stroke-linecap="round" stroke-linejoin="round"/>
<path d="M234.692 101.061C234.692 101.061 232.98 95.5218 234.246 91.8172C234.246 91.8172 223.456 84.3431 220.204 96.2555C220.204 96.2555 221.405 85.3071 231.757 87.35C242.108 89.393 238.72 104.435 232.411 107.744C232.411 107.744 235.742 104.521 234.692 101.061Z" fill="#263238"/>
<path d="M233.432 102.148C233.643 101.467 234.115 100.898 234.745 100.565C235.374 100.232 236.111 100.162 236.792 100.371C238.604 100.982 238.64 104.989 233.828 104.881C233.13 104.831 232.9 104.104 233.432 102.148Z" fill="#E4897B"/>
<path d="M221.959 102.967C222.119 103.701 222.225 104.447 222.275 105.197H222.664C224.455 105.348 225.333 104.823 225.764 104.204C225.971 103.897 226.099 103.544 226.138 103.175C226.169 102.968 226.169 102.757 226.138 102.55C224.984 102.947 223.757 103.092 222.542 102.974C222.196 102.996 221.959 102.967 221.959 102.967Z" fill="#263238"/>
<path d="M222.571 103.01L222.679 103.665C224.362 103.802 225.557 103.665 226.139 103.212C226.17 103.004 226.17 102.793 226.139 102.586C224.994 102.979 223.777 103.124 222.571 103.01Z" fill="white"/>
<path d="M222.664 105.233C224.455 105.384 225.333 104.859 225.764 104.24C225.085 104.196 224.403 104.272 223.75 104.463C223.316 104.599 222.936 104.869 222.664 105.233Z" fill="#DE5753"/>
<path d="M230.402 90.0046C230.402 90.0046 230.632 100.385 236.876 101.636C243.12 102.888 236.301 88.2853 236.301 88.2853C236.301 88.2853 227.021 82.2284 220.835 86.5014C214.648 90.7743 220.216 96.2557 220.216 96.2557C220.216 96.2557 221.504 88.5443 230.402 90.0046Z" fill="#263238"/>
<path d="M230.621 89.3145C230.621 89.3145 228.399 95.8821 232.78 99.3278" stroke="#263238" stroke-width="0.5" stroke-linecap="round" stroke-linejoin="round"/>
<path d="M238.683 103.766C237.892 105.881 235.856 107.068 234.137 106.427C232.418 105.787 231.67 103.55 232.461 101.435C233.252 99.3202 235.288 98.1333 237.007 98.7807C238.726 99.4281 239.475 101.658 238.683 103.766Z" fill="#056B66"/>
<path opacity="0.4" d="M238.683 103.766C237.892 105.881 235.856 107.068 234.137 106.427C232.418 105.787 231.67 103.55 232.461 101.435C233.252 99.3202 235.288 98.1333 237.007 98.7807C238.726 99.4281 239.475 101.658 238.683 103.766Z" fill="black"/>
<path d="M236.67 100.306C236.67 100.306 239.253 88.7461 233.462 85.7177C234.121 85.8039 234.775 85.9313 235.419 86.0989C236.138 86.3147 240.792 91.0048 238.454 101.392L236.67 100.306Z" fill="#056B66"/>
<path opacity="0.2" d="M236.67 100.306C236.67 100.306 239.253 88.7461 233.462 85.7177C234.121 85.8039 234.775 85.9313 235.419 86.0989C236.138 86.3147 240.792 91.0048 238.454 101.392L236.67 100.306Z" fill="black"/>
<path d="M225.88 106.924L225.448 106.859L225.563 106.14C228.74 106.628 231.986 105.94 234.692 104.205L235.116 104.78C232.396 106.583 229.116 107.344 225.88 106.924Z" fill="#056B66"/>
<g opacity="0.2">
<path opacity="0.2" d="M225.88 106.924L225.448 106.859L225.563 106.14C228.74 106.628 231.986 105.94 234.692 104.205L235.116 104.78C232.396 106.583 229.116 107.344 225.88 106.924Z" fill="black"/>
</g>
<path d="M238.441 103.478C237.923 104.873 236.57 105.636 235.441 105.233C234.312 104.83 233.808 103.334 234.333 101.939C234.858 100.543 236.204 99.7805 237.333 100.183C238.462 100.586 238.966 102.082 238.441 103.478Z" fill="#056B66"/>
<path d="M225.201 107.183L224.619 107.103C224.517 107.09 224.419 107.057 224.33 107.006C224.241 106.954 224.164 106.886 224.101 106.804C224.039 106.722 223.994 106.629 223.968 106.53C223.942 106.431 223.936 106.327 223.95 106.226C223.962 106.123 223.995 106.025 224.046 105.935C224.097 105.845 224.165 105.767 224.247 105.704C224.329 105.641 224.422 105.595 224.522 105.568C224.621 105.542 224.725 105.536 224.827 105.55L225.403 105.629C225.608 105.657 225.794 105.765 225.92 105.93C226.047 106.094 226.104 106.301 226.079 106.506C226.05 106.712 225.942 106.897 225.778 107.024C225.614 107.15 225.407 107.207 225.201 107.183Z" fill="#056B66"/>
<path opacity="0.4" d="M225.201 107.183L224.619 107.103C224.517 107.09 224.419 107.057 224.33 107.006C224.241 106.954 224.164 106.886 224.101 106.804C224.039 106.722 223.994 106.629 223.968 106.53C223.942 106.431 223.936 106.327 223.95 106.226C223.962 106.123 223.995 106.025 224.046 105.935C224.097 105.845 224.165 105.767 224.247 105.704C224.329 105.641 224.422 105.595 224.522 105.568C224.621 105.542 224.725 105.536 224.827 105.55L225.403 105.629C225.608 105.657 225.794 105.765 225.92 105.93C226.047 106.094 226.104 106.301 226.079 106.506C226.05 106.712 225.942 106.897 225.778 107.024C225.614 107.15 225.407 107.207 225.201 107.183Z" fill="black"/>
<path d="M232.979 114.268L228.706 118.462L230.418 123.605L236.36 117.059L232.979 114.268Z" fill="#056B66"/>
<path d="M226.799 115.146L227.49 118.376L225.282 122.944L223.9 117.009L226.799 115.146Z" fill="#056B66"/>
<path d="M232.064 117.907L234.546 108.822C234.546 108.822 233.345 106.563 233.604 106.089C233.863 105.614 235.158 99.5138 236.078 98.852C236.999 98.1902 240.79 99.3196 241.171 99.9382C241.553 100.557 237.539 108.822 237.539 108.822L236.1 118.67L232.064 117.907Z" fill="#E4897B"/>
<path d="M246.739 119.411C253.572 126.403 239.883 142.244 232.035 141.567C224.187 140.891 232.237 112.175 232.237 112.175L237.272 113.002C237.272 113.002 235.51 125.432 236.064 126.403C236.617 127.375 244.473 117.088 246.739 119.411Z" fill="#056B66"/>
<path opacity="0.2" d="M246.739 119.411C253.572 126.403 239.883 142.244 232.035 141.567C224.187 140.891 232.237 112.175 232.237 112.175L237.272 113.002C237.272 113.002 235.51 125.432 236.064 126.403C236.617 127.375 244.473 117.088 246.739 119.411Z" fill="black"/>
<path d="M231.847 111.275L231.106 113.649L238.106 114.268V112.196L231.847 111.275Z" fill="#056B66"/>
<path opacity="0.6" d="M221.24 130.058H218.406C218.092 130.058 217.838 130.312 217.838 130.626V135.978C217.838 136.292 218.092 136.546 218.406 136.546H221.24C221.554 136.546 221.809 136.292 221.809 135.978V130.626C221.809 130.312 221.554 130.058 221.24 130.058Z" fill="white"/>
<path opacity="0.2" d="M221.296 130.482H218.073V134.892H221.296V130.482Z" fill="black"/>
<path d="M220.116 128.489H219.404V131.086H220.116V128.489Z" fill="#263238"/>
<path d="M160.929 240.383C161.646 240.05 162.42 239.852 163.209 239.801C163.209 239.801 165.943 238.197 168.648 231.945H171.69C172.206 231.949 172.709 232.112 173.128 232.412C173.548 232.712 173.865 233.135 174.036 233.622C174.086 233.755 174.115 233.896 174.122 234.039C174.086 234.774 174.007 235.507 173.884 236.233C173.439 238.665 172.846 241.067 172.108 243.426L171.59 243.297L172.525 238.75C172.841 237.211 171.216 238.7 170.468 240.254C169.719 241.808 168.561 243.383 165.195 242.613C161.274 241.649 159.699 241.088 160.929 240.383Z" fill="#056B66"/>
<path d="M169.2 230.313C169.2 230.313 165.395 238.269 163.208 239.801C163.208 239.801 166.143 241.549 169.2 237.643C173.149 232.607 174.121 234.01 174.121 234.01C174.038 233.141 173.876 232.282 173.639 231.442C173.049 229.831 169.2 230.313 169.2 230.313Z" fill="#E4897B"/>
<path d="M202.809 259.339C203.431 258.849 204.135 258.474 204.888 258.231C204.888 258.231 207.161 256.023 208.305 249.311L211.262 248.592C211.763 248.476 212.289 248.518 212.766 248.711C213.243 248.904 213.65 249.239 213.93 249.671C214.011 249.791 214.074 249.921 214.117 250.059C214.261 250.772 214.36 251.493 214.412 252.217C214.551 254.676 214.539 257.141 214.376 259.598H213.844L213.679 254.965C213.614 253.39 212.398 255.224 212.031 256.915C211.665 258.605 210.924 260.396 207.471 260.447C203.45 260.49 201.781 260.317 202.809 259.339Z" fill="#056B66"/>
<path d="M208.456 247.592C208.456 247.592 206.651 256.224 204.859 258.231C204.859 258.231 208.125 259.238 210.168 254.728C212.815 248.901 214.089 250.038 214.089 250.038C213.804 249.213 213.445 248.416 213.017 247.657C212.082 246.218 208.456 247.592 208.456 247.592Z" fill="#E4897B"/>
<path d="M275.335 73.4742H250.222C248.208 73.4742 246.575 75.1071 246.575 77.1213V87.8612C246.575 89.8754 248.208 91.5083 250.222 91.5083H275.335C277.349 91.5083 278.982 89.8754 278.982 87.8612V77.1213C278.982 75.1071 277.349 73.4742 275.335 73.4742Z" fill="#056B66"/>
<path d="M255.26 89.4585L247.692 99.7452L259.9 90.1491L255.26 89.4585Z" fill="#056B66"/>
<path d="M255.541 82.495C255.543 82.7061 255.481 82.913 255.365 83.0891C255.249 83.2653 255.082 83.4029 254.887 83.4843C254.693 83.5658 254.478 83.5875 254.271 83.5467C254.064 83.5058 253.873 83.4043 253.724 83.2549C253.575 83.1056 253.473 82.9153 253.432 82.7081C253.391 82.5009 253.413 82.2862 253.495 82.0914C253.576 81.8966 253.714 81.7304 253.89 81.6139C254.066 81.4975 254.273 81.4361 254.484 81.4375C254.764 81.4375 255.033 81.5489 255.232 81.7472C255.43 81.9455 255.541 82.2145 255.541 82.495Z" fill="white"/>
<path d="M261.07 82.495C261.071 82.7061 261.01 82.913 260.893 83.0891C260.777 83.2653 260.611 83.4029 260.416 83.4843C260.221 83.5658 260.006 83.5875 259.799 83.5467C259.592 83.5058 259.402 83.4043 259.252 83.2549C259.103 83.1056 259.001 82.9153 258.961 82.7081C258.92 82.5009 258.941 82.2862 259.023 82.0914C259.104 81.8966 259.242 81.7304 259.418 81.6139C259.594 81.4975 259.801 81.4361 260.012 81.4375C260.293 81.4375 260.562 81.5489 260.76 81.7472C260.958 81.9455 261.07 82.2145 261.07 82.495Z" fill="white"/>
<path d="M266.604 82.495C266.605 82.7061 266.544 82.913 266.427 83.0891C266.311 83.2653 266.145 83.4029 265.95 83.4843C265.755 83.5658 265.54 83.5875 265.333 83.5467C265.126 83.5058 264.936 83.4043 264.786 83.2549C264.637 83.1056 264.536 82.9153 264.495 82.7081C264.454 82.5009 264.476 82.2862 264.557 82.0914C264.638 81.8966 264.776 81.7304 264.952 81.6139C265.128 81.4975 265.335 81.4361 265.546 81.4375C265.827 81.4375 266.096 81.5489 266.294 81.7472C266.492 81.9455 266.604 82.2145 266.604 82.495Z" fill="white"/>
<path d="M272.137 82.495C272.138 82.7061 272.077 82.913 271.961 83.0891C271.844 83.2653 271.678 83.4029 271.483 83.4843C271.288 83.5658 271.074 83.5875 270.866 83.5467C270.659 83.5058 270.469 83.4043 270.32 83.2549C270.17 83.1056 270.069 82.9153 270.028 82.7081C269.987 82.5009 270.009 82.2862 270.09 82.0914C270.172 81.8966 270.309 81.7304 270.485 81.6139C270.662 81.4975 270.868 81.4361 271.08 81.4375C271.36 81.4375 271.629 81.5489 271.827 81.7472C272.026 81.9455 272.137 82.2145 272.137 82.495Z" fill="white"/>
<path d="M181.038 64.9767L163.122 55.3258C162.639 55.0658 162.037 55.2463 161.777 55.729L156.06 66.3432C155.8 66.8259 155.98 67.428 156.463 67.688L174.379 77.3389C174.862 77.5989 175.464 77.4184 175.724 76.9357L181.442 66.3215C181.702 65.8388 181.521 65.2367 181.038 64.9767Z" fill="#056B66"/>
<path opacity="0.7" d="M181.038 64.9767L163.122 55.3258C162.639 55.0658 162.037 55.2463 161.777 55.729L156.06 66.3432C155.8 66.8259 155.98 67.428 156.463 67.688L174.379 77.3389C174.862 77.5989 175.464 77.4184 175.724 76.9357L181.442 66.3215C181.702 65.8388 181.521 65.2367 181.038 64.9767Z" fill="white"/>
<path opacity="0.2" d="M161.311 56.6055L166.885 67.072C167.1 67.4707 167.427 67.797 167.827 68.0095C168.226 68.2221 168.68 68.3114 169.13 68.2661L180.79 67.1151L168.921 68.8631C168.403 68.9398 167.873 68.8468 167.411 68.5979C166.95 68.349 166.581 67.9576 166.36 67.482L161.311 56.6055Z" fill="black"/>
<path d="M147.711 54.6703C147.905 50.6707 150.869 42.6068 154.473 40.1395C158.077 37.6721 155.703 41.089 155.703 41.089C155.703 41.089 159.12 37.7656 160.918 37.8663C162.716 37.967 160.918 40.0244 160.918 40.0244C160.918 40.0244 164.623 37.744 166.327 37.8663C168.032 37.9886 166.327 39.9596 166.327 39.9596C166.327 39.9596 169.363 37.8016 170.593 38.8159C171.823 39.8301 154.847 51.0448 152.955 55.6054C151.063 60.1661 147.517 58.7058 147.711 54.6703Z" fill="#056B66"/>
<path opacity="0.4" d="M147.711 54.6703C147.905 50.6707 150.869 42.6068 154.473 40.1395C158.077 37.6721 155.703 41.089 155.703 41.089C155.703 41.089 159.12 37.7656 160.918 37.8663C162.716 37.967 160.918 40.0244 160.918 40.0244C160.918 40.0244 164.623 37.744 166.327 37.8663C168.032 37.9886 166.327 39.9596 166.327 39.9596C166.327 39.9596 169.363 37.8016 170.593 38.8159C171.823 39.8301 154.847 51.0448 152.955 55.6054C151.063 60.1661 147.517 58.7058 147.711 54.6703Z" fill="white"/>
<path d="M162.294 54.0665L164.56 55.5052C164.596 55.5274 164.623 55.561 164.638 55.6006C164.652 55.6402 164.652 55.6834 164.639 55.7234C164.626 55.7633 164.599 55.7976 164.564 55.8207C164.529 55.8437 164.487 55.8542 164.445 55.8505L162.064 55.6635L162.266 57.4906C162.271 57.5337 162.263 57.5775 162.242 57.6155C162.221 57.6535 162.188 57.6837 162.148 57.7015C162.109 57.7193 162.064 57.7238 162.022 57.7143C161.98 57.7048 161.941 57.6819 161.913 57.6489L160.539 56.1095L162.294 54.0665Z" fill="#056B66"/>
<path opacity="0.3" d="M162.294 54.0665L164.56 55.5052C164.596 55.5274 164.623 55.561 164.638 55.6006C164.652 55.6402 164.652 55.6834 164.639 55.7234C164.626 55.7633 164.599 55.7976 164.564 55.8207C164.529 55.8437 164.487 55.8542 164.445 55.8505L162.064 55.6635L162.266 57.4906C162.271 57.5337 162.263 57.5775 162.242 57.6155C162.221 57.6535 162.188 57.6837 162.148 57.7015C162.109 57.7193 162.064 57.7238 162.022 57.7143C161.98 57.7048 161.941 57.6819 161.913 57.6489L160.539 56.1095L162.294 54.0665Z" fill="white"/>
<path d="M130.464 45.0593C130.464 45.0593 133.6 42.9013 138.341 44.2968C138.341 44.2968 139.7 50.5623 143.434 52.6485C145.484 53.7922 150.498 53.6915 154.468 52.4111C159.18 50.8861 161.482 50.8861 162.338 52.6485C163.194 54.4109 162.245 56.2452 158.641 57.1012C155.037 57.9572 152.167 64.2156 145.642 64.2947C139.118 64.3738 135.65 57.8206 137.298 52.0658C135.738 49.1239 133.366 46.6919 130.464 45.0593Z" fill="#056B66"/>
<path opacity="0.5" d="M130.464 45.0593C130.464 45.0593 133.6 42.9013 138.341 44.2968C138.341 44.2968 139.7 50.5623 143.434 52.6485C145.484 53.7922 150.498 53.6915 154.468 52.4111C159.18 50.8861 161.482 50.8861 162.338 52.6485C163.194 54.4109 162.245 56.2452 158.641 57.1012C155.037 57.9572 152.167 64.2156 145.642 64.2947C139.118 64.3738 135.65 57.8206 137.298 52.0658C135.738 49.1239 133.366 46.6919 130.464 45.0593Z" fill="white"/>
<path d="M160.54 53.8362C160.54 53.9002 160.521 53.9628 160.485 54.016C160.45 54.0692 160.399 54.1107 160.34 54.1352C160.281 54.1597 160.216 54.1661 160.153 54.1536C160.09 54.1412 160.033 54.1103 159.987 54.0651C159.942 54.0198 159.911 53.9621 159.899 53.8993C159.886 53.8365 159.893 53.7714 159.917 53.7123C159.942 53.6531 159.983 53.6026 160.036 53.567C160.09 53.5314 160.152 53.5125 160.216 53.5125C160.302 53.5125 160.384 53.5466 160.445 53.6073C160.506 53.668 160.54 53.7503 160.54 53.8362Z" fill="#263238"/>
<path d="M144.127 59.1012C140.264 60.1515 131.675 59.8206 128.222 57.159C124.769 54.4974 128.74 55.7203 128.74 55.7203C128.74 55.7203 124.532 53.4975 124.064 51.7567C123.597 50.0159 126.136 51.0805 126.136 51.0805C126.136 51.0805 122.827 48.2679 122.396 46.6134C121.964 44.9589 124.381 45.966 124.381 45.966C124.381 45.966 121.367 43.7504 121.978 42.2613C122.59 40.7723 138.48 53.4616 143.393 53.8572C148.306 54.2528 148.04 58.0366 144.127 59.1012Z" fill="#056B66"/>
<path opacity="0.4" d="M144.127 59.1012C140.264 60.1515 131.675 59.8206 128.222 57.159C124.769 54.4974 128.74 55.7203 128.74 55.7203C128.74 55.7203 124.532 53.4975 124.064 51.7567C123.597 50.0159 126.136 51.0805 126.136 51.0805C126.136 51.0805 122.827 48.2679 122.396 46.6134C121.964 44.9589 124.381 45.966 124.381 45.966C124.381 45.966 121.367 43.7504 121.978 42.2613C122.59 40.7723 138.48 53.4616 143.393 53.8572C148.306 54.2528 148.04 58.0366 144.127 59.1012Z" fill="white"/>
<path d="M118.804 41.3333C118.128 41.0887 117.444 40.8657 116.754 40.6571" stroke="#056B66" stroke-width="0.75" stroke-linecap="round" stroke-linejoin="round"/>
<path d="M112.553 39.5644C110.035 39.0439 107.485 38.693 104.92 38.5142C97.9284 38.0322 86.9368 37.3345 82.6783 44.3049C78.7722 50.6568 85.4909 61.4973 87.8719 67.3888C90.7925 74.5823 94.2669 83.5453 90.8141 91.1848C83.7285 106.895 53.408 98.7379 43.1357 84.2719" stroke="#056B66" stroke-width="0.75" stroke-linecap="round" stroke-linejoin="round" stroke-dasharray="6.03 6.03"/>
<path d="M41.9773 82.4665C41.6166 81.8519 41.29 81.2179 40.999 80.5674" stroke="#056B66" stroke-width="0.75" stroke-linecap="round" stroke-linejoin="round"/>
<path d="M129.34 139.583H102.033V145.18H129.34V139.583Z" fill="white"/>
<path opacity="0.1" d="M129.34 139.583H102.033V145.18H129.34V139.583Z" fill="black"/>
<path opacity="0.1" d="M113.536 139.583H102.033V145.18H113.536V139.583Z" fill="black"/>
<path opacity="0.1" d="M102.033 140.389H126.34L102.033 141.079V140.389Z" fill="black"/>
<path opacity="0.1" d="M129.341 141.359L108.271 141.884H129.341V141.359Z" fill="black"/>
<path opacity="0.1" d="M103.15 142.928L113.538 142.504L128.81 142.928L113.538 143.165L103.15 142.928Z" fill="black"/>
<path opacity="0.1" d="M102.033 144.115H120.031L102.033 144.54V144.115Z" fill="black"/>
<path opacity="0.1" d="M129.3 144.539L117.279 144.762H129.343L129.3 144.539Z" fill="black"/>
<path d="M125.546 133.979H98.2393V139.576H125.546V133.979Z" fill="white"/>
<path opacity="0.1" d="M125.546 133.979H98.2393V139.576H125.546V133.979Z" fill="black"/>
<path opacity="0.1" d="M109.742 133.979H98.2393V139.576H109.742V133.979Z" fill="black"/>
<path opacity="0.1" d="M98.2393 134.792H122.546L98.2393 135.475V134.792Z" fill="black"/>
<path opacity="0.1" d="M125.541 135.763L104.472 136.281H125.541V135.763Z" fill="black"/>
<path opacity="0.1" d="M99.3428 137.324L109.73 136.9L125.002 137.324L109.73 137.562L99.3428 137.324Z" fill="black"/>
<path opacity="0.1" d="M98.2393 138.511H116.237L98.2393 138.936V138.511Z" fill="black"/>
<path opacity="0.1" d="M125.498 138.936L113.478 139.159H125.541L125.498 138.936Z" fill="black"/>
<path d="M128.656 128.383H101.35V133.979H128.656V128.383Z" fill="white"/>
<path opacity="0.1" d="M128.656 128.383H101.35V133.979H128.656V128.383Z" fill="black"/>
<path opacity="0.1" d="M112.852 128.383H101.35V133.979H112.852V128.383Z" fill="black"/>
<path opacity="0.1" d="M101.35 129.188H125.656L101.35 129.879V129.188Z" fill="black"/>
<path opacity="0.1" d="M128.658 130.16L107.588 130.685H128.658V130.16Z" fill="black"/>
<path opacity="0.1" d="M102.467 131.728L112.854 131.296L128.126 131.728L112.854 131.965L102.467 131.728Z" fill="black"/>
<path opacity="0.1" d="M101.35 132.915H119.348L101.35 133.34V132.915Z" fill="black"/>
<path opacity="0.1" d="M128.623 133.339L116.603 133.562H128.659L128.623 133.339Z" fill="black"/>
<path d="M146.85 145.064L147.555 142.381H176.731L190.161 143.726L190.672 145.064H146.85Z" fill="#263238"/>
<path opacity="0.4" d="M176.731 142.381V145.064H146.85L147.555 142.381H176.731Z" fill="black"/>
<path d="M170.867 129.541C170.906 129.866 170.875 130.196 170.776 130.508C170.677 130.821 170.512 131.108 170.293 131.352C170.073 131.595 169.804 131.788 169.504 131.919C169.203 132.05 168.878 132.114 168.551 132.109H123.865C123.166 132.094 122.497 131.825 121.982 131.352C121.467 130.88 121.142 130.236 121.067 129.541L118.412 100.933C118.384 100.653 118.403 100.371 118.47 100.098C118.594 99.5957 118.885 99.1504 119.295 98.8354C119.706 98.5204 120.211 98.3543 120.729 98.3645H165.443C166.142 98.3796 166.811 98.6486 167.326 99.1212C167.841 99.5938 168.166 100.238 168.241 100.933L170.867 129.541Z" fill="#263238"/>
<path opacity="0.4" d="M168.393 132.109H123.865C123.166 132.094 122.497 131.825 121.982 131.352C121.467 130.88 121.142 130.236 121.067 129.541L118.412 100.933C118.384 100.653 118.403 100.371 118.47 100.098H162.997C163.696 100.113 164.366 100.382 164.88 100.855C165.395 101.327 165.721 101.971 165.796 102.666L168.45 131.275C168.479 131.554 168.459 131.836 168.393 132.109Z" fill="black"/>
<path d="M137.69 114.558H146.934L144.474 141.03L159.091 143.224V145.065H128.303V143.224L134.611 141.03L137.69 114.558Z" fill="#263238"/>
<path opacity="0.1" d="M146.937 114.558L140.088 144.648L134.614 144.482L137.693 114.558H146.937Z" fill="white"/>
<path d="M146.894 260.455H142.491L134.571 150.215H140.42L146.894 260.455Z" fill="#263238"/>
<path opacity="0.4" d="M146.901 260.455H142.491L134.96 155.689L134.571 150.395H140.42L140.736 155.689L146.901 260.455Z" fill="white"/>
<path opacity="0.2" d="M140.736 155.43H134.96L134.571 150.395H140.42L140.736 155.43Z" fill="black"/>
<path d="M179.235 260.455H174.833L174.113 150.215H179.954L179.235 260.455Z" fill="#263238"/>
<path opacity="0.5" d="M179.962 150.395L179.846 168.177L179.242 260.455H174.833L174.228 168.177L174.113 150.395H179.962Z" fill="white"/>
<path opacity="0.2" d="M179.962 150.395L179.846 168.378H174.228L174.113 150.395H179.962Z" fill="black"/>
<path d="M226.024 260.455H221.621L213.701 150.215H219.549L226.024 260.455Z" fill="#263238"/>
<path opacity="0.5" d="M226.031 260.455H221.621L214.09 155.689L213.701 150.395H219.549L219.866 155.689L226.031 260.455Z" fill="white"/>
<path opacity="0.2" d="M219.866 155.43H214.09L213.701 150.395H219.549L219.866 155.43Z" fill="black"/>
<path d="M96.4796 260.455H92.0771L98.5513 150.215H104.4L96.4796 260.455Z" fill="#263238"/>
<path opacity="0.5" d="M104.4 150.395L104.011 155.689L96.4796 260.455H92.0771L98.2348 155.689L98.5513 150.395H104.4Z" fill="white"/>
<path opacity="0.2" d="M98.5558 150.395H104.404L104.016 155.43H98.2393L98.5558 150.395Z" fill="black"/>
<path d="M93.9199 147.431H224.179V151.394C224.179 151.598 224.139 151.8 224.061 151.989C223.983 152.177 223.868 152.349 223.724 152.493C223.58 152.637 223.409 152.752 223.22 152.83C223.032 152.908 222.83 152.948 222.626 152.948H95.4737C95.0616 152.948 94.6664 152.784 94.375 152.493C94.0836 152.202 93.9199 151.806 93.9199 151.394V147.431Z" fill="#056B66"/>
<path opacity="0.6" d="M93.9199 147.431H224.179V151.394C224.179 151.598 224.139 151.8 224.061 151.989C223.983 152.177 223.868 152.349 223.724 152.493C223.58 152.637 223.409 152.752 223.22 152.83C223.032 152.908 222.83 152.948 222.626 152.948H95.4737C95.0616 152.948 94.6664 152.784 94.375 152.493C94.0836 152.202 93.9199 151.806 93.9199 151.394V147.431Z" fill="white"/>
<path opacity="0.2" d="M224.179 147.453H93.9199V150.215H224.179V147.453Z" fill="black"/>
<path d="M226.913 148.187H91.1866C90.7745 148.187 90.3793 148.023 90.0879 147.732C89.7965 147.44 89.6328 147.045 89.6328 146.633C89.6328 146.22 89.7963 145.824 90.0875 145.532C90.3787 145.239 90.7738 145.074 91.1866 145.072H226.913C227.326 145.074 227.721 145.239 228.012 145.532C228.303 145.824 228.467 146.22 228.467 146.633C228.467 147.045 228.303 147.44 228.012 147.732C227.72 148.023 227.325 148.187 226.913 148.187Z" fill="#056B66"/>
<path opacity="0.6" d="M226.913 148.187H91.1866C90.7745 148.187 90.3793 148.023 90.0879 147.732C89.7965 147.44 89.6328 147.045 89.6328 146.633C89.6328 146.22 89.7963 145.824 90.0875 145.532C90.3787 145.239 90.7738 145.074 91.1866 145.072H226.913C227.326 145.074 227.721 145.239 228.012 145.532C228.303 145.824 228.467 146.22 228.467 146.633C228.467 147.045 228.303 147.44 228.012 147.732C227.72 148.023 227.325 148.187 226.913 148.187Z" fill="white"/>
<path d="M194.801 140.274L196.47 137.77C196.634 137.524 196.857 137.323 197.118 137.184C197.379 137.044 197.67 136.972 197.966 136.972H200.081C200.256 136.972 200.431 136.999 200.599 137.051L208.145 139.338C208.574 139.466 208.938 139.752 209.166 140.137L210.252 141.957L194.801 140.274Z" fill="#056B66"/>
<path opacity="0.2" d="M210.253 141.957L199.254 140.763L194.787 140.274L196.456 137.77C196.62 137.524 196.843 137.323 197.104 137.184C197.365 137.044 197.656 136.972 197.952 136.972H200.067C200.245 136.973 200.422 137 200.592 137.051L200.758 137.101L208.131 139.338C208.562 139.465 208.93 139.751 209.16 140.137L210.253 141.957Z" fill="black"/>
<path opacity="0.2" d="M210.256 141.957L199.257 140.763L200.76 137.102L208.134 139.339C208.565 139.466 208.932 139.751 209.162 140.137L210.256 141.957Z" fill="black"/>
<path d="M215.475 144.827V145.064H192.153L193.017 141.691C193.177 141.071 193.539 140.522 194.045 140.131C194.552 139.741 195.175 139.53 195.815 139.533H206.159C206.503 139.531 206.844 139.592 207.166 139.712L208.461 140.194L213.597 142.108C214.151 142.313 214.629 142.684 214.965 143.171C215.301 143.657 215.479 144.236 215.475 144.827Z" fill="#056B66"/>
<path opacity="0.2" d="M215.476 144.827V145.064H205.901L206.412 141.417C206.445 141.191 206.528 140.975 206.655 140.785C206.782 140.595 206.95 140.436 207.147 140.32C207.343 140.203 207.564 140.132 207.791 140.112C208.019 140.091 208.248 140.122 208.462 140.201L213.598 142.115C214.152 142.32 214.628 142.69 214.964 143.175C215.3 143.66 215.479 144.237 215.476 144.827Z" fill="black"/>
<path d="M207.388 142.59L210.438 133.447C210.467 133.354 210.517 133.268 210.584 133.197C210.65 133.125 210.731 133.068 210.822 133.031C210.912 132.994 211.01 132.977 211.108 132.982C211.205 132.987 211.301 133.013 211.387 133.059C211.52 133.135 211.625 133.251 211.687 133.391C211.749 133.53 211.765 133.686 211.733 133.836L209.164 143.59C209.164 143.59 207.46 144.281 207.388 142.59Z" fill="#263238"/>
<path opacity="0.2" d="M194.803 144.309H193.45L193.709 142.979H195.062L194.803 144.309Z" fill="black"/>
<path opacity="0.2" d="M196.813 144.252H195.461L195.72 142.929H197.072L196.813 144.252Z" fill="black"/>
</svg>
