<?xml version="1.0" encoding="utf-8"?>
<!-- Generator: Adobe Illustrator 27.0.0, SVG Export Plug-In . SVG Version: 6.00 Build 0)  -->
<svg version="1.1" id="Layer_1" xmlns="http://www.w3.org/2000/svg" xmlns:xlink="http://www.w3.org/1999/xlink" x="0px" y="0px"
	 viewBox="0 0 480 315" style="enable-background:new 0 0 480 315;" xml:space="preserve">
<style type="text/css">
	.st0{opacity:0.6;fill:#EDEDED;enable-background:new    ;}
	.st1{fill:#EDEDED;}
	.st2{fill:#FFFFFF;}
	.st3{fill:#0C9144;}
	.st4{fill:#0B4423;}
	.st5{fill:#056B66;}
	.st6{opacity:0.62;}
	.st7{opacity:0.62;fill:#FFFFFF;enable-background:new    ;}
	.st8{fill:#46B7AC;}
	.st9{fill:#D9D9D9;}
	.st10{fill:#E8945B;}
	.st11{fill:#035953;}
	.st12{fill:#046059;}
	.st13{fill:#FFB27D;}
	.st14{fill:#093A1D;}
	.st15{fill:#181818;}
	.st16{fill:#077876;}
	.st17{fill:#A0110D;}
	.st18{fill:#ED985F;}
	.st19{fill:#F4F4F4;}
	.st20{fill:#F27111;}
	.st21{fill:#EF680C;}
	.st22{fill:#2B478B;}
	.st23{fill:#096358;}
	.st24{fill:#C8D9E8;}
</style>
<path class="st0" d="M455,207.5h-64.2l-0.3,8.7V272h-62.2v-64.5H264v-62.2h64.2V81h62.2v64.2H455V207.5z"/>
<path class="st1" d="M231.6,214.6c0,29.7-10.8,54-32.4,75.6c-3.5,3.5-7.1,6.7-10.9,9.6c-1.2,1-2.5,1.9-3.7,2.7H63.9
	c-1.2-0.9-2.4-1.8-3.6-2.7c-3.7-2.9-7.3-6.1-10.8-9.6C27.8,268.6,17,244.3,17,214.6c0-27,10.8-52.6,35.1-79.6l8.1-8.1
	c17.6-20.2,31-39.1,40.5-56.7c8.1-17.6,16.2-40.5,22.9-70.2c8.1,28.3,14.8,52.6,24.3,70.2c9.4,17.5,22.9,36.4,40.5,56.7l8.1,8.1
	C219.5,162,231.6,187.6,231.6,214.6z"/>
<path class="st2" d="M196.9,232.5l-0.4-0.5l-56.2-73c-4.3-5.6-9.6-10.1-15.4-13.4c-5.8-3.3-12.2-5.4-18.7-6.2
	c-28.2-3.7-54.1,16.3-57.8,44.5c-1.7,12.8,1.5,26.4,9.9,37.5l0.1,0.1l0.3,0.4l56.2,73c4.3,5.6,9.6,10.1,15.4,13.4
	c5.8,3.3,12.2,5.4,18.8,6.2c12.8,1.7,26.4-1.5,37.6-9.9l0.1-0.1l0.4-0.3c11.3-8.7,18-21.1,19.7-34.1
	C208.5,257.2,205.3,243.7,196.9,232.5z M67.5,165.5c8.5-11,22.5-17.3,37.3-15.3c10.3,1.3,20.1,6.6,26.9,15.5l24.7,32.2l-6.3,4.9
	l-24-31.2C113,154.7,87.3,151.7,67.5,165.5z M125.1,268.6c-1.1,8.1-0.1,16.1,2.3,23.3c0.2,0.4,0.3,0.7,0.4,1.1
	c-1.6-1.5-3-3.1-4.3-4.8l-24.8-32.1l64.4-49.6l24.8,32.1c2.1,2.7,3.8,5.6,5.1,8.6s2.2,6.1,2.8,9.3c-5.3-0.5-10.7-0.4-16,0.7
	c-2.8,0.6-5.5,1.3-8.1,2.3c-0.6-4-1.7-7.8-3.3-11.4c-2.6-6.3-6.5-11.9-11.2-16.7l-3-2.9l-3.6,2.1c-6.9,4-12.7,9.4-17.2,16
	C129.1,253,126.1,260.5,125.1,268.6z M140.2,294c-1-1.8-1.8-3.7-2.4-5.6c-1.9-5.8-2.6-12-1.8-18.4c0.8-6.4,3.1-12.2,6.4-17.3
	c1.9-2.8,4.1-5.4,6.6-7.6c1-0.9,2.1-1.8,3.2-2.6c2.4,3,4.5,6.4,6,9.9c1.6,3.9,2.7,8.2,3,12.5l-0.1,0.1c-0.8,0.5-1.5,1.1-2.3,1.6
	l-0.5,0.4c-1.5,1.1-2.8,2.3-4.1,3.6c-1.3,1.3-2.5,2.6-3.7,3.9c0-4.1-0.1-9.3-0.3-14.9C145.5,268.7,141.5,281.1,140.2,294z
	 M196,268.7c-1.3,10.3-6.6,20.1-15.5,26.9c-3.3,2.5-6.8,4.5-10.5,5.9c-3.7,1.4-7.5,2.2-11.4,2.5c7.6-5.4,13-14,16.8-21.8
	c-7.2,6.3-14.9,13.9-23.7,17.9c-0.6,0.3-1.2,0.5-1.8,0.8c0.6-3.8,1.8-7.5,3.5-11c1.5-3.1,3.4-5.9,5.6-8.5
	c5.9-6.9,13.9-11.6,22.9-13.5c4.7-0.9,9.6-1,14.3-0.3L196,268.7z"/>
<path class="st2" d="M126.4,200c5.4,0,10.1-1.9,13.7-5.6c3.9-3.9,5.9-8.3,5.9-13.6c0-4.9-2.2-9.5-6.4-14.4l-1.5-1.5
	c-3.2-3.7-5.6-7.1-7.4-10.2c-1.7-3.2-2.9-7.6-4.4-12.7c-1.2,5.4-2.7,9.5-4.2,12.7c-1.7,3.2-4.2,6.6-7.4,10.2l-1.5,1.5
	c-4.4,4.9-6.4,9.5-6.4,14.4c0,5.4,2,9.7,5.9,13.6C116.6,198.1,121,200,126.4,200z"/>
<path class="st3" d="M273.6,232.4c-3.9-34.8,10.7-67.5,35.8-88.3c29.1,14.7,50.6,43.2,54.5,78.1c3.9,34.8-10.7,67.5-35.8,88.3
	C298.9,295.8,277.5,267.3,273.6,232.4z"/>
<path class="st2" d="M327.3,300.8l-7.1-59.7c-0.1,0-0.1,0-0.1-0.1l-21.4-17.2c-0.3-0.2-0.3-0.6-0.1-0.7c0.2-0.3,0.6-0.3,0.7-0.1
	l20.7,16.5l-3.2-26.2c-0.1-0.1-0.1-0.3-0.1-0.5l-2.8-23.7l-21.1-16.9c-0.3-0.2-0.3-0.6-0.1-0.7c0.2-0.3,0.6-0.3,0.7-0.1l20.1,16.1
	l-3.3-27.9c0-0.3,0.2-0.6,0.5-0.6c0.3,0,0.6,0.2,0.6,0.5l3.4,29.1c0.2,0.2,0.3,0.5,0.1,0.7l2.6,22.2l18.6-23.1
	c0.2-0.3,0.6-0.3,0.7-0.1c0.3,0.2,0.3,0.6,0.1,0.7l-19.2,24l6.8,57.3l18.7-23.2c0.2-0.3,0.6-0.3,0.7-0.1c0.3,0.2,0.3,0.6,0.1,0.7
	L324.8,272l3.4,28.6c0,0.2-0.1,0.4-0.2,0.5c-0.1,0.1-0.2,0.1-0.3,0.1C327.6,301.3,327.4,301.1,327.3,300.8z"/>
<path class="st4" d="M336.8,297c0,0-14.1-128.7,74.6-185C411.4,112,423.7,231.9,336.8,297z"/>
<path class="st5" d="M336.3,265.5c0,0,0.1-1,0.3-2.8c0.1-0.9,0.4-2,0.6-3.4c0.1-0.6,0.4-1.4,0.6-2.1c0.2-0.7,0.4-1.6,0.7-2.4
	c1-3.3,2.8-7.3,5.4-11.6c2.6-4.2,5.9-8.7,10.2-13c2.1-2.1,4.4-4.4,6.9-6.5c1.2-1,2.5-2.1,3.9-3.2c1.3-1,2.6-2,4.1-3.1
	c5.6-4.1,11.6-8,17.7-11.9c6.1-4,12.3-8.2,18.1-12.8l1.1-0.8l0.5-0.4l0.6-0.5l2.2-1.9c0.7-0.6,1.4-1.3,2-1.9
	c0.6-0.6,1.3-1.2,1.9-1.9c1.3-1.4,2.6-2.7,3.8-4.1l1.9-2.1l1.8-2.2c4.7-5.8,8.7-12.2,12.1-18.8c3.4-6.6,5.9-13.5,8-20.2
	c2-6.8,3.3-13.5,4.1-20c0.7-6.5,1-12.7,0.7-18.4c-0.3-5.8-0.8-11-1.6-15.6c-0.5-2.3-0.8-4.5-1.3-6.4c-0.3-1-0.5-1.9-0.6-2.9
	c-0.3-0.9-0.5-1.8-0.7-2.6c-0.5-1.7-0.9-3.1-1.3-4.4c-0.4-1.3-0.7-2.3-1.1-3.2c-0.6-1.8-0.9-2.6-0.9-2.6l0.8-0.4
	c0,0,0.5,0.8,1.4,2.5c0.5,0.8,1,1.8,1.6,3.1c0.6,1.2,1.3,2.6,1.9,4.2c0.4,0.8,0.7,1.7,1.1,2.5c0.4,0.9,0.7,1.9,1.1,2.8
	c0.8,1.9,1.4,4.2,2.1,6.5c1.4,4.6,2.6,10.1,3.3,16.1c0.7,5.9,1.1,12.5,0.7,19.5s-1.4,14.2-3.2,21.6c-0.3,0.9-0.5,1.9-0.7,2.8
	c-0.3,0.9-0.6,1.9-0.8,2.8c-0.6,1.9-1.2,3.7-1.9,5.6c-0.6,1.9-1.4,3.7-2.1,5.6c-0.8,1.9-1.6,3.6-2.5,5.5
	c-3.5,7.2-7.8,14.2-12.9,20.6l-1.9,2.4l-2,2.3c-1.3,1.6-2.8,3-4.2,4.5c-0.7,0.7-1.5,1.4-2.2,2.1c-0.7,0.7-1.6,1.5-2.2,2l-2.2,1.9
	l-0.6,0.5l-0.6,0.6l-1.2,0.9c-6.3,4.9-12.9,9-19.3,12.8c-6.3,3.8-12.4,7.2-18,10.8c-1.4,0.8-2.7,1.8-4.1,2.7
	c-1.3,0.8-2.6,1.8-3.8,2.7c-2.5,1.8-4.8,3.6-7,5.5c-2.1,1.9-4.1,3.7-5.9,5.7c-1.9,1.9-3.4,3.7-4.8,5.6c-2.8,3.6-4.9,7.1-6.3,10.2
	c-0.4,0.7-0.6,1.5-0.9,2.1c-0.3,0.6-0.6,1.3-0.8,1.9c-0.4,1.2-0.8,2.2-1,3.2c-0.5,1.8-0.7,2.7-0.7,2.7L336.3,265.5z"/>
<g class="st6">
	<path class="st7" d="M336.5,265.6c0.6-5.2,2.3-10.2,4.6-14.9c2.3-4.7,5.4-9.1,8.7-13.1c6.9-8,15.3-14.5,24-20.2
		c8.7-5.8,17.8-11,26.3-17c4.3-3,8.4-6.2,12.1-9.7c0.9-0.8,1.9-1.8,2.9-2.6l2.6-2.9c1.8-1.9,3.5-3.8,5.1-5.8l2.4-3.1
		c0.8-1,1.6-2,2.2-3.2l4.2-6.5l3.7-6.9c1.2-2.3,2.1-4.7,3.2-7.1c3.9-9.6,6.6-19.7,8-30c1.5-10.3,1.3-20.8-0.2-31
		c-1.5-10.3-4.4-20.4-8.7-29.9c0-0.1,0-0.1,0.1-0.1c0.1,0,0.1,0,0.1,0c9.4,18.7,12.9,40.3,10.4,61.2c-1.2,10.5-3.9,20.7-7.9,30.4
		c-1.1,2.4-2,4.8-3.2,7.2l-3.7,7l-4.3,6.7c-0.6,1.1-1.5,2.1-2.3,3.2l-2.4,3.2c-1.6,2.1-3.4,4-5.2,5.9l-2.7,2.9
		c-0.9,0.9-1.9,1.8-3,2.7c-3.8,3.6-8,6.9-12.3,9.8c-8.6,5.9-17.7,11.2-26.5,16.8c-8.7,5.6-17.2,11.8-24,19.6
		c-3.4,3.9-6.6,8.1-9,12.6s-4.2,9.6-5,14.7C336.7,265.7,336.6,265.7,336.5,265.6L336.5,265.6z"/>
</g>
<path class="st8" d="M362.3,213.2c25.2-24.3,60-32.6,91.8-25.2c6.1,32-3.5,66.4-28.9,90.8c-25.2,24.3-60,32.6-91.8,25.2
	C327.3,272,336.9,237.6,362.3,213.2z"/>
<path class="st2" d="M344.1,298.2l43-41.9c0-0.1,0-0.1,0-0.2l0.6-27.4c0-0.3,0.3-0.6,0.6-0.6c0.3,0,0.6,0.3,0.6,0.6l-0.6,26.4
	l18.9-18.4c0.1-0.2,0.2-0.3,0.4-0.3l17.1-16.6l0.6-27c0-0.3,0.3-0.6,0.6-0.6c0.3,0,0.6,0.3,0.6,0.6l-0.6,25.8l20.1-19.7
	c0.2-0.2,0.6-0.2,0.8,0c0.2,0.2,0.2,0.6,0,0.8l-21,20.4c0,0.3-0.3,0.5-0.6,0.6L409,236.4l29.6,0.6c0.3,0,0.6,0.3,0.6,0.6
	c0,0.3-0.3,0.6-0.6,0.6l-30.7-0.6l-41.3,40.3l29.8,0.6c0.3,0,0.6,0.3,0.6,0.6c0,0.3-0.3,0.6-0.6,0.6l-30.9-0.6l-20.6,20.1
	c-0.2,0.1-0.4,0.2-0.6,0.2c-0.1,0-0.2-0.1-0.3-0.2C343.8,298.9,343.8,298.5,344.1,298.2z"/>
<path class="st9" d="M0,315c0,0,183-51.8,480,0H0z"/>
<path class="st10" d="M140.2,92.9c0,0,9.2,4.3,11.3,3.8c2.1-0.6,10-2,11.2-1.5c0,0,1.3,2.1,0.3,3.3c-1,1.3-8.6,4.9-11.5,5
	s-13.3-1.8-15.6-3.5L140.2,92.9z"/>
<path class="st10" d="M162.3,95.3c0,0,3.5-1.5,4.7,0.2c1.2,1.7,1.9,3.3,1.7,4.1c-0.1,0.9-2.5,1.2-3.5,0.6c-1-0.7-3.3-1.6-3.3-1.6
	L162.3,95.3z"/>
<path class="st11" d="M179.2,301c0,0-2,3.1-2,6.9c0,0.8,0.7,1.5,1.5,1.5h12.1c1.2,0,2.1-1.1,1.8-2.3c-0.6-2.3-1.8-5.6-4.2-7.6
	C184.6,296.2,179.2,301,179.2,301z"/>
<path class="st11" d="M160,297.7c0,0-0.7,11.3-2.9,11.5c-0.3,0-11.1,0-11.1,0h-13.9c0,0,0.2-3.4,4.2-4.1c4-0.7,10.8-3.5,13.2-8.8
	C152,290.7,160,297.7,160,297.7z"/>
<path class="st5" d="M165.7,228.1c-0.5,6.3-0.6,11.2,0.1,13.5c2.8,10.5-5.2,57.8-5.2,57.8c-6,2.8-14.4,0-14.4,0
	c0.5-6.6-2.6-65.2-5.5-101.1c-1.2-15-2.2-25.6-2.2-25.6l35.6-4.1C174.2,168.6,167.4,206.3,165.7,228.1z"/>
<path class="st12" d="M174.2,168.6c0,0-6.8,37.7-8.4,59.5l-25-29.8c-1.2-15-2.2-25.6-2.2-25.6L174.2,168.6z"/>
<path class="st5" d="M156.7,176.7c0,0,18,104.6,21.1,124.9c0,0,6.8,1.9,13.6-1.1c0,0,0.9-48.6-1.5-63.3c-2.4-14.7,1.3-60-2.5-64.2
	C183.7,168.9,156.7,176.7,156.7,176.7z"/>
<path class="st13" d="M158.6,87.4c0,0-1.4,9.3-0.8,12c0.6,2.7,9.9,4.3,13.7,2c3.9-2.3,2.7-3.1,2.7-3.1s-0.6-10.7-1.2-11.5
	C172.6,86.2,158.6,87.4,158.6,87.4z"/>
<path class="st4" d="M188.4,144.2c1.2-11.7,0.9-20.5-0.2-27c-3.4-19.4-14-20.1-14-20c0,2.6-5.6,5-10.2,4.7c-3.8-0.2-6.4-3.1-6.4-4.7
	c0,0-0.1,0-0.2,0c-1,0-5.5,0.1-9.8,0.9c-3.1,0.5-6.1,1.5-7.5,2.8c-0.7,0.8-3.3,2.8-6.6,5.7c-8.4,7.2-21.6,19.5-21.1,26.6
	c0,0,16.3,12,26.6,4.4c-0.6,19.4-4.1,40-3.2,40c0,0,5.8,5,23.2,5c9.6,0,16.5-0.8,21.3-1.8c6.6-1.3,9.1-2.8,9.1-2.8
	C191,178.1,188,148.3,188.4,144.2z"/>
<path class="st14" d="M189.6,178.1c0,0-2.6,1.6-9.1,2.8c-9-4-26.9-14.3-27.6-31.6c-1-23,27.2-36.7,27.2-36.7s3.8,2.1,8.1,4.6
	c1.2,6.6,1.5,15.4,0.2,27C188,148.3,191,178.1,189.6,178.1z"/>
<path class="st10" d="M158.5,88.5c0,0,3.6,5.1,7.3,5.1c3.8,0,7.6-5,7.6-5L158.5,88.5z"/>
<path class="st13" d="M158.1,88.3c1,0.8,3.2,1.9,5,2.5c1.4,0.6,2.9,0.6,4.3,0.1c2.1-0.7,5.3-1.9,6.1-2.4c1.9-1.2,1.8-3.5,1.9-6.8
	c0.1-3.8,0.5-6.9,0.1-9c-0.5-2.6-2.2-4.1-6.9-4.6c-8.6-0.8-12.2,1.4-12.3,4.3c0,0.8-0.1,1.5-0.1,2.3
	C155.8,83.8,156.5,86.9,158.1,88.3z"/>
<path class="st15" d="M156.1,73.6c0,0,1.4-2.1,4.1-1.3c2.6,0.8,2.9,3,7.4,2.7c4.5-0.4,5.6-2.5,6.5-1.5c0.8,1.1,1.3,7.4,1.3,7.4
	s9.1-20.8-9.4-20.8c0,0-19.1-1.2-9.9,20V73.6z"/>
<path class="st14" d="M165.2,157.2c0,0-2.4,1.9-6,1.9c0,0-3.6-3.9-6.7-7.8c-2-2.4-3.7-4.9-4-6.2c-0.9-3.2-17.9-4.1-20-6.4
	c-2.1-2.3,8.4-7.9,8.4-7.9s17.2,2.6,19.8,6c1.1,1.4,2.5,4.9,4,8.6C163,151,165.2,157.2,165.2,157.2z"/>
<path class="st14" d="M141,110c0,0,3.2-6.4,4.9-6.2c1.6,0.2-3.7,13.1-4.2,19.4C141.3,129.4,141,110,141,110z"/>
<path class="st13" d="M151.2,153.5c-2.3,5.5-5.2,10.5-5.6,11.1v0.1c0,0,0,0-0.1,0c-0.6,0-5.3-0.1-5.8-2.1c0,0-0.1-6.6,0.1-11.8
	c0.1-2.4,0.3-4.4,0.7-5.5c0,0-25.7-0.2-25.2-7.4c0.5-7.2,13.9-11.1,21.6-7.3c0,0,10.2,3.7,15.6,8.6
	C155.2,141.8,153.6,147.9,151.2,153.5z"/>
<path class="st16" d="M116.1,127.9c0,0-3.4,5-2.6,9.7c0.8,4.7,10.6,7.2,17.3,7.4c0,0,19.5-4.4,16.5-12.2
	C146.6,131,116.1,127.9,116.1,127.9z"/>
<path class="st17" d="M123.2,66.3c0,0-3.1-6.4-10.6-2.4c-7.4,3.8-0.2,18.4-4.1,22.1c-3.9,3.6,1.5,6.1,0.6,8.6
	c-0.8,2.6,1.5,5.6,6.8,5.2c5.2-0.4,10.8-0.1,13.1-4.6c2.4-4.6,1.9-14.7,0.9-16.1C128.9,77.7,123.2,66.3,123.2,66.3z"/>
<path class="st13" d="M135.4,100.9l-12.7-7.6c0.1,0,0.3-0.4,1.3-3.1c0.4-1.2,0.6-2.2,0.7-3c0-0.1,0-0.2,0-0.2c0.1-1.2,0-1.9,0-1.9
	l2.8,1l5.2,1.9c-0.1,1.3,0.1,2.3,0.4,2.8c0.7,1.6,2,1.6,2,1.6L135.4,100.9z"/>
<path class="st18" d="M133,90.8c-5,0.4-7.8-2.8-8.4-3.6c-0.1-0.1-0.1-0.2-0.1-0.2s0.1,0,0.2,0c0.4-0.1,1.5-0.5,2.8-0.9l5.2,1.9
	C132.5,89.3,132.7,90.2,133,90.8z"/>
<path class="st13" d="M133.2,89c0,0-11.1,1.2-11.4-6.3c-0.2-7.4-1.9-10.9,5.8-11.6c7.6-0.7,9.5,2.1,9.9,4.6
	C139.1,83.7,136.4,88.7,133.2,89z"/>
<path class="st17" d="M128.3,74.8c-3.9-1-2.4,6-3.4,5.5c-1.1-0.5-3-0.5-2.7,0.8c0.3,1.4,0.7,1.8,1,2.6c0.2,0.9,0,2.4-0.9,2.2
	c-0.9-0.3-9.4-10-3.4-17.5c6-7.5,23.8-2.8,18.2,5C136.2,74.8,131.2,75.6,128.3,74.8z"/>
<path class="st5" d="M142.6,130.7c0,0-3.3,1.8-8.5,1.7c-3.3,0-10.5-1.5-15-3.1c-2.5-1-4.4-2-4.1-2.7c0.3-1.2,2.5-10.5,4.6-19
	c1.9-7.8,3.6-15.1,3.6-15.1s5.2,3.7,8.2,2.4c3-1.3,2.6-2.7,2.6-2.7s3.5-0.4,4.5-0.3c1.6,0.2,7,2.2,7,2.2s0.7,2.1-1.2,5.2
	c-1.6,2.6-3.1,3.1-3.1,3.1S145.6,116,142.6,130.7z"/>
<path class="st13" d="M125.9,118.2c0,0,3.2-0.6,4.4,0.2c1.3,0.8,1.7,2.1,0.7,2.6c-2.8,1.7-5.7-0.2-5.7-0.2L125.9,118.2z"/>
<path class="st12" d="M119,129.3c-2.5-1-4.4-2-4.1-2.7c0.3-1.2,2.5-10.5,4.6-19c0.6-1.1,1-1.8,1-1.8S124.3,123.5,119,129.3z"/>
<path class="st13" d="M123.2,93.3c0,0-9.9,2.1-13.7,17.3c-0.4,1.5,0,3.1,1.1,4.2c1.8,2,5.7,4.9,14.9,6c1,0.1,1.2-2.4,1.2-2.4
	c-0.1,0.2-6.2-3.9-8.8-6.2c-0.5-0.4-0.5-1.3-0.1-1.8c0.9-1.4,2.4-3.6,2.8-4.8C121.2,103.9,126,94.1,123.2,93.3z"/>
<path class="st5" d="M123.1,92.3c0,0-5.8,0.4-10.5,6.7c0,0,1.6,5.8,9.1,7.3C121.7,106.3,126.3,95.9,123.1,92.3z"/>
<path class="st19" d="M151.2,153.5c-2.3,5.5-5.2,10.5-5.6,11.1c0,0-0.1,0-0.1,0.1c-0.6,0-5.3-0.1-5.8-2.1c0,0-0.1-6.6,0.1-11.8
	C140.7,151.7,143.6,153.8,151.2,153.5z"/>
<path class="st19" d="M165.2,157.2c0,0-2.4,1.9-6,1.9c0,0-3.6-3.9-6.7-7.8c3.4-1.5,7.1-4.7,8.2-5.9C163,151,165.2,157.2,165.2,157.2
	z"/>
<path class="st15" d="M152.9,171.8c-0.1,0.6-0.7,1-1.3,0.9c-1.5-0.3-4-0.9-5.1-1.2c-1.5-0.6-4.4-2.3-5.9-2.8c-0.5-0.2-1.8-0.7-2.5-1
	c-0.4-0.2-0.7-0.6-0.5-1.1c0.3-0.9,0.8-2.4,1.6-3.8c0.1-0.2,0.4-0.4,0.6-0.6c0.8,0.6,2.1,1.4,3.6,1.4c1.4,0,2.4-0.3,3.3-0.7
	c0.1,0.2,2.2,4.3,3.6,4.9C151.6,168.1,153.3,169.4,152.9,171.8z"/>
<path class="st15" d="M174.5,157.2c0.3,0.5,0.1,1.2-0.5,1.5c-1.3,0.7-3.6,1.8-4.7,2.2c-1.6,0.5-4.9,1-6.4,1.5
	c-0.5,0.2-1.9,0.6-2.6,0.8c-0.5,0.1-0.9-0.1-1.1-0.5c-0.4-0.9-0.9-2.4-1.2-3.9c0-0.3,0-0.6,0.1-0.9c1,0,2.4-0.2,3.7-1.2
	c1.1-0.9,1.8-1.8,2.2-2.5c0.2,0.1,4.4,2.1,5.9,1.6C171.1,155.1,173.3,155.1,174.5,157.2z"/>
<path class="st4" d="M153.7,148.9c0,0-0.7,4.3-3.5,6.3c0,0-11.4-1.6-21.8-4.2c-7.7-2-15.1-4.5-17.1-7.4c-5-7,2.5-15.5,2.5-15.5
	s14.5,7,30.2,15.6C147.2,145.2,150.5,147.1,153.7,148.9z"/>
<path class="st13" d="M136.7,155.1c0,0-3.3,0.3-4.6,1.6c-1.3,1.3-3.2,5-1.9,6.4c1.4,1.5,7.9-1.8,8.1-2.3
	C138.5,160.3,136.7,155.1,136.7,155.1z"/>
<path class="st14" d="M153.7,148.9c0,0-0.7,4.3-3.5,6.3c0,0-11.4-1.6-21.8-4.2c5-4.3,11.5-6.5,15.7-7.4
	C147.2,145.2,150.5,147.1,153.7,148.9z"/>
<path class="st4" d="M192,102.8c-2.3-5.4-17.1-5.6-17.1-5.6c-7.5,19.8-9.4,32.8-11.4,41.1c-0.3,0-0.6,0-0.9,0
	c0,0-10.6,4.1-26.4,15.6c0,0-1.7,4.5,1.3,8.2c0,0,27.2-6,34.8-10.5c0.1,0,0.1-0.1,0.2-0.1c0.1-0.1,0.2-0.1,0.3-0.2
	C197.6,135.3,195.2,110.5,192,102.8z"/>
<path class="st11" d="M124.8,302.2c0,0,1.1,2.1,3.4,2.5c1.5,0.3,2.7,1.1,3.5,2.2c0.7,0.9,0,2.2-1.1,2.2h-12c-1,0-1.9-0.9-1.7-1.9
	c0.1-0.9,0.2-2,0.2-2.7c0.1-1.8,1.9-3.1,1.9-3.1L124.8,302.2z"/>
<path class="st4" d="M127.4,272.2c0.5,9.1-0.7,29.7-0.7,29.7s-0.9,2.3-6.1,2.8c-2.8,0.3-5.4-0.4-5.4-0.4c-1.1-4.9-2.1-9.5-2.9-14
	c-6.5-31.8-9-51.4-9-51.4l25.7-6c0,0-1.1,17.9-1.5,30.2C127.4,266.9,127.3,270.2,127.4,272.2z"/>
<path class="st14" d="M128.9,232.9c0,0-1.1,17.9-1.5,30.2l-15.2,27.2c-6.5-31.8-9-51.4-9-51.4L128.9,232.9z"/>
<path class="st15" d="M103.2,191.8c0,0-9.9-4.5-17.4-0.6c-7.5,3.9-2.9,36.5,7.8,39.7C93.6,230.8,113.6,237.3,103.2,191.8z"/>
<path class="st10" d="M131.9,240.4L131.9,240.4c-0.3-0.5-0.7-1.4-1.1-2.1c2-9.7,0.7-15.4,0.7-15.4c0.3-2.8,2-22.6-2-31.8
	c-1.9-4.4-5.1-4.4-5.1-4.4s0.7,7.1,0.3,10.9c-0.5,3.5,2.9,36.2,3.4,41.6l0.2,5.5l1.6-0.4c0.1,0,0.1,0,0.2-0.1
	c0.2-0.1,0.4-0.2,0.5-0.4l1.3-2.1C132.1,241.3,132.1,240.8,131.9,240.4z"/>
<path class="st11" d="M103.9,302.2c0,0,1.1,2.1,3.4,2.5c1.5,0.3,2.7,1.1,3.5,2.2c0.7,0.9,0,2.2-1.1,2.2h-12c-1,0-1.9-0.9-1.7-1.9
	c0.1-0.9,0.2-2,0.2-2.7c0.1-1.8,1.9-3.1,1.9-3.1L103.9,302.2z"/>
<path class="st15" d="M112.3,150.4c-2.5,0-5.8,1.1-7.4,2.7c-1.9,1.8-3.7,1.9-5.1,4c-1.4,2.2-2.3,4.4-1.6,7.5
	c0.8,3.3,0.6,6.6,2.7,9.1c1.1,1.2,2.7,1.4,3.9,2.4c2.2,2.1,4.7,2.7,7.4,2.7c5.4,0,8.6-3.1,11.4-7.1c2.2-3.1,1.8-5.3,2.3-7.9
	C127.5,155.3,120.5,150.4,112.3,150.4z"/>
<path class="st13" d="M119.8,184.5l-10.2,5.2l-2.1-7.1c0,0,1.3-2.4,1.9-6.5c0.3-1.7,0.4-3.6,0.2-5.8l8.3,4.2c0,0-0.2,0.8-0.3,1.9
	c-0.1,1.2-0.2,2.8,0.1,4.4C118,182.3,118.7,183.6,119.8,184.5z"/>
<path class="st4" d="M96.2,235.6c0,0-2,25.7-1.5,66.5c0,0,2.4,1.2,5.2,1.5c5.3,0.5,6.6-1.6,6.6-1.6s5.4-20,6.8-28.9
	c1.3-8.3,9.4-38.2,9.4-38.2L96.2,235.6z"/>
<path class="st20" d="M126.6,185.3c-0.9-0.4-3.7-1.6-8-2.3c0,1.5-0.4,2.8-2.9,3.1c-3.4,0.5-6.5-1.9-8-3.5c0,0-2.4,0.3-5.2,0.9
	c-1.4,0.3-2.9,0.7-4.2,1.2c-1.7,0.6-3,1.4-3.8,2.3c-2.6,3.2-7,12.9-7,12.9s7.2,2.6,9,4.2v0.4l1.1,9.4l-3.3,18.6c0,0.2,0,0.3,0,0.5
	c0,1.3,0.9,2.4,2.1,2.6c0,0,0.3,0,0.8,0.1c3.5,0.5,18,2.3,29.4-0.9c2.5-0.7,4.2-3.1,4-5.8l-1.9-23.1c1-0.2,2.2-0.4,3-0.5
	c0.8-0.1,1.4-0.1,1.7,0C133.2,205.6,132,187.4,126.6,185.3z"/>
<path class="st21" d="M105.1,219.6c-0.1,6.5-4.4,14.1-8.1,16.2c-0.5-0.1-0.8-0.1-0.8-0.1c-1.3-0.3-2.1-1.5-2.1-2.6
	c0-0.2,0-0.3,0-0.5l3.3-18.6l-1.1-9.4c0.1-0.2,0.1-0.2,0.1-0.2S105.4,208.1,105.1,219.6z"/>
<path class="st21" d="M131.6,205.6c-1,0.1-3,0.5-3,0.5l-1.1-9.7C127.4,196.4,131,203.1,131.6,205.6z"/>
<path class="st15" d="M94.7,229.2l0.9-4.8c14.8-21.4,15.9-25.2,9.2-34.8c-1.9-2.7-5.4-4.4-6.8-4.8c1.4-0.5,2.8-0.9,4.2-1.2
	c1.4,0.7,2.6,1.3,3.7,2.2C126.3,203.2,94.7,229.2,94.7,229.2z"/>
<path class="st13" d="M112,201.7c-5.8,0.4-6.6,6.3-6.6,6.3s-9.7,0.9-11.2,1.6c0,0,0.8-2.2,2.2-5.4c-1.3-1.3-5.4-3.1-8.1-3.9
	c-2.1,5.4-2.9,10.7-1.8,15.8c0.1,0.6,0.6,0.9,1.2,1c3.1,0.1,13.3,0.1,20.8-6.1h0.1c1.8-0.1,3.4-1.9,4.1-4.2c0.7-2.4,0.7-1.7,1.2-3.2
	C114.4,201.8,112,201.7,112,201.7z"/>
<path class="st10" d="M117.7,181c-4.7-0.1-8.3-4.8-8.3-4.8l8.1,0.3C117.5,177.7,117.5,179.4,117.7,181z"/>
<path class="st13" d="M118.2,178.1c0,0-10.5,1.3-10.7-6.1c-0.2-7.3,4.1-12,7.1-12c5.8,0.1,6.8,2.4,7.4,4.9
	C122.6,167.4,123,177.6,118.2,178.1z"/>
<path class="st2" d="M115.4,173.9c0,0,0.2,0.9,2.5,0.8c0,0,2-0.1,1.9-1.2C119.8,173.5,117.9,172.8,115.4,173.9z"/>
<path class="st15" d="M117.2,160.1c0,0-8.9,0-6.9,6.1c1.3,3.8-3,4.4-3,4.4l-2.1-6.2l1.3-4.8L117.2,160.1z"/>
<path class="st13" d="M238.3,156.3c-2.3-3.7-3.6-20.1-5.2-24.5c-1-2.7-3.7-6.1-3.4-6.3c-2.9-1.7-10.7-2.5-10.7-2.5
	c-0.3-0.1-0.6-0.1-0.9-0.2c-1-0.2-1.9-0.7-2-1.7V121c-0.1-1.2-0.1-2.4-0.1-3.3c0-1.7,0.2-2.9,0.2-2.9l-10.1-1.7
	c-0.1,3.1-0.3,5.5-0.5,7.2c-0.1,1.4-1.3,2.4-2.5,2.4c-0.2,0-0.4,0-0.6,0c0,0-6.6-0.2-9,0.5c-0.2,0.1-0.4,0.1-0.6,0.3
	c0.1,0.2-24,24.4-23.4,27.1c0.6,2.8,11.3,18.7,15.1,21.6h3.8c0,0-8.5-19.4-8.6-21.1c-0.2-2.3,21.5-15.2,21.5-17.5
	c0-0.9,6.1-1.1,10-1.1c4.2,0,12-2.2,12-2.2s3.4,25.8,7.7,33.3c3.4,6,18.4,21.5,18.4,21.5l3.1-2.7
	C252.2,182.4,243.7,165.2,238.3,156.3z"/>
<path class="st4" d="M207.7,255.2c1.9,17.9-0.4,41.4-0.4,41.4h-6.2c-9.4-24.6-9.6-40-10.2-45.7c-0.3-3.1-4.6-15.8-8.4-27.9
	c-3.2-10.1-6.1-19.9-6.1-23.6c0-8.4,8.3-21.8,8.3-21.8s12,4.6,19.5,9.2c2.4,1.6,4.4,3,5,4.3c1.8,3.3,3,27.5-1.6,42.2
	c-2.7,8.9-1.4,13.4-1.4,13.4C207,249.3,207.4,252.2,207.7,255.2z"/>
<path class="st14" d="M207.8,233.3c-2.7,8.9-1.4,13.4-1.4,13.4c0.6,2.5,1,5.5,1.3,8.5L182.5,223c-3.2-10.1-6.1-19.9-6.1-23.6
	c0-8.4,8.3-21.8,8.3-21.8s12,4.6,19.5,9.2c2.4,1.6,4.4,3,5,4.3C211,194.4,212.3,218.5,207.8,233.3z"/>
<path class="st5" d="M201.1,296.7c0,0-0.4,4-0.9,4.9c-0.5,0.9-2.7,3.6-5.2,4.6c-2.4,1-9.6,0.5-10.2,3H210c0,0,0.4-3.9-0.6-6.5
	c-1-2.5-2.1-6.1-2.1-6.1H201.1z"/>
<path class="st5" d="M243.1,295.8c0,0,2.8,3.8,3.5,5.4c0.7,1.6,5.3,7.9,4.7,8c-0.6,0.1-12.7,0-12.7,0s-1.3-3-1.1-5.1
	c0.1-2.1-1.7-6-1.4-8.2C236.6,293.5,243.1,295.8,243.1,295.8z"/>
<path class="st4" d="M243.1,295.8h-7c0,0-27.1-39.2-28.1-49.2c-1.2-12.4-9.9-61.6-9.9-61.6l27.8-8.6c0,0,2.4,6.3,4.5,12.5
	c0.9,2.7,1.7,5.5,2.2,7.7c1.1,5-2.1,23.8-4.1,37.1c-1.1,6.6-1.9,11.9-1.9,13.5C227,252.3,236.1,252.9,243.1,295.8z"/>
<path class="st22" d="M205.9,115.6c0,0.2,0,0.5,0,0.7C205.8,116.1,205.8,115.8,205.9,115.6z"/>
<path class="st5" d="M230,182.9c0.9,2.7-12.1,4.3-26.7,4.1c-4.1-0.1-7.9-0.6-11.1-1.4c-6.7-1.7-10.3-4.8-7.4-8.1
	c0.9-1,10.1-14.1,10.1-14.1c0.6-1.2,0-5.1-2.8-14.2c-1.2-3.7,0.4-6.1,0.9-7.5c0.2-0.5,0.3-1,0.1-1.3c-1.3-2.2-3-4.3-4.7-6
	c-2.2-2.2-3.9-3.6-3.9-3.6s5.4-5.9,8.4-7.3c3.1,3.2,9.9,9.1,18.3,9.1c7.3,0.1,14.4-4,18.7-7.2c0.3,0.2,0.6,0.4,0.8,0.6
	c2.6,3.1,3.4,8.9,3.4,8.9s-8.7,4.8-8.5,6.4c0.4,4.3,0.9,5.6,0.7,7.1c-0.1,0.5-0.2,1.1-0.5,1.9c-1.5,4.6-4.7,11.9-3.9,14.2
	C221.9,165,228.7,179,230,182.9z"/>
<path class="st13" d="M193.3,123.2c0.1,0,0.3-0.1,0.5-0.1C193.6,123.1,193.4,123.1,193.3,123.2z"/>
<path class="st13" d="M216.7,122c0.2,0.2,0.5,0.4,0.8,0.5C217.1,122.4,216.9,122.2,216.7,122z"/>
<path class="st13" d="M217.4,122.5c0.1,0,0.2,0.1,0.3,0.1C217.7,122.6,217.5,122.6,217.4,122.5z"/>
<path class="st13" d="M252.2,182.4c0,0,5.3,1.4,6.1,2.2c0.7,0.7,2.8,6.5,2.1,6.6c-3.8,0.3-5.9-1.8-5.9-1.8c-2.4-2.5-5.8-2.9-5.6-4.8
	C249.1,182.6,252.2,182.4,252.2,182.4z"/>
<path class="st13" d="M184.3,172.3c0,0-3.8,4.9-3.8,5.8c0,0.9,0.8,4.6,1.7,4.6c1,0.1,1.3-3,2-3.6c0.7-0.6,3.3-1.7,3.7-2.6
	c0.4-1,0.3-4.1,0.3-4.1H184.3z"/>
<path class="st10" d="M205.5,119.8c4.8-0.6,10.6-5.3,10.6-5.3c-3.4-1.9-6.4-2.1-8.6-1.4c-0.6,0.1-1.1,0.4-1.6,0.6L205.5,119.8z"/>
<path class="st13" d="M203.8,115.2c0,0,11.9,3.9,14.2-3.4c2.4-7.3,5.5-11.9-2-14.7c-7.4-2.8-9.8-0.5-11.2,1.8
	C203.4,101.1,200.8,114,203.8,115.2z"/>
<path class="st2" d="M208.1,111.9c0,0-0.4,0.9-2.6,0.2c0,0-1.9-0.6-1.6-1.6C203.8,110.5,205.8,110.2,208.1,111.9z"/>
<path class="st17" d="M235.6,97.9c-1.4-1.7,3-5.2-5.8-9.4c-6.7-3.2-8.8,1.7-9.4,4.2c-4-2.3-10.5-8.8-14.6-4.6
	c-5,5.1,0.4,9.6,0.4,9.6c1.9,1.4,2.8,1,5.6,1.6c2.7,0.6,1,3.8,1.2,4.9c0.2,1.1,2.1,3.2,4.6,2.2c2.5-1.1,2.3,3.1-0.2,3.9
	c-0.7,0.2-1.4,4.1-0.4,4.2c0.9,0.1,3.9,0.2,4.2-2.3c0.2-1.5,2.1-2.3,4-3.7c1.4,1.3,3.3,2,4.4,1.8c1.6-0.2,1.6-1.5,4.9-3.7
	C237.8,104.3,236.9,99.6,235.6,97.9z"/>
<path class="st23" d="M192.2,185.7c-6.7-1.7-10.3-4.8-7.4-8.1c0.9-1,10.1-14.1,10.1-14.1S197.3,178.2,192.2,185.7z"/>
<path class="st5" d="M235.3,309.2l-1-106.6c0,0-0.9-7.6-7.5-7.6c-7.2,0-7.5,7.6-7.5,7.6s0.1,0.7,0.9,0.7c0.8,0,0.9-0.7,0.9-0.7
	s0.3-5.9,5.9-5.9c5.2,0,5.9,5.9,5.9,5.9v106.6H235.3z"/>
<path class="st11" d="M231.7,309.2h4.4l-0.4-4.6c0,0,0-0.7-0.9-0.7c-0.9,0-2.4-0.2-2.6,0.4C232.1,304.7,231.7,309.2,231.7,309.2z"/>
<path class="st13" d="M226.7,189.3l-0.3,1.6c0,0-7.5,0-9.3,8c0,0-0.5,3.3,2,2.6c2.4-0.7,2.1-2.4,5.5-3.3c3.4-1,5.7-1.7,6.2-4.1
	l0.6-2.7L226.7,189.3z"/>
<path class="st20" d="M253.4,123.3c0,0-2,7.8-3.7,15c-0.7,2.8-1.4,5.7-1.8,7.7c-0.5,2.2-0.7,3.6-0.6,3.8c1.5,2.4-1.3,17.2-3.4,22.6
	c-0.2,0.5-0.5,1.1-0.8,1.7c-3,5.9-11.1,17.5-11.1,17.5s-2.3,0.2-3.7-0.3c-1.3-0.5-2.1-2-2.1-2c0.7-1.2,3.6-14.8,7.3-22.4
	c1.6-3.2,4-33.7,7.1-37.8C243.2,125.6,253.4,123.3,253.4,123.3z"/>
<path class="st21" d="M247.2,149.8c1.5,2.4-1.3,17.2-3.4,22.6c-0.2,0.5-0.5,1.1-0.8,1.7c-2.9-12.7,1.9-30.9,1.9-30.9
	C246.2,143.8,247.2,149.7,247.2,149.8z"/>
<path class="st11" d="M268.2,297.4c0,0,0.8,11.6-1.5,11.8c-0.3,0-11.1,0-11.1,0h-13.9c0,0,0.2-3.4,4.2-4.1c4-0.7,10.8-3.5,13.2-8.8
	C261.8,290.7,268.2,297.4,268.2,297.4z"/>
<path class="st11" d="M289.2,297.4c0,0,0.8,11.6-1.5,11.8c-0.3,0-11.1,0-11.1,0h-13.9c0,0,0.2-3.4,4.2-4.1c4-0.7,10.8-3.5,13.2-8.8
	C282.7,290.7,289.2,297.4,289.2,297.4z"/>
<path class="st5" d="M268.9,269.6c0.4,4.9,1.1,11.2,0.8,16.8c-0.4,7.9-0.6,14.6-0.6,14.6c-5.2,1.8-14.8-0.4-14.8-0.4s-3.4-20-6.2-36
	c-1.3-7.2-2.4-13.3-2.6-16.3c-1.3-9.4,1.4-59.7,1.4-59.7s14.1-9,20-4.4c5.9,4.7,9.4,9.2,0,60.3C266,248.6,268.1,258.7,268.9,269.6z"
	/>
<path class="st12" d="M268.9,269.6c0.4,4.9,1,12.7,0.7,18.4c-4.9-5.2-14.6-16.2-21.6-23.3c-1.3-7.2-2.4-13.3-2.6-16.3
	c-1.3-9.4,1.4-59.7,1.4-59.7s14.1-9,20-4.4c5.9,4.7,9.4,9.2,0,60.3C266,248.6,268.1,258.7,268.9,269.6z"/>
<path class="st5" d="M259.5,189.7c0,0,1.3,50.3,3.2,59.6c2,9.3,12.3,52,12.3,52s9.7,0.9,14.8-1.3c0,0-0.3-19.8-2.1-31.3
	c-1.6-10.9-4.5-20.8-4.1-24.7c5.5-51.7,1.5-55.9-4.7-60.1C272.9,179.6,259.5,189.7,259.5,189.7z"/>
<path class="st13" d="M278.7,194.1c0,0-3.3,6.8,3.1,11.9c0,0,2.8,2,3.2-0.6c0.4-2.4-0.1-1.7,0.6-5.1c0.7-3.5-0.2-7.1-2.2-8.6
	L278.7,194.1z"/>
<path class="st13" d="M250.3,111.9c0,0,3.9,5.9,3.1,11.4l5.8,13.8l10.4-15.9c0,0-5.5-6-7.5-14.1L250.3,111.9z"/>
<path class="st13" d="M248.6,116.9c0,0,14.1,0.6,14.4-7.8c0.3-8.5,4.1-14.1-6.5-14.9c-8.7-0.6-11.6,3-12.3,5.8
	C243.3,102.8,243.3,116.4,248.6,116.9z"/>
<path class="st20" d="M283.2,192.1c-3,0.3-7.2,0.6-12.3,1c-1,0.1-2.1,0.1-3.1,0.2c-15.4,0.9-21.5-1.7-21.5-1.7s-0.4-0.3-0.3-2.2
	c0.7-9.2,2.6-12,2.4-13.7c-0.5-3.9-10.2-36.2-10.2-36.2s-0.2-10.2,11.2-15c1.2-0.5,2.4-1,3.9-1.3c0.5,1.3,1.9,3.5,5.4,3.1
	c5.2-0.6,8.8-3.6,10.4-5.2c0.3,0,0.4,0,0.4,0c0.4,1.1,0.7,2.3,1,3.3c1,4,1.5,8.2,3.9,11.4s4.5,6.2,6.3,9.2c1.5,2.5,2.7,4.9,3.8,7.3
	C294.6,174.7,286.8,191.8,283.2,192.1z"/>
<path class="st21" d="M283.2,192.1c-3,0.3-7.2,0.6-12.3,1c-1.5-24.9,8.7-48.8,8.7-48.8c0.4,0.3,0.8,0.6,1.1,0.9
	c1.8,1.7,3,4.3,3.8,7.3C287.6,163.8,285.1,182.1,283.2,192.1z"/>
<path class="st24" d="M244,108.8c0,0-2.7,10.9,2,12.4c4.7,1.6,17,0.3,17-13c0,0-6.5,3.9-9.6,3.8c-3.1-0.1-5.1-1.9-8-0.5
	C245.4,111.5,244.3,111.4,244,108.8z"/>
<path class="st20" d="M269.5,121.3c0,0,9.9,0.2,15.1,7c4,5.2,8.2,33.1,8.2,37.3c0,4.2-4.5,27.4-7.1,29.9c0,0-1.7,0.4-3.8,0
	c-2.4-0.5-3.6-1.8-3.6-1.8s1.3-25.9,1.3-28.2c0-3.5-11-25-11-25S262.9,130.3,269.5,121.3z"/>
<path class="st24" d="M262.3,96.8c-0.3-0.9-1.3-1.3-1.3-1.3c-7.9-3.4-13.8,0.3-13.8,0.3c4.9-6.6,16.7-5.2,19.2,0.7
	c4,9.6-3.3,11.7-3.3,11.7s-7.4-3.1-3.1-7c1.5-1.3,2.1-2.4,2.4-3.4C262.3,97.4,262.3,97.1,262.3,96.8z"/>
<path class="st2" d="M249.7,114c0,0-0.3,1-2.5,0.7c0,0-2-0.2-1.9-1.2C245.3,113.5,247.2,112.8,249.7,114z"/>
<g>
	<path class="st21" d="M268.3,35.6c4.8,0,8.6,1.2,11.4,3.7c2.8,2.4,4.2,5.7,4.2,9.9c0,5.6-2.9,9.8-8.6,12.6
		c-5.7,2.8-12.2,4.2-19.3,4.2c-4.8,0-9.2-1.2-13.1-3.6c-3.9-2.4-5.8-5.5-5.8-9.1c0-2.7,0.9-5,2.7-6.8c1.8-1.8,4.1-2.7,6.7-2.7
		c2.8,0,5.1,0.8,6.8,2.3c1.8,1.5,2.6,3.5,2.6,5.9c0,1.8-0.3,3.1-1,4c-0.7,0.9-1.6,1.9-2.7,2.9c-1.1,1-1.8,1.6-2,1.9
		c-0.2,0.3-0.4,0.7-0.4,1.4c0,0.9,0.7,1.5,2,2c1.3,0.5,2.9,0.8,4.7,0.8c3.4,0,5.9-1.3,7.6-3.8c1.7-2.5,2.6-5.9,2.6-10.1
		c0-3.7-0.9-7-2.8-9.9c-1.8-2.9-4.4-4.3-7.5-4.3c-1.1,0-2.2,0.1-3.2,0.4c-0.9,0.3-1.8,0.7-2.6,1c-0.2,0-0.5-0.1-0.7-0.3
		c-0.3-0.2-0.4-0.5-0.4-0.8c0-0.6,0.5-1,1.5-1.1c1-0.2,2.2-0.3,3.5-0.3c3.2,0,5.7-1,7.5-2.9c1.8-1.9,2.7-4.6,2.7-8.1
		c0-3-0.6-5.6-1.9-7.8c-1.2-2.1-3.3-3.2-6.1-3.2c-1.6,0-3.2,0.3-4.7,1c-1.5,0.6-2.2,1.5-2.2,2.7c0,0.6,0.2,1.1,0.6,1.6
		c0.4,0.4,1.1,0.7,2.2,0.9c1.1,0.2,2,0.7,2.8,1.7c0.8,0.9,1.2,2.1,1.2,3.5c0,2-0.8,3.6-2.3,4.7c-1.5,1.1-3.5,1.6-5.9,1.6
		c-2.3,0-4.2-0.7-5.6-2.1c-1.5-1.4-2.2-3.2-2.2-5.3c0-2.1,1.1-4.2,3.4-6.2c2.3-2,4.9-3.5,7.9-4.3c3-0.9,6-1.3,9.1-1.3
		c6,0,10.8,1,14.4,2.9c3.6,1.9,5.4,5,5.4,9.3c0,3.2-1.3,5.7-3.8,7.4c-2.5,1.8-5.6,2.8-9.2,3.2V35.6z"/>
	<path class="st21" d="M313.7,56.2l0.1,3.3c0.1,1.6,0.5,2.6,1,3.2c0.5,0.5,1.3,0.9,2.1,1c0.9,0.1,1.6,0.2,2.3,0.2
		c0.6,0,1.3,0.1,2.1,0.1v1.1h-33.1V64c0.5,0,1,0,1.6,0c0.5,0,1.5-0.1,2.7-0.3c1.3-0.2,2.2-0.5,2.7-1.1c0.5-0.6,0.9-1.7,1-3.2
		l0.1-3.3V22.4l-0.1-3.3c-0.1-1.5-0.5-2.6-1-3.3c-0.5-0.7-1.3-1.1-2.4-1.3c-1.1-0.1-2.1-0.3-3.2-0.3c-1.1-0.1-1.8-0.1-2.3-0.2V13
		h26.3V56.2z"/>
</g>
<g>
	<path class="st21" d="M329.8,36.4c-0.2-0.3-0.3-0.6-0.4-0.7c-0.1-0.1-0.3-0.2-0.4-0.3l-0.8-0.1V35h6.8v0.3h-0.3
		c-0.1,0-0.3,0-0.4,0.1c-0.2,0-0.3,0.2-0.3,0.4c0,0.1,0,0.3,0.1,0.4c0.1,0.2,0.1,0.3,0.2,0.5l1.6,3.9c0.1-0.3,0.4-0.9,0.7-1.6
		c0.3-0.8,0.5-1.4,0.7-1.9c0.2-0.5,0.3-0.9,0.3-1.1c0-0.2,0-0.3-0.1-0.4c-0.1-0.1-0.2-0.1-0.5-0.2l-0.7,0V35h3.5v0.3
		c-0.1,0-0.2,0-0.3,0c-0.1,0-0.3,0-0.5,0.1c-0.2,0-0.4,0.2-0.6,0.4c-0.2,0.2-0.5,0.9-0.9,2c-0.5,1.1-0.9,2.4-1.5,3.7
		c-0.5,1.3-1.1,2.6-1.7,4c-0.6,1.4-1.2,2.4-1.8,3.1c-0.6,0.7-1.3,1-2.3,1c-0.6,0-1.1-0.2-1.5-0.6c-0.5-0.4-0.7-0.9-0.7-1.5
		c0-0.6,0.2-1,0.6-1.4c0.4-0.4,0.9-0.6,1.4-0.6c0.6,0,1.1,0.2,1.4,0.5s0.5,0.8,0.5,1.2s-0.1,0.9-0.4,1.1c-0.3,0.3-0.4,0.5-0.4,0.5
		c0.1,0,0.3,0,0.4,0c0.3-0.1,0.6-0.4,0.9-0.8c0.3-0.4,0.5-0.8,0.8-1.2c0.2-0.4,0.5-0.9,0.7-1.5c-0.3-0.7-0.7-1.6-1.1-2.7
		c-0.5-1.1-0.9-2.2-1.5-3.5C330.5,38.1,330.1,37.1,329.8,36.4z"/>
	<path class="st21" d="M349.8,41.7c-0.4,1-1,1.9-1.9,2.4s-1.9,0.9-3,0.9c-1.6,0-3-0.5-4-1.4c-1.1-0.9-1.6-2.2-1.6-3.8
		c0-1.5,0.5-2.7,1.6-3.7s2.4-1.4,3.9-1.4c1.6,0,2.8,0.5,3.7,1.4c0.8,0.9,1.3,2,1.3,3.3h-6.4c0,0.5,0,1,0.1,1.5
		c0.1,0.5,0.2,1,0.4,1.5c0.2,0.5,0.5,0.9,0.9,1.2c0.4,0.3,0.9,0.4,1.5,0.4c0.9,0,1.5-0.2,2-0.7c0.5-0.5,0.9-1.1,1.1-1.8L349.8,41.7z
		 M346.1,39c0-0.2,0-0.3,0-0.5c0-0.2,0-0.5,0-0.8c0-0.8-0.1-1.5-0.3-1.9c-0.2-0.4-0.6-0.7-1.1-0.7c-0.4,0-0.7,0.2-0.9,0.6
		c-0.2,0.4-0.3,1.1-0.4,1.9l0,1.3H346.1z"/>
	<path class="st21" d="M361,43.8c0.3,0,0.6-0.2,0.7-0.6c0.1-0.4,0.2-0.9,0.2-1.5h0.3c0,1.2-0.2,2-0.7,2.4c-0.4,0.4-0.8,0.6-1.2,0.7
		c-0.3,0.1-0.8,0.2-1.3,0.2c-0.6,0-1.1-0.2-1.6-0.5c-0.5-0.3-0.7-0.7-0.8-1.2c-0.2,0.6-0.6,1-1.1,1.3c-0.5,0.3-1.2,0.4-2,0.4
		c-0.9,0-1.6-0.2-2.2-0.7c-0.6-0.5-0.8-1.2-0.8-2c0-0.7,0.2-1.3,0.5-1.7c0.3-0.4,0.7-0.7,1.1-0.8c0.4-0.1,0.9-0.2,1.7-0.2
		c0.7-0.1,1.3-0.1,1.7-0.2s0.6-0.2,0.8-0.3c0.2-0.1,0.2-0.3,0.2-0.5l0-1.9c0-0.5-0.1-0.9-0.2-1.2c-0.1-0.2-0.4-0.4-0.9-0.4
		c-0.3,0-0.5,0.1-0.7,0.2c-0.2,0.1-0.3,0.3-0.3,0.5c0,0.2,0.1,0.3,0.4,0.6c0.3,0.2,0.4,0.6,0.4,1c0,0.4-0.2,0.8-0.6,1.1
		c-0.4,0.3-1,0.5-1.9,0.5c-0.5,0-0.9-0.1-1.2-0.4s-0.5-0.6-0.5-1c0-0.9,0.5-1.6,1.4-2.1c1-0.5,2.1-0.8,3.4-0.8
		c1.1,0,2.2,0.2,3.1,0.7c0.9,0.5,1.4,1.2,1.4,2.2v4.8c0,0.4,0,0.8,0.1,1C360.5,43.7,360.7,43.8,361,43.8z M356.3,43.2v-4l-0.1,0
		c-0.1,0.2-0.4,0.3-0.7,0.5s-0.6,0.3-0.7,0.4c-0.1,0.1-0.2,0.4-0.3,0.8c-0.1,0.4-0.1,0.8-0.1,1.2c0,0.6,0,1.1,0.1,1.5
		c0.1,0.4,0.3,0.6,0.7,0.6c0.3,0,0.5-0.1,0.7-0.3C356.1,43.7,356.3,43.4,356.3,43.2z"/>
	<path class="st21" d="M362,44.8v-0.3l0.6,0c0.4,0,0.6-0.1,0.7-0.3s0.1-0.5,0.1-1l0-1v-5l0-0.9c0-0.3-0.1-0.6-0.1-0.7
		c-0.1-0.2-0.3-0.3-0.7-0.3l-0.5,0V35h5.4v1.7c0.1-0.2,0.3-0.6,0.6-1.1c0.3-0.5,1-0.7,2.2-0.7c0.7,0,1.2,0.2,1.7,0.7
		c0.5,0.5,0.7,1,0.7,1.7s-0.2,1.2-0.7,1.6c-0.4,0.4-1,0.6-1.6,0.6c-0.5,0-1-0.2-1.4-0.6c-0.4-0.4-0.6-0.8-0.6-1.3
		c0-0.3,0.1-0.7,0.2-1c0.1-0.3,0.3-0.5,0.4-0.8c-0.1-0.1-0.1-0.1-0.2-0.1c-0.4,0-0.7,0.2-0.9,0.6c-0.3,0.4-0.4,0.8-0.4,1.2v4.8l0,1
		c0,0.4,0,0.7,0.1,0.8s0.3,0.2,0.7,0.3l0.6,0v0.3H362z"/>
	<path class="st21" d="M373.5,40.5h0.3c0.4,1.1,0.7,1.9,1.1,2.5c0.4,0.5,0.8,0.9,1.2,1.2c0.4,0.3,0.9,0.4,1.5,0.4
		c0.3,0,0.6-0.1,0.9-0.3c0.2-0.2,0.4-0.4,0.4-0.8c0-0.4-0.1-0.7-0.3-1s-0.5-0.4-0.9-0.7c-0.4-0.2-0.9-0.5-1.4-0.8
		c-0.5-0.3-1-0.6-1.4-0.9c-0.4-0.3-0.7-0.6-0.9-1c-0.2-0.4-0.3-0.8-0.3-1.2c0-1,0.4-1.8,1.2-2.4c0.8-0.6,1.7-0.8,2.8-0.8
		c0.5,0,1,0.1,1.5,0.3c0.5,0.2,0.9,0.5,1.4,0.7c0.2,0,0.4-0.1,0.5-0.4c0.1-0.2,0.2-0.5,0.2-0.8h0.3v4.2h-0.3
		c-0.1-0.3-0.2-0.7-0.4-1.1c-0.2-0.4-0.4-0.8-0.7-1.2c-0.3-0.4-0.6-0.7-1-0.9c-0.3-0.2-0.8-0.3-1.3-0.3c-0.4,0-0.7,0.1-0.9,0.3
		c-0.2,0.2-0.4,0.4-0.4,0.7c0,0.3,0.1,0.6,0.3,0.7s0.4,0.4,0.8,0.6c0.3,0.2,0.8,0.5,1.4,0.8c0.6,0.3,1.1,0.6,1.5,0.9
		s0.8,0.7,1.1,1.1s0.5,1,0.5,1.5c0,1.1-0.4,1.9-1.2,2.4c-0.8,0.5-1.8,0.8-2.9,0.8c-0.6,0-1.2-0.1-1.7-0.4c-0.6-0.3-1.1-0.6-1.6-0.9
		c-0.2,0-0.3,0.1-0.5,0.4c-0.1,0.3-0.2,0.6-0.2,0.9h-0.3V40.5z"/>
	<path class="st21" d="M340,59.9c0,1.5-0.6,2.7-1.7,3.7s-2.4,1.5-3.9,1.5c-1.6,0-2.9-0.5-4-1.5c-1.1-1-1.6-2.2-1.6-3.7
		c0-1.5,0.5-2.7,1.6-3.7c1.1-1,2.4-1.5,4-1.5c1.5,0,2.9,0.5,4,1.5C339.5,57.2,340,58.4,340,59.9z M335.9,59.9c0-0.2,0-0.6,0-1.2
		c0-0.6,0-0.9,0-1c0-0.7-0.1-1.4-0.3-1.8s-0.6-0.7-1.1-0.7c-0.4,0-0.8,0.3-1,0.8c-0.2,0.5-0.4,1.1-0.4,1.8c0,0.3,0,0.6,0,1
		c0,0.4,0,0.8-0.1,1.2c0,0.2,0,0.6,0,1.2c0,0.6,0,1,0,1c0,0.7,0.1,1.4,0.3,1.8c0.2,0.5,0.6,0.7,1,0.7c0.5,0,0.8-0.2,1-0.7
		c0.2-0.5,0.4-1.1,0.4-1.8c0-0.3,0-0.6,0-1S335.9,60.4,335.9,59.9z"/>
	<path class="st21" d="M347.2,52c0-0.4,0.1-0.7,0.4-1c0.3-0.3,0.4-0.5,0.4-0.6c0-0.2-0.1-0.3-0.2-0.4s-0.3-0.1-0.5-0.1
		c-0.5,0-0.8,0.3-1,0.8c-0.2,0.6-0.3,1.3-0.3,2.1l0,2.2h2.3l-0.4,0.8h-2v6.5l0,1c0,0.5,0,0.8,0.1,1c0.1,0.2,0.3,0.3,0.7,0.3l0.7,0
		v0.3h-7v-0.3l0.5,0c0.4,0,0.6-0.1,0.7-0.3s0.1-0.5,0.1-1l0-1v-6.5h-1.5l0.3-0.8h1.2c0-0.3,0-0.6,0-0.9c0-0.3,0-0.5,0-0.7
		c0-1,0.6-1.9,1.7-2.7s2.4-1.2,3.8-1.2c0.9,0,1.8,0.2,2.5,0.6c0.7,0.4,1.1,1,1.1,1.8c0,0.5-0.2,0.9-0.6,1.3
		c-0.4,0.3-0.9,0.5-1.4,0.5s-0.9-0.1-1.3-0.4C347.4,52.9,347.2,52.5,347.2,52z"/>
	<path class="st21" d="M353.9,60.5h0.3c0.4,1.1,0.7,1.9,1.1,2.5c0.4,0.5,0.8,0.9,1.2,1.2c0.4,0.3,0.9,0.4,1.5,0.4
		c0.3,0,0.6-0.1,0.9-0.3c0.2-0.2,0.4-0.4,0.4-0.8c0-0.4-0.1-0.7-0.3-1s-0.5-0.4-0.9-0.7c-0.4-0.2-0.9-0.5-1.4-0.8
		c-0.5-0.3-1-0.6-1.4-0.9c-0.4-0.3-0.7-0.6-0.9-1c-0.2-0.4-0.3-0.8-0.3-1.2c0-1,0.4-1.8,1.2-2.4c0.8-0.6,1.7-0.8,2.8-0.8
		c0.5,0,1,0.1,1.5,0.3c0.5,0.2,0.9,0.5,1.4,0.7c0.2,0,0.4-0.1,0.5-0.4c0.1-0.2,0.2-0.5,0.2-0.8h0.3v4.2h-0.3
		c-0.1-0.3-0.2-0.7-0.4-1.1c-0.2-0.4-0.4-0.8-0.7-1.2c-0.3-0.4-0.6-0.7-1-0.9c-0.3-0.2-0.8-0.3-1.3-0.3c-0.4,0-0.7,0.1-0.9,0.3
		c-0.2,0.2-0.4,0.4-0.4,0.7c0,0.3,0.1,0.6,0.3,0.7s0.4,0.4,0.8,0.6c0.3,0.2,0.8,0.5,1.4,0.8c0.6,0.3,1.1,0.6,1.5,0.9
		s0.8,0.7,1.1,1.1s0.5,1,0.5,1.5c0,1.1-0.4,1.9-1.2,2.4c-0.8,0.5-1.8,0.8-2.9,0.8c-0.6,0-1.2-0.1-1.7-0.4c-0.6-0.3-1.1-0.6-1.6-0.9
		c-0.2,0-0.3,0.1-0.5,0.4c-0.1,0.3-0.2,0.6-0.2,0.9h-0.3V60.5z"/>
	<path class="st21" d="M373.9,61.7c-0.4,1-1,1.9-1.9,2.4s-1.9,0.9-3,0.9c-1.6,0-3-0.5-4-1.4c-1.1-0.9-1.6-2.2-1.6-3.8
		c0-1.5,0.5-2.7,1.6-3.7s2.4-1.4,3.9-1.4c1.6,0,2.8,0.5,3.7,1.4c0.8,0.9,1.3,2,1.3,3.3h-6.4c0,0.5,0,1,0.1,1.5
		c0.1,0.5,0.2,1,0.4,1.5c0.2,0.5,0.5,0.9,0.9,1.2c0.4,0.3,0.9,0.4,1.5,0.4c0.9,0,1.5-0.2,2-0.7c0.5-0.5,0.9-1.1,1.1-1.8L373.9,61.7z
		 M370.2,59c0-0.2,0-0.3,0-0.5c0-0.2,0-0.5,0-0.8c0-0.8-0.1-1.5-0.3-1.9c-0.2-0.4-0.6-0.7-1.1-0.7c-0.4,0-0.7,0.2-0.9,0.6
		c-0.2,0.4-0.3,1.1-0.4,1.9l0,1.3H370.2z"/>
	<path class="st21" d="M374.2,64.8v-0.3l0.6,0c0.4,0,0.6-0.1,0.7-0.3s0.1-0.5,0.1-1l0-1v-5l0-0.9c0-0.3-0.1-0.6-0.1-0.7
		c-0.1-0.2-0.3-0.3-0.7-0.3l-0.5,0V55h5.4v1.7c0.1-0.2,0.3-0.6,0.6-1.1c0.3-0.5,1-0.7,2.2-0.7c0.7,0,1.2,0.2,1.7,0.7
		c0.5,0.5,0.7,1,0.7,1.7s-0.2,1.2-0.7,1.6c-0.4,0.4-1,0.6-1.6,0.6c-0.5,0-1-0.2-1.4-0.6c-0.4-0.4-0.6-0.8-0.6-1.3
		c0-0.3,0.1-0.7,0.2-1c0.1-0.3,0.3-0.5,0.4-0.8c-0.1-0.1-0.1-0.1-0.2-0.1c-0.4,0-0.7,0.2-0.9,0.6c-0.3,0.4-0.4,0.8-0.4,1.2v4.8l0,1
		c0,0.4,0,0.7,0.1,0.8s0.3,0.2,0.7,0.3l0.6,0v0.3H374.2z"/>
	<path class="st21" d="M391.2,55.3c-0.1,0-0.2,0-0.2,0c-0.1,0-0.2,0-0.4,0.1s-0.3,0.2-0.3,0.5c0,0.2,0,0.3,0,0.4
		c0,0.1,0.1,0.2,0.1,0.4l1.6,4.2l1.5-3.8c0.2-0.5,0.2-0.9,0.2-1.1c0-0.2,0-0.3-0.1-0.4c-0.1-0.1-0.2-0.1-0.5-0.2l-0.7,0V55h3.5v0.3
		l-0.8,0.1c-0.2,0-0.4,0.2-0.6,0.4c-0.2,0.2-0.4,0.6-0.6,1.1s-0.6,1.5-1.1,2.9c-0.6,1.5-1,2.6-1.3,3.3c-0.3,0.8-0.5,1.4-0.7,1.8
		h-1.5c-0.2-0.6-0.5-1.3-0.9-2.3c-0.3-0.9-0.8-2-1.3-3.4c-0.5-1.4-0.9-2.3-1.1-2.7s-0.3-0.8-0.4-0.9c-0.1-0.1-0.2-0.2-0.4-0.2
		s-0.3-0.1-0.5-0.1c-0.2,0-0.3,0-0.3,0V55h6.8V55.3z"/>
	<path class="st21" d="M402.1,64.8h-6.8v-0.3l0.5,0c0.4,0,0.6-0.1,0.7-0.3c0.1-0.2,0.1-0.5,0.1-1l0-1v-5l0-0.9
		c0-0.3-0.1-0.6-0.1-0.7c-0.1-0.2-0.3-0.3-0.7-0.3l-0.6,0V55h5.5v7.3l0,1c0,0.5,0,0.8,0.1,1c0.1,0.2,0.3,0.3,0.7,0.3l0.5,0V64.8z
		 M396.7,51.5c0-0.5,0.2-1,0.6-1.4c0.4-0.4,0.9-0.6,1.4-0.6c0.6,0,1.1,0.2,1.5,0.6c0.4,0.4,0.6,0.8,0.6,1.4c0,0.6-0.2,1-0.6,1.4
		c-0.4,0.4-0.9,0.6-1.5,0.6c-0.6,0-1-0.2-1.4-0.6C396.9,52.5,396.7,52.1,396.7,51.5z"/>
	<path class="st21" d="M408.8,55.1c-0.4,0-0.7,0.2-1,0.5c-0.3,0.3-0.5,0.7-0.6,1.1s-0.2,0.9-0.3,1.4s-0.1,1-0.1,1.5
		c0,1.3,0.2,2.4,0.6,3.3s1.2,1.4,2.2,1.4c0.8,0,1.4-0.2,2-0.7c0.6-0.5,1-1.1,1.3-1.8l0.3,0.2c-0.9,2.1-2.6,3.1-5,3.1
		c-1.6,0-2.9-0.5-4-1.4s-1.7-2.2-1.7-3.7c0-1.6,0.5-2.8,1.6-3.7c1.1-0.9,2.4-1.4,4.1-1.4c0.6,0,1.2,0.1,1.7,0.2
		c0.5,0.1,1,0.3,1.4,0.5s0.9,0.6,1.3,1c0.4,0.4,0.6,0.9,0.6,1.5c0,0.5-0.2,0.9-0.5,1.2c-0.3,0.3-0.8,0.5-1.4,0.5
		c-0.5,0-1-0.2-1.5-0.6s-0.7-0.8-0.7-1.3c0-0.4,0.1-0.7,0.2-1.1c0.2-0.3,0.2-0.6,0.2-0.9c0-0.2-0.1-0.4-0.2-0.5
		C409.3,55.2,409.1,55.1,408.8,55.1z"/>
	<path class="st21" d="M424.2,61.7c-0.4,1-1,1.9-1.9,2.4s-1.9,0.9-3,0.9c-1.6,0-3-0.5-4-1.4c-1.1-0.9-1.6-2.2-1.6-3.8
		c0-1.5,0.5-2.7,1.6-3.7s2.4-1.4,3.9-1.4c1.6,0,2.8,0.5,3.7,1.4c0.8,0.9,1.3,2,1.3,3.3h-6.4c0,0.5,0,1,0.1,1.5
		c0.1,0.5,0.2,1,0.4,1.5c0.2,0.5,0.5,0.9,0.9,1.2c0.4,0.3,0.9,0.4,1.5,0.4c0.9,0,1.5-0.2,2-0.7c0.5-0.5,0.9-1.1,1.1-1.8L424.2,61.7z
		 M420.5,59c0-0.2,0-0.3,0-0.5c0-0.2,0-0.5,0-0.8c0-0.8-0.1-1.5-0.3-1.9c-0.2-0.4-0.6-0.7-1.1-0.7c-0.4,0-0.7,0.2-0.9,0.6
		c-0.2,0.4-0.3,1.1-0.4,1.9l0,1.3H420.5z"/>
</g>
</svg>
