<svg width="176" height="61" viewBox="0 0 176 61" fill="none" xmlns="http://www.w3.org/2000/svg">
<path d="M87.5408 12.603L88.7763 13.9622L90.1972 14.0857L97.8578 18.4102L102.368 15.1977L104.097 16.3097L106.445 14.5182L107.372 14.3946L109.781 12.1088L111.696 13.6533L113.241 13.9004L114.538 14.8888L119.666 17.4218L122.199 16.0009L124.546 16.9893L127.388 16.6186L128.871 18.1013L130.786 18.1631L132.763 18.7191L136.531 15.136L138.57 14.7653L140.3 12.9119L142.338 14.1475L144.933 14.8271L147.157 13.2208L148.887 12.1088L149.937 13.0973L153.15 14.3328L156.547 15.8773L160.934 12.2941L170.88 18.472L171.189 17.916L160.872 11.491L156.486 15.136L153.458 13.715L150.308 12.5413L148.949 11.3057L146.786 12.6648L144.809 14.0857L142.647 13.5297L140.238 12.047L138.199 14.1475L136.222 14.5182L132.577 17.9778L130.971 17.4835L129.179 17.4218L127.635 15.9391L124.608 16.3097L122.137 15.2595L119.666 16.6804L114.909 14.3328L113.55 13.2826L112.005 13.0355L109.719 11.1821L107.063 13.7768L106.136 13.8386L104.097 15.5066L102.368 14.3946L97.796 17.6689L90.4444 13.4679L89.0852 13.2826L87.6025 11.6764L77.9033 18.6573L78.274 19.1516L87.5408 12.603Z" fill="#0B4423"/>
<path d="M83.8335 20.2635C83.8335 20.2635 83.0922 20.1399 83.401 22.2404L84.6984 31.0747L82.5979 31.816L82.6597 24.6497C82.6597 24.6497 82.9686 22.3022 79.3854 20.5724L78.3352 20.0781L80.2503 32.4956L75.9258 34.1636C75.9258 34.1636 75.7405 35.3374 80.3121 34.6579L81.7948 43.8629C81.7948 43.8629 82.5979 44.5424 82.7215 42.8744L82.7833 34.5343L85.3162 34.5961L86.3046 43.6775C86.3046 43.6775 87.1078 44.6042 87.2931 42.7508L87.602 32.8663L87.8491 24.2173C87.9109 24.2791 87.3549 21.1284 83.8335 20.2635Z" fill="#0B4423"/>
<path d="M90.5062 22.9194H90.3208C90.3208 22.9194 88.7764 23.2901 88.7764 25.3288C88.7764 25.3288 88.8381 27.1822 90.5062 27.5528C90.5062 27.5528 92.236 27.3675 91.9888 25.1435C91.9888 25.0817 92.1124 23.5372 90.5062 22.9194Z" fill="#0B4423"/>
<path d="M104.158 29.4688C104.158 29.4688 103.355 29.5923 101.934 31.5074C101.934 31.5074 100.266 29.4688 99.2778 29.5305C99.2778 29.5305 97.7333 30.7043 96.8684 31.631C96.8684 31.631 94.8297 29.407 94.2119 29.7159C94.2119 29.7159 91.7408 31.4457 91.3701 33.6697C91.3701 33.6697 91.5555 34.5346 92.4204 34.2875L92.4821 34.2257C92.4821 34.2257 93.8413 32.4341 94.8915 33.0519L96.3124 34.5346C96.3124 34.5346 97.3009 35.2759 98.104 34.1021C98.104 34.1021 98.9071 32.2488 99.8338 32.5577C99.8338 32.5577 100.76 34.3493 102.243 34.1639C102.243 34.1639 103.108 33.855 103.602 33.1137C103.602 33.1137 103.849 32.4959 104.467 32.8048L105.95 34.411C105.95 34.411 106.691 34.7199 107.185 34.3493C107.185 34.3493 107.618 33.9168 106.938 33.299C107 33.2372 105.27 29.8394 104.158 29.4688Z" fill="#0B4423"/>
<path d="M124.915 32.1873C124.915 32.1873 124.297 32.3108 124.668 31.6313C124.668 31.6313 124.421 30.4575 123.371 30.4575C123.371 30.4575 121.394 32.4344 120.467 32.3108C120.467 32.3108 118.923 32.1873 119.788 31.3224C119.788 31.3224 123.371 30.0868 123.556 29.4072C123.556 29.4072 123.803 28.2334 121.517 27.9863C121.517 27.9863 118.985 28.5423 118.12 30.2721C118.12 30.2721 117.378 32.9904 119.664 33.9171C119.664 33.9171 121.703 34.226 122.321 33.6082L122.444 33.4228C122.444 33.4228 125.039 34.9673 125.718 33.67C125.718 33.6082 126.151 32.8051 124.915 32.1873Z" fill="#0B4423"/>
<path d="M113.858 32.1873C113.858 32.1873 113.24 32.3108 113.611 31.6313C113.611 31.6313 113.363 30.4575 112.313 30.4575C112.313 30.4575 110.336 32.4344 109.41 32.3108C109.41 32.3108 107.865 32.1873 108.73 31.3224C108.73 31.3224 112.313 30.0868 112.499 29.4072C112.499 29.4072 112.746 28.2334 110.46 27.9863C110.46 27.9863 107.927 28.5423 107.062 30.2721C107.062 30.2721 106.321 32.9904 108.606 33.9171C108.606 33.9171 110.645 34.226 111.263 33.6082L111.387 33.4228C111.387 33.4228 113.981 34.9673 114.661 33.67C114.723 33.6082 115.155 32.8051 113.858 32.1873Z" fill="#0B4423"/>
<path d="M138.446 32.1873C138.446 32.1873 137.828 32.3108 138.198 31.6313C138.198 31.6313 137.951 30.4575 136.901 30.4575C136.901 30.4575 134.924 32.4344 133.997 32.3108C133.997 32.3108 132.453 32.1873 133.318 31.3224C133.318 31.3224 136.901 30.0868 137.086 29.4072C137.086 29.4072 137.334 28.2334 135.048 27.9863C135.048 27.9863 132.515 28.5423 131.65 30.2721C131.65 30.2721 130.909 32.9904 133.194 33.9171C133.194 33.9171 135.233 34.226 135.851 33.6082L135.974 33.4228C135.974 33.4228 138.569 34.9673 139.249 33.67C139.249 33.6082 139.743 32.8051 138.446 32.1873Z" fill="#0B4423"/>
<path d="M148.824 32.1869C148.824 32.1869 146.724 28.9126 146.106 28.7891C146.106 28.7891 144.562 30.766 144.068 31.0131C144.068 31.0131 142.338 29.2215 141.596 29.2215C141.596 29.2215 139.434 31.8162 139.311 32.3104L139.372 32.4958C139.372 32.4958 139.805 33.3607 140.423 33.2371C140.423 33.2371 141.535 31.6927 142.091 32.0015C142.091 32.0015 143.697 33.546 144.438 33.7931C144.438 33.7931 144.932 33.9785 146.353 32.3722C146.353 32.3722 147.404 33.546 148.577 33.9785C148.577 33.9785 149.813 33.6696 150.431 32.5576C150.492 32.4958 150.431 31.6309 148.824 32.1869Z" fill="#0B4423"/>
<path d="M130.97 34.534C130.97 34.534 131.155 30.2095 130.784 29.1593C130.784 29.1593 130.228 28.3562 129.549 28.2326C129.549 28.2326 129.24 28.1708 129.116 28.974C129.116 28.974 129.116 32.1247 128.869 32.7425C128.869 32.7425 128.128 33.1131 127.881 32.2482C127.881 32.2482 128.128 29.2211 127.881 28.7886C127.881 28.7886 126.892 27.1206 126.089 27.1206L125.904 27.2442C125.904 27.2442 125.966 30.642 125.78 31.8158C125.78 31.8158 125.904 33.7309 127.51 34.3487C127.51 34.3487 128.251 34.6576 128.684 34.6576C128.684 34.6576 128.622 37.4376 129.055 40.0941C129.055 40.0941 129.24 42.627 131.464 43.9244C131.464 43.9244 131.835 43.9861 131.526 43.0595C131.587 42.9977 130.599 37.6847 130.97 34.534Z" fill="#0B4423"/>
<path d="M116.452 29.2212L117.626 21.2517C117.626 21.2517 117.688 19.8308 115.464 18.3481L115.278 18.4717C115.278 18.4717 113.487 26.5029 114.537 30.8892C114.537 30.8892 115.217 33.9163 117.626 34.0399C117.626 34.0399 119.047 33.9781 117.75 32.6808C117.688 32.6808 116.205 32.0012 116.452 29.2212Z" fill="#0B4423"/>
<path d="M157.906 30.8898C157.906 30.8898 155.991 31.9401 155.806 30.7045C155.806 30.7045 154.385 25.824 156.671 21.6231C156.671 21.6231 156.362 19.0901 154.323 18.7812C154.323 18.7812 153.52 19.5226 153.582 23.6618C153.582 23.6618 153.767 27.6774 153.767 30.7663C153.644 31.7547 152.902 32.3107 152.223 32.4961C152.223 32.4961 152.408 33.7934 154.57 33.361L155.064 33.2374C155.064 33.2374 157.165 34.6583 158.648 32.6814C158.648 32.6814 158.709 31.0752 157.906 30.8898Z" fill="#0B4423"/>
<path d="M175.142 31.1365C175.142 31.1365 175.204 30.148 174.154 29.7773H174.03C174.03 29.7773 173.042 30.0245 173.042 31.3218C173.042 31.3218 173.104 32.5574 174.154 32.7427C174.216 32.7427 175.328 32.6192 175.142 31.1365Z" fill="#0B4423"/>
<path d="M160.933 24.8974C160.933 24.8974 162.601 24.465 163.219 24.0943C163.219 24.0943 164.022 22.4263 163.219 22.3027C163.219 22.3027 161.921 22.4263 161.427 22.5498C161.427 22.5498 161.612 21.8703 160.933 21.0671C160.933 21.0671 159.883 19.708 159.203 19.8933C159.203 19.8933 158.647 20.264 158.832 22.8587L158.647 23.1676C158.647 23.1676 156.856 23.7854 156.67 24.2178C156.67 24.2178 156.114 26.8125 158.338 25.7005C158.338 25.7005 158.153 30.5193 159.45 32.7433C159.45 32.7433 159.821 33.4846 160.748 33.1757C160.748 33.1757 161.612 32.9286 160.995 31.8784C161.056 31.7548 159.759 27.7392 160.933 24.8974Z" fill="#0B4423"/>
<path d="M170.941 31.1986C170.941 31.1986 167.914 30.7043 171.003 22.1171C171.003 22.1171 171.559 20.2638 170.447 19.5224C170.447 19.5224 169.582 18.4722 168.779 18.5958C168.779 18.5958 168.408 17.978 168.099 22.3642C168.099 22.3642 167.42 23.7852 167.976 28.5421C167.976 28.5421 168.408 30.2719 166.74 31.1368C166.74 31.1368 164.331 33.1137 163.96 31.075C163.96 31.075 164.701 29.0363 166.308 29.3452L166.864 29.2217C166.864 29.2217 167.729 27.4301 165.628 27.183C165.628 27.183 162.539 27.6154 161.736 31.1368C161.736 31.1368 161.365 34.6582 165.505 33.9786C165.505 33.9786 167.42 33.1137 168.346 32.187C168.346 32.187 169.088 32.6813 169.644 33.1755C169.644 33.1755 171.497 33.4226 171.93 31.8781C171.991 32.0017 171.991 31.2604 170.941 31.1986Z" fill="#0B4423"/>
<path d="M90.3203 28.3562C90.3203 28.3562 89.6407 27.5531 88.3434 30.642C88.3434 30.642 88.1581 32.3718 88.8376 32.9278C88.8376 32.9278 90.135 34.8429 90.7528 34.1016C90.7528 34.1016 91.5559 29.3447 90.3203 28.3562Z" fill="#0B4423"/>
<path d="M12.9117 17.8539C12.1704 16.2477 10.0699 12.9116 5.18939 12.9116C3.64493 12.9116 1.91513 13.2823 0 13.9619L0.0617788 14.5796C0.123557 14.5796 6.73386 15.5063 7.66054 19.3984H1.11201V24.3406H7.84587V36.6964H12.6028H13.2824H18.0393V24.3406H24.7732V19.3984H18.1629C19.0896 15.5681 25.6999 14.6414 25.7616 14.5796L25.8234 13.9619C23.9701 13.2823 22.2403 12.9116 20.634 12.9116C15.8153 12.9116 13.6531 16.2477 12.9117 17.8539ZM12.6028 36.0168H8.52544V23.6611H1.79158V20.0162H8.46366L8.40188 19.6455C7.90765 16.1241 3.64493 14.6414 1.42091 14.1472C2.78003 13.7765 4.0156 13.5294 5.18939 13.5294C10.8112 13.5294 12.4175 18.2246 12.6028 18.7806V36.0168Z" fill="#0B4423"/>
<path d="M31.753 18.9043H26.9961V19.1514V35.2756H36.2629V31.3836H31.753V18.9043Z" fill="#0B4423"/>
<path d="M42.1332 28.9124H45.8399V25.2057H41.9479V22.9817H46.8902V18.9043H37.0674L37.1292 35.2756H46.9519V31.0129H42.1332V28.9124Z" fill="#0B4423"/>
<path d="M55.7233 28.3564C55.7233 28.3564 56.0939 31.3218 54.4259 31.3836C54.4259 31.3836 52.6961 31.6924 53.005 28.2329V18.9043H48.4334V30.6422C48.4334 30.6422 47.9392 35.3992 52.0783 35.9552C52.0783 35.9552 54.0552 36.2641 55.6615 34.2254C55.6615 34.2254 55.9704 35.152 55.9704 35.2138C55.9704 35.2756 60.4184 35.2138 60.4184 35.2138V18.9043H55.785V28.3564H55.7233Z" fill="#0B4423"/>
<path d="M72.7753 20.4488C72.7753 20.4488 72.4046 19.2132 70.4895 18.9043H62.1494V35.2756H66.8446V28.3564L69.6864 35.2138H74.5051L71.7251 27.7386C71.7251 27.8004 75.37 24.4644 72.7753 20.4488ZM68.8833 24.0319C68.6979 25.7617 66.721 25.6999 66.721 25.6999V22.2403C69.1922 22.3021 68.8833 24.0319 68.8833 24.0319Z" fill="#0B4423"/>
<path d="M12.9723 14.7033C14.3314 14.7033 15.5052 14.2091 16.4319 13.2824C17.4204 12.2939 17.9146 11.1819 17.9146 9.82278C17.9146 8.58721 17.3586 7.41342 16.3083 6.17785L15.9377 5.80718C15.1345 4.8805 14.5168 4.0156 14.0843 3.21248C13.6519 2.40936 13.343 1.29735 12.9723 0C12.6634 1.35913 12.2927 2.40936 11.9221 3.21248C11.4896 4.0156 10.8718 4.8805 10.0687 5.80718L9.69804 6.17785C8.58602 7.41342 8.0918 8.58721 8.0918 9.82278C8.0918 11.1819 8.58602 12.2939 9.57448 13.2824C10.5012 14.2091 11.6132 14.7033 12.9723 14.7033Z" fill="#0B4423"/>
<path d="M17.207 57.4077C18.041 56.7021 18.875 55.9323 19.7089 55.0983C20.5429 54.3285 21.2486 53.687 21.6335 53.2379C22.7882 52.1473 23.558 51.1851 23.9429 50.4152C24.3278 49.5813 24.5203 48.7473 24.5203 47.8492C24.5203 46.8228 24.3278 45.9888 23.8788 45.4114C23.4297 44.8341 22.8524 44.5133 22.0184 44.5133C21.441 44.5133 20.8637 44.6416 20.4146 44.9624C19.9014 45.2831 19.6448 45.6039 19.6448 45.9888C19.6448 46.5662 19.9655 46.8869 20.6071 46.8869C21.0561 46.8869 21.441 47.0152 21.6976 47.2718C21.9542 47.5284 22.1467 47.9133 22.1467 48.3624C22.1467 48.9398 21.9542 49.3888 21.5693 49.7096C21.1844 50.0945 20.7354 50.2869 20.158 50.2869C19.4523 50.2869 18.9391 50.0945 18.4259 49.7096C17.9768 49.3247 17.7202 48.8115 17.7202 48.1699C17.7202 47.4001 17.9768 46.7586 18.4901 46.1171C19.0033 45.4756 19.5806 45.0265 20.2221 44.7699C20.8637 44.5133 21.441 44.3209 21.9542 44.2567C22.4674 44.1926 22.9807 44.1284 23.558 44.1284C25.0335 44.1284 26.3165 44.4492 27.3429 45.0907C28.3694 45.7322 28.8826 46.6945 28.8826 47.9133C28.8826 48.6832 28.626 49.3888 28.1769 50.0303C27.6637 50.6077 27.1505 51.1209 26.5731 51.4417C25.9958 51.7624 25.0335 52.1473 23.8146 52.6605C22.5957 53.1738 21.8901 53.4945 21.7618 53.687V53.7511C22.0825 53.7511 22.4033 53.687 22.7882 53.687C23.1731 53.687 23.6222 53.687 24.0712 53.687H26.958C27.5354 53.687 27.9845 53.6228 28.2411 53.4945C28.4977 53.3662 28.6901 53.1096 28.7543 52.853C28.8826 52.5964 28.9467 52.3398 29.075 52.0832C29.1392 51.8266 29.2033 51.6341 29.2675 51.4417H29.5241L28.3694 57.7285H17.207V57.4077Z" fill="#F98800"/>
<path d="M31.7045 51.3133L33.3082 44.0642H33.5007C33.9498 44.1925 34.463 44.3208 35.0403 44.4491C35.6177 44.5774 36.3234 44.6415 37.029 44.6415C37.9913 44.6415 38.7611 44.5774 39.3385 44.4491C39.7234 44.3208 40.1083 44.1283 40.4932 44C40.6215 44 40.6856 44.1283 40.6856 44.3208C40.6856 44.7057 40.5573 45.0906 40.3007 45.6038C40.0441 46.0528 39.5309 46.5661 38.8894 47.0793C38.2479 47.5925 37.2215 47.8491 35.8101 47.8491C35.1686 47.8491 34.6554 47.7849 34.2064 47.7208C33.7573 47.6566 33.3724 47.5283 32.9875 47.3359L32.4101 49.9019C32.9875 49.3246 33.5648 49.0038 34.2705 48.7472C34.9762 48.5547 35.8101 48.4264 36.9007 48.4264C38.2479 48.4264 39.4668 48.8114 40.4932 49.5812C41.5196 50.351 42.0328 51.3774 42.0328 52.6604C42.0328 54.2642 41.3272 55.4831 39.98 56.3171C38.6328 57.2152 37.0932 57.6001 35.2969 57.6001C33.9498 57.6001 32.8592 57.2793 32.0252 56.6378C31.1912 55.9963 30.7422 55.1623 30.7422 54.2001C30.7422 53.6869 30.9346 53.2378 31.3837 52.8529C31.7686 52.468 32.2818 52.2755 32.8592 52.2755C33.5007 52.2755 34.0781 52.468 34.5913 52.7887C35.0403 53.1736 35.2969 53.6227 35.2969 54.2642C35.2969 54.9057 35.1045 55.3548 34.7196 55.7397C34.3347 56.1246 34.1422 56.3812 34.1422 56.5737C34.1422 56.7661 34.2705 56.9586 34.5271 57.0869C34.7837 57.2152 35.0403 57.2793 35.2969 57.2793C36.1951 57.2793 36.8366 56.8944 37.1573 56.1888C37.4781 55.4189 37.6705 54.5208 37.6705 53.4303C37.6705 52.2755 37.4781 51.185 37.029 50.2868C36.6441 49.3887 35.9384 48.9397 35.0403 48.9397C34.2064 48.9397 33.5648 49.1321 33.1799 49.5812C32.795 49.9661 32.4743 50.2868 32.4101 50.5434C32.346 50.8 32.2177 50.9925 32.1535 51.2491L31.7045 51.3133Z" fill="#F98800"/>
<path d="M46.717 51.4415C46.5887 51.1849 46.5245 50.9924 46.3962 50.9283C46.3321 50.7999 46.2038 50.7358 46.0755 50.7358L45.4981 50.6716V50.415H50.4378V50.6716H50.1812C50.117 50.6716 49.9887 50.6716 49.8604 50.7358C49.7321 50.7358 49.668 50.8641 49.668 51.0566C49.668 51.1207 49.668 51.249 49.7321 51.3773C49.7963 51.5056 49.7963 51.6339 49.8604 51.7622L51.0151 54.5849C51.1434 54.3283 51.2717 53.9434 51.5283 53.4302C51.7208 52.8528 51.9133 52.4037 52.0416 52.0188C52.1699 51.6339 52.234 51.3773 52.234 51.1849C52.234 51.0566 52.234 50.9924 52.1699 50.9283C52.1057 50.8641 51.9774 50.8641 51.7849 50.7999H51.2717V50.5433H53.7736V50.6716C53.7095 50.6716 53.6453 50.6716 53.5812 50.6716C53.517 50.6716 53.3887 50.6716 53.1963 50.7358C53.0038 50.7358 52.8755 50.8641 52.7472 50.9924C52.6189 51.1207 52.4265 51.6339 52.1057 52.4679C51.7849 53.3019 51.4 54.2 51.0793 55.0981C50.6944 56.0604 50.3095 57.0226 49.7963 57.9849C49.3472 59.0113 48.8981 59.717 48.5132 60.2302C48.1283 60.7434 47.551 61 46.9094 61C46.5245 61 46.1396 60.8717 45.8189 60.6151C45.4981 60.3585 45.3057 59.9736 45.3057 59.5887C45.3057 59.2038 45.434 58.8189 45.6906 58.5623C45.9472 58.3057 46.3321 58.1132 46.717 58.1132C47.1661 58.1132 47.4868 58.2415 47.7434 58.4981C48 58.7547 48.1283 59.0755 48.1283 59.3962C48.1283 59.717 48.0642 60.0377 47.8717 60.2302C47.6793 60.4226 47.6151 60.551 47.6151 60.6151C47.6793 60.6151 47.8076 60.6151 47.8717 60.6151C48.0642 60.4868 48.3208 60.2943 48.5132 60.0377C48.7057 59.7811 48.8981 59.4604 49.0264 59.1396C49.1547 58.8189 49.3472 58.4981 49.5397 58.049C49.3472 57.5358 49.0264 56.8943 48.7057 56.1245C48.3849 55.3547 48 54.5207 47.6151 53.6226C47.2302 52.6603 46.9094 51.9547 46.717 51.4415Z" fill="#F98800"/>
<path d="M61.2151 55.2909C60.9585 56.0607 60.5094 56.6381 59.8679 57.0872C59.2264 57.5362 58.5207 57.7287 57.6867 57.7287C56.532 57.7287 55.5056 57.4079 54.7358 56.7664C53.966 56.1249 53.5811 55.2268 53.5811 54.0079C53.5811 52.9173 53.966 52.0192 54.7358 51.3135C55.5056 50.6079 56.4679 50.2871 57.5584 50.2871C58.7132 50.2871 59.6113 50.6079 60.1886 51.2494C60.8302 51.8909 61.0868 52.7249 61.0868 53.623H56.4679C56.4679 54.0079 56.4679 54.3286 56.532 54.7136C56.5962 55.0985 56.6603 55.4834 56.8528 55.8041C56.9811 56.1249 57.2377 56.4456 57.4943 56.6381C57.7509 56.8305 58.1358 56.9589 58.5849 56.9589C59.2264 56.9589 59.6754 56.7664 60.0603 56.4456C60.4453 56.1249 60.7019 55.6758 60.8943 55.1626L61.2151 55.2909ZM58.5207 53.3664C58.5207 53.2381 58.5207 53.1098 58.5207 52.9815C58.5207 52.8532 58.5207 52.6607 58.5207 52.4041C58.5207 51.7626 58.4566 51.3135 58.3283 50.9928C58.2 50.672 57.9433 50.5437 57.5584 50.5437C57.2377 50.5437 57.0452 50.672 56.9169 50.9928C56.7886 51.3135 56.7245 51.7626 56.6603 52.4041V53.3664H58.5207Z" fill="#F98800"/>
<path d="M69.2974 56.8307C69.554 56.8307 69.6823 56.7024 69.8106 56.3817C69.8748 56.0609 69.9389 55.7402 69.9389 55.2911H70.1314C70.1314 56.1892 70.0031 56.7666 69.6823 57.0232C69.3615 57.2798 69.1049 57.4722 68.8483 57.5364C68.5917 57.6005 68.271 57.6647 67.8861 57.6647C67.437 57.6647 67.0521 57.5364 66.7313 57.3439C66.4106 57.1515 66.2181 56.8307 66.154 56.4458C65.9615 56.8307 65.7049 57.1515 65.32 57.3439C64.9351 57.5364 64.486 57.6647 63.8445 57.6647C63.203 57.6647 62.6898 57.4722 62.3049 57.1515C61.92 56.8307 61.7275 56.3175 61.7275 55.676C61.7275 55.1628 61.8558 54.7779 62.1124 54.4571C62.3691 54.1364 62.6257 53.9439 62.8823 53.8798C63.1389 53.8156 63.5238 53.7515 64.1011 53.6873C64.6143 53.6232 65.0634 53.559 65.32 53.4949C65.5766 53.4307 65.7691 53.3666 65.8974 53.3024C66.0257 53.2383 66.0898 53.11 66.0898 52.9175V51.5703C66.0898 51.1854 66.0257 50.9288 65.9615 50.7364C65.8332 50.5439 65.6408 50.4797 65.32 50.4797C65.1276 50.4797 64.9351 50.5439 64.8068 50.6081C64.6785 50.6722 64.6143 50.8005 64.6143 50.9288C64.6143 51.0571 64.7427 51.1854 64.9351 51.3137C65.1276 51.5062 65.2559 51.6986 65.2559 52.0835C65.2559 52.4043 65.1276 52.6609 64.871 52.9175C64.6144 53.1741 64.1653 53.3024 63.5238 53.3024C63.203 53.3024 62.8823 53.2383 62.6257 53.0458C62.3691 52.8533 62.2407 52.5967 62.2407 52.276C62.2407 51.6345 62.5615 51.1213 63.2672 50.8005C63.9728 50.4156 64.8068 50.2231 65.7691 50.2231C66.603 50.2231 67.3087 50.4156 68.0144 50.7364C68.72 51.0571 69.0408 51.5703 69.0408 52.276V55.7402C69.0408 56.0609 69.0408 56.3175 69.1049 56.51C68.9766 56.7024 69.1049 56.8307 69.2974 56.8307ZM65.8974 56.3817V53.4949H65.8332C65.7691 53.6232 65.5766 53.7515 65.32 53.8156C65.0634 53.9439 64.9351 54.0081 64.8068 54.1364C64.7426 54.2647 64.6143 54.4571 64.6143 54.7137C64.5502 54.9703 64.5502 55.2911 64.5502 55.6119C64.5502 56.0609 64.6143 56.4458 64.6785 56.7024C64.7427 56.959 64.9351 57.0873 65.1276 57.0873C65.32 57.0873 65.5125 57.0232 65.6408 56.8307C65.7691 56.7024 65.8974 56.51 65.8974 56.3817Z" fill="#F98800"/>
<path d="M70.0674 57.536V57.2794H70.4523C70.7731 57.2794 70.9014 57.1511 70.9655 57.087C71.0297 56.9587 71.0297 56.7662 71.0297 56.3813V55.6756V52.0832V51.4416C71.0297 51.185 70.9655 50.9926 70.9655 50.9284C70.9014 50.8001 70.7731 50.736 70.4523 50.6718H70.0674V50.4152H73.9806V51.6983C74.0448 51.5058 74.1731 51.2492 74.4297 50.8643C74.6863 50.4794 75.1995 50.3511 76.0335 50.3511C76.5467 50.3511 76.9316 50.5435 77.2523 50.8643C77.5731 51.185 77.7655 51.5699 77.7655 52.0832C77.7655 52.5322 77.6372 52.9171 77.3165 53.2379C76.9957 53.5586 76.6108 53.6869 76.1618 53.6869C75.7769 53.6869 75.4561 53.5586 75.1995 53.302C74.9429 53.0454 74.8146 52.7247 74.8146 52.4039C74.8146 52.1473 74.8787 51.8907 74.9429 51.6983C75.0712 51.5058 75.1353 51.3133 75.2636 51.1209C75.1995 51.0567 75.1353 50.9926 75.1353 50.9926C74.8787 50.9926 74.6221 51.1209 74.4297 51.4416C74.2372 51.7624 74.1731 52.019 74.1731 52.3398V55.8039V56.5738C74.1731 56.8304 74.2372 57.0228 74.3014 57.1511C74.3655 57.2794 74.558 57.3436 74.8146 57.3436H75.2636V57.6002H70.0674V57.536Z" fill="#F98800"/>
<path d="M78.3435 54.4565H78.5359C78.7925 55.2905 79.0491 55.8679 79.3057 56.2528C79.5623 56.6377 79.8189 56.8943 80.1397 57.0867C80.4604 57.2792 80.8454 57.3433 81.2303 57.3433C81.4869 57.3433 81.6793 57.2792 81.8718 57.1509C82.0642 57.0226 82.1284 56.8301 82.1284 56.5735C82.1284 56.2528 82.0642 56.0603 81.9359 55.8679C81.8076 55.7396 81.551 55.5471 81.2944 55.3547C80.9737 55.1622 80.6529 54.9697 80.268 54.7773C79.8831 54.5848 79.5623 54.3282 79.3057 54.1358C79.0491 53.9433 78.8567 53.6867 78.6642 53.4301C78.5359 53.1735 78.4718 52.8527 78.4718 52.532C78.4718 51.7622 78.7284 51.1848 79.3057 50.7999C79.8831 50.415 80.5246 50.2225 81.3586 50.2225C81.7435 50.2225 82.1284 50.2867 82.4491 50.415C82.7699 50.6074 83.0907 50.7358 83.4756 50.9282C83.6039 50.9282 83.7322 50.8641 83.8605 50.6716C83.9888 50.4791 83.9888 50.2867 83.9888 50.0942H84.1812V53.1094H83.9888C83.9246 52.8527 83.7963 52.5961 83.668 52.3395C83.5397 52.0188 83.3473 51.7622 83.1548 51.4414C82.8982 51.1207 82.7057 50.9282 82.4491 50.7358C82.1925 50.5433 81.8718 50.4791 81.4869 50.4791C81.2303 50.4791 80.9737 50.5433 80.7812 50.6716C80.5888 50.7999 80.5246 50.9924 80.5246 51.1848C80.5246 51.4414 80.5887 51.5697 80.7171 51.698C80.8454 51.8263 81.0378 51.9546 81.2944 52.0829C81.551 52.2112 81.8718 52.4037 82.2567 52.6603C82.6416 52.9169 83.0265 53.1094 83.3473 53.3018C83.668 53.4943 83.9246 53.815 84.1812 54.1358C84.3737 54.4565 84.502 54.8414 84.502 55.2263C84.502 55.9962 84.1812 56.5735 83.6039 56.9584C83.0265 57.3433 82.3208 57.5358 81.4869 57.5358C81.0378 57.5358 80.6529 57.4716 80.2038 57.2792C79.8189 57.0867 79.434 56.8943 78.985 56.6377C78.8567 56.6377 78.7284 56.766 78.6642 56.9584C78.5359 57.1509 78.4718 57.4075 78.4718 57.6641H78.2793V54.4565H78.3435Z" fill="#F98800"/>
<path d="M97.0753 54.0079C97.0753 55.0985 96.6904 55.9324 95.8564 56.6381C95.0224 57.3438 94.1243 57.7287 93.0337 57.7287C91.879 57.7287 90.9167 57.3438 90.1469 56.6381C89.3771 55.9324 88.9922 55.0343 88.9922 54.0079C88.9922 52.9173 89.3771 52.0833 90.1469 51.3777C90.9167 50.672 91.879 50.2871 93.0337 50.2871C94.1243 50.2871 95.0866 50.6079 95.9205 51.3135C96.6262 52.0192 97.0753 52.9173 97.0753 54.0079ZM94.0602 53.9437C94.0602 53.8154 94.0602 53.4947 94.0602 53.1098C94.0602 52.6607 94.0602 52.4683 94.0602 52.34C94.0602 51.8267 93.996 51.3777 93.8035 50.9928C93.6111 50.672 93.3545 50.4796 93.0337 50.4796C92.713 50.4796 92.4564 50.672 92.3281 51.0569C92.1356 51.4418 92.0715 51.8909 92.0715 52.4041C92.0715 52.5966 92.0715 52.8532 92.0715 53.1098C92.0715 53.3664 92.0715 53.6871 92.0073 54.0079C92.0073 54.1362 92.0073 54.4569 92.0073 54.8419C92.0073 55.2909 92.0073 55.5475 92.0073 55.6117C92.0073 56.1249 92.0715 56.5739 92.2639 56.9589C92.4564 57.2796 92.713 57.4721 93.0337 57.4721C93.3545 57.4721 93.6111 57.2796 93.8035 56.9589C93.996 56.5739 94.0602 56.1249 94.0602 55.6117C94.0602 55.4192 94.0602 55.1626 94.0602 54.906C93.996 54.5852 94.0602 54.3286 94.0602 53.9437Z" fill="#F98800"/>
<path d="M102.208 48.234C102.208 47.9774 102.336 47.7208 102.529 47.5284C102.721 47.3359 102.849 47.1435 102.849 47.0793C102.849 46.951 102.785 46.8869 102.721 46.8227C102.657 46.7586 102.529 46.7586 102.336 46.7586C102.015 46.7586 101.759 46.951 101.566 47.3359C101.438 47.7208 101.31 48.234 101.31 48.8756V50.4793H103.042L102.785 51.0567H101.31V55.7397V56.4454C101.31 56.8303 101.31 57.0228 101.374 57.1511C101.438 57.2794 101.631 57.3435 101.887 57.4077H102.4V57.6643H97.3324V57.4077H97.7173C98.0381 57.4077 98.1664 57.2794 98.2305 57.2152C98.2947 57.0869 98.2947 56.8945 98.2947 56.5096V55.8039V51.1208H97.2041L97.4607 50.5435H98.2947C98.2947 50.351 98.2947 50.1586 98.2947 49.902C98.2947 49.6454 98.2947 49.5171 98.2947 49.3888C98.2947 48.6831 98.6796 48.0416 99.5136 47.4001C100.348 46.8227 101.246 46.502 102.272 46.502C102.978 46.502 103.555 46.6303 104.068 46.951C104.582 47.2076 104.838 47.6567 104.838 48.234C104.838 48.6189 104.71 48.8756 104.389 49.1322C104.068 49.3888 103.748 49.5171 103.427 49.5171C103.042 49.5171 102.721 49.3888 102.465 49.1963C102.336 48.8756 102.208 48.6189 102.208 48.234Z" fill="#F98800"/>
<path d="M107.083 54.4565H107.275C107.532 55.2905 107.788 55.8679 108.045 56.2528C108.302 56.6377 108.558 56.8943 108.879 57.0867C109.2 57.2792 109.585 57.3433 109.97 57.3433C110.226 57.3433 110.419 57.2792 110.611 57.1509C110.803 57.0226 110.868 56.8301 110.868 56.5735C110.868 56.2528 110.803 56.0603 110.675 55.8679C110.547 55.7396 110.29 55.5471 110.034 55.3547C109.713 55.1622 109.392 54.9697 109.007 54.7773C108.622 54.5848 108.302 54.3282 108.045 54.1358C107.788 53.9433 107.596 53.6867 107.403 53.4301C107.275 53.1735 107.211 52.8527 107.211 52.532C107.211 51.7622 107.468 51.1848 108.045 50.7999C108.622 50.415 109.264 50.2225 110.098 50.2225C110.483 50.2225 110.868 50.2867 111.188 50.415C111.509 50.6074 111.83 50.7358 112.215 50.9282C112.343 50.9282 112.471 50.8641 112.6 50.6716C112.728 50.4791 112.728 50.2867 112.728 50.0942H112.92V53.1094H112.728C112.664 52.8527 112.536 52.5961 112.407 52.3395C112.279 52.0188 112.087 51.7622 111.894 51.4414C111.637 51.1207 111.445 50.9282 111.188 50.7358C110.932 50.5433 110.611 50.4791 110.226 50.4791C109.97 50.4791 109.713 50.5433 109.52 50.6716C109.328 50.7999 109.264 50.9924 109.264 51.1848C109.264 51.4414 109.328 51.5697 109.456 51.698C109.585 51.8263 109.777 51.9546 110.034 52.0829C110.29 52.2112 110.611 52.4037 110.996 52.6603C111.381 52.9169 111.766 53.1094 112.087 53.3018C112.407 53.4943 112.664 53.815 112.92 54.1358C113.113 54.4565 113.241 54.8414 113.241 55.2263C113.241 55.9962 112.92 56.5735 112.343 56.9584C111.766 57.3433 111.06 57.5358 110.226 57.5358C109.777 57.5358 109.392 57.4716 108.943 57.2792C108.558 57.0867 108.173 56.8943 107.724 56.6377C107.596 56.6377 107.468 56.766 107.403 56.9584C107.275 57.1509 107.211 57.4075 107.211 57.6641H107.019V54.4565H107.083Z" fill="#F98800"/>
<path d="M121.581 55.2909C121.325 56.0607 120.876 56.6381 120.234 57.0872C119.593 57.5362 118.887 57.7287 118.053 57.7287C116.898 57.7287 115.872 57.4079 115.102 56.7664C114.332 56.1249 113.947 55.2268 113.947 54.0079C113.947 52.9173 114.332 52.0192 115.102 51.3135C115.872 50.6079 116.834 50.2871 117.925 50.2871C119.079 50.2871 119.977 50.6079 120.555 51.2494C121.196 51.8909 121.453 52.7249 121.453 53.623H116.834C116.834 54.0079 116.834 54.3286 116.898 54.7136C116.962 55.0985 117.027 55.4834 117.219 55.8041C117.347 56.1249 117.604 56.4456 117.86 56.6381C118.117 56.8305 118.502 56.9589 118.951 56.9589C119.593 56.9589 120.042 56.7664 120.427 56.4456C120.811 56.1249 121.068 55.6758 121.261 55.1626L121.581 55.2909ZM118.887 53.3664C118.887 53.2381 118.887 53.1098 118.887 52.9815C118.887 52.8532 118.887 52.6607 118.887 52.4041C118.887 51.7626 118.823 51.3135 118.63 50.9928C118.502 50.672 118.245 50.5437 117.86 50.5437C117.54 50.5437 117.347 50.672 117.219 50.9928C117.091 51.3135 117.027 51.7626 116.962 52.4041V53.3664H118.887Z" fill="#F98800"/>
<path d="M121.773 57.536V57.2794H122.158C122.479 57.2794 122.607 57.1511 122.672 57.087C122.736 56.9587 122.736 56.7662 122.736 56.3813V55.6756V52.0832V51.4416C122.736 51.185 122.672 50.9926 122.672 50.9284C122.607 50.8001 122.479 50.736 122.158 50.6718H121.773V50.4152H125.687V51.6983C125.751 51.5058 125.879 51.2492 126.136 50.8643C126.392 50.4794 126.906 50.3511 127.74 50.3511C128.253 50.3511 128.638 50.5435 128.958 50.8643C129.279 51.185 129.472 51.5699 129.472 52.0832C129.472 52.5322 129.343 52.9171 129.023 53.2379C128.702 53.5586 128.317 53.6869 127.868 53.6869C127.483 53.6869 127.162 53.5586 126.906 53.302C126.649 53.0454 126.521 52.7247 126.521 52.4039C126.521 52.1473 126.585 51.8907 126.649 51.6983C126.777 51.5058 126.841 51.3133 126.97 51.1209C126.906 51.0567 126.841 50.9926 126.841 50.9926C126.585 50.9926 126.328 51.1209 126.136 51.4416C125.943 51.7624 125.879 52.019 125.879 52.3398V55.8039V56.5738C125.879 56.8304 125.943 57.0228 126.007 57.1511C126.072 57.2794 126.264 57.3436 126.521 57.3436H126.97V57.6002H121.773V57.536Z" fill="#F98800"/>
<path d="M134.09 50.6719C134.026 50.6719 133.962 50.6719 133.898 50.6719C133.834 50.6719 133.706 50.6719 133.577 50.7361C133.449 50.7361 133.321 50.8644 133.321 51.121C133.321 51.2493 133.321 51.3135 133.321 51.3776C133.321 51.4418 133.385 51.5701 133.449 51.6984L134.604 54.7135L135.694 51.955C135.823 51.6342 135.887 51.3135 135.887 51.121C135.887 50.9927 135.823 50.8644 135.758 50.8644C135.694 50.8003 135.566 50.8002 135.438 50.7361H134.924V50.4795H137.426V50.6719L136.849 50.7361C136.656 50.7361 136.528 50.8644 136.4 50.9927C136.272 51.121 136.143 51.3776 136.015 51.7625C135.887 52.1474 135.63 52.8531 135.181 53.8795C134.796 54.9059 134.475 55.7399 134.283 56.3173C134.09 56.8946 133.898 57.2795 133.77 57.6644H132.679C132.487 57.2154 132.294 56.7022 132.038 56.0607C131.781 55.4191 131.46 54.5852 131.075 53.6229C130.69 52.6606 130.434 51.955 130.305 51.6342C130.177 51.3135 130.049 51.0569 129.985 50.9927C129.921 50.9286 129.792 50.8644 129.664 50.8002C129.536 50.8002 129.407 50.7361 129.279 50.7361C129.151 50.7361 129.087 50.7361 129.022 50.7361V50.4795H133.898V50.6719H134.09Z" fill="#F98800"/>
<path d="M141.981 57.536H137.105V57.2794H137.49C137.811 57.2794 137.939 57.1511 138.004 57.0869C138.068 56.9586 138.068 56.7662 138.068 56.3813V55.6756V52.0831V51.4416C138.068 51.185 138.004 50.9925 138.004 50.9284C137.939 50.8001 137.811 50.7359 137.49 50.6718H137.105V50.4152H141.083V55.6756V56.3813C141.083 56.7662 141.083 56.9586 141.147 57.0869C141.211 57.2152 141.404 57.2794 141.66 57.2794H142.045V57.536H141.981ZM138.068 47.9133C138.068 47.5284 138.196 47.2076 138.517 46.8869C138.773 46.6303 139.158 46.502 139.543 46.502C139.928 46.502 140.313 46.6303 140.57 46.8869C140.826 47.1435 141.019 47.4642 141.019 47.9133C141.019 48.2982 140.89 48.6831 140.57 48.9397C140.313 49.1963 139.928 49.3246 139.543 49.3246C139.158 49.3246 138.773 49.1963 138.517 48.9397C138.196 48.6831 138.068 48.2982 138.068 47.9133Z" fill="#F98800"/>
<path d="M146.792 50.5437C146.536 50.5437 146.279 50.672 146.087 50.8645C145.894 51.0569 145.766 51.3777 145.638 51.6984C145.509 52.0192 145.445 52.3399 145.381 52.7249C145.317 53.1098 145.317 53.4947 145.317 53.8154C145.317 54.7136 145.445 55.5475 145.766 56.189C146.087 56.8947 146.6 57.2155 147.37 57.2155C147.947 57.2155 148.396 57.023 148.845 56.7022C149.23 56.3815 149.551 55.9324 149.807 55.3551L150.064 55.4834C149.423 56.9588 148.204 57.7287 146.472 57.7287C145.317 57.7287 144.355 57.4079 143.521 56.7022C142.687 55.9966 142.302 55.1626 142.302 54.0079C142.302 52.9173 142.687 51.955 143.456 51.3135C144.226 50.6079 145.253 50.2871 146.407 50.2871C146.857 50.2871 147.241 50.3513 147.626 50.4154C148.011 50.4796 148.332 50.672 148.653 50.8003C148.973 50.9928 149.294 51.1852 149.615 51.506C149.936 51.8267 150.064 52.1475 150.064 52.5966C150.064 52.9815 149.936 53.2381 149.743 53.4947C149.487 53.7513 149.166 53.8154 148.717 53.8154C148.332 53.8154 147.947 53.6871 147.626 53.4305C147.306 53.1739 147.177 52.8532 147.177 52.4683C147.177 52.2117 147.241 51.955 147.37 51.6984C147.498 51.4418 147.562 51.2494 147.562 51.0569C147.562 50.8645 147.498 50.7362 147.37 50.672C147.177 50.5437 147.049 50.5437 146.792 50.5437Z" fill="#F98800"/>
<path d="M157.956 55.2909C157.7 56.0607 157.251 56.6381 156.609 57.0872C155.968 57.5362 155.262 57.7287 154.428 57.7287C153.273 57.7287 152.247 57.4079 151.477 56.7664C150.707 56.1249 150.322 55.2268 150.322 54.0079C150.322 52.9173 150.707 52.0192 151.477 51.3135C152.247 50.6079 153.209 50.2871 154.3 50.2871C155.454 50.2871 156.352 50.6079 156.93 51.2494C157.571 51.8909 157.828 52.7249 157.828 53.623H153.209C153.209 54.0079 153.209 54.3286 153.273 54.7136C153.337 55.0985 153.402 55.4834 153.594 55.8041C153.722 56.1249 153.979 56.4456 154.236 56.6381C154.492 56.8305 154.877 56.9589 155.326 56.9589C155.968 56.9589 156.417 56.7664 156.802 56.4456C157.186 56.1249 157.443 55.6758 157.636 55.1626L157.956 55.2909ZM155.326 53.3664C155.326 53.2381 155.326 53.1098 155.326 52.9815C155.326 52.8532 155.326 52.6607 155.326 52.4041C155.326 51.7626 155.262 51.3135 155.069 50.9928C154.941 50.672 154.685 50.5437 154.3 50.5437C153.979 50.5437 153.786 50.672 153.658 50.9928C153.53 51.3135 153.466 51.7626 153.402 52.4041V53.3664H155.326Z" fill="#F98800"/>
</svg>
