<svg width="40" height="45" viewBox="0 0 40 45" fill="none" xmlns="http://www.w3.org/2000/svg">
<path d="M40.0002 11.978V13.3307C40.0002 14.4287 39.1043 15.3246 38.0064 15.3246H37.5497C37.4003 15.7902 37.2159 16.2382 36.9875 16.6774L37.3125 17.0024C38.103 17.7841 38.0767 19.049 37.3125 19.8132L36.3551 20.7707C35.5909 21.5349 34.3261 21.5612 33.5444 20.7707L33.2194 20.4457C32.789 20.674 32.3323 20.8585 31.8667 21.0078V21.4646C31.8667 22.5626 30.9708 23.4585 29.8729 23.4585H28.5202C27.4223 23.4585 26.5264 22.5626 26.5264 21.4646V21.0078C26.0608 20.8585 25.6129 20.674 25.1737 20.4457L24.8487 20.7707C24.1724 21.4558 23.1272 21.5261 22.363 21.0342L23.2853 20.0328C23.5224 20.0943 23.7859 20.0328 23.9704 19.8396L24.6291 19.1808C24.7872 19.0314 25.0947 18.8997 25.4021 19.0841C26.0081 19.4443 26.6581 19.7166 27.3345 19.8923C27.6155 19.9625 27.8088 20.2173 27.8088 20.5071V21.4382C27.8088 21.8335 28.1338 22.1585 28.529 22.1585H29.8817C30.2769 22.1585 30.6019 21.8335 30.6019 21.4382V20.5071C30.6019 20.2173 30.7951 19.9625 31.0762 19.8923C31.7525 19.7166 32.4025 19.4443 33.0086 19.0841C33.2633 18.9348 33.5795 18.9787 33.7815 19.1808L34.4403 19.8396C34.7214 20.1294 35.1781 20.1206 35.4592 19.8396L36.4166 18.8821C36.6977 18.6098 36.7064 18.153 36.4166 17.8632L35.7578 17.2044C35.5558 16.9936 35.5119 16.6774 35.6612 16.4314C36.0125 15.8253 36.2848 15.1753 36.4605 14.4989C36.5308 14.2179 36.7855 14.0246 37.0753 14.0246H38.0064C38.4017 14.0246 38.7266 13.6996 38.7266 13.3043V11.9516C38.7266 11.5563 38.4017 11.2313 38.0064 11.2313H37.0753C36.7855 11.2313 36.5308 11.0381 36.4605 10.757C36.2848 10.0806 36.0213 9.43062 35.6612 8.82453C35.5119 8.5698 35.5558 8.25357 35.7578 8.05154L36.4166 7.39275C36.7064 7.11166 36.6977 6.6549 36.4166 6.37382L35.4592 5.41637C35.1869 5.13528 34.7302 5.1265 34.4403 5.41637L33.7815 6.08395C33.5707 6.28598 33.2545 6.3299 33.0086 6.18057C32.4025 5.82921 31.7525 5.55691 31.0762 5.38123C30.7951 5.31096 30.6019 5.05623 30.6019 4.76636V3.82648C30.6019 3.4312 30.2769 3.1062 29.8817 3.1062H28.529C28.1338 3.1062 27.8088 3.4312 27.8088 3.82648V4.77514C27.8088 5.06501 27.6155 5.31975 27.3345 5.39002C26.6581 5.55691 26.0081 5.82921 25.4021 6.18935C25.1474 6.33868 24.8312 6.29476 24.6291 6.09273L23.9704 5.42515C23.6893 5.13528 23.2326 5.14407 22.9515 5.42515L21.9941 6.3826C21.713 6.6549 21.7042 7.11167 21.9941 7.40153L22.6529 8.06033C22.8549 8.27114 22.8988 8.58736 22.7495 8.83331C22.5738 9.14075 22.4069 9.44819 22.2752 9.77319L21.3178 8.79818C21.3441 8.74547 21.3705 8.69277 21.4144 8.6225L21.0894 8.29749C20.2989 7.51573 20.3252 6.25084 21.0894 5.48664L22.0468 4.52919C22.811 3.76499 24.067 3.73864 24.8575 4.52919L25.1825 4.8542C25.6129 4.62582 26.0696 4.44135 26.5352 4.29203V3.83526C26.5352 2.74606 27.4311 1.8501 28.529 1.8501H29.8817C30.9796 1.8501 31.8755 2.73727 31.8755 3.83526V4.29203C32.341 4.44135 32.789 4.62582 33.2282 4.8542L33.5532 4.52919C34.3349 3.73864 35.5997 3.76499 36.3639 4.52919L37.3213 5.48664C38.0854 6.25084 38.1118 7.50694 37.3213 8.29749L36.9963 8.6225C37.2247 9.05291 37.4091 9.50967 37.5584 9.97522H38.0152C39.1131 9.97522 40.009 10.8712 40.0002 11.978Z" fill="#333333"/>
<path d="M29.1964 7.94617C27.4221 7.94617 25.8762 8.92997 25.0769 10.3793L26.0167 11.3368C26.2451 10.7922 26.6052 10.309 27.0708 9.9489C27.6593 9.48335 28.3971 9.21105 29.1964 9.21105C31.0936 9.21105 32.6307 10.7482 32.6307 12.6456C32.6307 14.5429 31.0848 16.0801 29.1964 16.0801C28.5552 16.0801 27.9579 15.9044 27.4484 15.597L26.7194 16.572C27.2728 16.8618 28.3268 17.345 29.1964 17.345C31.7875 17.345 33.8955 15.2368 33.8955 12.6456C33.9043 10.0543 31.7875 7.94617 29.1964 7.94617ZM26.3417 16.3699L26.3681 16.3436C26.3593 16.3524 26.3505 16.3612 26.3417 16.3699Z" fill="#333333"/>
<path d="M13.1311 31.1357C11.8663 31.1445 10.8386 32.1722 10.8386 33.4283C10.8386 34.6932 11.8663 35.7209 13.1311 35.7209C14.3959 35.7209 15.4236 34.6932 15.4236 33.4283C15.4236 32.1634 14.3959 31.1357 13.1311 31.1357ZM13.1223 34.4033C12.5865 34.4033 12.1474 33.9641 12.1474 33.4283C12.1474 32.8925 12.5865 32.4533 13.1223 32.4533C13.6581 32.4533 14.0973 32.8925 14.0973 33.4283C14.0973 33.9641 13.6581 34.4033 13.1223 34.4033Z" fill="#333333"/>
<path d="M30.6807 37.4876H18.7527V35.1071H28.5288C29.6179 35.1071 30.505 34.2199 30.505 33.1307C30.505 30.8996 28.6869 29.0814 26.4559 29.0814H16.7238C15.8015 28.3347 14.6245 27.8867 13.3421 27.8867C12.6219 27.8867 11.9368 28.0273 11.2956 28.2908C8.91524 26.8063 7.45718 24.1975 7.45718 21.3954C7.45718 19.5859 8.05446 17.8467 9.16118 16.4237L12.5955 19.8582C12.1651 20.6751 12.2881 21.7292 12.9908 22.4319L14.7738 24.2151C15.6346 25.0759 17.0224 25.0759 17.8832 24.2151L24.4005 17.6974C26.3153 15.7825 26.2451 15.8616 26.3505 15.7386C26.3768 15.6947 26.8423 15.194 26.8423 14.3507C26.8423 13.1649 25.9903 12.6379 25.8322 12.427L24.4181 11.0128C23.7242 10.3189 22.6702 10.1871 21.8445 10.6176L13.6671 2.43973C12.455 1.22755 10.5665 1.08701 9.18753 2.01811L7.88757 0.718085C6.93017 -0.239362 5.39306 -0.239362 4.43566 0.718085L2.70531 2.4573C1.7567 3.41475 1.7567 4.95193 2.70531 5.90938L4.00527 7.2094C3.21476 8.36888 3.19719 9.88849 3.935 11.0655C1.39657 13.9291 0 17.5744 0 21.413C0 23.5299 0.421607 25.5854 1.24726 27.5178C1.38779 27.8516 1.77426 28.0097 2.10804 27.8692C2.44181 27.7286 2.59991 27.3421 2.45938 27.0084C1.704 25.234 1.31752 23.3542 1.31752 21.4218C1.31752 17.9697 2.54721 14.6845 4.80457 12.0757L8.23891 15.5102C6.89504 17.1879 6.15722 19.2609 6.15722 21.4218C6.15722 24.4522 7.62407 27.2894 10.0483 29.055C8.91524 29.9422 8.65173 30.7767 7.18489 32.9463C5.82345 31.9537 4.66403 30.7415 3.71541 29.3273C3.51339 29.0287 3.10057 28.9408 2.80193 29.1428C2.50329 29.3449 2.41546 29.7577 2.61748 30.0564C3.66271 31.6199 4.95389 32.9638 6.46465 34.0531L4.23364 37.5315C2.23101 37.7159 0.649978 39.4112 0.649978 41.4667V42.9248C0.649978 44.0667 1.58103 44.9978 2.72288 44.9978H32.9117C34.361 44.9978 35.538 43.8208 35.538 42.3714C35.538 39.666 33.3597 37.4876 30.6807 37.4876ZM22.2398 11.9351C22.5823 11.5926 23.1445 11.5926 23.487 11.9351L25.2701 13.7183C25.5599 14.0082 25.6126 14.4561 25.4018 14.7987C25.3667 14.8602 25.3228 14.9129 25.2701 14.9656L16.9609 23.284C16.6184 23.6265 16.0562 23.6265 15.7137 23.284L13.9306 21.5008C13.5881 21.1583 13.5881 20.5961 13.9306 20.2535L16.6974 17.4866L22.2398 11.9351ZM3.63636 4.9695C3.19719 4.5303 3.19719 3.81881 3.63636 3.3884L5.37549 1.64918C5.81467 1.20998 6.52613 1.20998 6.95652 1.64918L8.21256 2.90528L4.88362 6.23439L3.63636 4.9695ZM5.27009 10.6527C4.49715 9.78309 4.5235 8.45672 5.35793 7.62224L9.61792 3.36204C10.4787 2.50122 11.8841 2.50122 12.7448 3.36204L20.852 11.4696L13.4739 18.8481C4.74308 10.1257 5.35793 10.7493 5.27009 10.6527ZM26.4646 30.3989C27.9754 30.3989 29.1963 31.6199 29.1963 33.1307C29.1963 33.4909 28.8977 33.7895 28.5375 33.7895H18.7615C18.7264 33.5612 18.9635 32.0327 17.9183 30.3989H26.4646ZM10.2591 30.6361C11.0145 29.7489 12.13 29.2131 13.3597 29.2131C15.5907 29.2131 17.4264 31.0138 17.444 33.2625V37.4876H5.82345C10.2152 30.6185 9.99561 30.9435 10.2591 30.6361ZM32.9205 43.6539H2.73166C2.31884 43.6539 1.97628 43.3201 1.97628 42.8985V41.4403C1.97628 39.991 3.16206 38.8051 4.61133 38.8051H30.6807C32.6306 38.8051 34.2205 40.395 34.2205 42.3451C34.2205 43.0653 33.6408 43.6539 32.9205 43.6539Z" fill="#333333"/>
</svg>