<svg width="45" height="45" viewBox="0 0 45 45" fill="none" xmlns="http://www.w3.org/2000/svg">
<path d="M34.651 25.7062H27.8608V21.8653C27.8608 21.0801 27.8608 19.7662 27.1779 18.5995C26.3298 17.151 24.756 16.4166 22.5001 16.4166C22.2158 16.4166 21.9431 16.5296 21.742 16.7306C21.541 16.9316 21.428 17.2042 21.428 17.4885V22.9908L19.5086 26.1091L17.1395 27.6562V26.7781C17.1395 26.4938 17.0265 26.2212 16.8255 26.0202C16.6244 25.8191 16.3517 25.7062 16.0673 25.7062H8.91979C8.63544 25.7062 8.36274 25.8191 8.16168 26.0202C7.96061 26.2212 7.84766 26.4938 7.84766 26.7781V43.9281C7.84766 44.2124 7.96061 44.485 8.16168 44.686C8.36274 44.8871 8.63544 45 8.91979 45H16.0673C16.2514 45 16.4324 44.9524 16.5928 44.862C16.7531 44.7716 16.8875 44.6414 16.9828 44.4839C17.5745 44.8226 18.2445 45.0005 18.9264 45H33.2215C33.8007 45.0004 34.3694 44.8443 34.8672 44.5482C35.365 44.2521 35.7736 43.827 36.0496 43.3178C36.3256 42.8086 36.4588 42.2343 36.4352 41.6557C36.4115 41.077 36.2319 40.5155 35.9153 40.0305C36.0191 39.9495 36.118 39.8624 36.2114 39.7697C36.7329 39.2485 37.0592 38.5639 37.1354 37.8306C37.2117 37.0974 37.0332 36.3602 36.63 35.743C36.7338 35.662 36.8327 35.5749 36.9261 35.4822C37.5073 34.9013 37.8437 34.1198 37.8662 33.2985C37.8886 32.4772 37.5954 31.6785 37.0468 31.0668C37.461 30.6042 37.7324 30.0317 37.8283 29.4183C37.9241 28.8049 37.8403 28.1769 37.587 27.61C37.3337 27.0432 36.9216 26.5618 36.4006 26.224C35.8796 25.8862 35.272 25.7063 34.651 25.7062ZM14.9952 42.8562H9.99192V27.85H14.9952V42.8562ZM33.9809 42.5414C33.8814 42.6414 33.763 42.7207 33.6327 42.7748C33.5023 42.8288 33.3626 42.8565 33.2215 42.8562H18.9264C18.4526 42.8557 17.9984 42.6673 17.6634 42.3324C17.3285 41.9975 17.14 41.5434 17.1395 41.0698V30.217L21.0315 27.676C21.1541 27.595 21.259 27.49 21.3398 27.3673C21.4206 27.2447 21.4757 27.1069 21.5016 26.9623L23.4136 23.8567C23.5175 23.6876 23.5725 23.493 23.5723 23.2945V18.6408C25.536 18.9747 25.7165 20.3037 25.7165 21.8653V26.7781C25.7165 27.0624 25.8295 27.335 26.0306 27.536C26.2316 27.737 26.5043 27.85 26.7887 27.85H34.651C34.9353 27.85 35.208 27.9629 35.4091 28.1639C35.6102 28.3649 35.7231 28.6376 35.7231 28.9218C35.7231 29.2061 35.6102 29.4788 35.4091 29.6798C35.208 29.8808 34.9353 29.9937 34.651 29.9937H32.5067C32.2224 29.9937 31.9497 30.1067 31.7486 30.3077C31.5475 30.5087 31.4346 30.7813 31.4346 31.0656C31.4346 31.3499 31.5475 31.6225 31.7486 31.8235C31.9497 32.0245 32.2224 32.1375 32.5067 32.1375H34.651C34.9353 32.1375 35.208 32.2504 35.4091 32.4514C35.6102 32.6524 35.7231 32.9251 35.7231 33.2094C35.7231 33.4936 35.6102 33.7663 35.4091 33.9673C35.208 34.1683 34.9353 34.2812 34.651 34.2812H32.5067C32.2224 34.2812 31.9497 34.3942 31.7486 34.5952C31.5475 34.7962 31.4346 35.0688 31.4346 35.3531C31.4346 35.6374 31.5475 35.91 31.7486 36.111C31.9497 36.3121 32.2224 36.425 32.5067 36.425H33.9362C34.2206 36.425 34.4933 36.5379 34.6943 36.7389C34.8954 36.9399 35.0084 37.2126 35.0084 37.4969C35.0084 37.7811 34.8954 38.0538 34.6943 38.2548C34.4933 38.4558 34.2206 38.5687 33.9362 38.5687H32.5067C32.2224 38.5687 31.9497 38.6817 31.7486 38.8827C31.5475 39.0837 31.4346 39.3563 31.4346 39.6406C31.4346 39.9249 31.5475 40.1975 31.7486 40.3985C31.9497 40.5996 32.2224 40.7125 32.5067 40.7125H33.2215C33.4334 40.7124 33.6407 40.7752 33.817 40.8928C33.9933 41.0104 34.1308 41.1777 34.2121 41.3734C34.2933 41.5691 34.3148 41.7845 34.2736 41.9924C34.2325 42.2003 34.1306 42.3913 33.9809 42.5414Z" fill="#333333"/>
<path d="M12.4935 42.231C13.0856 42.231 13.5657 41.7511 13.5657 41.1591C13.5657 40.5671 13.0856 40.0872 12.4935 40.0872C11.9014 40.0872 11.4214 40.5671 11.4214 41.1591C11.4214 41.7511 11.9014 42.231 12.4935 42.231Z" fill="#333333"/>
<path d="M18.1824 9.12976L17.5302 12.9305C17.4964 13.1277 17.5184 13.3303 17.5938 13.5156C17.6692 13.7008 17.7949 13.8613 17.9568 13.9789C18.1186 14.0964 18.3102 14.1663 18.5097 14.1807C18.7092 14.1952 18.9088 14.1535 19.0859 14.0604L22.5001 12.266L25.9141 14.0604C26.6621 14.4862 27.6435 13.7746 27.4698 12.9305L26.8176 9.12976L29.5797 6.4381C29.723 6.29849 29.8243 6.1216 29.8722 5.92744C29.9202 5.73327 29.9128 5.52956 29.851 5.33935C29.7892 5.14914 29.6754 4.98001 29.5225 4.85109C29.3695 4.72217 29.1836 4.6386 28.9856 4.60983L25.1685 4.05531L23.4615 0.597531C23.373 0.418171 23.236 0.267154 23.0661 0.161558C22.8962 0.0559622 22.7001 0 22.5001 0C22.3 0 22.104 0.0559622 21.934 0.161558C21.7641 0.267154 21.6272 0.418171 21.5386 0.597531L19.8316 4.05531L16.0146 4.60983C15.8166 4.6386 15.6306 4.72217 15.4777 4.85109C15.3248 4.98001 15.211 5.14914 15.1491 5.33935C15.0873 5.52956 15.08 5.73327 15.1279 5.92744C15.1759 6.1216 15.2772 6.29849 15.4204 6.4381L18.1824 9.12976ZM20.6977 6.09572C20.8697 6.07073 21.0331 6.0043 21.1737 5.90216C21.3144 5.80002 21.428 5.66523 21.505 5.5094L22.5001 3.49356L23.4952 5.5094C23.5721 5.66523 23.6858 5.80002 23.8264 5.90216C23.9671 6.0043 24.1304 6.07073 24.3024 6.09572L26.5271 6.41898L24.9174 7.98803C24.7929 8.10933 24.6998 8.25906 24.6461 8.42433C24.5924 8.5896 24.5797 8.76545 24.6091 8.93673L24.9891 11.1519L22.999 10.1061C22.8451 10.0252 22.6739 9.98293 22.5001 9.98293C22.3263 9.98293 22.155 10.0252 22.0012 10.1061L20.011 11.1519L20.3911 8.93673C20.4205 8.76545 20.4078 8.5896 20.3541 8.42433C20.3003 8.25906 20.2072 8.10933 20.0828 7.98803L18.4727 6.41898L20.6977 6.09572Z" fill="#333333"/>
<path d="M44.5712 15.9157L41.4853 13.6022L41.6421 9.74912C41.6503 9.54923 41.6023 9.35105 41.5037 9.177C41.405 9.00295 41.2596 8.85997 41.0839 8.76424C40.9082 8.66851 40.7092 8.62384 40.5094 8.63531C40.3097 8.64677 40.1171 8.71389 39.9535 8.82909L36.7995 11.0483L33.1825 9.70847C32.995 9.63901 32.7917 9.62339 32.5957 9.66339C32.3997 9.70339 32.2188 9.79742 32.0735 9.93483C31.9281 10.0722 31.8241 10.2476 31.7733 10.441C31.7224 10.6344 31.7266 10.8382 31.7855 11.0293L32.9219 14.7144L30.5298 17.7395C30.4057 17.8964 30.328 18.0849 30.3055 18.2836C30.283 18.4823 30.3165 18.6834 30.4024 18.8641C30.4882 19.0448 30.6228 19.1978 30.7911 19.306C30.9594 19.4141 31.1546 19.473 31.3546 19.476L35.2113 19.5342L37.3498 22.7436C37.8067 23.4772 39.0041 23.3189 39.2566 22.4959L40.5038 18.8468L44.2176 17.8052C44.4102 17.7511 44.5838 17.6443 44.7189 17.4968C44.8539 17.3492 44.945 17.1669 44.9818 16.9703C45.0186 16.7737 44.9996 16.5707 44.927 16.3844C44.8545 16.198 44.7312 16.0356 44.5712 15.9156V15.9157ZM39.3819 16.9347C39.2145 16.9817 39.0611 17.0686 38.9348 17.188C38.8085 17.3074 38.7131 17.4557 38.6569 17.6202L37.9299 19.7476L36.6833 17.8768C36.587 17.7322 36.4569 17.6131 36.3043 17.5299C36.1517 17.4467 35.9811 17.4018 35.8073 17.3992L33.5591 17.3652L34.9536 15.6019C35.0614 15.4656 35.1344 15.3051 35.1664 15.1343C35.1983 14.9634 35.1883 14.7874 35.137 14.6213L34.4746 12.4733L36.5832 13.2543C36.7462 13.3147 36.9214 13.3345 37.0938 13.3121C37.2662 13.2897 37.4306 13.2258 37.5727 13.1257L39.4114 11.832L39.3201 14.0781C39.313 14.2517 39.3483 14.4245 39.4228 14.5814C39.4974 14.7384 39.609 14.8749 39.7481 14.9792L41.547 16.3279L39.3819 16.9347Z" fill="#333333"/>
<path d="M13.6452 19.4761C14.5071 19.4911 15.0263 18.3977 14.4701 17.7396L12.078 14.7145L13.2143 11.0294C13.2733 10.8383 13.2775 10.6345 13.2267 10.441C13.1758 10.2476 13.0718 10.0723 12.9265 9.93484C12.7811 9.79742 12.6002 9.70339 12.4042 9.66338C12.2082 9.62338 12.0049 9.639 11.8173 9.70847L8.20041 11.0483L5.04655 8.82909C4.88296 8.71389 4.69038 8.64677 4.49061 8.63531C4.29084 8.62384 4.09184 8.66851 3.91614 8.76424C3.74044 8.85997 3.59504 9.00294 3.49639 9.177C3.39774 9.35105 3.34979 9.54923 3.35794 9.74912L3.51474 13.6022L0.428874 15.9157C0.268837 16.0357 0.14557 16.1981 0.0730114 16.3844C0.000453133 16.5708 -0.0185024 16.7738 0.0182881 16.9704C0.0550787 17.1669 0.146148 17.3493 0.281198 17.4969C0.416249 17.6444 0.589894 17.7512 0.7825 17.8052L4.49628 18.8468L5.74326 22.496C5.99575 23.3192 7.19323 23.4771 7.65005 22.7437L9.7886 19.5343L13.6452 19.4761ZM8.31647 17.8772L7.07003 19.7476L6.34303 17.6205C6.28683 17.4561 6.19147 17.3078 6.06518 17.1883C5.93889 17.0689 5.78545 16.982 5.61809 16.9351L3.45318 16.3277L5.25204 14.9789C5.39111 14.8746 5.50274 14.7381 5.57731 14.5812C5.65188 14.4242 5.68715 14.2514 5.68009 14.0778L5.58869 11.8318L7.4274 13.1258C7.56956 13.2258 7.73392 13.2898 7.90631 13.3122C8.07871 13.3346 8.25396 13.3148 8.41698 13.2544L10.5255 12.4734L9.86284 14.6212C9.81161 14.7873 9.80154 14.9633 9.8335 15.1342C9.86545 15.305 9.93847 15.4655 10.0463 15.6018L11.4408 17.3652L9.19258 17.3991C9.01875 17.4017 8.84817 17.4466 8.69554 17.5298C8.54292 17.613 8.41282 17.7321 8.31647 17.8768V17.8772Z" fill="#333333"/>
</svg>
