<svg width="42" height="42" viewBox="0 0 42 42" fill="none" xmlns="http://www.w3.org/2000/svg">
<path d="M11.865 14.1609L11.4482 14.2389C11.4135 14.246 11.3788 14.2531 11.351 14.2602C11.2676 14.2815 11.1634 14.3028 11.0314 14.3028C10.9967 14.3028 10.962 14.3028 10.9272 14.3028H12.2054C12.0873 14.2815 11.9692 14.2318 11.865 14.1609ZM39.0129 14.6504C39.0129 14.5298 39.006 14.4234 39.006 14.3099V13.3876H1.15316C1.09759 13.3876 1.03506 13.3876 0.979491 13.3876H0.903076L0 13.3947V14.7001L0.0138935 14.771C0.0208402 14.8065 0.027787 14.8349 0.0347337 14.8703C0.0347337 14.8845 0.0416805 14.9058 0.0416805 14.92C0.111148 16.2325 0.243136 17.318 0.458485 18.3325C1.32683 22.497 3.34833 26.0869 6.46047 29.0098C7.80119 30.2727 9.35726 31.3369 11.219 32.2804C11.2329 32.2875 11.2468 32.2946 11.2676 32.3017C11.4969 32.4081 11.7539 32.4649 11.997 32.472C13.6712 32.472 15.3454 32.472 17.0195 32.472H18.395C18.3533 32.2379 18.3186 32.0038 18.2908 31.7625C18.2838 31.6916 18.2769 31.6207 18.2699 31.5497C16.179 31.5497 14.088 31.5497 11.997 31.5497C11.872 31.5497 11.733 31.5142 11.615 31.4575C9.96163 30.6203 8.4264 29.6129 7.06484 28.3359C4.09858 25.5548 2.17433 22.1636 1.32683 18.1409C1.09759 17.0626 0.986437 15.9629 0.930863 14.8632C0.923917 14.7852 0.910023 14.7072 0.89613 14.6362V14.3241C0.979491 14.3241 1.06285 14.3241 1.14621 14.3241H38.0959C38.0959 14.7001 38.1168 15.069 38.0959 15.4379C37.9987 16.942 37.7416 18.3822 37.3318 19.7727C37.5958 19.9501 37.8528 20.1416 38.1029 20.3403C38.5891 18.7866 38.8948 17.1761 38.999 15.5018C39.0199 15.1967 39.0129 14.92 39.0129 14.6504Z" fill="black"/>
<path d="M39.2912 1.34797C39.055 0.482431 38.4784 0.0283783 37.5892 0C37.5545 0 37.5267 0 37.492 0C36.7695 0 36.1443 0.255405 35.6858 0.482431C34.741 0.943579 33.8171 1.53952 32.6848 2.41925C29.1628 5.15776 25.9326 8.3787 22.8065 12.2452C22.7162 12.3588 22.6259 12.4723 22.5356 12.5858C22.4939 12.6425 22.4453 12.6993 22.3967 12.7631L21.9104 13.3875L21.2991 14.1679L23.0566 14.2601C23.0774 14.2601 23.0983 14.2601 23.1122 14.2601C23.1539 14.2601 23.1955 14.2672 23.2442 14.2672H23.918H26.0229C28.3709 14.2672 30.9064 14.2672 33.4837 14.2601C33.8658 14.2601 34.2617 14.0331 34.4632 13.7067C34.5257 13.6003 34.5882 13.4939 34.6577 13.3804C35.8108 11.4507 37.096 9.18748 38.1172 6.79661C38.5757 5.71823 39.0341 4.54762 39.2842 3.26351C39.3954 2.71722 39.4787 2.05033 39.2912 1.34797ZM38.402 3.09324C38.1727 4.25675 37.7559 5.35641 37.2905 6.43478C36.2832 8.80437 35.0189 11.0321 33.699 13.2243C33.6643 13.2881 33.5601 13.3378 33.4906 13.3378C31.0037 13.3449 28.5168 13.3449 26.0298 13.3449C25.1059 13.3449 24.175 13.3449 23.2511 13.3449C23.2164 13.3449 23.1816 13.3449 23.1052 13.3378C23.2511 13.1533 23.3762 12.9902 23.5012 12.8341C26.398 9.24424 29.6004 5.98073 33.2266 3.14999C34.1228 2.45472 35.0536 1.80912 36.0748 1.3125C36.5264 1.09257 36.9848 0.922295 37.492 0.922295C37.5128 0.922295 37.5336 0.922295 37.5614 0.922295C38.0546 0.936484 38.2839 1.11385 38.4159 1.59628C38.5548 2.1 38.4992 2.59662 38.402 3.09324Z" fill="black"/>
<path d="M15.0678 10.3291L14.3661 9.13724L13.8243 9.90346C13.602 9.23656 13.2686 8.49873 12.7059 7.83184C12.3655 7.42745 11.9487 7.10819 11.4416 6.85988L10.5524 6.42002L10.2328 7.29265C9.53121 6.54772 8.61424 6.02272 7.46803 5.68218C7.16237 5.58995 6.84977 5.51191 6.55106 5.43387C6.09257 5.31326 5.65493 5.19975 5.23812 5.05786C4.21 4.71022 3.47365 4.15684 2.98043 3.35516C2.92486 3.27002 2.87623 3.20617 2.83455 3.1636C2.8276 3.14941 2.81371 3.14232 2.79981 3.12104L1.62582 1.71631L1.21596 3.50414C1.20901 3.52543 1.20901 3.54671 1.20206 3.5609C1.18817 3.62475 1.16038 3.70989 1.15344 3.8234C1.14649 3.92272 1.1326 4.02205 1.12565 4.11428C1.09786 4.38387 1.07008 4.66765 1.06313 4.95853C1.00061 6.569 1.18122 8.02339 1.61192 9.39264C1.82727 10.0666 2.12598 10.6626 2.50805 11.1805L0.924194 11.2443L2.25102 12.7058C2.27186 12.7271 2.28576 12.7413 2.29965 12.7555C2.33438 12.7909 2.36217 12.8264 2.3969 12.8619C2.48026 12.947 2.56363 13.0393 2.65393 13.1244C2.73035 13.2095 2.81371 13.2876 2.89707 13.3727C3.08463 13.5643 3.27219 13.7558 3.4667 13.9474C3.64732 14.1247 3.88351 14.2453 4.12664 14.295C4.21 14.3163 4.29336 14.3234 4.38367 14.3234C5.34927 14.3305 6.35655 14.3305 7.39161 14.3305C8.05155 14.3305 8.74623 14.3305 9.44785 14.3305C9.87854 14.3305 10.3162 14.3163 10.733 14.3021C10.8025 14.3021 10.8719 14.3021 10.9414 14.295C10.9761 14.295 11.0109 14.295 11.0456 14.295C11.1776 14.295 11.2818 14.2666 11.3651 14.2524C11.3929 14.2453 11.4207 14.2382 11.4624 14.2311L11.8792 14.1531C11.9904 14.217 12.1084 14.2666 12.2265 14.295C12.3238 14.3163 12.428 14.3305 12.5322 14.3305H12.5461C12.8726 14.3305 13.2269 14.3305 13.6854 14.3305H14.2619C14.4564 14.3305 14.644 14.3305 14.8385 14.3305H15.9292V14.295L15.9431 13.4224C15.9431 13.4082 15.9431 13.3869 15.9431 13.3727C15.9431 12.3227 15.6582 11.3224 15.0678 10.3291ZM9.4409 13.4153C8.75317 13.4153 8.07239 13.4153 7.38467 13.4153C6.38433 13.4153 5.384 13.4153 4.37673 13.4082C4.33504 13.4082 4.28642 13.4011 4.23779 13.3798C4.17527 13.3585 4.1197 13.323 4.07802 13.2805C3.72373 12.9328 3.37639 12.571 3.02906 12.2163C2.99432 12.1808 2.95959 12.1453 2.90402 12.0815C3.52922 12.0531 4.1197 12.0318 4.71017 12.0035C4.71712 11.9822 4.71712 11.9538 4.72406 11.9325C4.67544 11.897 4.63375 11.8545 4.57818 11.8261C3.51533 11.2089 2.83455 10.2866 2.45942 9.10886C2.03567 7.76799 1.89674 6.39164 1.95231 4.994C1.96621 4.63218 2.00789 4.26326 2.04262 3.90144C2.04957 3.85178 2.06346 3.80212 2.0843 3.70989C2.13987 3.77374 2.16766 3.80921 2.19545 3.84468C2.84844 4.90178 3.80709 5.54738 4.93941 5.93049C5.68271 6.1788 6.4538 6.34198 7.211 6.56191C8.32942 6.88826 9.30891 7.45582 9.99664 8.44907C10.1147 8.61934 10.205 8.80379 10.3162 8.98825C10.733 8.6619 10.858 8.16528 11.0387 7.68285C11.4277 7.8744 11.7472 8.11562 12.0181 8.42778C12.5947 9.10886 12.9073 9.91764 13.1366 10.7619C13.2338 11.1237 13.3102 11.4926 13.4005 11.8687C13.8451 11.6487 14.0119 11.1947 14.2967 10.7974C14.776 11.6062 15.04 12.4362 15.033 13.3798C15.033 13.3869 15.033 13.4011 15.033 13.4153H14.8316C14.4495 13.4153 14.0605 13.4153 13.6784 13.4153C13.2963 13.4153 12.9143 13.4153 12.5322 13.4153H12.5253C12.4627 13.4153 12.4072 13.4011 12.3585 13.3798C12.3099 13.3585 12.2752 13.323 12.2335 13.2805C11.2054 12.2234 10.1773 11.1734 9.0102 10.2653C7.66948 9.22237 6.25929 8.29298 4.7588 7.51258C4.67544 7.47001 4.58513 7.42745 4.49482 7.40616C4.46009 7.39907 4.42535 7.39197 4.39062 7.39197C4.25168 7.39197 4.14054 7.47001 4.08496 7.60481C4.02244 7.76089 4.07107 7.92407 4.23779 8.02339C4.51566 8.19366 4.80742 8.34974 5.09224 8.50582C7.211 9.68352 9.1283 11.1308 10.858 12.8548C10.997 12.9967 11.122 13.1457 11.2957 13.323C11.1637 13.3514 11.0942 13.3727 11.0178 13.3727C10.997 13.3727 10.9692 13.3727 10.9414 13.3727C10.4412 13.4011 9.94107 13.4153 9.4409 13.4153Z" fill="black"/>
<path d="M20.0001 36.7926C19.4304 36.7926 18.8539 36.7926 18.2842 36.7926C16.4711 36.7926 14.665 36.7926 12.8588 36.7926C12.6713 36.7926 12.4768 36.7713 12.2892 36.75C12.1016 36.7288 11.9835 36.6152 11.9627 36.4237C11.9419 36.2676 11.921 36.1115 11.921 35.9554C11.921 35.0331 11.9349 34.1179 11.9349 33.1956C11.9349 32.7558 12.1225 32.6777 12.4629 32.6777C13.6508 32.6777 14.8387 32.6777 16.0265 32.6777H18.451C18.4371 32.6068 18.4232 32.5358 18.4093 32.4649C18.3676 32.2308 18.3329 31.9966 18.3051 31.7554H16.0196C14.8317 31.7554 13.6438 31.7554 12.4559 31.7554C12.2684 31.7554 11.7751 31.7554 11.407 32.1385C11.3583 32.1882 11.3167 32.2379 11.2819 32.2946C11.1152 32.5358 11.0318 32.8338 11.0318 33.1956C11.0318 33.6994 11.0318 34.2173 11.0249 34.721C11.0249 35.1254 11.0179 35.544 11.0179 35.9554C11.0179 36.1754 11.0457 36.3882 11.0666 36.5514C11.1499 37.1615 11.5945 37.6014 12.1919 37.6652C12.3865 37.6865 12.6157 37.7078 12.8588 37.7078H14.5052C15.7626 37.7078 17.0269 37.7078 18.2842 37.7078C19.1109 37.7078 19.882 37.7078 20.6044 37.7078C20.3891 37.4169 20.1876 37.1119 20.0001 36.7926Z" fill="black"/>
<path d="M41.2776 27.974H39.8952C39.8744 27.974 39.8535 27.9598 39.8466 27.9385C39.6104 26.924 39.2214 25.9662 38.6865 25.0723C38.6726 25.051 38.6795 25.0298 38.6934 25.0156L39.6729 24.0152C39.8118 23.8733 39.8813 23.6889 39.8813 23.4973C39.8813 23.2987 39.8049 23.1142 39.6729 22.9794L37.568 20.8298C37.4291 20.6879 37.2485 20.6169 37.0609 20.6169C36.8664 20.6169 36.6858 20.695 36.5538 20.8298L35.5674 21.823C35.5535 21.8372 35.5257 21.8443 35.5118 21.8301C34.6435 21.2838 33.6987 20.8865 32.7053 20.6453C32.6845 20.6382 32.6706 20.6169 32.6706 20.5956V19.1838C32.6706 18.7794 32.3441 18.446 31.9481 18.446H28.9749C28.579 18.446 28.2525 18.7794 28.2525 19.1838V20.5956C28.2525 20.6169 28.2386 20.6382 28.2177 20.6453C27.2243 20.8865 26.2865 21.2838 25.4112 21.8301C25.3904 21.8443 25.3696 21.8372 25.3557 21.823L24.3762 20.8227C24.2372 20.6808 24.0566 20.6098 23.8691 20.6098C23.6746 20.6098 23.4939 20.6879 23.362 20.8227L21.2571 22.9723C21.1182 23.1142 21.0487 23.2987 21.0487 23.4902C21.0487 23.6889 21.1251 23.8733 21.2571 24.0081L22.2366 25.0085C22.2505 25.0227 22.2574 25.051 22.2435 25.0652C21.7086 25.952 21.3196 26.9169 21.0834 27.9314C21.0765 27.9527 21.0556 27.9669 21.0348 27.9669H19.6524C19.2564 27.9669 18.9299 28.3003 18.9299 28.7047V31.7412C18.9299 32.1456 19.2564 32.4791 19.6524 32.4791H21.0348C21.0556 32.4791 21.0765 32.4932 21.0834 32.5145C21.3196 33.5291 21.7086 34.4868 22.2435 35.3807C22.2574 35.402 22.2505 35.4233 22.2366 35.4375L21.2571 36.4378C21.1182 36.5797 21.0487 36.7642 21.0487 36.9557C21.0487 37.1544 21.1251 37.3388 21.2571 37.4736L23.362 39.6233C23.5009 39.7652 23.6815 39.8361 23.8691 39.8361C24.0636 39.8361 24.2442 39.7581 24.3762 39.6233L25.3557 38.623C25.3696 38.6088 25.3973 38.6017 25.4112 38.6159C26.2796 39.1621 27.2243 39.5594 28.2177 39.8007C28.2386 39.8078 28.2525 39.829 28.2525 39.8503V41.2621C28.2525 41.6665 28.579 42 28.9749 42H31.9481C32.3441 42 32.6706 41.6665 32.6706 41.2621V39.8503C32.6706 39.829 32.6845 39.8078 32.7053 39.8007C33.6987 39.5594 34.6365 39.1621 35.5118 38.6159C35.5326 38.6017 35.5535 38.6088 35.5674 38.623L36.5469 39.6233C36.6858 39.7652 36.8664 39.8361 37.054 39.8361C37.2485 39.8361 37.4291 39.7581 37.5611 39.6233L38.0543 39.1196C38.1863 38.9848 38.1863 38.7648 38.0543 38.6301C37.9223 38.4953 37.707 38.4953 37.575 38.6301L37.0818 39.1338C37.0679 39.148 37.0609 39.148 37.047 39.148C37.0331 39.148 37.0262 39.148 37.0123 39.1338L36.0328 38.1334C35.7966 37.8922 35.4284 37.8496 35.1436 38.027C34.3309 38.5378 33.4556 38.9067 32.5386 39.1338C32.2121 39.2118 31.9829 39.5098 31.9829 39.8503V41.2621C31.9829 41.2905 31.962 41.3118 31.9342 41.3118H28.961C28.9332 41.3118 28.9124 41.2905 28.9124 41.2621V39.8503C28.9124 39.5098 28.6832 39.2118 28.3567 39.1338C27.4397 38.9067 26.5575 38.5378 25.7516 38.027C25.4668 37.8496 25.0986 37.8922 24.8624 38.1334L23.8969 39.148C23.883 39.1621 23.876 39.1621 23.8621 39.1621C23.8482 39.1621 23.8413 39.1621 23.8274 39.148L21.7225 36.9983C21.7086 36.9841 21.7086 36.977 21.7086 36.9628C21.7086 36.9486 21.7086 36.9415 21.7225 36.9274L22.702 35.927C22.9382 35.6858 22.9799 35.3098 22.8062 35.0189C22.306 34.1888 21.9448 33.2949 21.7225 32.3584C21.6461 32.025 21.3543 31.7909 21.0209 31.7909H19.6385C19.6107 31.7909 19.5899 31.7696 19.5899 31.7412V28.7047C19.5899 28.6764 19.6107 28.6551 19.6385 28.6551H21.0209C21.3543 28.6551 21.6461 28.421 21.7225 28.0875C21.9448 27.151 22.306 26.25 22.8062 25.427C22.9799 25.1362 22.9382 24.7602 22.702 24.5189L21.7225 23.5186C21.7086 23.5044 21.7086 23.4973 21.7086 23.4831C21.7086 23.4689 21.7086 23.4618 21.7225 23.4477L23.8274 21.298C23.8413 21.2838 23.8482 21.2838 23.8621 21.2838C23.876 21.2838 23.883 21.2838 23.8969 21.298L24.8763 22.2983C25.1125 22.5396 25.4807 22.5821 25.7655 22.4048C26.5783 21.8939 27.4536 21.525 28.3706 21.298C28.6971 21.22 28.9263 20.922 28.9263 20.5815V19.1696C28.9263 19.1413 28.9471 19.12 28.9749 19.12H31.9481C31.9759 19.12 31.9968 19.1413 31.9968 19.1696V20.5815C31.9968 20.922 32.226 21.22 32.5525 21.298C33.4695 21.525 34.3517 21.8939 35.1575 22.4048C35.4423 22.5821 35.8105 22.5396 36.0467 22.2983L37.0262 21.298C37.0401 21.2838 37.047 21.2838 37.0609 21.2838C37.0748 21.2838 37.0818 21.2838 37.0957 21.298L39.2005 23.4477C39.2144 23.4618 39.2144 23.4689 39.2144 23.4831C39.2144 23.4973 39.2144 23.5044 39.2005 23.5186L38.221 24.5189C37.9848 24.7602 37.9432 25.1362 38.1168 25.427C38.617 26.2571 38.9782 27.151 39.2005 28.0875C39.2769 28.421 39.5687 28.6551 39.9021 28.6551H41.2845C41.3123 28.6551 41.3332 28.6764 41.3332 28.7047V31.7412C41.3332 31.7696 41.3123 31.7909 41.2845 31.7909H39.9021C39.5687 31.7909 39.2769 32.025 39.2005 32.3584C38.9782 33.2949 38.617 34.1959 38.1168 35.0189C37.9432 35.3098 37.9848 35.6858 38.221 35.927L39.2005 36.9274C39.2144 36.9415 39.2144 36.9486 39.2144 36.9628C39.2144 36.977 39.2144 36.9841 39.2005 36.9983L38.7004 37.5091C38.5684 37.6439 38.5684 37.8638 38.7004 37.9986C38.8323 38.1334 39.0477 38.1334 39.1797 37.9986L39.6799 37.4878C39.8188 37.3459 39.8883 37.1615 39.8883 36.9699C39.8883 36.7713 39.8118 36.5868 39.6799 36.452L38.6934 35.4446C38.6795 35.4304 38.6726 35.402 38.6865 35.3878C39.2214 34.501 39.6104 33.5361 39.8466 32.5216C39.8535 32.5003 39.8744 32.4861 39.8952 32.4861H41.2776C41.6736 32.4861 42.0001 32.1527 42.0001 31.7483V28.7118C42.0001 28.3074 41.6736 27.974 41.2776 27.974Z" fill="black"/>
<path d="M23.688 28.8538C23.5004 28.8254 23.3337 28.9531 23.3059 29.1447C23.2573 29.4994 23.2295 29.8683 23.2295 30.2372C23.2295 34.3095 26.4736 37.6227 30.4611 37.6227C34.4485 37.6227 37.6926 34.3095 37.6926 30.2372C37.6926 26.1649 34.4485 22.8447 30.4611 22.8447C28.9814 22.8447 27.5643 23.2987 26.3555 24.1501C25.1746 24.9872 24.2715 26.1436 23.7366 27.5058L23.7227 27.5413C23.6532 27.7186 23.7366 27.9173 23.9103 27.9882C24.0839 28.0592 24.2785 27.974 24.3479 27.7967L24.3618 27.7612C24.8411 26.5268 25.6609 25.4768 26.7376 24.7247C27.8352 23.9514 29.1203 23.5399 30.4611 23.5399C34.0803 23.5399 37.0188 26.548 37.0188 30.2372C37.0188 33.9264 34.0734 36.9345 30.4611 36.9345C26.8488 36.9345 23.9033 33.9264 23.9033 30.2372C23.9033 29.9038 23.9242 29.5703 23.9728 29.2511C24.0006 29.0524 23.8755 28.8751 23.688 28.8538Z" fill="black"/>
<path d="M29.5029 33.8056C29.5168 33.8056 29.5307 33.8056 29.5446 33.8056C29.9336 33.7914 30.3088 33.6212 30.5727 33.3303L34.3518 29.1516C34.6157 28.8607 34.7547 28.4776 34.7338 28.0874C34.7199 27.6901 34.5532 27.3212 34.2684 27.0516C33.6779 26.4982 32.754 26.5337 32.2122 27.1367L29.4404 30.2016L28.6485 29.4212C28.0719 28.8536 27.148 28.8678 26.5923 29.4566C26.0365 30.0455 26.0504 30.9891 26.627 31.5566L28.4887 33.3941C28.7666 33.6566 29.1209 33.8056 29.5029 33.8056ZM27.0785 29.9249C27.2314 29.7617 27.4328 29.6837 27.6412 29.6837C27.8357 29.6837 28.0302 29.7546 28.1831 29.9107L29.2251 30.9394C29.2876 31.0033 29.3779 31.0387 29.4682 31.0387C29.5585 31.0387 29.6419 30.9962 29.7044 30.9252L32.7054 27.6049C32.9972 27.2786 33.4904 27.2644 33.8099 27.5624C33.9628 27.7043 34.0531 27.9029 34.06 28.1158C34.067 28.3286 33.9975 28.5343 33.8516 28.6904L30.0795 32.862C29.9406 33.0181 29.7391 33.1103 29.5307 33.1174C29.3223 33.1245 29.1209 33.0465 28.968 32.8904L27.1063 31.0529C26.7868 30.7479 26.7798 30.2441 27.0785 29.9249Z" fill="black"/>
</svg>
