<svg width="51" height="40" viewBox="0 0 51 40" fill="none" xmlns="http://www.w3.org/2000/svg">
<path d="M4.00416 18.0366C5.40489 19.5074 6.89385 20.8904 8.40487 22.2624C10.0041 23.7113 11.5813 25.1821 13.1696 26.6419C15.0115 28.3323 16.8534 30.0116 18.6953 31.7019C20.0739 31.7349 23.7136 31.5044 24.5408 28.1127C25.5665 23.9088 22.8864 17.1804 16.2798 15.5889C10.3571 14.162 3.04461 14.14 0.496826 13.6132C1.48947 15.2047 2.7027 16.6645 4.00416 18.0366Z" fill="#FAFAFA"/>
<path d="M18.9264 31.9215C18.8381 31.9215 18.7499 31.9215 18.6727 31.9215H18.5845L18.5183 31.8666C17.4815 30.9117 16.4227 29.9458 15.408 29.0128C14.6029 28.2774 13.7977 27.542 13.0036 26.8066C12.3749 26.2249 11.7463 25.6541 11.1176 25.0724C10.1801 24.2053 9.19848 23.3052 8.23893 22.4271C6.71688 21.0441 5.23894 19.6831 3.82719 18.1903C2.34925 16.6317 1.19117 15.1718 0.275734 13.723L0 13.2839L0.50735 13.3827C1.42279 13.5693 3.03307 13.701 4.89703 13.8437C8.1176 14.0962 12.5293 14.4474 16.2904 15.3584C19.3345 16.0938 21.8712 18.0037 23.4263 20.7478C24.783 23.1296 25.2682 25.8956 24.7168 28.1457C23.9337 31.4935 20.5808 31.9215 18.9264 31.9215ZM18.772 31.4825C20.2499 31.5044 23.5477 31.1971 24.3087 28.0579C25.3013 23.9967 22.6874 17.3671 16.2132 15.7975C12.4852 14.8974 8.27202 14.5682 4.886 14.2937C3.24263 14.162 1.89705 14.0523 0.937495 13.9096C1.78676 15.1938 2.84557 16.5 4.15807 17.883C5.55879 19.3538 7.0257 20.7148 8.54775 22.0978C9.51833 22.9759 10.4889 23.876 11.4264 24.7431C12.0551 25.3248 12.6838 25.8956 13.3014 26.4773C14.1065 27.2127 14.9117 27.9481 15.7058 28.6835C16.7205 29.5946 17.7573 30.5495 18.772 31.4825Z" fill="#333333"/>
<path d="M25.5771 38.4194C25.2682 38.0681 23.5918 36.3668 22.0146 34.7753C20.7462 33.5789 19.4668 32.3934 18.1764 31.219C14.8786 28.2005 11.5808 25.1711 8.28304 22.1417C5.45953 19.5622 2.61395 16.8401 0.661759 13.5253C0.29779 13.6022 0.794111 19.3537 0.882346 24.9186C0.98161 30.6153 4.33453 38.8035 10.897 39.4072C17.4595 40.0109 18.3859 32.6569 18.0771 32.3056C17.7683 31.9544 24.6727 37.4644 24.5954 38.7706C24.5072 40.0878 26.2057 39.1109 25.5771 38.4194Z" fill="#FAFAFA"/>
<path d="M11.6691 39.6597C11.4154 39.6597 11.1507 39.6488 10.886 39.6268C7.04776 39.2756 4.63233 36.4657 3.28675 34.1826C1.69852 31.4934 0.727936 28.0359 0.672789 24.9187C0.639701 22.7454 0.540437 20.5721 0.452202 18.6623C0.242644 13.8876 0.253674 13.3937 0.617642 13.3059L0.772053 13.2729L0.849259 13.4156C2.76837 16.6646 5.5257 19.3208 8.42642 21.9771C10.0477 23.4589 11.6691 24.9407 13.2793 26.4334C14.9558 27.9701 16.6323 29.5177 18.3198 31.0544C19.7536 32.3715 21.0109 33.535 22.158 34.6217C24.2756 36.7511 25.4778 37.9804 25.7315 38.2767C25.9631 38.5402 25.9852 38.8804 25.7866 39.1878C25.5881 39.4951 25.1469 39.7366 24.783 39.6158C24.6065 39.561 24.3197 39.3744 24.3528 38.7707C24.408 37.8596 19.7646 33.8643 18.3308 32.7667C18.3087 33.535 17.9999 34.8631 17.4043 36.0376C16.5551 37.7279 14.8676 39.6597 11.6691 39.6597ZM0.761024 14.1071C0.727936 14.9413 0.805141 16.7524 0.893376 18.6403C0.981611 20.5611 1.06985 22.7344 1.11396 24.9077C1.2022 30.308 4.38968 38.5731 10.9301 39.1878C13.2021 39.3963 14.9999 38.6609 16.2904 37.0035C17.7242 35.1485 17.9889 32.7557 17.9006 32.4374C17.8124 32.3167 17.8786 32.1959 17.8896 32.174L17.9778 32.0313L18.1433 32.0862C18.3308 32.152 20.1727 33.6558 21.5844 34.918C24.8712 37.8816 24.8271 38.5621 24.816 38.7816C24.805 38.8914 24.805 39.1439 24.9484 39.1878C25.0697 39.2317 25.3124 39.1329 25.4447 38.9353C25.5771 38.7268 25.4668 38.606 25.4337 38.5621C25.18 38.2767 23.9558 37.0255 21.8712 34.929C20.7352 33.8533 19.4778 32.6899 18.044 31.3727C16.3676 29.836 14.6801 28.2884 13.0036 26.7517C11.3823 25.2699 9.77201 23.7772 8.15069 22.2954C5.34923 19.7489 2.69116 17.2024 0.761024 14.1071Z" fill="#333333"/>
<path d="M18.6838 31.7019C18.6838 31.7019 3.88244 19.0464 0.661865 13.5253L18.6838 31.7019Z" fill="#FAFAFA"/>
<path d="M18.684 31.7019C18.684 31.7019 18.6068 31.6361 18.4524 31.5263C18.309 31.4056 18.0884 31.2409 17.8127 31.0214C17.537 30.8019 17.2061 30.5275 16.8311 30.2202C16.4561 29.9128 16.026 29.5506 15.5738 29.1664C15.1105 28.7713 14.6142 28.3542 14.1068 27.8932C13.5885 27.4432 13.037 26.9602 12.4855 26.4553C11.923 25.9504 11.3495 25.4345 10.776 24.8857C10.2025 24.3479 9.6179 23.7991 9.03335 23.2393C8.45982 22.6795 7.88629 22.1197 7.3238 21.5599C7.18041 21.4172 7.04806 21.2855 6.90468 21.1428C6.77233 21.0001 6.62895 20.8574 6.49659 20.7257C6.22086 20.4513 5.95616 20.1769 5.70248 19.9025C5.1841 19.3537 4.68778 18.8159 4.23558 18.3C3.77234 17.7841 3.35323 17.2902 2.9672 16.8182C2.58117 16.3572 2.23926 15.9182 1.9525 15.523C1.80912 15.3254 1.67677 15.1388 1.55544 14.9632C1.43412 14.7876 1.32383 14.6339 1.23559 14.4803C1.13633 14.3376 1.05912 14.1949 0.981918 14.0851C0.915741 13.9644 0.860595 13.8656 0.816477 13.7888C0.728242 13.6241 0.673096 13.5363 0.673096 13.5363C0.673096 13.5363 0.728242 13.6241 0.838536 13.7778C0.893683 13.8546 0.959859 13.9534 1.03706 14.0632C1.11427 14.1729 1.21353 14.2937 1.3128 14.4364C1.41206 14.5791 1.53339 14.7327 1.66574 14.8974C1.79809 15.062 1.94147 15.2376 2.09588 15.4242C2.4047 15.7974 2.76867 16.2145 3.16573 16.6645C3.56279 17.1146 4.01499 17.5865 4.47822 18.0805C4.95249 18.5744 5.45984 19.1013 5.98924 19.6281C6.51865 20.1659 7.07012 20.7038 7.63262 21.2636C8.19511 21.8234 8.76864 22.3722 9.34217 22.9319C9.91569 23.4917 10.5002 24.0405 11.0738 24.5894C11.6473 25.1272 12.2098 25.665 12.7613 26.1809C13.8642 27.2127 14.8789 28.1676 15.7613 28.9908C17.5149 30.6043 18.684 31.7019 18.684 31.7019Z" fill="#333333"/>
<path d="M16.4673 29.7811C16.4673 29.7811 16.1254 36.7291 12.2651 37.5852L16.4673 29.7811Z" fill="#FAFAFA"/>
<path d="M16.4671 29.7811C16.4671 29.7811 16.4782 29.9238 16.4782 30.1872C16.4782 30.319 16.4782 30.4726 16.4671 30.6592C16.4561 30.8348 16.4451 31.0434 16.423 31.2629C16.4009 31.4824 16.3789 31.7239 16.3348 31.9764C16.2907 32.2288 16.2465 32.4923 16.1804 32.7667C16.1142 33.0411 16.048 33.3155 15.9598 33.6009C15.8715 33.8862 15.7723 34.1606 15.662 34.446C15.6068 34.5887 15.5407 34.7204 15.4745 34.8521C15.4083 34.9839 15.3421 35.1265 15.2649 35.2473C15.1877 35.379 15.1215 35.5107 15.0333 35.6315C14.9892 35.6973 14.9561 35.7522 14.912 35.818C14.8679 35.8729 14.8237 35.9388 14.7796 35.9937C14.6142 36.2242 14.4267 36.4327 14.2392 36.6083C14.151 36.6961 14.0407 36.7839 13.9524 36.8608C13.8532 36.9376 13.7539 37.0035 13.6657 37.0693C13.4671 37.1901 13.2907 37.2889 13.1142 37.3547C12.9488 37.4315 12.7833 37.4645 12.662 37.5084C12.5296 37.5413 12.4304 37.5523 12.3642 37.5633C12.298 37.5742 12.2539 37.5742 12.2539 37.5742C12.2539 37.5742 12.287 37.5633 12.3532 37.5303C12.4193 37.5084 12.5076 37.4645 12.6289 37.4206C12.6841 37.3876 12.7502 37.3547 12.8164 37.3218C12.8495 37.2998 12.8826 37.2889 12.9267 37.2669C12.9598 37.245 12.9929 37.223 13.037 37.201C13.1914 37.1132 13.3458 36.9925 13.5113 36.8608C13.5885 36.7839 13.6767 36.7181 13.7539 36.6303C13.8311 36.5425 13.9193 36.4656 13.9965 36.3669C14.151 36.1803 14.3164 35.9717 14.4598 35.7522C14.4929 35.6973 14.537 35.6424 14.5701 35.5875C14.6032 35.5327 14.6362 35.4668 14.6693 35.4119C14.7355 35.2912 14.8017 35.1704 14.8679 35.0497C14.934 34.929 14.9892 34.7973 15.0554 34.6655C15.1105 34.5338 15.1657 34.4021 15.2208 34.2704C15.3311 34.007 15.4304 33.7326 15.5186 33.4691C15.6068 33.1947 15.6951 32.9313 15.7723 32.6679C15.8495 32.4044 15.9157 32.152 15.9708 31.9105C16.026 31.669 16.0921 31.4385 16.1362 31.219C16.2355 30.7909 16.3017 30.4287 16.3568 30.1763C16.434 29.9348 16.4671 29.7811 16.4671 29.7811Z" fill="#333333"/>
<path d="M14.1945 27.7944C14.1945 27.7944 13.5879 34.3142 9.01074 35.5436L14.1945 27.7944Z" fill="#FAFAFA"/>
<path d="M14.1945 27.7944C14.1945 27.7944 14.1945 27.948 14.1835 28.2224C14.1615 28.4969 14.1284 28.881 14.0401 29.342C13.996 29.5725 13.9519 29.825 13.8857 30.0774C13.8195 30.3409 13.7423 30.6153 13.6541 30.8897C13.5548 31.1641 13.4556 31.4495 13.3232 31.7348C13.257 31.8775 13.1909 32.0202 13.1247 32.1629C13.0585 32.3056 12.9813 32.4373 12.9041 32.58C12.8269 32.7227 12.7387 32.8544 12.6615 32.9861C12.5732 33.1178 12.485 33.2495 12.3968 33.3703C12.2093 33.6227 12.0107 33.8532 11.8012 34.0618C11.746 34.1167 11.7019 34.1715 11.6468 34.2155C11.5916 34.2703 11.5365 34.3142 11.4813 34.3581C11.4262 34.402 11.371 34.446 11.3159 34.5008C11.2607 34.5447 11.2056 34.5886 11.1504 34.6216C11.0953 34.6655 11.0401 34.6984 10.985 34.7423C10.9299 34.7752 10.8747 34.8191 10.8196 34.8521C10.7093 34.9179 10.61 34.9838 10.4997 35.0387C10.3894 35.0935 10.3012 35.1484 10.1909 35.1923C10.0916 35.2362 9.99236 35.2692 9.90412 35.3131C9.72765 35.3789 9.56221 35.4228 9.42986 35.4667C9.16515 35.5216 9.01074 35.5546 9.01074 35.5546C9.01074 35.5546 9.15412 35.4887 9.39677 35.3899C9.51809 35.3241 9.66147 35.2582 9.82692 35.1704C9.90412 35.1265 9.99235 35.0716 10.0806 35.0167C10.1688 34.9618 10.2571 34.896 10.3563 34.8411C10.4556 34.7752 10.5438 34.7094 10.6431 34.6326C10.6872 34.5996 10.7424 34.5557 10.7865 34.5228C10.8306 34.4789 10.8857 34.435 10.9299 34.3911C10.974 34.3472 11.0291 34.3033 11.0732 34.2594C11.1173 34.2155 11.1615 34.1606 11.2166 34.1167C11.2607 34.0728 11.3159 34.0179 11.36 33.974C11.4041 33.9191 11.4482 33.8752 11.5034 33.8203C11.6909 33.6118 11.8673 33.3813 12.0438 33.1398C12.1321 33.019 12.2093 32.8983 12.2975 32.7666C12.3747 32.6349 12.4519 32.5141 12.5291 32.3824C12.6063 32.2507 12.6835 32.119 12.7497 31.9873C12.8159 31.8556 12.882 31.7239 12.9482 31.5812C13.0144 31.4494 13.0695 31.3068 13.1357 31.175C13.1909 31.0433 13.246 30.9116 13.3012 30.7799C13.4004 30.5165 13.4997 30.253 13.5879 30.0116C13.6762 29.7591 13.7534 29.5286 13.8195 29.3091C13.8857 29.0896 13.9409 28.892 13.996 28.7054C14.0401 28.5188 14.0842 28.3651 14.1173 28.2334C14.1615 27.948 14.1945 27.7944 14.1945 27.7944Z" fill="#333333"/>
<path d="M11.5369 25.2699C11.5369 25.2699 10.4229 31.6251 6.14355 32.8106L11.5369 25.2699Z" fill="#FAFAFA"/>
<path d="M11.5371 25.2699C11.5371 25.2699 11.5261 25.4236 11.493 25.687C11.4599 25.9504 11.3937 26.3346 11.2834 26.7736C11.2283 26.9932 11.1621 27.2346 11.0849 27.4871C11.0077 27.7395 10.9195 28.003 10.8092 28.2664C10.6989 28.5298 10.5886 28.8152 10.4452 29.0786C10.379 29.2104 10.3129 29.3531 10.2356 29.4848C10.1584 29.6165 10.0812 29.7592 10.004 29.8909C9.83859 30.1543 9.66212 30.4068 9.47462 30.6482C9.28712 30.8897 9.08859 31.1202 8.87904 31.3178C8.66948 31.5263 8.45992 31.7129 8.23933 31.8666C8.02978 32.0312 7.80919 32.163 7.61066 32.2837C7.5114 32.3386 7.41213 32.3935 7.31287 32.4374C7.2136 32.4813 7.12537 32.5142 7.03713 32.5581C6.86066 32.6349 6.70625 32.6679 6.5739 32.7118C6.44155 32.7447 6.34228 32.7667 6.26508 32.7776C6.1989 32.7886 6.15479 32.7996 6.15479 32.7996C6.15479 32.7996 6.29817 32.7337 6.54081 32.624C6.59596 32.591 6.66214 32.5581 6.73934 32.5252C6.80552 32.4813 6.88272 32.4483 6.95993 32.4044C7.03713 32.3605 7.12537 32.3057 7.2136 32.2508C7.30184 32.1959 7.39007 32.13 7.47831 32.0642C7.57757 32.0093 7.65478 31.9215 7.75404 31.8556C7.85331 31.7788 7.94154 31.702 8.0408 31.6142C8.14007 31.5373 8.2283 31.4385 8.32757 31.3397C8.42683 31.2519 8.51507 31.1422 8.61433 31.0434C8.7136 30.9446 8.7908 30.8348 8.89006 30.7251C8.9783 30.6153 9.06653 30.4946 9.15477 30.3848C9.33124 30.1433 9.49668 29.9019 9.65109 29.6494C9.7283 29.5287 9.8055 29.397 9.88271 29.2652C9.95991 29.1335 10.0261 29.0018 10.0923 28.8811C10.1584 28.7494 10.2246 28.6176 10.2908 28.4969C10.357 28.3652 10.4121 28.2445 10.4783 28.1127C10.5886 27.8603 10.7099 27.6078 10.8092 27.3664C10.9084 27.1249 10.9967 26.9054 11.0739 26.6858C11.1511 26.4773 11.2283 26.2797 11.2834 26.1041C11.3386 25.9285 11.3937 25.7748 11.4378 25.6541C11.493 25.4126 11.5371 25.2699 11.5371 25.2699Z" fill="#333333"/>
<path d="M8.80206 22.8002C8.80206 22.8002 7.98589 27.1468 4.09253 29.1884L8.80206 22.8002Z" fill="#FAFAFA"/>
<path d="M8.80191 22.8002C8.80191 22.8002 8.80191 22.9319 8.75779 23.1515C8.7247 23.371 8.65853 23.6893 8.54823 24.0625C8.49309 24.2491 8.42691 24.4467 8.3497 24.6552C8.2725 24.8638 8.18426 25.0833 8.07397 25.3028C7.96368 25.5223 7.85338 25.7528 7.72103 25.9724C7.58868 26.1919 7.4453 26.4114 7.30192 26.6309C7.22471 26.7407 7.1475 26.8395 7.0703 26.9492C6.99309 27.048 6.90486 27.1468 6.81662 27.2456C6.65118 27.4432 6.47471 27.6188 6.28721 27.7944C6.11074 27.959 5.92325 28.1127 5.74678 28.2554C5.65854 28.3213 5.57031 28.3871 5.48207 28.453C5.39384 28.5079 5.3056 28.5627 5.2284 28.6176C5.06296 28.7274 4.90854 28.8152 4.76516 28.8811C4.62178 28.9579 4.50046 29.0128 4.40119 29.0567C4.19164 29.1445 4.07031 29.1884 4.07031 29.1884C4.07031 29.1884 4.16958 29.1116 4.35708 28.9798C4.44531 28.914 4.5556 28.8262 4.67693 28.7384C4.7431 28.6945 4.79825 28.6396 4.86443 28.5847C4.9306 28.5298 5.00781 28.4749 5.07398 28.4091C5.14016 28.3432 5.21737 28.2774 5.29457 28.2115C5.37178 28.1456 5.44898 28.0688 5.52619 27.992C5.6806 27.8383 5.84604 27.6846 6.00045 27.509C6.16589 27.3334 6.3203 27.1578 6.47471 26.9602C6.55192 26.8614 6.62912 26.7626 6.70633 26.6639C6.78354 26.5651 6.86074 26.4663 6.92692 26.3565C7.0703 26.148 7.21368 25.9504 7.34603 25.7309C7.47839 25.5223 7.59971 25.3138 7.72103 25.1052C7.83133 24.8967 7.94162 24.6991 8.04088 24.5015C8.14015 24.304 8.22838 24.1174 8.30559 23.9527C8.46 23.6015 8.58132 23.3161 8.65853 23.1076C8.75779 22.921 8.80191 22.8002 8.80191 22.8002Z" fill="#333333"/>
<path d="M6.39741 20.5386C6.39741 20.5386 5.87903 23.4357 2.96729 25.0928L6.39741 20.5386Z" fill="#FAFAFA"/>
<path d="M6.39762 20.5386C6.39762 20.5386 6.39762 20.6374 6.38659 20.791C6.37556 20.8679 6.36453 20.9666 6.34247 21.0873C6.32041 21.1971 6.29835 21.3288 6.25424 21.4604C6.22115 21.5921 6.166 21.7458 6.11085 21.8884C6.05571 22.0421 5.98953 22.1957 5.91233 22.3493C5.83512 22.503 5.74689 22.6676 5.64762 22.8212C5.6035 22.898 5.54836 22.9858 5.49321 23.0626C5.43806 23.1394 5.38292 23.2163 5.32777 23.2931C5.21748 23.4467 5.08512 23.5894 4.9638 23.732C4.93071 23.765 4.90865 23.7979 4.87557 23.8308C4.84248 23.8637 4.80939 23.8966 4.7763 23.9296C4.71013 23.9954 4.64395 24.0503 4.57777 24.1161C4.5116 24.182 4.44542 24.2368 4.37924 24.2807C4.31307 24.3356 4.24689 24.3795 4.18072 24.4344C4.05939 24.5331 3.92704 24.61 3.80572 24.6868C3.68439 24.7636 3.5741 24.8294 3.47484 24.8733C3.37557 24.9282 3.27631 24.9611 3.21013 24.994C3.05572 25.0599 2.97852 25.0928 2.97852 25.0928C2.97852 25.0928 3.04469 25.027 3.16601 24.9172C3.23219 24.8624 3.29837 24.7965 3.3866 24.7307C3.43072 24.6977 3.47484 24.6538 3.51895 24.61C3.56307 24.5661 3.60719 24.5222 3.66234 24.4783C3.7616 24.3905 3.87189 24.2917 3.98219 24.182C4.03733 24.1271 4.09248 24.0722 4.14763 24.0174C4.18072 23.9844 4.20277 23.9625 4.23586 23.9296C4.26895 23.8966 4.29101 23.8637 4.3241 23.8418C4.43439 23.7101 4.55571 23.5894 4.66601 23.4577C4.7763 23.315 4.89762 23.1943 4.99689 23.0407C5.05204 22.9748 5.10718 22.898 5.1513 22.8322C5.20645 22.7554 5.25056 22.6895 5.29468 22.6127C5.39395 22.47 5.48218 22.3164 5.57042 22.1847C5.65865 22.0421 5.73586 21.8994 5.81306 21.7677C5.87924 21.636 5.95644 21.5043 6.02262 21.3836C6.14394 21.1422 6.24321 20.9337 6.30938 20.791C6.34247 20.7142 6.36453 20.6593 6.38659 20.6155C6.38659 20.5606 6.39762 20.5386 6.39762 20.5386Z" fill="#333333"/>
<path d="M4.39059 18.1463C4.39059 18.1463 4.82093 20.2752 2.93408 21.6799L4.39059 18.1463Z" fill="#FAFAFA"/>
<path d="M4.3904 18.1463C4.3904 18.1463 4.4235 18.2012 4.4566 18.3109C4.47867 18.3658 4.48971 18.4316 4.51177 18.5084C4.52281 18.5853 4.54488 18.6731 4.55591 18.7718C4.56694 18.8706 4.57798 18.9803 4.57798 19.0901C4.57798 19.1998 4.56694 19.3205 4.55591 19.4412C4.54488 19.5071 4.53384 19.5619 4.52281 19.6278C4.51177 19.6936 4.50074 19.7595 4.47867 19.8143C4.4566 19.8802 4.44557 19.946 4.4235 20.0009L4.3573 20.1875C4.31316 20.3082 4.24695 20.4289 4.18075 20.5496L4.13661 20.6374L4.08144 20.7142C4.04834 20.7691 4.0042 20.8239 3.9711 20.8678C3.938 20.9227 3.89386 20.9666 3.84972 21.0105C3.80559 21.0544 3.77248 21.0983 3.72835 21.1422C3.65111 21.23 3.56283 21.2958 3.48559 21.3507C3.40836 21.4056 3.34215 21.4714 3.26491 21.5043C3.19871 21.5482 3.1325 21.5811 3.08836 21.6031C2.98906 21.658 2.92285 21.6799 2.92285 21.6799C2.92285 21.6799 2.95595 21.625 3.03319 21.5373C3.0663 21.4934 3.11043 21.4385 3.15457 21.3836C3.17664 21.3507 3.19871 21.3178 3.22077 21.2849C3.24284 21.2519 3.27595 21.219 3.29801 21.1751C3.35318 21.0983 3.41939 21.0215 3.46353 20.9337C3.49663 20.8898 3.5187 20.8459 3.5518 20.802C3.56283 20.7801 3.5849 20.7581 3.59594 20.7362C3.60697 20.7142 3.61801 20.6923 3.64007 20.6593C3.68421 20.5606 3.75042 20.4618 3.80559 20.3521C3.84972 20.2423 3.90489 20.1436 3.94903 20.0338L4.01524 19.8692C4.0373 19.8143 4.04834 19.7595 4.07041 19.7046C4.11454 19.5949 4.13661 19.4851 4.16971 19.3754C4.19178 19.2656 4.22488 19.1559 4.24695 19.0571C4.26902 18.9584 4.29109 18.8596 4.30212 18.7718C4.32419 18.684 4.33523 18.5962 4.34626 18.5194C4.3573 18.4426 4.36833 18.3768 4.36833 18.3219C4.37936 18.2121 4.3904 18.1463 4.3904 18.1463Z" fill="#333333"/>
<path d="M16.5327 29.9339C16.5327 29.9339 23.4922 29.3413 24.2091 25.4785L16.5327 29.9339Z" fill="#FAFAFA"/>
<path d="M16.5327 29.9339C16.5327 29.9339 16.6761 29.901 16.9298 29.8461C17.1834 29.7912 17.5364 29.7034 17.9665 29.5937C18.1761 29.5388 18.4077 29.473 18.6504 29.4071C18.893 29.3413 19.1467 29.2535 19.4114 29.1767C19.6761 29.0889 19.9408 29.0011 20.2055 28.9023C20.4702 28.8036 20.7459 28.6938 20.9996 28.5731C21.132 28.5183 21.2643 28.4524 21.3856 28.3866C21.507 28.3207 21.6393 28.2549 21.7606 28.189C21.882 28.1122 22.0033 28.0464 22.1246 27.9805C22.1797 27.9476 22.2459 27.9037 22.3011 27.8708C22.3562 27.8269 22.4114 27.794 22.4665 27.7501C22.6871 27.5964 22.8856 27.4318 23.0621 27.2672C23.1503 27.1904 23.2275 27.0916 23.3158 27.0148C23.393 26.927 23.4591 26.8392 23.5364 26.7624C23.6687 26.5868 23.779 26.4332 23.8672 26.2796C23.8893 26.2467 23.9114 26.2028 23.9334 26.1698C23.9555 26.1369 23.9665 26.093 23.9886 26.0601C24.0216 25.9943 24.0547 25.9284 24.0768 25.8735C24.1209 25.7528 24.154 25.6541 24.1761 25.5992C24.1981 25.5334 24.2091 25.5004 24.2091 25.5004C24.2091 25.5004 24.2091 25.5333 24.1981 25.6102C24.1871 25.676 24.1871 25.7858 24.154 25.9065C24.1209 26.0272 24.0878 26.1918 24.0216 26.3564C23.9555 26.532 23.8672 26.7185 23.7459 26.9161C23.6797 27.0148 23.6246 27.1136 23.5474 27.2124C23.4702 27.3111 23.393 27.4099 23.3047 27.5087C23.1283 27.7062 22.9297 27.8927 22.7092 28.0683C22.654 28.1122 22.5989 28.1561 22.5437 28.2C22.4886 28.2439 22.4224 28.2878 22.3672 28.3207C22.2459 28.4085 22.1246 28.4853 21.9922 28.5622C21.8599 28.639 21.7275 28.7048 21.5952 28.7816C21.4628 28.8475 21.3305 28.9133 21.1871 28.9792C20.9114 29.0999 20.6356 29.2096 20.3489 29.3084C20.0731 29.4071 19.7864 29.484 19.5217 29.5608C19.2459 29.6376 18.9812 29.6925 18.7386 29.7364C18.4849 29.7912 18.2423 29.8242 18.0217 29.8571C17.8011 29.89 17.5915 29.9119 17.4151 29.9229C17.2386 29.9339 17.0732 29.9449 16.9408 29.9558C16.6761 29.9339 16.5327 29.9339 16.5327 29.9339Z" fill="#333333"/>
<path d="M14.4485 27.7505C14.4485 27.7505 20.9779 26.9054 22.0367 22.3173L14.4485 27.7505Z" fill="#FAFAFA"/>
<path d="M14.4485 27.7505C14.4485 27.7505 14.6029 27.7066 14.8566 27.6408C14.9889 27.5969 15.1433 27.553 15.3198 27.4981C15.4963 27.4432 15.6948 27.3773 15.9154 27.3005C16.136 27.2237 16.3676 27.1359 16.6102 27.0481C16.8529 26.9603 17.1066 26.8505 17.3713 26.7407C17.5036 26.6858 17.636 26.62 17.7683 26.5651C17.9007 26.4993 18.033 26.4334 18.1654 26.3675C18.2977 26.3017 18.4301 26.2358 18.5624 26.159C18.6948 26.0822 18.8271 26.0053 18.9485 25.9285C19.0808 25.8517 19.2021 25.7638 19.3345 25.687C19.4558 25.5992 19.5771 25.5114 19.6985 25.4236C19.9301 25.237 20.1617 25.0614 20.3602 24.8638C20.4154 24.8199 20.4595 24.765 20.5146 24.7211C20.5587 24.6772 20.6029 24.6223 20.658 24.5674C20.7021 24.5235 20.7462 24.4687 20.8014 24.4248C20.8455 24.3699 20.8896 24.326 20.9227 24.2711C20.9668 24.2162 20.9999 24.1723 21.044 24.1284C21.0771 24.0735 21.1212 24.0296 21.1543 23.9747C21.2315 23.8759 21.2977 23.7881 21.3529 23.6893C21.408 23.5906 21.4742 23.5028 21.5293 23.4149C21.5845 23.3271 21.6286 23.2393 21.6727 23.1515C21.7499 22.9869 21.8161 22.8332 21.8823 22.7125C21.9815 22.46 22.0367 22.3173 22.0367 22.3173C22.0367 22.3173 22.0146 22.471 21.9705 22.7344C21.9374 22.8661 21.8933 23.0308 21.8382 23.2064C21.8051 23.2942 21.772 23.393 21.7279 23.4918C21.6948 23.5906 21.6396 23.6893 21.5845 23.7991C21.5404 23.9089 21.4742 24.0186 21.408 24.1284C21.3749 24.1833 21.3418 24.2382 21.3087 24.293C21.2757 24.3479 21.2315 24.4028 21.1984 24.4577C21.1543 24.5126 21.1212 24.5674 21.0771 24.6223C21.033 24.6772 20.9889 24.7321 20.9448 24.787C20.9007 24.8418 20.8565 24.8967 20.8014 24.9516C20.7462 25.0065 20.7021 25.0614 20.647 25.1163C20.4374 25.3358 20.2168 25.5443 19.9742 25.7309C19.8529 25.8297 19.7205 25.9175 19.5992 26.0163C19.4668 26.1041 19.3345 26.1919 19.2021 26.2797C19.0698 26.3566 18.9264 26.4444 18.794 26.5102C18.6617 26.5871 18.5183 26.6529 18.3749 26.7298C18.0992 26.8724 17.8124 26.9822 17.5367 27.081C17.261 27.1908 16.9852 27.2676 16.7316 27.3444C16.4779 27.4213 16.2242 27.4761 15.9926 27.531C15.5294 27.6298 15.1433 27.6847 14.8786 27.7066C14.6029 27.7505 14.4485 27.7505 14.4485 27.7505Z" fill="#333333"/>
<path d="M11.8125 25.1931C11.8125 25.1931 18.1544 23.854 19.1911 19.5513L11.8125 25.1931Z" fill="#FAFAFA"/>
<path d="M11.8125 25.1931C11.8125 25.1931 11.9559 25.1382 12.2096 25.0504C12.3309 25.0065 12.4853 24.9406 12.6618 24.8748C12.8382 24.8089 13.0257 24.7321 13.2353 24.6443C13.4448 24.5565 13.6654 24.4577 13.9081 24.3479C14.1397 24.2382 14.3934 24.1174 14.647 23.9967C14.7684 23.9308 14.9007 23.865 15.022 23.7991C15.1434 23.7333 15.2757 23.6564 15.4081 23.5906C15.5404 23.5137 15.6617 23.4479 15.7941 23.3601C15.9264 23.2832 16.0478 23.2064 16.1691 23.1186C16.4228 22.9539 16.6544 22.7783 16.886 22.6027C16.9963 22.5149 17.1066 22.4161 17.2169 22.3283C17.3272 22.2295 17.4375 22.1417 17.5257 22.0429C17.625 21.9441 17.7242 21.8563 17.8125 21.7466C17.9007 21.6478 18 21.56 18.0772 21.4502C18.1544 21.3514 18.2426 21.2526 18.3088 21.1648C18.375 21.066 18.4522 20.9782 18.5073 20.8794C18.5625 20.7807 18.6286 20.6928 18.6838 20.605C18.7389 20.5172 18.783 20.4294 18.8272 20.3526C18.8713 20.2758 18.9044 20.1989 18.9375 20.1221C18.9705 20.0452 19.0036 19.9794 19.0367 19.9245C19.136 19.683 19.1911 19.5403 19.1911 19.5403C19.1911 19.5403 19.1801 19.5733 19.1691 19.6501C19.158 19.716 19.136 19.8257 19.1139 19.9574C19.0808 20.0892 19.0367 20.2428 18.9705 20.4184C18.9375 20.5063 18.9044 20.605 18.8602 20.7038C18.8161 20.8026 18.761 20.9014 18.7169 21.0002C18.6066 21.2087 18.4853 21.4283 18.3308 21.6478C18.1764 21.8673 18 22.0868 17.8014 22.3064C17.6029 22.5149 17.3823 22.7344 17.1507 22.921C16.9081 23.1076 16.6654 23.3052 16.4007 23.4698C16.2684 23.5576 16.136 23.6345 16.0036 23.7113C15.8713 23.7881 15.7389 23.865 15.6066 23.9418C15.3419 24.0845 15.0662 24.2162 14.8015 24.326C14.5367 24.4467 14.272 24.5455 14.0294 24.6333C13.7757 24.7211 13.5441 24.798 13.3235 24.8638C12.8823 24.9955 12.5073 25.0724 12.2426 25.1163C11.9669 25.1821 11.8125 25.1931 11.8125 25.1931Z" fill="#333333"/>
<path d="M9.23145 22.5579C9.23145 22.5579 13.566 21.592 15.4851 17.6406L9.23145 22.5579Z" fill="#FAFAFA"/>
<path d="M9.23145 22.5579C9.23145 22.5579 9.35277 22.514 9.56233 22.4262C9.77188 22.3384 10.0586 22.2067 10.4006 22.042C10.566 21.9542 10.7535 21.8664 10.941 21.7567C11.1285 21.6579 11.327 21.5371 11.5366 21.4164C11.7351 21.2957 11.9447 21.164 12.1542 21.0213C12.3638 20.8896 12.5623 20.7359 12.7608 20.5822C12.8601 20.5054 12.9594 20.4285 13.0586 20.3517C13.1579 20.2749 13.2461 20.198 13.3454 20.1102C13.5329 19.9456 13.7094 19.781 13.8748 19.6163C14.0402 19.4517 14.1947 19.287 14.3491 19.1224C14.4152 19.0455 14.4924 18.9577 14.5586 18.8809C14.6248 18.8041 14.691 18.7272 14.7461 18.6504C14.8123 18.5736 14.8564 18.5077 14.9116 18.4309C14.9667 18.365 15.0219 18.2992 15.066 18.2333C15.1542 18.1016 15.2424 18.0028 15.2976 17.904C15.4189 17.7174 15.4961 17.6077 15.4961 17.6077C15.4961 17.6077 15.452 17.7284 15.3748 17.937C15.3307 18.0467 15.2755 18.1675 15.2094 18.3101C15.1432 18.4528 15.0549 18.6065 14.9557 18.7821C14.9005 18.8699 14.8564 18.9468 14.8013 19.0455C14.7461 19.1334 14.6799 19.2212 14.6138 19.309C14.4814 19.4846 14.338 19.6822 14.1726 19.8578C14.0072 20.0444 13.8307 20.22 13.6432 20.3956C13.5439 20.4834 13.4557 20.5712 13.3564 20.659C13.2572 20.7359 13.1579 20.8237 13.0476 20.9005C12.838 21.0542 12.6285 21.2079 12.4079 21.3396C12.1873 21.4823 11.9667 21.603 11.7572 21.7128C11.5366 21.8225 11.327 21.9213 11.1175 22.0091C10.9079 22.0969 10.7094 22.1628 10.5219 22.2286C10.1469 22.3494 9.83806 22.4262 9.60644 22.4701C9.3638 22.547 9.23145 22.5579 9.23145 22.5579Z" fill="#333333"/>
<path d="M6.88208 20.2524C6.88208 20.2524 9.77177 19.6378 11.3379 16.6859L6.88208 20.2524Z" fill="#FAFAFA"/>
<path d="M6.88208 20.2524C6.88208 20.2524 6.90414 20.2414 6.94826 20.2194C6.99237 20.1975 7.04752 20.1755 7.1137 20.1426C7.25708 20.0768 7.46664 19.967 7.69825 19.8354C7.81957 19.7695 7.9409 19.6927 8.07325 19.6159C8.2056 19.5391 8.34898 19.4513 8.48133 19.3635C8.62472 19.2647 8.7681 19.1769 8.91148 19.0672C8.97766 19.0123 9.05486 18.9684 9.12104 18.9135L9.3306 18.7489C9.47398 18.6392 9.60633 18.5185 9.73868 18.4087C9.87103 18.299 9.99236 18.1673 10.1137 18.0576C10.1468 18.0247 10.1799 18.0027 10.2019 17.9698C10.235 17.9369 10.2571 17.9149 10.2901 17.882C10.3453 17.8271 10.4004 17.7613 10.4556 17.7064C10.5659 17.5967 10.6541 17.4869 10.7424 17.3772C10.7865 17.3223 10.8306 17.2784 10.8747 17.2345C10.9188 17.1906 10.9519 17.1467 10.985 17.1028C11.0512 17.0151 11.1173 16.9382 11.1615 16.8724C11.2607 16.7517 11.3269 16.6749 11.3269 16.6749C11.3269 16.6749 11.2938 16.7627 11.2387 16.9163C11.2056 16.9931 11.1725 17.0809 11.1284 17.1906C11.0843 17.3004 11.0181 17.4101 10.9519 17.5308C10.8857 17.6515 10.8085 17.7942 10.7093 17.9149C10.6651 17.9808 10.61 18.0466 10.5659 18.1125C10.5218 18.1783 10.4666 18.2551 10.4004 18.321C10.3453 18.3868 10.2791 18.4526 10.224 18.5185C10.1909 18.5514 10.1578 18.5843 10.1357 18.6172C10.1026 18.6502 10.0696 18.6831 10.0365 18.716C9.90412 18.8477 9.76074 18.9794 9.61736 19.0891C9.54015 19.144 9.46295 19.2098 9.39677 19.2647C9.31957 19.3196 9.24236 19.3745 9.16515 19.4183C9.01074 19.5281 8.8453 19.6159 8.69089 19.6927C8.53648 19.7805 8.38207 19.8463 8.22766 19.9122C8.07325 19.967 7.92987 20.0219 7.79752 20.0658C7.66516 20.1097 7.53281 20.1426 7.42252 20.1646C7.31222 20.1865 7.21296 20.2085 7.13575 20.2194C6.97031 20.2524 6.88208 20.2524 6.88208 20.2524Z" fill="#333333"/>
<path d="M4.41162 18.3429C4.41162 18.3429 6.56234 18.6941 7.90793 16.7627L4.41162 18.3429Z" fill="#FAFAFA"/>
<path d="M4.41162 18.3429C4.41162 18.3429 4.4778 18.332 4.58809 18.321C4.64324 18.31 4.70941 18.299 4.78662 18.2881C4.86382 18.2771 4.94103 18.2551 5.04029 18.2332C5.12853 18.2112 5.22779 18.1893 5.32706 18.1673C5.42632 18.1454 5.53661 18.1125 5.64691 18.0796C5.7572 18.0466 5.8675 18.0137 5.97779 17.9698C6.03294 17.9479 6.08808 17.9259 6.14323 17.904L6.30867 17.8272C6.41896 17.7833 6.51823 17.7284 6.62852 17.6735C6.73881 17.6296 6.82705 17.5528 6.92631 17.4979C6.94837 17.487 6.97043 17.476 7.00352 17.454C7.02558 17.4431 7.04764 17.4211 7.06969 17.4101C7.11381 17.3772 7.15793 17.3443 7.20205 17.3224C7.29028 17.2675 7.36749 17.2016 7.44469 17.1468C7.47778 17.1139 7.5219 17.0919 7.55499 17.07C7.58807 17.048 7.62116 17.0261 7.65425 16.9931C7.7094 16.9383 7.76454 16.9053 7.80866 16.8614C7.8969 16.7956 7.95204 16.7517 7.95204 16.7517C7.95204 16.7517 7.92998 16.8066 7.88587 16.9163C7.86381 16.9712 7.83072 17.0261 7.79763 17.1029C7.76454 17.1797 7.7094 17.2455 7.65425 17.3224C7.5991 17.3992 7.53293 17.487 7.45572 17.5638C7.4116 17.6077 7.37852 17.6406 7.3344 17.6845C7.29028 17.7284 7.24616 17.7723 7.20205 17.8052C7.15793 17.8491 7.10278 17.882 7.04764 17.9259L6.97043 17.9808L6.8822 18.0357C6.7719 18.1015 6.65058 18.1673 6.52926 18.2222L6.34176 18.299C6.27558 18.321 6.22043 18.3429 6.15426 18.3539C6.08808 18.3759 6.03294 18.3868 5.96676 18.3978C5.90058 18.4088 5.84544 18.4197 5.77926 18.4307C5.65794 18.4527 5.53661 18.4636 5.42632 18.4636C5.31603 18.4636 5.20573 18.4636 5.10647 18.4527C5.00721 18.4527 4.91897 18.4307 4.84177 18.4197C4.76456 18.4088 4.69838 18.3868 4.64324 18.3759C4.46677 18.3759 4.41162 18.3429 4.41162 18.3429Z" fill="#333333"/>
<path d="M47.0185 18.0366C45.6178 19.5074 44.1288 20.8904 42.6178 22.2624C41.0186 23.7113 39.4414 25.1821 37.8531 26.6419C36.0112 28.3323 34.1693 30.0116 32.3274 31.7019C30.9488 31.7349 27.3091 31.5044 26.4819 28.1127C25.4562 23.9088 28.1363 17.1804 34.7429 15.5889C40.6656 14.162 47.9781 14.14 50.5259 13.6132C49.5332 15.2047 48.32 16.6645 47.0185 18.0366Z" fill="#FAFAFA"/>
<path d="M32.096 31.9215C30.4416 31.9215 27.0997 31.4935 26.2835 28.1567C25.7321 25.9066 26.2173 23.1406 27.574 20.7587C29.1291 18.0147 31.6658 16.1048 34.7099 15.3694C38.471 14.4584 42.8827 14.1072 46.1033 13.8547C47.9672 13.712 49.5775 13.5803 50.493 13.3937L51.0003 13.2949L50.7246 13.734C49.8202 15.1828 48.6621 16.6427 47.1731 18.2013C45.7614 19.6831 44.2834 21.0551 42.7614 22.4381C41.8018 23.3162 40.8202 24.2162 39.8827 25.0834C39.254 25.6651 38.6254 26.2359 37.9967 26.8176C37.1915 27.553 36.3864 28.2884 35.5813 29.0238C34.5555 29.9568 33.5077 30.9227 32.471 31.8776L32.4048 31.9325H32.3166C32.2614 31.9215 32.1842 31.9215 32.096 31.9215ZM50.0738 13.9096C49.1253 14.0523 47.7687 14.162 46.1253 14.2938C42.7393 14.5572 38.5261 14.8974 34.7982 15.7975C28.3129 17.3671 25.71 23.9967 26.7026 28.0579C27.4637 31.1971 30.7614 31.5044 32.2394 31.4825C33.2541 30.5495 34.2908 29.6056 35.2835 28.6945C36.0886 27.9591 36.8938 27.2237 37.6989 26.4883C38.3276 25.9066 38.9562 25.3358 39.5739 24.7541C40.5114 23.887 41.493 22.9869 42.4526 22.1088C43.9636 20.7368 45.4415 19.3757 46.8422 17.894C48.1658 16.5 49.2246 15.1938 50.0738 13.9096Z" fill="#333333"/>
<path d="M25.4344 38.4194C25.7432 38.0682 27.4196 36.3669 28.9968 34.7753C30.2652 33.5789 31.5446 32.3935 32.8351 31.219C36.1328 28.2006 39.4306 25.1711 42.7284 22.1417C45.5519 19.5623 48.3975 16.8402 50.3497 13.5254C50.7136 13.6022 50.2173 19.3538 50.1291 24.9187C50.0298 30.6153 46.6769 38.8036 40.1144 39.4073C33.552 40.011 32.6255 32.6569 32.9343 32.3057C33.2431 31.9544 26.3388 37.4645 26.416 38.7707C26.5042 40.0878 24.8167 39.1109 25.4344 38.4194Z" fill="#FAFAFA"/>
<path d="M39.353 39.6598C36.1545 39.6598 34.467 37.728 33.6067 36.0267C33.0111 34.8522 32.7023 33.5241 32.6802 32.7558C31.2464 33.8644 26.6031 37.8597 26.6582 38.7598C26.6913 39.3634 26.4045 39.55 26.2281 39.6049C25.8641 39.7257 25.4229 39.4842 25.2244 39.1768C25.0259 38.8695 25.0479 38.5293 25.2795 38.2658C25.5442 37.9695 26.7464 36.7401 28.853 34.6107C30.0001 33.5241 31.2574 32.3606 32.7023 31.0435C34.3677 29.5178 36.0332 27.9811 37.7096 26.4554C39.342 24.9627 40.9743 23.4589 42.6066 21.9662C45.5074 19.3099 48.2647 16.6537 50.1838 13.4047L50.261 13.262L50.4154 13.295C50.7794 13.3718 50.7904 13.8767 50.5809 18.6513C50.4926 20.5612 50.4044 22.7345 50.3603 24.9078C50.3051 28.025 49.3346 31.4825 47.7463 34.1717C46.4007 36.4548 43.9853 39.2647 40.1471 39.6159C39.8603 39.6488 39.6067 39.6598 39.353 39.6598ZM33.1214 32.4265C33.0332 32.7448 33.2979 35.1376 34.7317 36.9926C36.0221 38.661 37.8199 39.3964 40.092 39.1768C46.6324 38.5732 49.8088 30.2971 49.9081 24.8968C49.9412 22.7235 50.0404 20.5502 50.1287 18.6294C50.2169 16.7305 50.2941 14.9194 50.261 14.0962C48.3309 17.1915 45.6728 19.738 42.8824 22.2954C41.25 23.7882 39.6177 25.2919 37.9853 26.7847C36.3199 28.3104 34.6545 29.8471 32.978 31.3728C31.5442 32.6899 30.2869 33.8534 29.1398 34.9291C27.0663 37.0145 25.842 38.2768 25.5884 38.5622C25.5553 38.6061 25.4339 38.7378 25.5773 38.9354C25.7097 39.1329 25.9523 39.2317 26.0736 39.1878C26.206 39.1439 26.206 38.8915 26.206 38.7817C26.195 38.5622 26.1509 37.8707 29.4376 34.9181C30.8494 33.6448 32.6913 32.1411 32.8788 32.0862L33.0442 32.0313L33.1435 32.174C33.1545 32.196 33.2207 32.3057 33.1214 32.4265Z" fill="#333333"/>
<path d="M32.3384 31.702C32.3384 31.702 47.1398 19.0464 50.3603 13.5254L32.3384 31.702Z" fill="#FAFAFA"/>
<path d="M32.3384 31.702C32.3384 31.702 33.5075 30.6044 35.2722 28.9689C36.1545 28.1457 37.1692 27.1908 38.2722 26.159C38.8236 25.6431 39.3861 25.1053 39.9597 24.5674C40.5332 24.0296 41.1067 23.4698 41.6913 22.91C42.2648 22.3503 42.8494 21.8014 43.4008 21.2417C43.9633 20.6819 44.5148 20.144 45.0442 19.6062C45.5736 19.0684 46.081 18.5525 46.5552 18.0586C47.0295 17.5646 47.4707 17.0817 47.8677 16.6426C48.2648 16.1926 48.6287 15.7865 48.9376 15.4023C49.092 15.2157 49.2353 15.0401 49.3677 14.8755C49.5001 14.7108 49.6214 14.5571 49.7206 14.4145C49.8309 14.2718 49.9192 14.151 49.9964 14.0413C50.0736 13.9315 50.1398 13.8327 50.1949 13.7559C50.3052 13.6022 50.3603 13.5144 50.3603 13.5144C50.3603 13.5144 50.3162 13.6022 50.217 13.7669C50.1728 13.8437 50.1177 13.9535 50.0515 14.0632C49.9743 14.173 49.8971 14.3157 49.7978 14.4584C49.7096 14.612 49.5993 14.7657 49.478 14.9413C49.3567 15.1169 49.2243 15.3035 49.0809 15.5011C48.7942 15.8962 48.4523 16.3353 48.0662 16.7963C47.6802 17.2573 47.2611 17.7622 46.7979 18.2781C46.3346 18.794 45.8493 19.3318 45.331 19.8806C45.0773 20.155 44.8126 20.4294 44.5368 20.7038C44.4045 20.8465 44.2611 20.9782 44.1288 21.1209C43.9854 21.2636 43.853 21.3953 43.7096 21.538C43.1471 22.0978 42.5736 22.6576 42.0001 23.2174C41.4155 23.7772 40.831 24.326 40.2575 24.8638C39.6839 25.4016 39.0994 25.9285 38.5479 26.4334C37.9854 26.9383 37.445 27.4213 36.9266 27.8713C36.4082 28.3323 35.9119 28.7494 35.4597 29.1445C35.0075 29.5397 34.5773 29.8909 34.2023 30.1982C33.8273 30.5165 33.4965 30.78 33.2207 30.9995C32.945 31.219 32.7354 31.3946 32.581 31.5044C32.4156 31.6361 32.3384 31.702 32.3384 31.702Z" fill="#333333"/>
<path d="M34.5559 29.7812C34.5559 29.7812 34.8978 36.7291 38.7581 37.5853L34.5559 29.7812Z" fill="#FAFAFA"/>
<path d="M34.5556 29.7812C34.5556 29.7812 34.5776 29.9239 34.6328 30.1763C34.6769 30.4288 34.7541 30.791 34.8534 31.2191C34.8975 31.4386 34.9526 31.6691 35.0188 31.9106C35.074 32.152 35.1512 32.4045 35.2174 32.6679C35.2946 32.9314 35.3828 33.1948 35.471 33.4692C35.5593 33.7436 35.6585 34.007 35.7688 34.2705C35.824 34.4022 35.8791 34.5339 35.9343 34.6656C36.0004 34.7973 36.0556 34.929 36.1218 35.0498C36.1879 35.1705 36.2541 35.3022 36.3203 35.412C36.3534 35.4669 36.3865 35.5327 36.4196 35.5876C36.4526 35.6425 36.4968 35.6974 36.5298 35.7522C36.6732 35.9718 36.8387 36.1803 36.9931 36.3669C37.0703 36.4657 37.1585 36.5425 37.2357 36.6303C37.3129 36.7181 37.4012 36.784 37.4784 36.8608C37.6438 36.9926 37.7982 37.1133 37.9526 37.2011C37.9857 37.2231 38.0298 37.245 38.0629 37.267C38.096 37.2889 38.1401 37.2999 38.1732 37.3218C38.2394 37.3548 38.3056 37.3877 38.3607 37.4206C38.482 37.4755 38.5703 37.5084 38.6365 37.5304C38.7026 37.5523 38.7357 37.5743 38.7357 37.5743C38.7357 37.5743 38.7026 37.5633 38.6254 37.5633C38.5592 37.5523 38.4489 37.5414 38.3276 37.5084C38.2063 37.4645 38.0409 37.4426 37.8754 37.3548C37.699 37.2889 37.5225 37.1901 37.324 37.0694C37.2357 37.0035 37.1254 36.9377 37.0372 36.8608C36.949 36.784 36.8387 36.6962 36.7504 36.6084C36.5629 36.4218 36.3754 36.2242 36.21 35.9937C36.1659 35.9388 36.1218 35.873 36.0776 35.8181C36.0335 35.7522 36.0004 35.6974 35.9563 35.6315C35.8681 35.5108 35.8019 35.3791 35.7247 35.2473C35.6475 35.1156 35.5923 34.9839 35.5151 34.8522C35.449 34.7205 35.3938 34.5778 35.3276 34.4461C35.2174 34.1717 35.1181 33.8863 35.0299 33.6009C34.9416 33.3155 34.8754 33.0411 34.8093 32.7667C34.7431 32.4923 34.699 32.2289 34.6549 31.9764C34.6107 31.724 34.5887 31.4825 34.5666 31.263C34.5446 31.0435 34.5335 30.8349 34.5225 30.6593C34.5115 30.4837 34.5115 30.319 34.5115 30.1873C34.5446 29.9349 34.5556 29.7812 34.5556 29.7812Z" fill="#333333"/>
<path d="M36.8293 27.7944C36.8293 27.7944 37.436 34.3143 42.0131 35.5436L36.8293 27.7944Z" fill="#FAFAFA"/>
<path d="M36.8289 27.7944C36.8289 27.7944 36.8619 27.9481 36.9281 28.2115C36.9612 28.3432 37.0053 28.4969 37.0494 28.6835C37.0936 28.8591 37.1597 29.0677 37.2259 29.2872C37.2921 29.5067 37.3693 29.7482 37.4575 29.9897C37.5458 30.2421 37.645 30.4946 37.7443 30.758C37.7994 30.8897 37.8546 31.0214 37.9097 31.1532C37.9759 31.2849 38.0311 31.4276 38.0972 31.5593C38.1634 31.691 38.2296 31.8337 38.2958 31.9654C38.3619 32.0971 38.4391 32.2288 38.5164 32.3605C38.5825 32.4922 38.6708 32.624 38.748 32.7447C38.8252 32.8654 38.9134 32.9972 39.0016 33.1179C39.1781 33.3594 39.3436 33.5899 39.5421 33.7984C39.5862 33.8533 39.6303 33.8972 39.6855 33.9521C39.7296 34.007 39.7847 34.0509 39.8288 34.0948C39.873 34.1387 39.9281 34.1936 39.9722 34.2375C40.0163 34.2814 40.0715 34.3253 40.1156 34.3692C40.1597 34.4131 40.2149 34.457 40.259 34.5009C40.3031 34.5448 40.3583 34.5777 40.4024 34.6107C40.5016 34.6875 40.5899 34.7643 40.6891 34.8192C40.7884 34.8851 40.8656 34.9509 40.9649 34.9948C41.0531 35.0497 41.1413 35.0936 41.2185 35.1485C41.384 35.2363 41.5274 35.3022 41.6487 35.368C41.9024 35.4668 42.0347 35.5327 42.0347 35.5327C42.0347 35.5327 41.8803 35.5107 41.6156 35.4448C41.4832 35.4009 41.3178 35.357 41.1413 35.2912C41.0531 35.2583 40.9538 35.2143 40.8546 35.1704C40.7553 35.1265 40.656 35.0717 40.5458 35.0168C40.4355 34.9619 40.3362 34.896 40.2259 34.8302C40.1708 34.7973 40.1156 34.7643 40.0605 34.7204C40.0053 34.6765 39.9502 34.6436 39.895 34.5997C39.8399 34.5558 39.7847 34.5119 39.7296 34.4789C39.6744 34.435 39.6193 34.3911 39.5641 34.3363C39.509 34.2923 39.4538 34.2484 39.3987 34.1936C39.3436 34.1387 39.2994 34.0948 39.2443 34.0399C39.0347 33.8313 38.8362 33.6008 38.6487 33.3484C38.5605 33.2277 38.4722 33.0959 38.384 32.9642C38.3068 32.8325 38.2075 32.7008 38.1414 32.5581C38.0641 32.4154 37.9869 32.2837 37.9208 32.141C37.8436 31.9983 37.7884 31.8556 37.7222 31.7129C37.5899 31.4276 37.4906 31.1422 37.3914 30.8678C37.2921 30.5934 37.2149 30.319 37.1597 30.0555C37.0936 29.7921 37.0384 29.5506 37.0053 29.3201C36.9171 28.8591 36.884 28.475 36.8619 28.2006C36.8178 27.9481 36.8289 27.7944 36.8289 27.7944Z" fill="#333333"/>
<path d="M39.4746 25.27C39.4746 25.27 40.5886 31.6252 44.868 32.8106L39.4746 25.27Z" fill="#FAFAFA"/>
<path d="M39.4746 25.27C39.4746 25.27 39.5187 25.4126 39.607 25.6651C39.6511 25.7858 39.7062 25.9395 39.7614 26.1151C39.8165 26.2907 39.8937 26.4883 39.9709 26.6969C40.0481 26.9054 40.1474 27.1359 40.2356 27.3774C40.3349 27.6189 40.4452 27.8603 40.5665 28.1238C40.6217 28.2555 40.6878 28.3762 40.754 28.5079C40.8202 28.6397 40.8864 28.7604 40.9525 28.8921C41.0187 29.0238 41.0849 29.1555 41.1621 29.2763C41.2393 29.408 41.3165 29.5287 41.3937 29.6604C41.5481 29.9129 41.7136 30.1653 41.89 30.3958C41.9783 30.5056 42.0665 30.6263 42.1547 30.7361C42.243 30.8459 42.3312 30.9556 42.4305 31.0544C42.5297 31.1532 42.618 31.263 42.7172 31.3508C42.8165 31.4496 42.9047 31.5374 43.004 31.6252C43.1033 31.713 43.1915 31.7898 43.2908 31.8667C43.39 31.9435 43.4672 32.0203 43.5665 32.0752C43.6547 32.1411 43.743 32.1959 43.8312 32.2618C43.9194 32.3167 43.9966 32.3606 44.0849 32.4155C44.1621 32.4703 44.2393 32.5033 44.3055 32.5362C44.3716 32.5691 44.4378 32.6021 44.504 32.635C44.7466 32.7448 44.89 32.8106 44.89 32.8106C44.89 32.8106 44.8569 32.7996 44.7797 32.7887C44.7136 32.7777 44.6033 32.7557 44.4709 32.7228C44.3386 32.6789 44.1841 32.635 44.0077 32.5691C43.9194 32.5362 43.8312 32.4923 43.7319 32.4484C43.6327 32.4045 43.5334 32.3496 43.4341 32.2947C43.2246 32.185 43.015 32.0423 42.8055 31.8776C42.5849 31.713 42.3753 31.5374 42.1658 31.3288C41.9562 31.1203 41.7577 30.9008 41.5702 30.6593C41.3827 30.4178 41.2062 30.1653 41.0408 29.9019C40.9636 29.7702 40.8864 29.6385 40.8092 29.4958C40.732 29.3641 40.6658 29.2214 40.5996 29.0897C40.4562 28.8153 40.3459 28.5409 40.2356 28.2774C40.1253 28.014 40.0371 27.7506 39.9599 27.4981C39.8827 27.2457 39.8165 27.0042 39.7614 26.7847C39.6511 26.3347 39.5849 25.9615 39.5518 25.698C39.4856 25.4236 39.4746 25.27 39.4746 25.27Z" fill="#333333"/>
<path d="M42.2205 22.7993C42.2205 22.7993 43.0366 27.1459 46.93 29.1875L42.2205 22.7993Z" fill="#FAFAFA"/>
<path d="M42.2205 22.7993C42.2205 22.7993 42.2646 22.9201 42.3418 23.1286C42.419 23.3371 42.5403 23.6335 42.6947 23.9738C42.7719 24.1494 42.8602 24.336 42.9594 24.5226C43.0587 24.7202 43.169 24.9177 43.2793 25.1263C43.4006 25.3348 43.5219 25.5434 43.6543 25.7519C43.7866 25.9605 43.93 26.169 44.0734 26.3776C44.1506 26.4763 44.2168 26.5751 44.294 26.6849C44.3712 26.7837 44.4484 26.8825 44.5256 26.9812C44.68 27.1678 44.8344 27.3544 44.9999 27.5301C45.1543 27.7057 45.3197 27.8593 45.4741 28.013C45.5513 28.0898 45.6285 28.1557 45.7057 28.2325C45.7829 28.2984 45.8601 28.3642 45.9263 28.4301C45.9925 28.496 46.0697 28.5508 46.1359 28.6057C46.2021 28.6606 46.2682 28.7155 46.3234 28.7594C46.4447 28.8472 46.555 28.935 46.6432 29.0009C46.8307 29.1326 46.93 29.2094 46.93 29.2094C46.93 29.2094 46.8087 29.1655 46.5991 29.0777C46.4998 29.0338 46.3675 28.9679 46.2351 28.9021C46.0918 28.8252 45.9374 28.7374 45.7719 28.6387C45.6947 28.5838 45.6065 28.5289 45.5182 28.474C45.43 28.4082 45.3418 28.3423 45.2535 28.2764C45.0771 28.1337 44.8896 27.9911 44.7131 27.8154C44.5366 27.6508 44.3602 27.4642 44.1837 27.2666C44.0954 27.1678 44.0182 27.0691 43.93 26.9703C43.8528 26.8715 43.7756 26.7617 43.6984 26.652C43.544 26.4324 43.4006 26.2239 43.2793 25.9934C43.1469 25.7739 43.0366 25.5434 42.9263 25.3238C42.8271 25.1043 42.7278 24.8848 42.6506 24.6762C42.5734 24.4677 42.5072 24.2701 42.4521 24.0835C42.3418 23.7103 42.2756 23.392 42.2425 23.1725C42.2205 22.9201 42.2205 22.7993 42.2205 22.7993Z" fill="#333333"/>
<path d="M44.6143 20.5387C44.6143 20.5387 45.1326 23.4358 48.0444 25.0929L44.6143 20.5387Z" fill="#FAFAFA"/>
<path d="M44.6143 20.5387C44.6143 20.5387 44.6253 20.5606 44.6363 20.6045C44.6584 20.6484 44.6804 20.7033 44.7135 20.7801C44.7797 20.9228 44.879 21.1313 45.0003 21.3727C45.0554 21.4934 45.1326 21.6251 45.2098 21.7568C45.2871 21.8885 45.3643 22.0312 45.4525 22.1738C45.5407 22.3165 45.629 22.4591 45.7282 22.6018C45.7723 22.6786 45.8275 22.7445 45.8716 22.8213C45.9268 22.8871 45.9819 22.9639 46.026 23.0298C46.1253 23.1724 46.2466 23.3041 46.3569 23.4468C46.4672 23.5895 46.5885 23.7102 46.6988 23.8309C46.7319 23.8638 46.754 23.8967 46.787 23.9187C46.8201 23.9516 46.8422 23.9735 46.8753 24.0065C46.9304 24.0613 46.9856 24.1162 47.0407 24.1711C47.151 24.2808 47.2613 24.3796 47.3606 24.4674C47.4157 24.5113 47.4598 24.5552 47.504 24.5991C47.5481 24.643 47.5922 24.6869 47.6363 24.7198C47.7245 24.7856 47.8017 24.8515 47.8569 24.9063C47.9782 25.0161 48.0444 25.0819 48.0444 25.0819C48.0444 25.0819 47.9562 25.049 47.8128 24.9831C47.7356 24.9502 47.6473 24.9063 47.5481 24.8624C47.4378 24.8185 47.3385 24.7417 47.2172 24.6759C47.0959 24.5991 46.9635 24.5222 46.8422 24.4235C46.776 24.3686 46.7098 24.3247 46.6437 24.2698C46.5775 24.215 46.5113 24.1601 46.4451 24.1052C46.379 24.0394 46.3128 23.9845 46.2466 23.9187C46.2135 23.8858 46.1804 23.8528 46.1473 23.8199C46.1143 23.787 46.0812 23.7541 46.0591 23.7211C45.9378 23.5785 45.8054 23.4468 45.6951 23.2822C45.64 23.2054 45.5848 23.1285 45.5297 23.0517C45.4745 22.9749 45.4304 22.8981 45.3753 22.8103C45.276 22.6567 45.1988 22.4921 45.1106 22.3384C45.0334 22.1848 44.9672 22.0202 44.9121 21.8775C44.8569 21.7239 44.8128 21.5812 44.7687 21.4495C44.7246 21.3178 44.7025 21.1862 44.6804 21.0764C44.6584 20.9667 44.6473 20.8679 44.6363 20.7801C44.6143 20.6265 44.6143 20.5387 44.6143 20.5387Z" fill="#333333"/>
<path d="M46.6328 18.1464C46.6328 18.1464 46.2025 20.2753 48.0893 21.68L46.6328 18.1464Z" fill="#FAFAFA"/>
<path d="M46.6329 18.1464C46.6329 18.1464 46.6439 18.2122 46.655 18.3219C46.655 18.3768 46.677 18.4427 46.677 18.5195C46.6881 18.5963 46.6991 18.6841 46.7212 18.7719C46.7322 18.8597 46.7543 18.9584 46.7763 19.0572C46.7984 19.156 46.8205 19.2657 46.8536 19.3754C46.8867 19.4852 46.9087 19.5949 46.9529 19.7047C46.975 19.7595 46.986 19.8144 47.0081 19.8693L47.0743 20.0339C47.1074 20.1436 47.1736 20.2534 47.2177 20.3521C47.2618 20.4619 47.328 20.5497 47.3832 20.6594C47.3943 20.6813 47.4053 20.7143 47.4274 20.7362C47.4384 20.7582 47.4605 20.7801 47.4715 20.8021C47.5046 20.846 47.5267 20.8898 47.5598 20.9337C47.6149 21.0215 47.6701 21.0984 47.7253 21.1752C47.7473 21.2081 47.7805 21.252 47.8025 21.2849C47.8246 21.3178 47.8467 21.3508 47.8687 21.3837C47.9129 21.4385 47.957 21.4934 47.9901 21.5373C48.0563 21.6251 48.1004 21.68 48.1004 21.68C48.1004 21.68 48.0453 21.658 47.9349 21.6032C47.8798 21.5812 47.8246 21.5483 47.7584 21.5044C47.6811 21.4715 47.6149 21.4056 47.5377 21.3508C47.4605 21.2849 47.3722 21.23 47.2949 21.1422C47.2508 21.0984 47.2177 21.0545 47.1736 21.0106C47.1294 20.9667 47.0963 20.9228 47.0522 20.8679C47.0191 20.813 46.975 20.7691 46.9419 20.7143L46.8867 20.6374L46.8425 20.5497C46.7763 20.4399 46.7101 20.3192 46.666 20.1875L46.5998 20.001C46.5777 19.9351 46.5667 19.8693 46.5446 19.8144C46.5226 19.7486 46.5115 19.6937 46.5005 19.6278C46.4894 19.562 46.4784 19.5071 46.4674 19.4413C46.4563 19.3206 46.4453 19.1999 46.4453 19.0901C46.4453 18.9804 46.4563 18.8706 46.4674 18.7719C46.4784 18.6731 46.5005 18.5853 46.5115 18.5085C46.5336 18.4317 46.5446 18.3658 46.5667 18.311C46.5998 18.2122 46.6329 18.1464 46.6329 18.1464Z" fill="#333333"/>
<path d="M34.4899 29.9339C34.4899 29.9339 27.5304 29.3413 26.8135 25.4785L34.4899 29.9339Z" fill="#FAFAFA"/>
<path d="M34.4899 29.9339C34.4899 29.9339 34.3355 29.9448 34.0818 29.9339C33.9495 29.9339 33.7951 29.9229 33.6076 29.901C33.4311 29.89 33.2215 29.868 33.0009 29.8351C32.7804 29.8022 32.5377 29.7693 32.284 29.7144C32.0304 29.6705 31.7657 29.6047 31.501 29.5388C31.2252 29.462 30.9495 29.3852 30.6738 29.2864C30.398 29.1876 30.1113 29.0779 29.8355 28.9572C29.7032 28.8914 29.5598 28.8255 29.4274 28.7597C29.2951 28.6828 29.1627 28.617 29.0304 28.5402C28.898 28.4634 28.7767 28.3865 28.6554 28.2988C28.6002 28.2549 28.5341 28.211 28.4789 28.178C28.4238 28.1341 28.3686 28.0903 28.3135 28.0464C28.0819 27.8708 27.8944 27.6732 27.7179 27.4867C27.6297 27.3879 27.5524 27.2892 27.4752 27.1904C27.398 27.0916 27.3429 26.9929 27.2767 26.8941C27.1554 26.6966 27.0672 26.51 27.001 26.3344C26.9238 26.1698 26.9017 26.0052 26.8686 25.8845C26.8355 25.7528 26.8355 25.654 26.8245 25.5882C26.8135 25.5224 26.8135 25.4785 26.8135 25.4785C26.8135 25.4785 26.8245 25.5114 26.8466 25.5772C26.8686 25.6431 26.9017 25.7418 26.9458 25.8516C26.9679 25.9064 27.001 25.9723 27.0341 26.0381C27.0561 26.071 27.0672 26.104 27.0892 26.1479C27.1113 26.1808 27.1333 26.2247 27.1554 26.2576C27.2436 26.4112 27.3539 26.5758 27.4863 26.7405C27.5524 26.8173 27.6186 26.9051 27.7069 26.9929C27.7951 27.0697 27.8613 27.1684 27.9605 27.2453C28.137 27.4099 28.3466 27.5745 28.5561 27.7281C28.6113 27.772 28.6664 27.8049 28.7216 27.8488C28.7767 27.8817 28.8429 27.9256 28.898 27.9586C29.0193 28.0354 29.1407 28.1012 29.262 28.1671C29.3833 28.2439 29.5157 28.2988 29.637 28.3646C29.7693 28.4304 29.9017 28.4853 30.023 28.5512C30.2877 28.6719 30.5524 28.7816 30.8171 28.8804C31.0818 28.9791 31.3465 29.0779 31.6112 29.1547C31.876 29.2315 32.1296 29.3193 32.3723 29.3852C32.6149 29.451 32.8465 29.5169 33.0561 29.5717C33.4862 29.6815 33.8392 29.7693 34.0929 29.8241C34.3355 29.901 34.4899 29.9339 34.4899 29.9339Z" fill="#333333"/>
<path d="M36.5628 27.7506C36.5628 27.7506 30.0334 26.9054 28.9746 22.3174L36.5628 27.7506Z" fill="#FAFAFA"/>
<path d="M36.5628 27.7506C36.5628 27.7506 36.4084 27.7506 36.1327 27.7177C35.8569 27.6957 35.4709 27.6409 35.0187 27.5421C34.7871 27.4872 34.5444 27.4323 34.2797 27.3555C34.0261 27.2786 33.7503 27.1908 33.4746 27.0921C33.1989 26.9823 32.9121 26.8725 32.6364 26.7408C32.493 26.675 32.3606 26.5981 32.2172 26.5213C32.0739 26.4445 31.9415 26.3676 31.8092 26.2908C31.6768 26.214 31.5444 26.1152 31.4121 26.0274C31.2797 25.9395 31.1584 25.8408 31.0371 25.742C30.7945 25.5444 30.5628 25.3359 30.3643 25.1273C30.3092 25.0724 30.265 25.0175 30.2099 24.9627C30.1658 24.9078 30.1106 24.8529 30.0665 24.798C30.0224 24.7431 29.9783 24.6883 29.9342 24.6334C29.89 24.5785 29.857 24.5236 29.8128 24.4687C29.7687 24.4139 29.7356 24.359 29.7025 24.3041C29.6695 24.2492 29.6364 24.1943 29.6033 24.1394C29.5371 24.0297 29.4709 23.9199 29.4268 23.8102C29.3827 23.7004 29.3165 23.6016 29.2834 23.5028C29.2503 23.404 29.2062 23.3053 29.1731 23.2174C29.107 23.0308 29.0739 22.8772 29.0408 22.7455C28.9967 22.4711 28.9746 22.3284 28.9746 22.3284C28.9746 22.3284 29.0298 22.4711 29.129 22.7235C29.1842 22.8443 29.2503 22.9979 29.3386 23.1626C29.3827 23.2394 29.4268 23.3272 29.482 23.426C29.5261 23.5138 29.5923 23.6016 29.6584 23.7004C29.7136 23.7992 29.7908 23.887 29.857 23.9858C29.89 24.0297 29.9342 24.0846 29.9673 24.1394C30.0114 24.1834 30.0445 24.2382 30.0886 24.2821C30.1327 24.337 30.1768 24.3809 30.2099 24.4358C30.254 24.4797 30.2981 24.5346 30.3533 24.5785C30.3974 24.6224 30.4415 24.6773 30.4967 24.7322C30.5518 24.7761 30.5959 24.8309 30.6511 24.8749C30.8496 25.0724 31.0812 25.248 31.3128 25.4346C31.4342 25.5225 31.5555 25.6103 31.6768 25.6981C31.8092 25.7749 31.9305 25.8627 32.0628 25.9395C32.1952 26.0164 32.3165 26.0932 32.4489 26.17C32.5812 26.2469 32.7136 26.3127 32.8459 26.3786C32.9783 26.4445 33.1106 26.5103 33.243 26.5762C33.3753 26.642 33.5077 26.6969 33.64 26.7518C33.9047 26.8616 34.1584 26.9713 34.4011 27.0591C34.6437 27.1469 34.8863 27.2347 35.0959 27.3116C35.3165 27.3884 35.515 27.4543 35.6915 27.5091C35.868 27.564 36.0334 27.6079 36.1547 27.6518C36.4194 27.7067 36.5628 27.7506 36.5628 27.7506Z" fill="#333333"/>
<path d="M39.1985 25.1931C39.1985 25.1931 32.8566 23.854 31.8198 19.5513L39.1985 25.1931Z" fill="#FAFAFA"/>
<path d="M39.1987 25.1931C39.1987 25.1931 39.0443 25.1821 38.7795 25.1382C38.5148 25.0943 38.1398 25.0175 37.6987 24.8858C37.4781 24.8199 37.2354 24.7541 36.9928 24.6553C36.7391 24.5675 36.4854 24.4687 36.2207 24.3479C35.956 24.2272 35.6803 24.1065 35.4156 23.9638C35.2832 23.8869 35.1509 23.8211 35.0185 23.7333C34.8862 23.6564 34.7538 23.5686 34.6215 23.4918C34.3678 23.3162 34.1141 23.1296 33.8715 22.943C33.6399 22.7454 33.4193 22.5369 33.2208 22.3283C33.0222 22.1198 32.8458 21.8893 32.6913 21.6698C32.5369 21.4502 32.4046 21.2307 32.3053 21.0222C32.2502 20.9124 32.2061 20.8136 32.1619 20.7258C32.1288 20.627 32.0847 20.5282 32.0516 20.4404C31.9855 20.2648 31.9524 20.1002 31.9083 19.9794C31.8862 19.8477 31.8641 19.7379 31.8531 19.6721C31.8421 19.6062 31.8311 19.5623 31.8311 19.5623C31.8311 19.5623 31.8862 19.705 31.9855 19.9465C32.0186 20.0014 32.0516 20.0672 32.0847 20.1441C32.1178 20.2099 32.1509 20.2977 32.195 20.3746C32.2391 20.4514 32.2833 20.5392 32.3384 20.627C32.3936 20.7148 32.4487 20.8026 32.5149 20.9014C32.57 21.0002 32.6472 21.088 32.7134 21.1868C32.7796 21.2856 32.8678 21.3844 32.945 21.4722C33.0222 21.571 33.1105 21.6698 33.2097 21.7685C33.298 21.8673 33.3972 21.9661 33.4965 22.0649C33.5958 22.1637 33.706 22.2515 33.8053 22.3503C33.9156 22.4381 34.0259 22.5369 34.1362 22.6247C34.3678 22.8003 34.6105 22.9759 34.8531 23.1406C34.9744 23.2284 35.0957 23.3052 35.2281 23.382C35.3494 23.4589 35.4818 23.5357 35.6141 23.6125C35.7465 23.6894 35.8678 23.7552 36.0002 23.8211C36.1325 23.8869 36.2538 23.9528 36.3751 24.0187C36.6288 24.1394 36.8715 24.2601 37.1141 24.3699C37.3457 24.4797 37.5773 24.5784 37.7869 24.6663C37.9965 24.7541 38.195 24.8309 38.3604 24.8968C38.5369 24.9626 38.6803 25.0175 38.8126 25.0724C39.0553 25.1492 39.1987 25.1931 39.1987 25.1931Z" fill="#333333"/>
<path d="M41.7795 22.5579C41.7795 22.5579 37.445 21.592 35.5259 17.6406L41.7795 22.5579Z" fill="#FAFAFA"/>
<path d="M41.7797 22.5579C41.7797 22.5579 41.6474 22.5469 41.4268 22.503C41.2062 22.4591 40.8863 22.3933 40.5113 22.2615C40.3238 22.1957 40.1253 22.1298 39.9158 22.042C39.7062 21.9542 39.4966 21.8554 39.2761 21.7457C39.0555 21.6359 38.8349 21.5152 38.6253 21.3725C38.4047 21.2408 38.1952 21.0871 37.9856 20.9334C37.8864 20.8566 37.7761 20.7688 37.6768 20.6919C37.5775 20.6041 37.4783 20.5273 37.39 20.4285C37.2025 20.2529 37.0261 20.0663 36.8606 19.8907C36.6952 19.7041 36.5518 19.5175 36.4195 19.3419C36.3533 19.2541 36.2981 19.1663 36.232 19.0784C36.1768 18.9906 36.1217 18.9028 36.0775 18.815C35.9783 18.6504 35.89 18.4857 35.8239 18.343C35.7577 18.2003 35.7026 18.0796 35.6584 17.9699C35.5812 17.7613 35.5371 17.6406 35.5371 17.6406C35.5371 17.6406 35.6143 17.7503 35.7356 17.9369C35.8018 18.0247 35.879 18.1345 35.9673 18.2662C36.0114 18.3321 36.0665 18.3979 36.1217 18.4638C36.1768 18.5296 36.2209 18.6065 36.2871 18.6833C36.3423 18.7601 36.4084 18.837 36.4746 18.9138C36.5408 18.9906 36.607 19.0675 36.6842 19.1553C36.8275 19.3199 36.982 19.4846 37.1584 19.6492C37.3239 19.8139 37.5003 19.9785 37.6878 20.1431C37.7761 20.22 37.8753 20.2968 37.9746 20.3846C38.0739 20.4614 38.1731 20.5383 38.2724 20.6151C38.4709 20.7688 38.6694 20.9115 38.879 21.0542C39.0886 21.1969 39.2871 21.3176 39.4966 21.4493C39.6952 21.57 39.8937 21.6908 40.0922 21.7896C40.2797 21.8884 40.4672 21.9871 40.6327 22.0749C40.9746 22.2396 41.2613 22.3713 41.4709 22.4591C41.6584 22.514 41.7797 22.5579 41.7797 22.5579Z" fill="#333333"/>
<path d="M44.1399 20.2524C44.1399 20.2524 41.2502 19.6378 39.6841 16.6859L44.1399 20.2524Z" fill="#FAFAFA"/>
<path d="M44.1401 20.2524C44.1401 20.2524 44.0409 20.2524 43.8865 20.2304C43.8093 20.2195 43.71 20.1975 43.5997 20.1756C43.4894 20.1536 43.3571 20.1207 43.2247 20.0768C43.0924 20.0329 42.949 19.978 42.7946 19.9232C42.6512 19.8573 42.4857 19.7915 42.3313 19.7037C42.1769 19.6159 42.0115 19.5281 41.8571 19.4293C41.7799 19.3745 41.7027 19.3306 41.6255 19.2757C41.5482 19.2208 41.471 19.155 41.4049 19.1001C41.2505 18.9904 41.1181 18.8587 40.9857 18.727C40.9527 18.6941 40.9196 18.6612 40.8865 18.6282C40.8534 18.5953 40.8203 18.5624 40.7982 18.5295C40.7431 18.4636 40.6769 18.3978 40.6218 18.3319C40.5666 18.2661 40.5115 18.2003 40.4563 18.1234C40.4012 18.0576 40.3571 17.9917 40.313 17.9259C40.2137 17.7942 40.1475 17.6625 40.0703 17.5418C40.0041 17.4211 39.938 17.3114 39.8938 17.2016C39.8497 17.0919 39.8166 17.0041 39.7835 16.9273C39.7284 16.7736 39.6953 16.6859 39.6953 16.6859C39.6953 16.6859 39.7615 16.7517 39.8608 16.8834C39.9159 16.9492 39.971 17.026 40.0372 17.1138C40.0703 17.1577 40.1144 17.2016 40.1475 17.2455C40.1916 17.2894 40.2357 17.3443 40.2799 17.3882C40.3681 17.4869 40.4563 17.6077 40.5666 17.7174C40.6218 17.7723 40.6769 17.8271 40.7321 17.893C40.7541 17.9259 40.7872 17.9479 40.8203 17.9808C40.8534 18.0137 40.8755 18.0356 40.9085 18.0686C41.0299 18.1783 41.1512 18.31 41.2835 18.4197C41.4159 18.5295 41.5482 18.6612 41.6916 18.7599L41.9012 18.9245C41.9784 18.9794 42.0446 19.0233 42.1107 19.0782C42.2541 19.1879 42.3975 19.2757 42.5409 19.3745C42.6843 19.4623 42.8166 19.55 42.949 19.6269C43.0813 19.7037 43.2026 19.7805 43.324 19.8463C43.5666 19.978 43.7651 20.0768 43.9085 20.1536C43.9857 20.1865 44.0409 20.2195 44.074 20.2304C44.1181 20.2524 44.1401 20.2524 44.1401 20.2524Z" fill="#333333"/>
<path d="M46.6108 18.3429C46.6108 18.3429 44.4601 18.6941 43.1145 16.7627L46.6108 18.3429Z" fill="#FAFAFA"/>
<path d="M46.611 18.343C46.611 18.343 46.5558 18.3759 46.4455 18.3978C46.3904 18.4088 46.3242 18.4307 46.247 18.4417C46.1698 18.4527 46.0816 18.4746 45.9823 18.4746C45.883 18.4856 45.7727 18.4856 45.6624 18.4856C45.5521 18.4856 45.4308 18.4637 45.3095 18.4527C45.2433 18.4417 45.1882 18.4307 45.122 18.4198C45.0558 18.4088 45.0007 18.3869 44.9345 18.3759C44.8683 18.3539 44.8132 18.343 44.747 18.321L44.5595 18.2442C44.4382 18.1893 44.3169 18.1235 44.2066 18.0576L44.1183 18.0028L44.0411 17.9479C43.986 17.904 43.9419 17.8711 43.8867 17.8272C43.8316 17.7943 43.7875 17.7504 43.7544 17.7065C43.7102 17.6626 43.6661 17.6187 43.633 17.5858C43.5558 17.5089 43.4897 17.4211 43.4345 17.3443C43.3794 17.2675 43.3242 17.1907 43.2911 17.1248C43.258 17.059 43.225 16.9932 43.2029 16.9383C43.1588 16.8395 43.1367 16.7737 43.1367 16.7737C43.1367 16.7737 43.1919 16.8176 43.2801 16.8834C43.3242 16.9163 43.3794 16.9602 43.4345 17.0151C43.4566 17.0371 43.4897 17.07 43.5338 17.0919C43.5669 17.1139 43.6 17.1468 43.6441 17.1687C43.7213 17.2236 43.7875 17.2895 43.8867 17.3443C43.9308 17.3773 43.975 17.3992 44.0191 17.4321C44.0411 17.4431 44.0632 17.465 44.0852 17.476C44.1073 17.487 44.1294 17.5089 44.1625 17.5199C44.2617 17.5748 44.3499 17.6406 44.4602 17.6955C44.5705 17.7504 44.6698 17.8052 44.7801 17.8491L44.9455 17.9259C45.0007 17.9479 45.0558 17.9698 45.111 17.9918C45.2213 18.0357 45.3316 18.0686 45.4419 18.1015C45.5521 18.1345 45.6514 18.1674 45.7617 18.1893C45.861 18.2113 45.9602 18.2332 46.0485 18.2552C46.1367 18.2771 46.2249 18.2881 46.3021 18.31C46.3794 18.321 46.4455 18.332 46.5007 18.343C46.5448 18.332 46.611 18.343 46.611 18.343Z" fill="#333333"/>
<path d="M40.6653 4.85421L25.6433 0.364945C25.4338 0.299087 25.2132 0.299087 25.0036 0.364945L9.97063 4.85421C9.49636 4.9969 9.17651 5.43595 9.17651 5.9189V22.3613C9.17651 24.5016 10.0478 26.6859 11.7684 28.8701C13.0809 30.5385 14.8897 32.2069 17.1618 33.8424C20.9669 36.5864 24.7169 38.2658 24.8713 38.3316C25.0147 38.3975 25.1691 38.4304 25.3345 38.4304C25.4889 38.4304 25.6433 38.3975 25.7977 38.3316C25.9522 38.2658 29.7021 36.5754 33.5073 33.8424C35.7683 32.2069 37.5881 30.5385 38.9006 28.8701C40.6212 26.6859 41.4925 24.5016 41.4925 22.3613V5.9189C41.4705 5.43595 41.1396 4.9969 40.6653 4.85421Z" fill="#FAFAFA"/>
<path d="M25.3234 38.7707C25.1138 38.7707 24.9153 38.7268 24.7278 38.639C24.5734 38.5731 20.7903 36.8718 16.9521 34.1058C14.658 32.4594 12.8271 30.7581 11.4925 29.0787C9.72785 26.8396 8.83447 24.5785 8.83447 22.3613V5.91892C8.83447 5.27132 9.25359 4.72251 9.87123 4.53592L24.9042 0.0576251C25.18 -0.0192084 25.4667 -0.0192084 25.7425 0.0576251L40.7644 4.54689C41.3821 4.73349 41.8012 5.29328 41.8012 5.9299V22.3723C41.8012 24.5894 40.9078 26.8505 39.1431 29.0897C37.8086 30.78 35.9777 32.4704 33.6836 34.1168C29.8454 36.8828 26.0733 38.5731 25.9079 38.65C25.7314 38.7268 25.5219 38.7707 25.3234 38.7707ZM25.3234 0.65034C25.2461 0.65034 25.1689 0.661317 25.0917 0.683269L10.0698 5.17254C9.72785 5.27132 9.50726 5.57866 9.50726 5.91892V22.3613C9.50726 24.4248 10.3565 26.5432 12.022 28.6726C13.3124 30.3081 15.1102 31.9655 17.3491 33.579C21.1322 36.3011 24.8491 37.9694 25.0035 38.0353C25.2131 38.1231 25.4447 38.1231 25.6542 38.0353C25.8086 37.9694 29.5255 36.3011 33.3086 33.579C35.5476 31.9655 37.3453 30.319 38.6358 28.6726C40.3012 26.5542 41.1505 24.4358 41.1505 22.3613V5.91892C41.1505 5.56768 40.9189 5.26035 40.588 5.16156L25.5439 0.683269C25.4778 0.661317 25.4006 0.65034 25.3234 0.65034Z" fill="#333333"/>
<path d="M25.3233 36.553C25.1358 36.553 24.9594 36.5091 24.7829 36.4433C24.6395 36.3774 21.2976 34.8847 17.9116 32.437C15.8822 30.9771 14.2609 29.4734 13.0807 27.9806C11.5146 25.9939 10.7205 23.9853 10.7205 22.0205V7.48805C10.7205 6.90631 11.0955 6.39043 11.658 6.22579L24.9373 2.26337C25.191 2.18654 25.4446 2.18654 25.6983 2.26337L38.9777 6.22579C39.5402 6.39043 39.9152 6.89533 39.9152 7.48805V22.0205C39.9152 23.9853 39.121 25.9939 37.5549 27.9806C36.3747 29.4734 34.7534 30.9771 32.724 32.437C29.327 34.8847 25.9851 36.3774 25.8527 36.4433C25.6873 36.5201 25.5108 36.553 25.3233 36.553ZM25.3233 2.86707C25.2571 2.86707 25.191 2.87804 25.1358 2.89999L11.8565 6.85143C11.5807 6.93924 11.3822 7.19169 11.3822 7.47707V22.0096C11.3822 23.8206 12.1322 25.6866 13.5991 27.5635C14.7351 29.0124 16.3234 30.4722 18.2976 31.8882C21.6395 34.292 24.9152 35.7628 25.0586 35.8286C25.2351 35.9055 25.4226 35.9055 25.5991 35.8286C25.7424 35.7628 29.0182 34.292 32.36 31.8882C34.3343 30.4613 35.9225 29.0124 37.0585 27.5635C38.5255 25.6976 39.2754 23.8316 39.2754 22.0096V7.48805C39.2754 7.19169 39.088 6.93924 38.8012 6.86241L25.5108 2.88902C25.4446 2.87804 25.3895 2.86707 25.3233 2.86707Z" fill="#333333"/>
<path d="M34.5881 15.3146V21.2527H28.522V27.2896H22.5661V21.2527H16.5V15.3146H22.5661V9.27765H28.522V15.3146H34.5881Z" fill="#333333"/>
<path d="M39.5954 27.3775C39.5844 27.3884 39.5623 27.4104 39.5513 27.4214C38.7461 28.1568 37.952 28.8922 37.1469 29.6276C37.1138 29.6605 37.0807 29.6825 37.0476 29.7154C36.6175 30.1105 36.1763 30.5166 35.7462 30.9118C35.5807 31.0655 35.4153 31.2191 35.2609 31.3618C35.0954 31.5045 34.941 31.6582 34.7866 31.8009C33.805 32.7009 32.9006 33.5461 32.0624 34.3364C32.6028 33.9851 33.1653 33.601 33.7278 33.1948C34.0918 32.9314 34.4447 32.668 34.7866 32.4045C35.8785 31.5594 36.8491 30.7032 37.6984 29.8361C37.7094 29.8251 37.7314 29.8032 37.7425 29.7812C37.9189 29.5946 38.0954 29.419 38.2609 29.2324C38.2939 29.1995 38.327 29.1556 38.3601 29.1227C38.3711 29.1117 38.3711 29.1007 38.3822 29.0897C38.6358 28.7934 38.8895 28.508 39.1101 28.2116C39.2314 28.069 39.3417 27.9153 39.452 27.7726C39.5403 27.6519 39.6175 27.5421 39.7057 27.4214C39.7167 27.4104 39.7167 27.4104 39.7167 27.3994C39.7829 27.3116 39.8381 27.2238 39.8932 27.136C39.9042 27.114 39.9263 27.0921 39.9373 27.0591C39.816 27.1689 39.7057 27.2787 39.5954 27.3775ZM15.8161 31.3618C15.6507 31.2081 15.4963 31.0655 15.3308 30.9118C14.8897 30.5166 14.4595 30.1105 14.0294 29.7154C13.9963 29.6825 13.9632 29.6605 13.9301 29.6276C13.125 28.8922 12.3308 28.1568 11.5257 27.4214C11.5147 27.4104 11.4926 27.3994 11.4816 27.3775C11.3823 27.2896 11.2941 27.2018 11.1948 27.114C11.2059 27.136 11.2279 27.1579 11.2389 27.1799C11.2831 27.2567 11.3382 27.3226 11.3823 27.3994C11.3934 27.4104 11.3934 27.4214 11.4044 27.4214C11.5036 27.564 11.6029 27.6958 11.7022 27.8385C11.8014 27.9592 11.8897 28.0909 11.9889 28.2116C12.2426 28.5409 12.5183 28.8592 12.8161 29.1885C12.8603 29.2324 12.9044 29.2873 12.9485 29.3312C13.0808 29.4739 13.2132 29.6056 13.3455 29.7483C13.3566 29.7593 13.3786 29.7812 13.3897 29.7922C14.2058 30.6264 15.1323 31.4496 16.1801 32.2728C16.5661 32.5692 16.9632 32.8655 17.3713 33.1619C17.9117 33.5461 18.4411 33.9193 18.9705 34.2595C18.1433 33.4802 17.261 32.657 16.2904 31.7679C16.136 31.6582 15.9705 31.5155 15.8161 31.3618Z" fill="#333333"/>
<path d="M27.1987 39.7805C26.6362 39.7805 25.8862 39.7475 25.5112 39.5609L25.3899 39.5061L25.3789 39.3743C25.3678 39.1768 25.2024 34.6216 27.5075 31.3617C29.7354 28.2225 36.0332 25.5443 39.6398 25.5443C39.7832 25.5443 39.9266 25.5443 40.0589 25.5553C40.2575 25.5663 40.4449 25.5772 40.6435 25.5772C43.5001 25.5772 45.6398 24.2601 45.8714 24.1064L45.8934 24.0955L46.1361 24.4577L46.114 24.4796C45.9265 24.6004 44.2611 25.7199 42.5626 27.5969C41.6472 28.6067 41.206 29.6055 40.6435 30.8788C40.1141 32.0752 39.4523 33.557 38.1839 35.5107C36.1214 38.6389 30.4854 39.7805 27.1987 39.7805Z" fill="#FAFAFA"/>
<path d="M46.0144 24.2821C46.0144 24.2821 46.0034 24.293 45.9923 24.293C46.0034 24.2821 46.0144 24.2821 46.0144 24.2821ZM45.9923 24.293C45.7717 24.4357 44.1063 25.5553 42.3968 27.4432C40.5659 29.4628 40.599 31.4056 37.9961 35.379C35.9336 38.5292 30.1321 39.5719 27.1983 39.5719C26.4263 39.5719 25.8638 39.5061 25.5991 39.3744C25.5991 39.3744 25.4005 34.7314 27.6946 31.5044C29.9005 28.3981 36.1431 25.7748 39.6394 25.7748C39.7828 25.7748 39.9152 25.7748 40.0365 25.7858C40.235 25.7968 40.4446 25.8078 40.6431 25.8078C43.5548 25.7968 45.7387 24.4577 45.9923 24.293ZM45.7717 23.9089L45.7497 23.9308C45.5181 24.0845 43.4335 25.3687 40.6431 25.3687C40.4556 25.3687 40.2571 25.3577 40.0696 25.3468C39.9372 25.3358 39.7828 25.3358 39.6394 25.3358C37.8527 25.3358 35.3711 25.9834 32.9998 27.07C30.4189 28.2555 28.4005 29.7372 27.3307 31.241C24.9704 34.5558 25.1469 39.1878 25.1579 39.3853L25.1689 39.6488L25.4116 39.7585C25.8197 39.9561 26.6138 40 27.1983 40C29.0071 40 31.202 39.6488 33.0549 39.067C35.5696 38.2767 37.4005 37.0803 38.36 35.6095C39.6394 33.6448 40.3012 32.152 40.8416 30.9446C41.3931 29.6933 41.8232 28.7165 42.7166 27.7286C44.3931 25.8846 46.0365 24.776 46.2239 24.6553C46.246 24.6443 46.257 24.6333 46.257 24.6333L45.7717 23.9089Z" fill="#333333"/>
<path d="M39.0111 28.2546C33.8935 30.384 29.7685 35.0488 26.0186 39.121L39.0111 28.2546Z" fill="#FAFAFA"/>
<path d="M38.9226 28.1119C33.6175 30.3511 29.7021 34.8623 25.8969 39.0003C25.7535 39.154 25.9852 39.3845 26.1285 39.2308C29.9226 35.1147 33.805 30.6255 39.088 28.3973C39.2866 28.3095 39.1211 28.0241 38.9226 28.1119Z" fill="#333333"/>
<path d="M23.3053 39.7476C20.0186 39.7476 14.3826 38.6061 12.3201 35.4559C11.0407 33.5131 10.3899 32.0204 9.86054 30.8239C9.29804 29.5617 8.85687 28.5628 7.94143 27.5421C6.24291 25.6651 4.57748 24.5456 4.38998 24.4248L4.36792 24.4029L4.61057 24.0406L4.63262 24.0516C4.86424 24.2053 7.00393 25.5224 9.86054 25.5224C10.0591 25.5224 10.2576 25.5115 10.4451 25.5005C10.5774 25.4895 10.7208 25.4895 10.8642 25.4895C14.4598 25.4895 20.7686 28.1787 22.9965 31.3069C25.3127 34.5668 25.1362 39.122 25.1252 39.3195L25.1141 39.4512L24.9928 39.5061C24.6178 39.7037 23.8678 39.7476 23.3053 39.7476Z" fill="#FAFAFA"/>
<path d="M4.478 24.2382C4.478 24.2382 4.48903 24.2382 4.50006 24.2492C4.48903 24.2382 4.478 24.2382 4.478 24.2382ZM4.51109 24.2492C4.76476 24.4139 6.94857 25.753 9.86032 25.753C10.0588 25.753 10.2574 25.742 10.4669 25.731C10.5993 25.72 10.7316 25.72 10.864 25.72C14.3603 25.72 20.6029 28.3324 22.8088 31.4496C25.1029 34.6876 24.9044 39.3195 24.9044 39.3195C24.6397 39.4403 24.0772 39.5171 23.3051 39.5171C20.3713 39.5171 14.5699 38.4744 12.5074 35.3242C9.90444 31.3508 9.93753 29.419 8.10665 27.3884C6.3971 25.5225 4.73167 24.3919 4.51109 24.2492ZM4.72064 23.8651L4.23535 24.6005C4.23535 24.6005 4.24638 24.6114 4.26844 24.6224C4.45594 24.7431 6.09931 25.8517 7.77577 27.6957C8.66915 28.6836 9.0993 29.6715 9.65076 30.9118C10.1802 32.1192 10.8419 33.6119 12.1324 35.5767C13.0919 37.0475 14.9338 38.2439 17.4375 39.0342C19.2904 39.6159 21.4853 39.9671 23.2941 39.9671C23.8786 39.9671 24.6727 39.9232 25.0808 39.7257L25.3235 39.6159L25.3345 39.3525C25.3455 39.1549 25.511 34.5229 23.1617 31.2081C22.0919 29.7044 20.0845 28.2226 17.4926 27.0372C15.1213 25.9505 12.6397 25.3029 10.853 25.3029C10.6986 25.3029 10.5552 25.3029 10.4228 25.3139C10.2353 25.3249 10.0368 25.3359 9.84929 25.3359C7.05887 25.3359 4.97432 24.0516 4.7427 23.898L4.72064 23.8651Z" fill="#333333"/>
<path d="M11.4932 28.2108C16.6108 30.3401 20.7358 35.005 24.4857 39.0772L11.4932 28.2108Z" fill="#FAFAFA"/>
<path d="M11.4047 28.3535C16.6878 30.5816 20.5701 35.0709 24.3642 39.187C24.5076 39.3407 24.7392 39.1102 24.5959 38.9565C20.7907 34.8185 16.8753 30.3072 11.5702 28.0681C11.3827 27.9803 11.2062 28.2657 11.4047 28.3535Z" fill="#333333"/>
</svg>
